<svg class="burate" viewBox="0 0 707 4627" fill="none" xmlns="http://www.w3.org/2000/svg">
<g id="layer1">
<g id="path2218">
<path d="M187.856 3295.1V3125.17C170.515 3116.47 151.227 3119.1 151.469 3064.19V45.8065C116.03 32.9534 107.4 -0.439758 152.151 0.627827L428.687 2.0928C472.121 -0.439757 463.491 32.9534 428.052 45.8065V3064.19C428.294 3119.1 409.006 3116.47 391.665 3125.17V3295.1" fill="url(#paint0_linear_126_275)"/>
<path d="M187.856 3295.1V3125.17C170.515 3116.47 151.227 3119.1 151.469 3064.19V45.8065C116.03 32.9534 107.4 -0.439758 152.151 0.627827L428.687 2.0928C472.121 -0.439757 463.491 32.9534 428.052 45.8065V3064.19C428.294 3119.1 409.006 3116.47 391.665 3125.17V3295.1" stroke="black" stroke-width="1.5"/>
</g>
<path id="path2225" d="M155.354 297.335H426.696" stroke="black" stroke-width="1.5"/>
<path id="path2235" d="M149.723 350.417H251.241" stroke="black" stroke-width="1.5"/>
<path id="path2237" d="M149.723 403.498H251.241" stroke="black" stroke-width="1.5"/>
<path id="path2239" d="M149.723 456.579H251.241" stroke="black" stroke-width="1.5"/>
<path id="path2241" d="M149.723 509.661H251.241" stroke="black" stroke-width="1.5"/>
<path id="path2243" d="M156.976 562.742H340.311" stroke="black" stroke-width="1.5"/>
<path id="path2245" d="M149.723 621.096H251.241" stroke="black" stroke-width="1.5"/>
<path id="path2247" d="M149.723 674.177H251.241" stroke="black" stroke-width="1.5"/>
<path id="path2249" d="M149.723 727.259H251.241" stroke="black" stroke-width="1.5"/>
<path id="path2251" d="M149.723 780.34H251.241" stroke="black" stroke-width="1.5"/>
<path id="path2253" d="M160.892 833.421H424.005" stroke="black" stroke-width="1.5"/>
<path id="path2255" d="M149.723 889.173H251.241" stroke="black" stroke-width="1.5"/>
<path id="path2257" d="M149.723 942.255H251.241" stroke="black" stroke-width="1.5"/>
<path id="path2259" d="M149.723 995.336H251.241" stroke="black" stroke-width="1.5"/>
<path id="path2261" d="M149.723 1048.42H251.241" stroke="black" stroke-width="1.5"/>
<path id="path2263" d="M156.976 1101.5H340.311" stroke="black" stroke-width="1.5"/>
<path id="path2265" d="M149.723 1159.85H251.241" stroke="black" stroke-width="1.5"/>
<path id="path2267" d="M149.723 1212.93H251.241" stroke="black" stroke-width="1.5"/>
<path id="path2269" d="M149.723 1266.02H251.241" stroke="black" stroke-width="1.5"/>
<path id="path2271" d="M149.723 1319.1H251.241" stroke="black" stroke-width="1.5"/>
<path id="path2273" d="M161.04 1372.18H427.164" stroke="black" stroke-width="1.5"/>
<path id="path2275" d="M149.723 1429.23H251.241" stroke="black" stroke-width="1.5"/>
<path id="path2277" d="M149.723 1482.31H251.241" stroke="black" stroke-width="1.5"/>
<path id="path2279" d="M149.723 1535.39H251.241" stroke="black" stroke-width="1.5"/>
<path id="path2281" d="M149.723 1588.47H251.241" stroke="black" stroke-width="1.5"/>
<path id="path2283" d="M156.976 1641.56H340.311" stroke="black" stroke-width="1.5"/>
<path id="path2285" d="M149.723 1699.91H251.241" stroke="black" stroke-width="1.5"/>
<path id="path2287" d="M149.723 1752.99H251.241" stroke="black" stroke-width="1.5"/>
<path id="path2289" d="M149.723 1806.07H251.241" stroke="black" stroke-width="1.5"/>
<path id="path2291" d="M149.723 1859.15H251.241" stroke="black" stroke-width="1.5"/>
<path id="path2293" d="M160.892 1912.24H424.005" stroke="black" stroke-width="1.5"/>
<path id="path2295" d="M149.723 1969.29H251.241" stroke="black" stroke-width="1.5"/>
<path id="path2297" d="M149.723 2022.37H251.241" stroke="black" stroke-width="1.5"/>
<path id="path2299" d="M149.723 2075.45H251.241" stroke="black" stroke-width="1.5"/>
<path id="path2301" d="M149.723 2128.53H251.241" stroke="black" stroke-width="1.5"/>
<path id="path2303" d="M156.976 2181.61H340.311" stroke="black" stroke-width="1.5"/>
<path id="path2305" d="M149.723 2234.76H251.241" stroke="black" stroke-width="1.5"/>
<path id="path2307" d="M149.723 2287.84H251.241" stroke="black" stroke-width="1.5"/>
<path id="path2309" d="M149.723 2340.93H251.241" stroke="black" stroke-width="1.5"/>
<path id="path2311" d="M149.723 2394.01H251.241" stroke="black" stroke-width="1.5"/>
<path id="path2313" d="M161.052 2447.09H423.845" stroke="black" stroke-width="1.5"/>
<path id="path2315" d="M149.723 2506.74H251.241" stroke="black" stroke-width="1.5"/>
<path id="path2317" d="M149.723 2559.82H251.241" stroke="black" stroke-width="1.5"/>
<path id="path2319" d="M149.723 2612.91H251.241" stroke="black" stroke-width="1.5"/>
<path id="path2321" d="M149.723 2665.99H251.241" stroke="black" stroke-width="1.5"/>
<path id="path2323" d="M156.976 2719.07H340.311" stroke="black" stroke-width="1.5"/>
<path id="path2325" d="M149.723 2774.82H251.241" stroke="black" stroke-width="1.5"/>
<path id="path2327" d="M149.723 2827.9H251.241" stroke="black" stroke-width="1.5"/>
<path id="path2329" d="M149.723 2880.98H251.241" stroke="black" stroke-width="1.5"/>
<path id="path2331" d="M149.723 2934.06H251.241" stroke="black" stroke-width="1.5"/>
<path id="path2333" d="M160.892 2987.15H424.005" stroke="black" stroke-width="1.5"/>
<g id="Group 6">
<path id="0" d="M348.265 205.789V216.629C348.265 222.456 347.744 227.371 346.702 231.375C345.66 235.379 344.163 238.602 342.21 241.043C340.257 243.484 337.897 245.258 335.13 246.365C332.396 247.439 329.303 247.977 325.853 247.977C323.118 247.977 320.595 247.635 318.284 246.951C315.973 246.268 313.89 245.177 312.034 243.68C310.211 242.15 308.649 240.164 307.347 237.723C306.045 235.281 305.052 232.319 304.368 228.836C303.685 225.353 303.343 221.284 303.343 216.629V205.789C303.343 199.962 303.864 195.079 304.905 191.141C305.979 187.202 307.493 184.044 309.446 181.668C311.399 179.259 313.743 177.534 316.478 176.492C319.244 175.451 322.337 174.93 325.755 174.93C328.522 174.93 331.061 175.271 333.372 175.955C335.716 176.606 337.799 177.664 339.622 179.129C341.445 180.561 342.991 182.482 344.261 184.891C345.563 187.267 346.556 190.18 347.239 193.631C347.923 197.081 348.265 201.134 348.265 205.789ZM339.183 218.094V204.275C339.183 201.085 338.987 198.286 338.597 195.877C338.239 193.436 337.701 191.352 336.985 189.627C336.269 187.902 335.358 186.502 334.251 185.428C333.177 184.354 331.924 183.572 330.491 183.084C329.091 182.563 327.513 182.303 325.755 182.303C323.606 182.303 321.702 182.71 320.042 183.523C318.382 184.305 316.982 185.558 315.843 187.283C314.736 189.008 313.89 191.271 313.304 194.07C312.718 196.87 312.425 200.271 312.425 204.275V218.094C312.425 221.284 312.604 224.1 312.962 226.541C313.353 228.982 313.922 231.098 314.671 232.889C315.42 234.646 316.331 236.095 317.405 237.234C318.479 238.374 319.716 239.22 321.116 239.773C322.549 240.294 324.127 240.555 325.853 240.555C328.066 240.555 330.003 240.132 331.663 239.285C333.323 238.439 334.707 237.12 335.813 235.33C336.953 233.507 337.799 231.18 338.353 228.348C338.906 225.483 339.183 222.065 339.183 218.094Z" fill="black"/>
<path id="10" d="M333.323 707.041V778.526H324.29V718.32L306.077 724.961V716.807L331.907 707.041H333.323ZM404.515 737.315V748.154C404.515 753.981 403.994 758.897 402.952 762.901C401.91 766.904 400.413 770.127 398.46 772.568C396.507 775.01 394.147 776.784 391.38 777.891C388.646 778.965 385.553 779.502 382.103 779.502C379.368 779.502 376.845 779.16 374.534 778.477C372.223 777.793 370.14 776.703 368.284 775.205C366.461 773.675 364.899 771.69 363.597 769.248C362.295 766.807 361.302 763.845 360.618 760.361C359.935 756.878 359.593 752.809 359.593 748.154V737.315C359.593 731.488 360.114 726.605 361.155 722.666C362.229 718.727 363.743 715.57 365.696 713.193C367.649 710.785 369.993 709.059 372.728 708.018C375.494 706.976 378.587 706.455 382.005 706.455C384.772 706.455 387.311 706.797 389.622 707.481C391.966 708.132 394.049 709.19 395.872 710.654C397.695 712.087 399.241 714.007 400.511 716.416C401.813 718.792 402.806 721.706 403.489 725.156C404.173 728.607 404.515 732.66 404.515 737.315ZM395.433 749.619V735.801C395.433 732.611 395.237 729.811 394.847 727.402C394.489 724.961 393.951 722.878 393.235 721.152C392.519 719.427 391.608 718.027 390.501 716.953C389.427 715.879 388.174 715.098 386.741 714.609C385.341 714.089 383.763 713.828 382.005 713.828C379.856 713.828 377.952 714.235 376.292 715.049C374.632 715.83 373.232 717.083 372.093 718.809C370.986 720.534 370.14 722.796 369.554 725.596C368.968 728.395 368.675 731.797 368.675 735.801V749.619C368.675 752.809 368.854 755.625 369.212 758.067C369.603 760.508 370.172 762.624 370.921 764.414C371.67 766.172 372.581 767.621 373.655 768.76C374.729 769.899 375.966 770.746 377.366 771.299C378.799 771.82 380.377 772.08 382.103 772.08C384.316 772.08 386.253 771.657 387.913 770.811C389.573 769.964 390.957 768.646 392.063 766.856C393.203 765.033 394.049 762.705 394.603 759.873C395.156 757.009 395.433 753.591 395.433 749.619Z" fill="black"/>
<path id="20" d="M349.49 1305.62V1313.04H302.957V1306.54L326.248 1280.62C329.113 1277.43 331.326 1274.72 332.889 1272.51C334.484 1270.26 335.59 1268.26 336.209 1266.5C336.86 1264.71 337.186 1262.89 337.186 1261.04C337.186 1258.69 336.697 1256.58 335.721 1254.69C334.777 1252.77 333.377 1251.24 331.521 1250.1C329.666 1248.96 327.42 1248.39 324.783 1248.39C321.626 1248.39 318.989 1249.01 316.873 1250.24C314.79 1251.45 313.227 1253.14 312.186 1255.32C311.144 1257.5 310.623 1260.01 310.623 1262.84H301.59C301.59 1258.84 302.469 1255.18 304.227 1251.86C305.984 1248.54 308.589 1245.9 312.039 1243.95C315.49 1241.96 319.738 1240.97 324.783 1240.97C329.275 1240.97 333.117 1241.76 336.307 1243.36C339.497 1244.92 341.938 1247.14 343.631 1250C345.356 1252.83 346.219 1256.15 346.219 1259.96C346.219 1262.04 345.861 1264.16 345.145 1266.31C344.461 1268.42 343.501 1270.54 342.264 1272.66C341.059 1274.77 339.643 1276.86 338.016 1278.91C336.421 1280.96 334.712 1282.98 332.889 1284.96L313.846 1305.62H349.49ZM403.787 1271.83V1282.67C403.787 1288.49 403.266 1293.41 402.225 1297.41C401.183 1301.42 399.686 1304.64 397.732 1307.08C395.779 1309.52 393.419 1311.3 390.652 1312.4C387.918 1313.48 384.826 1314.01 381.375 1314.01C378.641 1314.01 376.118 1313.67 373.807 1312.99C371.495 1312.3 369.412 1311.21 367.557 1309.72C365.734 1308.19 364.171 1306.2 362.869 1303.76C361.567 1301.32 360.574 1298.36 359.891 1294.87C359.207 1291.39 358.865 1287.32 358.865 1282.67V1271.83C358.865 1266 359.386 1261.12 360.428 1257.18C361.502 1253.24 363.016 1250.08 364.969 1247.71C366.922 1245.3 369.266 1243.57 372 1242.53C374.767 1241.49 377.859 1240.97 381.277 1240.97C384.044 1240.97 386.583 1241.31 388.895 1241.99C391.238 1242.64 393.322 1243.7 395.145 1245.17C396.967 1246.6 398.514 1248.52 399.783 1250.93C401.085 1253.3 402.078 1256.22 402.762 1259.67C403.445 1263.12 403.787 1267.17 403.787 1271.83ZM394.705 1284.13V1270.31C394.705 1267.12 394.51 1264.32 394.119 1261.91C393.761 1259.47 393.224 1257.39 392.508 1255.66C391.792 1253.94 390.88 1252.54 389.773 1251.46C388.699 1250.39 387.446 1249.61 386.014 1249.12C384.614 1248.6 383.035 1248.34 381.277 1248.34C379.129 1248.34 377.225 1248.75 375.564 1249.56C373.904 1250.34 372.505 1251.6 371.365 1253.32C370.258 1255.05 369.412 1257.31 368.826 1260.11C368.24 1262.91 367.947 1266.31 367.947 1270.31V1284.13C367.947 1287.32 368.126 1290.14 368.484 1292.58C368.875 1295.02 369.445 1297.14 370.193 1298.93C370.942 1300.68 371.854 1302.13 372.928 1303.27C374.002 1304.41 375.239 1305.26 376.639 1305.81C378.071 1306.33 379.65 1306.59 381.375 1306.59C383.589 1306.59 385.525 1306.17 387.186 1305.32C388.846 1304.48 390.229 1303.16 391.336 1301.37C392.475 1299.54 393.322 1297.22 393.875 1294.38C394.428 1291.52 394.705 1288.1 394.705 1284.13Z" fill="black"/>
<path id="30" d="M316.334 1807.56H322.779C325.937 1807.56 328.541 1807.04 330.592 1806C332.675 1804.92 334.221 1803.47 335.23 1801.65C336.272 1799.79 336.793 1797.71 336.793 1795.4C336.793 1792.67 336.337 1790.37 335.426 1788.52C334.514 1786.66 333.147 1785.26 331.324 1784.32C329.501 1783.37 327.19 1782.9 324.391 1782.9C321.852 1782.9 319.605 1783.4 317.652 1784.41C315.732 1785.39 314.218 1786.79 313.111 1788.61C312.037 1790.44 311.5 1792.58 311.5 1795.06H302.467C302.467 1791.45 303.378 1788.16 305.201 1785.2C307.024 1782.23 309.579 1779.87 312.867 1778.12C316.188 1776.36 320.029 1775.48 324.391 1775.48C328.688 1775.48 332.447 1776.24 335.67 1777.77C338.893 1779.27 341.399 1781.52 343.189 1784.51C344.98 1787.47 345.875 1791.17 345.875 1795.6C345.875 1797.39 345.452 1799.31 344.605 1801.36C343.792 1803.38 342.506 1805.26 340.748 1807.02C339.023 1808.78 336.777 1810.23 334.01 1811.37C331.243 1812.47 327.923 1813.03 324.049 1813.03H316.334V1807.56ZM316.334 1814.98V1809.56H324.049C328.574 1809.56 332.317 1810.1 335.279 1811.17C338.242 1812.25 340.569 1813.68 342.262 1815.47C343.987 1817.26 345.191 1819.23 345.875 1821.38C346.591 1823.49 346.949 1825.61 346.949 1827.72C346.949 1831.04 346.38 1833.99 345.24 1836.56C344.133 1839.13 342.555 1841.31 340.504 1843.11C338.486 1844.9 336.109 1846.25 333.375 1847.16C330.641 1848.07 327.662 1848.53 324.439 1848.53C321.347 1848.53 318.434 1848.09 315.699 1847.21C312.997 1846.33 310.605 1845.06 308.521 1843.4C306.438 1841.71 304.811 1839.64 303.639 1837.2C302.467 1834.72 301.881 1831.91 301.881 1828.75H310.914C310.914 1831.22 311.451 1833.39 312.525 1835.24C313.632 1837.1 315.195 1838.55 317.213 1839.59C319.264 1840.6 321.673 1841.1 324.439 1841.1C327.206 1841.1 329.583 1840.63 331.568 1839.69C333.587 1838.71 335.133 1837.25 336.207 1835.29C337.314 1833.34 337.867 1830.88 337.867 1827.92C337.867 1824.96 337.249 1822.53 336.012 1820.64C334.775 1818.72 333.017 1817.31 330.738 1816.4C328.492 1815.45 325.839 1814.98 322.779 1814.98H316.334ZM404.029 1806.34V1817.18C404.029 1823 403.508 1827.92 402.467 1831.92C401.425 1835.93 399.928 1839.15 397.975 1841.59C396.021 1844.03 393.661 1845.81 390.895 1846.91C388.16 1847.99 385.068 1848.53 381.617 1848.53C378.883 1848.53 376.36 1848.18 374.049 1847.5C371.738 1846.82 369.654 1845.73 367.799 1844.23C365.976 1842.7 364.413 1840.71 363.111 1838.27C361.809 1835.83 360.816 1832.87 360.133 1829.38C359.449 1825.9 359.107 1821.83 359.107 1817.18V1806.34C359.107 1800.51 359.628 1795.63 360.67 1791.69C361.744 1787.75 363.258 1784.59 365.211 1782.22C367.164 1779.81 369.508 1778.08 372.242 1777.04C375.009 1776 378.102 1775.48 381.52 1775.48C384.286 1775.48 386.826 1775.82 389.137 1776.5C391.48 1777.15 393.564 1778.21 395.387 1779.68C397.21 1781.11 398.756 1783.03 400.025 1785.44C401.327 1787.82 402.32 1790.73 403.004 1794.18C403.688 1797.63 404.029 1801.68 404.029 1806.34ZM394.947 1818.64V1804.82C394.947 1801.63 394.752 1798.83 394.361 1796.43C394.003 1793.98 393.466 1791.9 392.75 1790.18C392.034 1788.45 391.122 1787.05 390.016 1785.98C388.941 1784.9 387.688 1784.12 386.256 1783.63C384.856 1783.11 383.277 1782.85 381.52 1782.85C379.371 1782.85 377.467 1783.26 375.807 1784.07C374.146 1784.85 372.747 1786.11 371.607 1787.83C370.501 1789.56 369.654 1791.82 369.068 1794.62C368.482 1797.42 368.189 1800.82 368.189 1804.82V1818.64C368.189 1821.83 368.368 1824.65 368.727 1827.09C369.117 1829.53 369.687 1831.65 370.436 1833.44C371.184 1835.2 372.096 1836.64 373.17 1837.78C374.244 1838.92 375.481 1839.77 376.881 1840.32C378.313 1840.84 379.892 1841.1 381.617 1841.1C383.831 1841.1 385.768 1840.68 387.428 1839.83C389.088 1838.99 390.471 1837.67 391.578 1835.88C392.717 1834.06 393.564 1831.73 394.117 1828.9C394.671 1826.03 394.947 1822.61 394.947 1818.64Z" fill="black"/>
<path id="40" d="M351.197 2359.63V2367.05H299.83V2361.73L331.666 2312.46H339.039L331.129 2326.72L310.084 2359.63H351.197ZM341.285 2312.46V2383.55H332.252V2312.46H341.285ZM404.029 2342.34V2353.18C404.029 2359.01 403.508 2363.92 402.467 2367.93C401.425 2371.93 399.928 2375.15 397.975 2377.6C396.021 2380.04 393.661 2381.81 390.895 2382.92C388.16 2383.99 385.068 2384.53 381.617 2384.53C378.883 2384.53 376.36 2384.19 374.049 2383.5C371.738 2382.82 369.654 2381.73 367.799 2380.23C365.976 2378.7 364.413 2376.72 363.111 2374.28C361.809 2371.83 360.816 2368.87 360.133 2365.39C359.449 2361.91 359.107 2357.84 359.107 2353.18V2342.34C359.107 2336.52 359.628 2331.63 360.67 2327.69C361.744 2323.76 363.258 2320.6 365.211 2318.22C367.164 2315.81 369.508 2314.09 372.242 2313.05C375.009 2312 378.102 2311.48 381.52 2311.48C384.286 2311.48 386.826 2311.82 389.137 2312.51C391.48 2313.16 393.564 2314.22 395.387 2315.68C397.21 2317.11 398.756 2319.03 400.025 2321.44C401.327 2323.82 402.32 2326.73 403.004 2330.18C403.688 2333.63 404.029 2337.69 404.029 2342.34ZM394.947 2354.65V2340.83C394.947 2337.64 394.752 2334.84 394.361 2332.43C394.003 2329.99 393.466 2327.91 392.75 2326.18C392.034 2324.45 391.122 2323.06 390.016 2321.98C388.941 2320.91 387.688 2320.13 386.256 2319.64C384.856 2319.12 383.277 2318.86 381.52 2318.86C379.371 2318.86 377.467 2319.26 375.807 2320.08C374.146 2320.86 372.747 2322.11 371.607 2323.84C370.501 2325.56 369.654 2327.82 369.068 2330.62C368.482 2333.42 368.189 2336.82 368.189 2340.83V2354.65C368.189 2357.84 368.368 2360.65 368.727 2363.09C369.117 2365.54 369.687 2367.65 370.436 2369.44C371.184 2371.2 372.096 2372.65 373.17 2373.79C374.244 2374.93 375.481 2375.77 376.881 2376.33C378.313 2376.85 379.892 2377.11 381.617 2377.11C383.831 2377.11 385.768 2376.68 387.428 2375.84C389.088 2374.99 390.471 2373.67 391.578 2371.88C392.717 2370.06 393.564 2367.73 394.117 2364.9C394.671 2362.04 394.947 2358.62 394.947 2354.65Z" fill="black"/>
<path id="50" d="M314.576 2885.72L307.35 2883.86L310.914 2848.46H347.389V2856.81H318.58L316.432 2876.15C317.734 2875.4 319.378 2874.7 321.363 2874.05C323.382 2873.4 325.693 2873.07 328.297 2873.07C331.585 2873.07 334.531 2873.64 337.135 2874.78C339.739 2875.89 341.952 2877.48 343.775 2879.57C345.631 2881.65 347.047 2884.16 348.023 2887.09C349 2890.02 349.488 2893.29 349.488 2896.9C349.488 2900.32 349.016 2903.46 348.072 2906.33C347.161 2909.19 345.777 2911.7 343.922 2913.84C342.066 2915.96 339.723 2917.6 336.891 2918.78C334.091 2919.95 330.787 2920.53 326.979 2920.53C324.114 2920.53 321.396 2920.14 318.824 2919.36C316.285 2918.55 314.007 2917.33 311.988 2915.7C310.003 2914.04 308.375 2911.99 307.105 2909.55C305.868 2907.07 305.087 2904.18 304.762 2900.86H313.355C313.746 2903.53 314.527 2905.77 315.699 2907.59C316.871 2909.42 318.401 2910.8 320.289 2911.75C322.21 2912.66 324.439 2913.11 326.979 2913.11C329.127 2913.11 331.031 2912.74 332.691 2911.99C334.352 2911.24 335.751 2910.17 336.891 2908.77C338.03 2907.37 338.893 2905.67 339.479 2903.69C340.097 2901.7 340.406 2899.47 340.406 2897C340.406 2894.75 340.097 2892.67 339.479 2890.75C338.86 2888.83 337.932 2887.15 336.695 2885.72C335.491 2884.29 334.01 2883.18 332.252 2882.4C330.494 2881.59 328.476 2881.18 326.197 2881.18C323.17 2881.18 320.875 2881.59 319.312 2882.4C317.783 2883.21 316.204 2884.32 314.576 2885.72ZM404.029 2878.35V2889.19C404.029 2895.01 403.508 2899.93 402.467 2903.93C401.425 2907.94 399.928 2911.16 397.975 2913.6C396.021 2916.04 393.661 2917.82 390.895 2918.92C388.16 2920 385.068 2920.53 381.617 2920.53C378.883 2920.53 376.36 2920.19 374.049 2919.51C371.738 2918.83 369.654 2917.73 367.799 2916.24C365.976 2914.71 364.413 2912.72 363.111 2910.28C361.809 2907.84 360.816 2904.88 360.133 2901.39C359.449 2897.91 359.107 2893.84 359.107 2889.19V2878.35C359.107 2872.52 359.628 2867.64 360.67 2863.7C361.744 2859.76 363.258 2856.6 365.211 2854.23C367.164 2851.82 369.508 2850.09 372.242 2849.05C375.009 2848.01 378.102 2847.49 381.52 2847.49C384.286 2847.49 386.826 2847.83 389.137 2848.51C391.48 2849.16 393.564 2850.22 395.387 2851.69C397.21 2853.12 398.756 2855.04 400.025 2857.45C401.327 2859.82 402.32 2862.74 403.004 2866.19C403.688 2869.64 404.029 2873.69 404.029 2878.35ZM394.947 2890.65V2876.83C394.947 2873.64 394.752 2870.84 394.361 2868.43C394.003 2865.99 393.466 2863.91 392.75 2862.18C392.034 2860.46 391.122 2859.06 390.016 2857.99C388.941 2856.91 387.688 2856.13 386.256 2855.64C384.856 2855.12 383.277 2854.86 381.52 2854.86C379.371 2854.86 377.467 2855.27 375.807 2856.08C374.146 2856.86 372.747 2858.12 371.607 2859.84C370.501 2861.57 369.654 2863.83 369.068 2866.63C368.482 2869.43 368.189 2872.83 368.189 2876.83V2890.65C368.189 2893.84 368.368 2896.66 368.727 2899.1C369.117 2901.54 369.687 2903.66 370.436 2905.45C371.184 2907.2 372.096 2908.65 373.17 2909.79C374.244 2910.93 375.481 2911.78 376.881 2912.33C378.313 2912.85 379.892 2913.11 381.617 2913.11C383.831 2913.11 385.768 2912.69 387.428 2911.84C389.088 2911 390.471 2909.68 391.578 2907.89C392.717 2906.07 393.564 2903.74 394.117 2900.91C394.671 2898.04 394.947 2894.62 394.947 2890.65Z" fill="black"/>
</g>
<g id="path2359">
<path d="M368.047 3740.69V4398.94C365.993 4458.93 356.119 4533.56 331.814 4624.94H259.814C235.509 4533.56 225.635 4458.93 223.581 4398.94V3740.69" fill="url(#paint1_linear_126_275)"/>
<path d="M368.047 3740.69V4398.94C365.993 4458.93 356.119 4533.56 331.814 4624.94H259.814C235.509 4533.56 225.635 4458.93 223.581 4398.94V3740.69" stroke="black" stroke-width="1.5"/>
</g>
<path id="rect3358" opacity="0.56" d="M319.924 3792.62C319.924 3769.99 309.56 3751.65 296.776 3751.65C283.992 3751.65 273.629 3769.99 273.629 3792.62V4585.09C273.629 4607.72 283.992 4626.07 296.776 4626.07C309.56 4626.07 319.924 4607.72 319.924 4585.09V3792.62Z" fill="#EFEFEF" stroke="black" stroke-linecap="round"/>
<g id="path2367">
<path d="M378.149 3615.5H640.531C708.772 3617.66 707.385 3577.07 706.678 3551.28C705.97 3525.48 705.97 3528.02 706.678 3502.22C707.385 3476.42 708.772 3435.83 640.531 3438H378.149" fill="#CFD5EE" fill-opacity="0.912568"/>
<path d="M378.149 3615.5H640.531C708.772 3617.66 707.385 3577.07 706.678 3551.28C705.97 3525.48 705.97 3528.02 706.678 3502.22C707.385 3476.42 708.772 3435.83 640.531 3438H378.149" stroke="black" stroke-width="1.5"/>
</g>
<path id="rect2374" d="M383.424 3269.62H205.304C176.556 3269.62 153.251 3287.97 153.251 3310.6V3315.44C153.251 3338.07 176.556 3356.41 205.304 3356.41H383.424C412.172 3356.41 435.477 3338.07 435.477 3315.44V3310.6C435.477 3287.97 412.172 3269.62 383.424 3269.62Z" fill="#CFD5EE" fill-opacity="0.912568" stroke="black" stroke-width="1.5" stroke-linecap="round"/>
<g id="path3345">
<path d="M384.99 3357.97V3594.23C383.286 3651.05 378.313 3705.29 364.213 3752.35H222.99C208.89 3705.29 203.917 3651.05 202.213 3594.23V3357.97" fill="#CFD5EE" fill-opacity="0.912568"/>
<path d="M384.99 3357.97V3594.23C383.286 3651.05 378.313 3705.29 364.213 3752.35H222.99C208.89 3705.29 203.917 3651.05 202.213 3594.23V3357.97" stroke="black" stroke-width="1.5"/>
</g>
<path id="rect3354" d="M571.72 3247.98H545.541C516.793 3247.98 493.488 3254.09 493.488 3261.63V3801.52C493.488 3809.05 516.793 3815.16 545.541 3815.16H571.72C600.468 3815.16 623.773 3809.05 623.773 3801.52V3261.63C623.773 3254.09 600.468 3247.98 571.72 3247.98Z" fill="#CFD5EE" fill-opacity="0.912568" stroke="black" stroke-width="1.5" stroke-linecap="round"/>
<path id="rect3352" d="M606.371 3300.35C606.371 3292.81 584.997 3286.7 558.63 3286.7C532.263 3286.7 510.889 3292.81 510.889 3300.35V3762.79C510.889 3770.33 532.263 3776.44 558.63 3776.44C584.997 3776.44 606.371 3770.33 606.371 3762.79V3300.35Z" fill="#CFD5EE" fill-opacity="0.912568" stroke="black" stroke-width="1.5" stroke-linecap="round"/>
<path id="rect3362" d="M160.435 3474.07H18.502C8.28363 3474.07 0 3490.45 0 3510.65V3547.55C0 3567.75 8.28363 3584.13 18.502 3584.13H160.435C170.653 3584.13 178.937 3567.75 178.937 3547.55V3510.65C178.937 3490.45 170.653 3474.07 160.435 3474.07Z" fill="#CFD5EE" fill-opacity="0.912568" stroke="black" stroke-width="1.5" stroke-linecap="round"/>
<path id="rect3356" d="M111.667 3396.04H85.4872C56.7393 3396.04 33.4346 3407.25 33.4346 3421.07V3626.12C33.4346 3639.95 56.7393 3651.16 85.4872 3651.16H111.667C140.415 3651.16 163.719 3639.95 163.719 3626.12V3421.07C163.719 3407.25 140.415 3396.04 111.667 3396.04Z" fill="#CFD5EE" fill-opacity="0.912568" stroke="black" stroke-width="1.5" stroke-linecap="round"/>
<path id="rect3360" d="M175.347 3460.87H42.7335C32.5151 3460.87 24.2314 3467.39 24.2314 3475.43V3582.77C24.2314 3590.81 32.5151 3597.33 42.7335 3597.33H175.347C185.565 3597.33 193.849 3590.81 193.849 3582.77V3475.43C193.849 3467.39 185.565 3460.87 175.347 3460.87Z" fill="#CFD5EE" fill-opacity="0.912568" stroke="black" stroke-width="1.5" stroke-linecap="round"/>
</g>
<defs>
<linearGradient id="paint0_linear_126_275" x1="114.915" y1="1647.85" x2="464.798" y2="1647.85" gradientUnits="userSpaceOnUse">
<stop stop-color="#5768FF" stop-opacity="0.6"/>
<stop offset="0.5" stop-color="#ABFFF9" stop-opacity="0.588235"/>
<stop offset="1" stop-color="#5A57FF" stop-opacity="0.576471"/>
</linearGradient>
<linearGradient id="paint1_linear_126_275" x1="216.831" y1="4182.81" x2="374.797" y2="4182.81" gradientUnits="userSpaceOnUse">
<stop stop-color="#5768FF" stop-opacity="0.6"/>
<stop offset="0.5" stop-color="#ABFFF9" stop-opacity="0.588235"/>
<stop offset="1" stop-color="#5A57FF" stop-opacity="0.576471"/>
</linearGradient>
</defs>
</svg>
