<svg class="diphe" viewBox="0 0 102 125" fill="none" xmlns="http://www.w3.org/2000/svg">
<g id="diphenyl">
<path id="Vector 4" d="M13.8001 34.7512V29H87.6293V34.7512L92.9723 43.1567C92.8103 66.6037 92.5837 114.294 92.9723 117.479C93.3608 120.665 89.5722 123.82 87.6293 125H13.8001C8.36001 125 7 119.986 7 117.479V43.1567L13.8001 34.7512Z" fill="#CECCB5" stroke="black"/>
<path id="Vector 5" d="M21.3 0V17.8472H14V33.2375C15.825 36.4296 63.4271 34.5675 87 33.2375V17.8472H79.2438V0H21.3Z" fill="black" stroke="black"/>
<rect id="Rectangle 12" x="7" y="59" width="86" height="42" fill="white"/>
<path id="Diphenylamine" d="M14.3379 86H12.4805L12.4922 84.6289H14.3379C14.7988 84.6289 15.1875 84.5254 15.5039 84.3184C15.8203 84.1074 16.0586 83.8008 16.2188 83.3984C16.3828 82.9961 16.4648 82.5098 16.4648 81.9395V81.5234C16.4648 81.0859 16.418 80.7012 16.3242 80.3691C16.2344 80.0371 16.0996 79.7578 15.9199 79.5312C15.7402 79.3047 15.5195 79.1348 15.2578 79.0215C14.9961 78.9043 14.6953 78.8457 14.3555 78.8457H12.4453V77.4688H14.3555C14.9258 77.4688 15.4473 77.5664 15.9199 77.7617C16.3965 77.9531 16.8086 78.2285 17.1562 78.5879C17.5039 78.9473 17.7715 79.377 17.959 79.877C18.1504 80.373 18.2461 80.9258 18.2461 81.5352V81.9395C18.2461 82.5449 18.1504 83.0977 17.959 83.5977C17.7715 84.0977 17.5039 84.5273 17.1562 84.8867C16.8125 85.2422 16.4004 85.5176 15.9199 85.7129C15.4434 85.9043 14.916 86 14.3379 86ZM13.4766 77.4688V86H11.7188V77.4688H13.4766ZM21.1992 79.6602V86H19.5059V79.6602H21.1992ZM19.4004 78.0078C19.4004 77.7617 19.4863 77.5586 19.6582 77.3984C19.8301 77.2383 20.0605 77.1582 20.3496 77.1582C20.6348 77.1582 20.8633 77.2383 21.0352 77.3984C21.2109 77.5586 21.2988 77.7617 21.2988 78.0078C21.2988 78.2539 21.2109 78.457 21.0352 78.6172C20.8633 78.7773 20.6348 78.8574 20.3496 78.8574C20.0605 78.8574 19.8301 78.7773 19.6582 78.6172C19.4863 78.457 19.4004 78.2539 19.4004 78.0078ZM24.2812 80.8789V88.4375H22.5938V79.6602H24.1582L24.2812 80.8789ZM28.2949 82.7598V82.8828C28.2949 83.3438 28.2402 83.7715 28.1309 84.166C28.0254 84.5605 27.8691 84.9043 27.6621 85.1973C27.4551 85.4863 27.1973 85.7129 26.8887 85.877C26.584 86.0371 26.2324 86.1172 25.834 86.1172C25.4473 86.1172 25.1113 86.0391 24.8262 85.8828C24.541 85.7266 24.3008 85.5078 24.1055 85.2266C23.9141 84.9414 23.7598 84.6113 23.6426 84.2363C23.5254 83.8613 23.4355 83.459 23.373 83.0293V82.707C23.4355 82.2461 23.5254 81.8242 23.6426 81.4414C23.7598 81.0547 23.9141 80.7207 24.1055 80.4395C24.3008 80.1543 24.5391 79.9336 24.8203 79.7773C25.1055 79.6211 25.4395 79.543 25.8223 79.543C26.2246 79.543 26.5781 79.6191 26.8828 79.7715C27.1914 79.9238 27.4492 80.1426 27.6562 80.4277C27.8672 80.7129 28.0254 81.0527 28.1309 81.4473C28.2402 81.8418 28.2949 82.2793 28.2949 82.7598ZM26.6016 82.8828V82.7598C26.6016 82.4902 26.5781 82.2422 26.5312 82.0156C26.4883 81.7852 26.418 81.584 26.3203 81.4121C26.2266 81.2402 26.1016 81.1074 25.9453 81.0137C25.793 80.916 25.6074 80.8672 25.3887 80.8672C25.1582 80.8672 24.9609 80.9043 24.7969 80.9785C24.6367 81.0527 24.5059 81.1602 24.4043 81.3008C24.3027 81.4414 24.2266 81.6094 24.1758 81.8047C24.125 82 24.0938 82.2207 24.082 82.4668V83.2812C24.1016 83.5703 24.1562 83.8301 24.2461 84.0605C24.3359 84.2871 24.4746 84.4668 24.6621 84.5996C24.8496 84.7324 25.0957 84.7988 25.4004 84.7988C25.623 84.7988 25.8105 84.75 25.9629 84.6523C26.1152 84.5508 26.2383 84.4121 26.332 84.2363C26.4297 84.0605 26.498 83.8574 26.5371 83.627C26.5801 83.3965 26.6016 83.1484 26.6016 82.8828ZM30.9902 77V86H29.3027V77H30.9902ZM30.75 82.6074H30.2871C30.291 82.166 30.3496 81.7598 30.4629 81.3887C30.5762 81.0137 30.7383 80.6895 30.9492 80.416C31.1602 80.1387 31.4121 79.9238 31.7051 79.7715C32.002 79.6191 32.3301 79.543 32.6895 79.543C33.002 79.543 33.2852 79.5879 33.5391 79.6777C33.7969 79.7637 34.0176 79.9043 34.2012 80.0996C34.3887 80.291 34.5332 80.543 34.6348 80.8555C34.7363 81.168 34.7871 81.5469 34.7871 81.9922V86H33.0879V81.9805C33.0879 81.6992 33.0469 81.4785 32.9648 81.3184C32.8867 81.1543 32.7715 81.0391 32.6191 80.9727C32.4707 80.9023 32.2871 80.8672 32.0684 80.8672C31.8262 80.8672 31.6191 80.9121 31.4473 81.002C31.2793 81.0918 31.1445 81.2168 31.043 81.377C30.9414 81.5332 30.8672 81.7168 30.8203 81.9277C30.7734 82.1387 30.75 82.3652 30.75 82.6074ZM38.9883 86.1172C38.4961 86.1172 38.0547 86.0391 37.6641 85.8828C37.2734 85.7227 36.9414 85.502 36.668 85.2207C36.3984 84.9395 36.1914 84.6133 36.0469 84.2422C35.9023 83.8672 35.8301 83.4688 35.8301 83.0469V82.8125C35.8301 82.332 35.8984 81.8926 36.0352 81.4941C36.1719 81.0957 36.3672 80.75 36.6211 80.457C36.8789 80.1641 37.1914 79.9395 37.5586 79.7832C37.9258 79.623 38.3398 79.543 38.8008 79.543C39.25 79.543 39.6484 79.6172 39.9961 79.7656C40.3438 79.9141 40.6348 80.125 40.8691 80.3984C41.1074 80.6719 41.2871 81 41.4082 81.3828C41.5293 81.7617 41.5898 82.1836 41.5898 82.6484V83.3516H36.5508V82.2266H39.9316V82.0977C39.9316 81.8633 39.8887 81.6543 39.8027 81.4707C39.7207 81.2832 39.5957 81.1348 39.4277 81.0254C39.2598 80.916 39.0449 80.8613 38.7832 80.8613C38.5605 80.8613 38.3691 80.9102 38.209 81.0078C38.0488 81.1055 37.918 81.2422 37.8164 81.418C37.7188 81.5938 37.6445 81.8008 37.5938 82.0391C37.5469 82.2734 37.5234 82.5312 37.5234 82.8125V83.0469C37.5234 83.3008 37.5586 83.5352 37.6289 83.75C37.7031 83.9648 37.8066 84.1504 37.9395 84.3066C38.0762 84.4629 38.2402 84.584 38.4316 84.6699C38.627 84.7559 38.8477 84.7988 39.0938 84.7988C39.3984 84.7988 39.6816 84.7402 39.9434 84.623C40.209 84.502 40.4375 84.3203 40.6289 84.0781L41.4492 84.9688C41.3164 85.1602 41.1348 85.3438 40.9043 85.5195C40.6777 85.6953 40.4043 85.8398 40.084 85.9531C39.7637 86.0625 39.3984 86.1172 38.9883 86.1172ZM44.2031 81.0137V86H42.5156V79.6602H44.0977L44.2031 81.0137ZM43.957 82.6074H43.5C43.5 82.1387 43.5605 81.7168 43.6816 81.3418C43.8027 80.9629 43.9727 80.6406 44.1914 80.375C44.4102 80.1055 44.6699 79.9004 44.9707 79.7598C45.2754 79.6152 45.6152 79.543 45.9902 79.543C46.2871 79.543 46.5586 79.5859 46.8047 79.6719C47.0508 79.7578 47.2617 79.8945 47.4375 80.082C47.6172 80.2695 47.7539 80.5176 47.8477 80.8262C47.9453 81.1348 47.9941 81.5117 47.9941 81.957V86H46.2949V81.9512C46.2949 81.6699 46.2559 81.4512 46.1777 81.2949C46.0996 81.1387 45.9844 81.0293 45.832 80.9668C45.6836 80.9004 45.5 80.8672 45.2812 80.8672C45.0547 80.8672 44.8574 80.9121 44.6895 81.002C44.5254 81.0918 44.3887 81.2168 44.2793 81.377C44.1738 81.5332 44.0938 81.7168 44.0391 81.9277C43.9844 82.1387 43.957 82.3652 43.957 82.6074ZM51.1582 85.2852L52.8398 79.6602H54.6504L52.1016 86.9551C52.0469 87.1152 51.9727 87.2871 51.8789 87.4707C51.7891 87.6543 51.666 87.8281 51.5098 87.9922C51.3574 88.1602 51.1641 88.2969 50.9297 88.4023C50.6992 88.5078 50.416 88.5605 50.0801 88.5605C49.9199 88.5605 49.7891 88.5508 49.6875 88.5312C49.5859 88.5117 49.4648 88.4844 49.3242 88.4492V87.2129C49.3672 87.2129 49.4121 87.2129 49.459 87.2129C49.5059 87.2168 49.5508 87.2188 49.5938 87.2188C49.8164 87.2188 49.998 87.1934 50.1387 87.1426C50.2793 87.0918 50.3926 87.0137 50.4785 86.9082C50.5645 86.8066 50.6328 86.6738 50.6836 86.5098L51.1582 85.2852ZM50.4551 79.6602L51.832 84.2539L52.0723 86.041L50.9238 86.1641L48.6445 79.6602H50.4551ZM57.1055 77V86H55.4121V77H57.1055ZM61.9219 84.5703V81.7461C61.9219 81.543 61.8887 81.3691 61.8223 81.2246C61.7559 81.0762 61.6523 80.9609 61.5117 80.8789C61.375 80.7969 61.1973 80.7559 60.9785 80.7559C60.791 80.7559 60.6289 80.7891 60.4922 80.8555C60.3555 80.918 60.25 81.0098 60.1758 81.1309C60.1016 81.248 60.0645 81.3867 60.0645 81.5469H58.377C58.377 81.2773 58.4395 81.0215 58.5645 80.7793C58.6895 80.5371 58.8711 80.3242 59.1094 80.1406C59.3477 79.9531 59.6309 79.8066 59.959 79.7012C60.291 79.5957 60.6621 79.543 61.0723 79.543C61.5645 79.543 62.002 79.625 62.3848 79.7891C62.7676 79.9531 63.0684 80.1992 63.2871 80.5273C63.5098 80.8555 63.6211 81.2656 63.6211 81.7578V84.4707C63.6211 84.8184 63.6426 85.1035 63.6855 85.3262C63.7285 85.5449 63.791 85.7363 63.873 85.9004V86H62.168C62.0859 85.8281 62.0234 85.6133 61.9805 85.3555C61.9414 85.0938 61.9219 84.832 61.9219 84.5703ZM62.1445 82.1387L62.1562 83.0938H61.2129C60.9902 83.0938 60.7969 83.1191 60.6328 83.1699C60.4688 83.2207 60.334 83.293 60.2285 83.3867C60.123 83.4766 60.0449 83.582 59.9941 83.7031C59.9473 83.8242 59.9238 83.957 59.9238 84.1016C59.9238 84.2461 59.957 84.377 60.0234 84.4941C60.0898 84.6074 60.1855 84.6973 60.3105 84.7637C60.4355 84.8262 60.582 84.8574 60.75 84.8574C61.0039 84.8574 61.2246 84.8066 61.4121 84.7051C61.5996 84.6035 61.7441 84.4785 61.8457 84.3301C61.9512 84.1816 62.0059 84.041 62.0098 83.9082L62.4551 84.623C62.3926 84.7832 62.3066 84.9492 62.1973 85.1211C62.0918 85.293 61.957 85.4551 61.793 85.6074C61.6289 85.7559 61.4316 85.8789 61.2012 85.9766C60.9707 86.0703 60.6973 86.1172 60.3809 86.1172C59.9785 86.1172 59.6133 86.0371 59.2852 85.877C58.9609 85.7129 58.7031 85.4883 58.5117 85.2031C58.3242 84.9141 58.2305 84.5859 58.2305 84.2188C58.2305 83.8867 58.293 83.5918 58.418 83.334C58.543 83.0762 58.7266 82.8594 58.9688 82.6836C59.2148 82.5039 59.5215 82.3691 59.8887 82.2793C60.2559 82.1855 60.6816 82.1387 61.166 82.1387H62.1445ZM66.6094 80.9727V86H64.916V79.6602H66.5039L66.6094 80.9727ZM66.375 82.6074H65.9062C65.9062 82.166 65.959 81.7598 66.0645 81.3887C66.1738 81.0137 66.332 80.6895 66.5391 80.416C66.75 80.1387 67.0098 79.9238 67.3184 79.7715C67.627 79.6191 67.9844 79.543 68.3906 79.543C68.6719 79.543 68.9297 79.5859 69.1641 79.6719C69.3984 79.7539 69.5996 79.8848 69.7676 80.0645C69.9395 80.2402 70.0723 80.4707 70.166 80.7559C70.2598 81.0371 70.3066 81.375 70.3066 81.7695V86H68.6191V81.957C68.6191 81.668 68.5801 81.4453 68.502 81.2891C68.4238 81.1328 68.3125 81.0234 68.168 80.9609C68.0273 80.8984 67.8574 80.8672 67.6582 80.8672C67.4395 80.8672 67.248 80.9121 67.084 81.002C66.9238 81.0918 66.791 81.2168 66.6855 81.377C66.5801 81.5332 66.502 81.7168 66.4512 81.9277C66.4004 82.1387 66.375 82.3652 66.375 82.6074ZM70.1484 82.4141L69.5449 82.4902C69.5449 82.0762 69.5957 81.6914 69.6973 81.3359C69.8027 80.9805 69.957 80.668 70.1602 80.3984C70.3672 80.1289 70.623 79.9199 70.9277 79.7715C71.2324 79.6191 71.584 79.543 71.9824 79.543C72.2871 79.543 72.5645 79.5879 72.8145 79.6777C73.0645 79.7637 73.2773 79.9023 73.4531 80.0938C73.6328 80.2812 73.7695 80.5273 73.8633 80.832C73.9609 81.1367 74.0098 81.5098 74.0098 81.9512V86H72.3164V81.9512C72.3164 81.6582 72.2773 81.4355 72.1992 81.2832C72.125 81.127 72.0156 81.0195 71.8711 80.9609C71.7305 80.8984 71.5625 80.8672 71.3672 80.8672C71.1641 80.8672 70.9863 80.9082 70.834 80.9902C70.6816 81.0684 70.5547 81.1777 70.4531 81.3184C70.3516 81.459 70.2754 81.623 70.2246 81.8105C70.1738 81.9941 70.1484 82.1953 70.1484 82.4141ZM77.0977 79.6602V86H75.4043V79.6602H77.0977ZM75.2988 78.0078C75.2988 77.7617 75.3848 77.5586 75.5566 77.3984C75.7285 77.2383 75.959 77.1582 76.248 77.1582C76.5332 77.1582 76.7617 77.2383 76.9336 77.3984C77.1094 77.5586 77.1973 77.7617 77.1973 78.0078C77.1973 78.2539 77.1094 78.457 76.9336 78.6172C76.7617 78.7773 76.5332 78.8574 76.248 78.8574C75.959 78.8574 75.7285 78.7773 75.5566 78.6172C75.3848 78.457 75.2988 78.2539 75.2988 78.0078ZM80.1445 81.0137V86H78.457V79.6602H80.0391L80.1445 81.0137ZM79.8984 82.6074H79.4414C79.4414 82.1387 79.502 81.7168 79.623 81.3418C79.7441 80.9629 79.9141 80.6406 80.1328 80.375C80.3516 80.1055 80.6113 79.9004 80.9121 79.7598C81.2168 79.6152 81.5566 79.543 81.9316 79.543C82.2285 79.543 82.5 79.5859 82.7461 79.6719C82.9922 79.7578 83.2031 79.8945 83.3789 80.082C83.5586 80.2695 83.6953 80.5176 83.7891 80.8262C83.8867 81.1348 83.9355 81.5117 83.9355 81.957V86H82.2363V81.9512C82.2363 81.6699 82.1973 81.4512 82.1191 81.2949C82.041 81.1387 81.9258 81.0293 81.7734 80.9668C81.625 80.9004 81.4414 80.8672 81.2227 80.8672C80.9961 80.8672 80.7988 80.9121 80.6309 81.002C80.4668 81.0918 80.3301 81.2168 80.2207 81.377C80.1152 81.5332 80.0352 81.7168 79.9805 81.9277C79.9258 82.1387 79.8984 82.3652 79.8984 82.6074ZM88.1367 86.1172C87.6445 86.1172 87.2031 86.0391 86.8125 85.8828C86.4219 85.7227 86.0898 85.502 85.8164 85.2207C85.5469 84.9395 85.3398 84.6133 85.1953 84.2422C85.0508 83.8672 84.9785 83.4688 84.9785 83.0469V82.8125C84.9785 82.332 85.0469 81.8926 85.1836 81.4941C85.3203 81.0957 85.5156 80.75 85.7695 80.457C86.0273 80.1641 86.3398 79.9395 86.707 79.7832C87.0742 79.623 87.4883 79.543 87.9492 79.543C88.3984 79.543 88.7969 79.6172 89.1445 79.7656C89.4922 79.9141 89.7832 80.125 90.0176 80.3984C90.2559 80.6719 90.4355 81 90.5566 81.3828C90.6777 81.7617 90.7383 82.1836 90.7383 82.6484V83.3516H85.6992V82.2266H89.0801V82.0977C89.0801 81.8633 89.0371 81.6543 88.9512 81.4707C88.8691 81.2832 88.7441 81.1348 88.5762 81.0254C88.4082 80.916 88.1934 80.8613 87.9316 80.8613C87.709 80.8613 87.5176 80.9102 87.3574 81.0078C87.1973 81.1055 87.0664 81.2422 86.9648 81.418C86.8672 81.5938 86.793 81.8008 86.7422 82.0391C86.6953 82.2734 86.6719 82.5312 86.6719 82.8125V83.0469C86.6719 83.3008 86.707 83.5352 86.7773 83.75C86.8516 83.9648 86.9551 84.1504 87.0879 84.3066C87.2246 84.4629 87.3887 84.584 87.5801 84.6699C87.7754 84.7559 87.9961 84.7988 88.2422 84.7988C88.5469 84.7988 88.8301 84.7402 89.0918 84.623C89.3574 84.502 89.5859 84.3203 89.7773 84.0781L90.5977 84.9688C90.4648 85.1602 90.2832 85.3438 90.0527 85.5195C89.8262 85.6953 89.5527 85.8398 89.2324 85.9531C88.9121 86.0625 88.5469 86.1172 88.1367 86.1172Z" fill="black"/>
</g>
</svg>
