<svg class= "dropper" viewBox="0 0 457 459" fill="none" xmlns="http://www.w3.org/2000/svg">
<g>
<g id="g4067">
<path id="path3645-7-4" d="M255.906 128.27C255.902 153.162 191.652 150.941 192.261 128.99C192.87 107.039 193.135 85.0873 194.512 63.1326C195.04 54.7197 194.601 46.1987 196.643 37.8986C199.416 26.6315 209.197 16.5965 220.818 14.8407C229.544 13.5225 239.028 15.1013 245.668 20.7136C255.78 29.2596 255.854 41.1998 255.919 53.5923C256.05 78.4775 255.911 103.377 255.906 128.27Z" fill="#FECA79"/>
<path id="path3645-7-5" opacity="0.636178" d="M251.157 120.825C251.477 143.475 193.102 140.618 193.37 120.652C193.637 100.686 193.593 80.7155 194.558 60.7562C194.928 53.108 194.418 45.3488 196.165 37.8229C198.536 27.6068 207.288 18.6028 217.819 17.1564C225.725 16.0704 234.359 17.6303 240.462 22.8234C249.755 30.7312 249.978 41.5968 250.198 52.8739C250.64 75.5193 250.838 98.1745 251.157 120.825Z" fill="url(#paint0_linear_113_4)"/>
<path id="1" d="M192.601 134.291C192.868 111.454 192.78 88.6119 193.845 65.7846C194.254 57.0373 193.657 48.1616 195.64 39.5569C198.332 27.8763 208.323 17.5943 220.362 15.9599C229.401 14.7328 239.276 16.5333 246.265 22.4847C256.908 31.5472 257.183 43.9756 257.456 56.8746C258.005 82.7769 258.273 108.69 258.682 134.598" stroke="black"/>
<path id="path3645-7-4-2" d="M258.927 129.76C259.484 154.706 195.474 148.968 195.585 127.004C195.696 105.039 195.465 83.0545 196.342 61.1281C196.677 52.726 196.048 44.1628 197.894 35.9566C200.4 24.817 209.911 15.295 221.441 14.1706C230.097 13.3265 239.574 15.4269 246.311 21.4141C256.57 30.5311 256.913 42.5008 257.257 54.9234C257.948 79.869 258.371 104.815 258.927 129.76Z" fill="url(#paint1_linear_113_4)"/>
<g id="Group 5">
<g id="Group 4">
<path id="path3634-2" d="M186.665 144.484C183.391 141.564 181.398 137.562 182.386 133.143C185.402 124.226 194.336 120.624 202.698 118.657C209.375 117.118 216.151 116.255 222.957 115.759C235.545 115.054 248.239 116.204 258.524 123.526C262.209 126.311 266.935 129.375 267.236 134.559C265.626 150.193 239.806 150.909 228.595 152.002C220.487 152.727 212.287 152.703 204.21 152.128C197.501 151.855 191.686 148.596 186.665 144.484V144.484Z" fill="#F4C57B"/>
<path id="path3634-2-2" opacity="0.6" d="M183.298 142.173C181.08 139.377 180.531 135.615 183.245 131.587C189.771 123.49 200.349 120.497 209.652 118.972C217.069 117.783 224.326 117.219 231.472 116.994C244.605 116.773 257.132 118.26 264.813 125.339C267.439 128.063 270.51 131.515 269.366 135.964C261.492 149.961 235.114 149.879 223.237 150.504C214.673 150.896 206.303 150.596 198.272 149.794C191.523 149.316 186.839 146.123 183.298 142.173Z" fill="url(#paint2_linear_113_4)"/>
<path id="path3634-2-8" opacity="0.5" d="M179.755 140.137C177.7 137.177 177.412 133.379 180.528 129.452C187.889 121.621 199.033 119.146 208.722 118.134C216.443 117.353 223.949 117.197 231.315 117.378C244.836 117.905 257.596 120.129 264.923 127.742C267.403 130.653 270.679 134.223 269.144 138.666C259.92 152.4 232.41 150.911 220.148 150.866C211.311 150.772 202.73 149.99 194.537 148.717C187.636 147.847 183.078 144.343 179.755 140.137Z" fill="url(#paint3_linear_113_4)"/>
</g>
<path id="path3634" d="M186.837 143.575C184.023 140.71 182.276 136.788 183.945 132.488C188.332 123.814 198.178 120.364 206.822 118.496C213.719 117.035 220.61 116.233 227.475 115.789C240.138 115.176 252.62 116.37 261.745 123.566C264.936 126.344 269.237 129.778 268.191 134.506C264.902 149.371 238.84 150.146 227.491 151.146C219.292 151.806 211.118 151.735 203.151 151.127C196.503 150.822 191.207 147.612 186.837 143.575Z" stroke="black"/>
</g>
<g id="Group 6">
<path id="path2830-1" opacity="0.4" d="M201.975 148.01C201.045 149.742 215.242 326.923 221.486 413.891C222.855 432.968 221.243 430.169 224.724 448.953C224.829 449.515 226.05 453.002 226.356 453.484C225.885 453.002 239.231 436.88 226.356 453.484C226.356 453.484 223.746 452.389 224.663 452.452L228.662 452.522C227.446 433.485 229.959 453.288 230.211 452.549C230.403 441.55 232.077 432.384 234.833 414.124C242.384 325.242 250.003 145.429 250.003 145.429L250.052 142.632L245.088 138.376L236.722 135.618L228.608 134.647L216.549 136.332L208.063 139.723L204.107 144.628L201.975 148.01Z" fill="url(#paint4_linear_113_4)"/>
<path id="path2830-1-3" opacity="0.3" d="M202.536 144.519C201.591 146.258 214.954 318.486 220.484 405.372C221.698 424.431 225.154 452.961 225.154 452.961C225.788 453.609 227.136 453.995 227.136 453.995L230.179 451.548C229.921 452.289 230.956 451.435 230.179 451.548C230.179 451.548 231.57 423.893 234.481 405.616C243.55 315.761 250.452 141.992 250.452 141.992L249.629 139.34L245.573 134.6L237.218 131.912L229.1 131.009L216.763 131.555L208.2 135.116L204.123 139.546L202.536 144.519Z" fill="url(#paint5_linear_113_4)"/>
<path id="path2830" d="M224.458 451.976C218.17 364.519 201.126 146.512 202.061 144.77C204.279 132.649 216.608 130.858 227.183 130.474C229.926 130.447 232.955 130.594 235.624 131.198C241.94 132.627 248.044 135.156 250.218 141.908C250.218 141.908 240.735 362.287 230.53 452.082C227.328 455.626 225.148 453.488 224.458 451.976Z" stroke="black"/>
</g>
<path id="path3645-7-4-2-8" opacity="0.3" d="M255.319 129.794C255.073 154.684 190.779 152.846 191.602 130.894C192.424 108.941 192.903 86.9905 194.495 65.0299C195.106 56.6147 194.749 48.0973 196.874 39.7859C199.759 28.5034 209.648 18.4111 221.298 16.5862C230.045 15.2161 239.524 16.7382 246.117 22.3103C256.155 30.7951 256.113 42.7336 256.058 55.1245C255.947 80.0063 255.565 104.904 255.319 129.794V129.794Z" fill="url(#paint6_linear_113_4)"/>
</g>
<path id="layer1" d="M225.373 454L214 302H243L231.059 454H225.373Z" fill="#345F38"/>
<path id="layer2" d="M225 455L220 383H237L229.5 455H225Z" fill="#781818"/>
</g>
<defs>
<linearGradient id="paint0_linear_113_4" x1="217.536" y1="74.3363" x2="193.596" y2="75.1224" gradientUnits="userSpaceOnUse">
<stop stop-color="white" stop-opacity="0"/>
<stop offset="0.352211" stop-color="#B1B1B1" stop-opacity="0.196078"/>
<stop offset="0.729286" stop-color="#8A8A8A" stop-opacity="0.588235"/>
<stop offset="1" stop-color="#646464"/>
</linearGradient>
<linearGradient id="paint1_linear_113_4" x1="256.831" y1="106.544" x2="203.689" y2="106.236" gradientUnits="userSpaceOnUse">
<stop stop-color="#57534A" stop-opacity="0.690196"/>
<stop offset="1" stop-color="#FECA79" stop-opacity="0"/>
</linearGradient>
<linearGradient id="paint2_linear_113_4" x1="216.854" y1="149.749" x2="218.189" y2="117.843" gradientUnits="userSpaceOnUse">
<stop stop-color="#57534A" stop-opacity="0.690196"/>
<stop offset="1" stop-color="#FECA79" stop-opacity="0"/>
</linearGradient>
<linearGradient id="paint3_linear_113_4" x1="213.747" y1="150.72" x2="207.384" y2="122.538" gradientUnits="userSpaceOnUse">
<stop stop-color="#57534A" stop-opacity="0.690196"/>
<stop offset="1" stop-color="#FECA79" stop-opacity="0"/>
</linearGradient>
<linearGradient id="paint4_linear_113_4" x1="33.5362" y1="283.934" x2="80.444" y2="282.731" gradientUnits="userSpaceOnUse">
<stop stop-color="#C8C8C8"/>
<stop offset="0.5" stop-color="white"/>
<stop offset="1" stop-color="#C8C8C8"/>
</linearGradient>
<linearGradient id="paint5_linear_113_4" x1="205.741" y1="275.445" x2="250.488" y2="274.263" gradientUnits="userSpaceOnUse">
<stop stop-color="white"/>
<stop offset="1" stop-color="#959595"/>
</linearGradient>
<linearGradient id="paint6_linear_113_4" x1="204.766" y1="25.5882" x2="242.076" y2="135.796" gradientUnits="userSpaceOnUse">
<stop stop-color="#57534A" stop-opacity="0.690196"/>
<stop offset="1" stop-color="#FECA79" stop-opacity="0"/>
</linearGradient>
</defs>
</svg>
