<svg class="sulphuricA" viewBox="0 0 131 204" fill="none" xmlns="http://www.w3.org/2000/svg">
<g id="h2so4">
<path id="Vector 1" d="M38.2209 55.5V23H94.2209V55.5C104.221 60 130.221 72.5 130.221 98V184.5C130.221 198.1 115.554 203.167 108.221 204H38.2209C12.7965 204 2.55419 193.333 0.220861 184.5C0.054194 165 -0.179139 120.4 0.220861 98C0.620861 75.6 25.7209 60.3333 38.2209 55.5Z" fill="#C7E3E1" fill-opacity="0.31" stroke="black"/>
<g id="dhakknH2so">
<path id="Vector 2" d="M97.3606 0H37.1006C19.6058 7.2 28.3532 20 37.1006 22H97.3606C97.3606 22 116.799 12 97.3606 0Z" fill="#C7E3E1" fill-opacity="0.5" stroke="black"/>
<path id="Vector 3" d="M38.1772 40V22.5H94.5495V40C94.5495 43.3137 91.8632 46 88.5495 46H44.1772C40.8635 46 38.1772 43.3137 38.1772 40Z" fill="#C7E3E1" fill-opacity="0.5" stroke="black"/>
</g>
<path id="h2Pehle" d="M129 137H1V185.5C1 194.041 18.7231 200.897 27.5846 203H111.769C116.889 203 129 193.5 129 189.5V137Z" fill="#E7FEF8" fill-opacity="0.7"/>
<path id="h2Bad" d="M129 146H2V187.886C2 195.263 19.5846 201.184 28.3769 203H111.904C116.984 203 129 194.795 129 191.341V146Z" fill="#E7FEF8" fill-opacity="0.6"/>
<path id="Dilute Sulphuric Acid" d="M51.6104 104H49.4434L49.457 102.4H51.6104C52.1481 102.4 52.6016 102.28 52.9707 102.038C53.3398 101.792 53.6178 101.434 53.8047 100.965C53.9961 100.495 54.0918 99.9281 54.0918 99.2627V98.7773C54.0918 98.2669 54.0371 97.818 53.9277 97.4307C53.8229 97.0433 53.6657 96.7174 53.4561 96.4531C53.2464 96.1888 52.9889 95.9906 52.6836 95.8584C52.3783 95.7217 52.0273 95.6533 51.6309 95.6533H49.4023V94.0469H51.6309C52.2962 94.0469 52.9046 94.1608 53.4561 94.3887C54.012 94.612 54.4928 94.9333 54.8984 95.3525C55.304 95.7718 55.6162 96.2731 55.835 96.8564C56.0583 97.4352 56.1699 98.0801 56.1699 98.791V99.2627C56.1699 99.9691 56.0583 100.614 55.835 101.197C55.6162 101.781 55.304 102.282 54.8984 102.701C54.4974 103.116 54.0166 103.437 53.4561 103.665C52.9001 103.888 52.2848 104 51.6104 104ZM50.6055 94.0469V104H48.5547V94.0469H50.6055ZM59.6152 96.6035V104H57.6396V96.6035H59.6152ZM57.5166 94.6758C57.5166 94.3887 57.6169 94.1517 57.8174 93.9648C58.0179 93.778 58.2868 93.6846 58.624 93.6846C58.9567 93.6846 59.2233 93.778 59.4238 93.9648C59.6289 94.1517 59.7314 94.3887 59.7314 94.6758C59.7314 94.9629 59.6289 95.1999 59.4238 95.3867C59.2233 95.5736 58.9567 95.667 58.624 95.667C58.2868 95.667 58.0179 95.5736 57.8174 95.3867C57.6169 95.1999 57.5166 94.9629 57.5166 94.6758ZM63.3203 93.5V104H61.3447V93.5H63.3203ZM69.3223 102.229V96.6035H71.291V104H69.4385L69.3223 102.229ZM69.541 100.712L70.1221 100.698C70.1221 101.19 70.0651 101.648 69.9512 102.072C69.8372 102.492 69.6663 102.856 69.4385 103.166C69.2106 103.471 68.9235 103.711 68.5771 103.884C68.2308 104.052 67.8229 104.137 67.3535 104.137C66.9935 104.137 66.6608 104.087 66.3555 103.986C66.0547 103.882 65.7949 103.72 65.5762 103.501C65.362 103.278 65.1934 102.993 65.0703 102.646C64.9518 102.296 64.8926 101.874 64.8926 101.382V96.6035H66.8613V101.396C66.8613 101.614 66.8864 101.799 66.9365 101.949C66.9912 102.1 67.0664 102.223 67.1621 102.318C67.2578 102.414 67.3695 102.482 67.4971 102.523C67.6292 102.564 67.7751 102.585 67.9346 102.585C68.3402 102.585 68.6592 102.503 68.8916 102.339C69.1286 102.175 69.2949 101.951 69.3906 101.669C69.4909 101.382 69.541 101.063 69.541 100.712ZM76.418 96.6035V97.998H72.1113V96.6035H76.418ZM73.1777 94.7783H75.1465V101.771C75.1465 101.986 75.1738 102.15 75.2285 102.264C75.2878 102.378 75.3743 102.457 75.4883 102.503C75.6022 102.544 75.7458 102.564 75.9189 102.564C76.042 102.564 76.1514 102.56 76.2471 102.551C76.3473 102.537 76.4316 102.523 76.5 102.51L76.5068 103.959C76.3382 104.014 76.1559 104.057 75.96 104.089C75.764 104.121 75.5475 104.137 75.3105 104.137C74.8776 104.137 74.4993 104.066 74.1758 103.925C73.8568 103.779 73.6107 103.547 73.4375 103.228C73.2643 102.909 73.1777 102.489 73.1777 101.97V94.7783ZM80.9434 104.137C80.3691 104.137 79.8542 104.046 79.3984 103.863C78.9427 103.676 78.5553 103.419 78.2363 103.091C77.9219 102.763 77.6803 102.382 77.5117 101.949C77.3431 101.512 77.2588 101.047 77.2588 100.555V100.281C77.2588 99.7207 77.3385 99.208 77.498 98.7432C77.6576 98.2783 77.8854 97.875 78.1816 97.5332C78.4824 97.1914 78.847 96.9294 79.2754 96.7471C79.7038 96.5602 80.1868 96.4668 80.7246 96.4668C81.2487 96.4668 81.7135 96.5534 82.1191 96.7266C82.5247 96.8997 82.8643 97.1458 83.1377 97.4648C83.4157 97.7839 83.6253 98.1667 83.7666 98.6133C83.9079 99.0553 83.9785 99.5475 83.9785 100.09V100.91H78.0996V99.5977H82.0439V99.4473C82.0439 99.1738 81.9938 98.93 81.8936 98.7158C81.7979 98.4971 81.652 98.3239 81.4561 98.1963C81.2601 98.0687 81.0094 98.0049 80.7041 98.0049C80.4443 98.0049 80.221 98.0618 80.0342 98.1758C79.8473 98.2897 79.6947 98.4492 79.5762 98.6543C79.4622 98.8594 79.3757 99.1009 79.3164 99.3789C79.2617 99.6523 79.2344 99.9531 79.2344 100.281V100.555C79.2344 100.851 79.2754 101.124 79.3574 101.375C79.444 101.626 79.5648 101.842 79.7197 102.024C79.8792 102.207 80.0706 102.348 80.2939 102.448C80.5218 102.549 80.7793 102.599 81.0664 102.599C81.4219 102.599 81.7523 102.53 82.0576 102.394C82.3675 102.252 82.6341 102.04 82.8574 101.758L83.8145 102.797C83.6595 103.02 83.4476 103.234 83.1787 103.439C82.9144 103.645 82.5954 103.813 82.2217 103.945C81.848 104.073 81.4219 104.137 80.9434 104.137ZM26.2354 117.396C26.2354 117.218 26.208 117.058 26.1533 116.917C26.1032 116.771 26.0075 116.639 25.8662 116.521C25.7249 116.397 25.5267 116.277 25.2715 116.158C25.0163 116.04 24.6859 115.917 24.2803 115.789C23.8291 115.643 23.4007 115.479 22.9951 115.297C22.5941 115.115 22.2386 114.903 21.9287 114.661C21.6234 114.415 21.3818 114.13 21.2041 113.807C21.0309 113.483 20.9443 113.107 20.9443 112.679C20.9443 112.264 21.0355 111.888 21.2178 111.551C21.4001 111.209 21.6553 110.917 21.9834 110.676C22.3115 110.43 22.6989 110.241 23.1455 110.108C23.5967 109.976 24.0911 109.91 24.6289 109.91C25.3626 109.91 26.0029 110.042 26.5498 110.307C27.0967 110.571 27.5205 110.933 27.8213 111.394C28.1266 111.854 28.2793 112.38 28.2793 112.973H26.2422C26.2422 112.681 26.1807 112.426 26.0576 112.207C25.9391 111.984 25.7568 111.808 25.5107 111.681C25.2692 111.553 24.9639 111.489 24.5947 111.489C24.2393 111.489 23.943 111.544 23.7061 111.653C23.4691 111.758 23.2913 111.902 23.1729 112.084C23.0544 112.262 22.9951 112.462 22.9951 112.686C22.9951 112.854 23.0361 113.007 23.1182 113.144C23.2048 113.28 23.3324 113.408 23.501 113.526C23.6696 113.645 23.877 113.757 24.123 113.861C24.3691 113.966 24.654 114.069 24.9775 114.169C25.5199 114.333 25.9961 114.518 26.4062 114.723C26.821 114.928 27.1673 115.158 27.4453 115.413C27.7233 115.668 27.9329 115.958 28.0742 116.281C28.2155 116.605 28.2861 116.972 28.2861 117.382C28.2861 117.815 28.2018 118.202 28.0332 118.544C27.8646 118.886 27.6208 119.175 27.3018 119.412C26.9827 119.649 26.6022 119.829 26.1602 119.952C25.7181 120.075 25.2236 120.137 24.6768 120.137C24.1846 120.137 23.6992 120.073 23.2207 119.945C22.7422 119.813 22.307 119.615 21.915 119.351C21.5277 119.086 21.2178 118.749 20.9854 118.339C20.7529 117.929 20.6367 117.443 20.6367 116.883H22.6943C22.6943 117.193 22.7422 117.455 22.8379 117.669C22.9336 117.883 23.068 118.056 23.2412 118.188C23.4189 118.321 23.6286 118.416 23.8701 118.476C24.1162 118.535 24.3851 118.564 24.6768 118.564C25.0322 118.564 25.3239 118.514 25.5518 118.414C25.7842 118.314 25.9551 118.175 26.0645 117.997C26.1784 117.819 26.2354 117.619 26.2354 117.396ZM33.9326 118.229V112.604H35.9014V120H34.0488L33.9326 118.229ZM34.1514 116.712L34.7324 116.698C34.7324 117.19 34.6755 117.648 34.5615 118.072C34.4476 118.492 34.2767 118.856 34.0488 119.166C33.821 119.471 33.5339 119.711 33.1875 119.884C32.8411 120.052 32.4333 120.137 31.9639 120.137C31.6038 120.137 31.2712 120.087 30.9658 119.986C30.665 119.882 30.4053 119.72 30.1865 119.501C29.9723 119.278 29.8037 118.993 29.6807 118.646C29.5622 118.296 29.5029 117.874 29.5029 117.382V112.604H31.4717V117.396C31.4717 117.614 31.4967 117.799 31.5469 117.949C31.6016 118.1 31.6768 118.223 31.7725 118.318C31.8682 118.414 31.9798 118.482 32.1074 118.523C32.2396 118.564 32.3854 118.585 32.5449 118.585C32.9505 118.585 33.2695 118.503 33.502 118.339C33.7389 118.175 33.9053 117.951 34.001 117.669C34.1012 117.382 34.1514 117.063 34.1514 116.712ZM39.4834 109.5V120H37.5078V109.5H39.4834ZM43.0791 114.025V122.844H41.1104V112.604H42.9355L43.0791 114.025ZM47.7617 116.22V116.363C47.7617 116.901 47.6979 117.4 47.5703 117.86C47.4473 118.321 47.265 118.722 47.0234 119.063C46.7819 119.401 46.4811 119.665 46.1211 119.856C45.7656 120.043 45.3555 120.137 44.8906 120.137C44.4395 120.137 44.0475 120.046 43.7148 119.863C43.3822 119.681 43.1019 119.426 42.874 119.098C42.6507 118.765 42.4707 118.38 42.334 117.942C42.1973 117.505 42.0924 117.035 42.0195 116.534V116.158C42.0924 115.62 42.1973 115.128 42.334 114.682C42.4707 114.23 42.6507 113.841 42.874 113.513C43.1019 113.18 43.3799 112.923 43.708 112.74C44.0407 112.558 44.4303 112.467 44.877 112.467C45.3464 112.467 45.7588 112.556 46.1143 112.733C46.4743 112.911 46.7751 113.166 47.0166 113.499C47.2627 113.832 47.4473 114.228 47.5703 114.688C47.6979 115.149 47.7617 115.659 47.7617 116.22ZM45.7861 116.363V116.22C45.7861 115.905 45.7588 115.616 45.7041 115.352C45.654 115.083 45.5719 114.848 45.458 114.647C45.3486 114.447 45.2028 114.292 45.0205 114.183C44.8428 114.069 44.6263 114.012 44.3711 114.012C44.1022 114.012 43.8721 114.055 43.6807 114.142C43.4938 114.228 43.3411 114.354 43.2227 114.518C43.1042 114.682 43.0153 114.878 42.9561 115.105C42.8968 115.333 42.8604 115.591 42.8467 115.878V116.828C42.8695 117.165 42.9333 117.468 43.0381 117.737C43.1429 118.002 43.3047 118.211 43.5234 118.366C43.7422 118.521 44.0293 118.599 44.3848 118.599C44.6445 118.599 44.8633 118.542 45.041 118.428C45.2188 118.309 45.3623 118.147 45.4717 117.942C45.5856 117.737 45.6654 117.5 45.7109 117.231C45.7611 116.963 45.7861 116.673 45.7861 116.363ZM50.9062 109.5V120H48.9375V109.5H50.9062ZM50.626 116.042H50.0859C50.0905 115.527 50.1589 115.053 50.291 114.62C50.4232 114.183 50.6123 113.804 50.8584 113.485C51.1045 113.162 51.3984 112.911 51.7402 112.733C52.0866 112.556 52.4694 112.467 52.8887 112.467C53.2533 112.467 53.5837 112.519 53.8799 112.624C54.1807 112.724 54.4382 112.888 54.6523 113.116C54.8711 113.34 55.0397 113.633 55.1582 113.998C55.2767 114.363 55.3359 114.805 55.3359 115.324V120H53.3535V115.311C53.3535 114.982 53.3057 114.725 53.21 114.538C53.1188 114.347 52.9844 114.212 52.8066 114.135C52.6335 114.053 52.4193 114.012 52.1641 114.012C51.8815 114.012 51.64 114.064 51.4395 114.169C51.2435 114.274 51.0863 114.42 50.9678 114.606C50.8493 114.789 50.7627 115.003 50.708 115.249C50.6533 115.495 50.626 115.759 50.626 116.042ZM61.208 118.229V112.604H63.1768V120H61.3242L61.208 118.229ZM61.4268 116.712L62.0078 116.698C62.0078 117.19 61.9508 117.648 61.8369 118.072C61.723 118.492 61.5521 118.856 61.3242 119.166C61.0964 119.471 60.8092 119.711 60.4629 119.884C60.1165 120.052 59.7087 120.137 59.2393 120.137C58.8792 120.137 58.5465 120.087 58.2412 119.986C57.9404 119.882 57.6807 119.72 57.4619 119.501C57.2477 119.278 57.0791 118.993 56.9561 118.646C56.8376 118.296 56.7783 117.874 56.7783 117.382V112.604H58.7471V117.396C58.7471 117.614 58.7721 117.799 58.8223 117.949C58.877 118.1 58.9521 118.223 59.0479 118.318C59.1436 118.414 59.2552 118.482 59.3828 118.523C59.515 118.564 59.6608 118.585 59.8203 118.585C60.2259 118.585 60.5449 118.503 60.7773 118.339C61.0143 118.175 61.1807 117.951 61.2764 117.669C61.3766 117.382 61.4268 117.063 61.4268 116.712ZM66.6494 114.217V120H64.6807V112.604H66.5332L66.6494 114.217ZM68.8779 112.556L68.8438 114.381C68.748 114.367 68.6318 114.356 68.4951 114.347C68.363 114.333 68.2422 114.326 68.1328 114.326C67.8548 114.326 67.6133 114.363 67.4082 114.436C67.2077 114.504 67.0391 114.606 66.9023 114.743C66.7702 114.88 66.6699 115.046 66.6016 115.242C66.5378 115.438 66.5013 115.661 66.4922 115.912L66.0957 115.789C66.0957 115.311 66.1436 114.871 66.2393 114.47C66.335 114.064 66.474 113.711 66.6562 113.41C66.8431 113.109 67.071 112.877 67.3398 112.713C67.6087 112.549 67.9163 112.467 68.2627 112.467C68.3721 112.467 68.4837 112.476 68.5977 112.494C68.7116 112.508 68.805 112.528 68.8779 112.556ZM71.8857 112.604V120H69.9102V112.604H71.8857ZM69.7871 110.676C69.7871 110.389 69.8874 110.152 70.0879 109.965C70.2884 109.778 70.5573 109.685 70.8945 109.685C71.2272 109.685 71.4938 109.778 71.6943 109.965C71.8994 110.152 72.002 110.389 72.002 110.676C72.002 110.963 71.8994 111.2 71.6943 111.387C71.4938 111.574 71.2272 111.667 70.8945 111.667C70.5573 111.667 70.2884 111.574 70.0879 111.387C69.8874 111.2 69.7871 110.963 69.7871 110.676ZM76.5684 118.599C76.8099 118.599 77.0241 118.553 77.2109 118.462C77.3978 118.366 77.5436 118.234 77.6484 118.065C77.7578 117.892 77.8148 117.689 77.8193 117.457H79.6719C79.6673 117.977 79.5283 118.439 79.2549 118.845C78.9814 119.246 78.6146 119.562 78.1543 119.795C77.694 120.023 77.179 120.137 76.6094 120.137C76.0352 120.137 75.5339 120.041 75.1055 119.85C74.6816 119.658 74.3285 119.394 74.0459 119.057C73.7633 118.715 73.5514 118.318 73.4102 117.867C73.2689 117.411 73.1982 116.924 73.1982 116.404V116.206C73.1982 115.682 73.2689 115.194 73.4102 114.743C73.5514 114.287 73.7633 113.891 74.0459 113.554C74.3285 113.212 74.6816 112.945 75.1055 112.754C75.5293 112.562 76.026 112.467 76.5957 112.467C77.2018 112.467 77.7327 112.583 78.1885 112.815C78.6488 113.048 79.0088 113.381 79.2686 113.813C79.5329 114.242 79.6673 114.75 79.6719 115.338H77.8193C77.8148 115.092 77.7624 114.868 77.6621 114.668C77.5664 114.467 77.4251 114.308 77.2383 114.189C77.056 114.066 76.8304 114.005 76.5615 114.005C76.2744 114.005 76.0397 114.066 75.8574 114.189C75.6751 114.308 75.5339 114.472 75.4336 114.682C75.3333 114.887 75.2627 115.121 75.2217 115.386C75.1852 115.646 75.167 115.919 75.167 116.206V116.404C75.167 116.691 75.1852 116.967 75.2217 117.231C75.2581 117.496 75.3265 117.73 75.4268 117.936C75.5316 118.141 75.6751 118.302 75.8574 118.421C76.0397 118.539 76.2767 118.599 76.5684 118.599ZM88.4697 111.749L85.7627 120H83.582L87.2803 110.047H88.668L88.4697 111.749ZM90.7188 120L88.0049 111.749L87.7861 110.047H89.1875L92.9062 120H90.7188ZM90.5957 116.295V117.901H85.3389V116.295H90.5957ZM96.7617 118.599C97.0033 118.599 97.2174 118.553 97.4043 118.462C97.5911 118.366 97.737 118.234 97.8418 118.065C97.9512 117.892 98.0081 117.689 98.0127 117.457H99.8652C99.8607 117.977 99.7217 118.439 99.4482 118.845C99.1748 119.246 98.8079 119.562 98.3477 119.795C97.8874 120.023 97.3724 120.137 96.8027 120.137C96.2285 120.137 95.7272 120.041 95.2988 119.85C94.875 119.658 94.5218 119.394 94.2393 119.057C93.9567 118.715 93.7448 118.318 93.6035 117.867C93.4622 117.411 93.3916 116.924 93.3916 116.404V116.206C93.3916 115.682 93.4622 115.194 93.6035 114.743C93.7448 114.287 93.9567 113.891 94.2393 113.554C94.5218 113.212 94.875 112.945 95.2988 112.754C95.7227 112.562 96.2194 112.467 96.7891 112.467C97.3952 112.467 97.9261 112.583 98.3818 112.815C98.8421 113.048 99.2021 113.381 99.4619 113.813C99.7262 114.242 99.8607 114.75 99.8652 115.338H98.0127C98.0081 115.092 97.9557 114.868 97.8555 114.668C97.7598 114.467 97.6185 114.308 97.4316 114.189C97.2493 114.066 97.0238 114.005 96.7549 114.005C96.4678 114.005 96.2331 114.066 96.0508 114.189C95.8685 114.308 95.7272 114.472 95.627 114.682C95.5267 114.887 95.4561 115.121 95.415 115.386C95.3786 115.646 95.3604 115.919 95.3604 116.206V116.404C95.3604 116.691 95.3786 116.967 95.415 117.231C95.4515 117.496 95.5199 117.73 95.6201 117.936C95.7249 118.141 95.8685 118.302 96.0508 118.421C96.2331 118.539 96.4701 118.599 96.7617 118.599ZM103.085 112.604V120H101.109V112.604H103.085ZM100.986 110.676C100.986 110.389 101.087 110.152 101.287 109.965C101.488 109.778 101.757 109.685 102.094 109.685C102.426 109.685 102.693 109.778 102.894 109.965C103.099 110.152 103.201 110.389 103.201 110.676C103.201 110.963 103.099 111.2 102.894 111.387C102.693 111.574 102.426 111.667 102.094 111.667C101.757 111.667 101.488 111.574 101.287 111.387C101.087 111.2 100.986 110.963 100.986 110.676ZM109.08 118.387V109.5H111.062V120H109.278L109.08 118.387ZM104.404 116.391V116.247C104.404 115.682 104.468 115.169 104.596 114.709C104.723 114.244 104.91 113.845 105.156 113.513C105.402 113.18 105.705 112.923 106.065 112.74C106.425 112.558 106.836 112.467 107.296 112.467C107.729 112.467 108.107 112.558 108.431 112.74C108.759 112.923 109.037 113.182 109.265 113.52C109.497 113.852 109.684 114.246 109.825 114.702C109.966 115.153 110.069 115.648 110.133 116.186V116.5C110.069 117.015 109.966 117.493 109.825 117.936C109.684 118.378 109.497 118.765 109.265 119.098C109.037 119.426 108.759 119.681 108.431 119.863C108.103 120.046 107.72 120.137 107.282 120.137C106.822 120.137 106.412 120.043 106.052 119.856C105.696 119.67 105.396 119.408 105.149 119.07C104.908 118.733 104.723 118.337 104.596 117.881C104.468 117.425 104.404 116.928 104.404 116.391ZM106.373 116.247V116.391C106.373 116.696 106.396 116.981 106.441 117.245C106.492 117.509 106.571 117.744 106.681 117.949C106.795 118.15 106.94 118.307 107.118 118.421C107.3 118.53 107.521 118.585 107.781 118.585C108.118 118.585 108.396 118.51 108.615 118.359C108.834 118.204 109 117.993 109.114 117.724C109.233 117.455 109.301 117.145 109.319 116.794V115.898C109.306 115.611 109.265 115.354 109.196 115.126C109.132 114.894 109.037 114.695 108.909 114.531C108.786 114.367 108.631 114.24 108.444 114.148C108.262 114.057 108.046 114.012 107.795 114.012C107.54 114.012 107.321 114.071 107.139 114.189C106.956 114.303 106.808 114.461 106.694 114.661C106.585 114.862 106.503 115.099 106.448 115.372C106.398 115.641 106.373 115.933 106.373 116.247Z" fill="black"/>
</g>
</svg>
