<svg class="mCylinder" viewBox="0 0 2208 10815" fill="none" xmlns="http://www.w3.org/2000/svg">
<g id="mCylinder">
<path id="path2406" d="M908.8 55.0098H933.186M618.16 102.695H622.62H618.16ZM622.62 102.695H629.167H622.62ZM629.167 102.695H635.714H629.167ZM635.714 102.695H642.261H635.714ZM642.261 102.695H648.808H642.261ZM648.808 102.695H653.268H648.808ZM653.268 102.695H659.91H653.268ZM659.91 102.695H662.282H659.91ZM662.282 102.695H664.369H662.282ZM664.369 102.695H666.552H664.369ZM666.552 102.695H668.736H666.552ZM668.736 102.695H670.919H668.736ZM670.919 102.695H673.195H670.919ZM684.202 102.695H686.386H684.202ZM686.386 102.695H688.472H686.386ZM688.472 102.695H690.844H688.472ZM690.844 102.695H692.931H690.844ZM692.931 102.695H695.209H692.931ZM1799.02 102.695H1803.38H1799.02ZM1803.38 102.695H1805.57H1803.38ZM1805.57 102.695H1810.03H1805.57ZM1810.03 102.695H1812.21H1810.03ZM1812.21 102.695H1814.39H1812.21ZM1832.04 102.695H1834.23H1832.04ZM1834.23 102.695H1836.5H1834.23ZM1836.5 102.695H1838.69H1836.5ZM1838.69 102.695H1840.87H1838.69ZM1840.87 102.695H1843.05H1840.87ZM1843.05 102.695H1845.24H1843.05ZM1845.24 102.695H1847.51H1845.24ZM1823.22 55.0114H1821.04H1823.22ZM1821.04 55.0114H1816.58H1821.04ZM1816.58 55.0114L1810.03 57.3883L1816.58 55.0114ZM1810.03 57.3883L1805.57 62.3629L1810.03 57.3883ZM1794.57 79.9881V84.961V79.9881ZM1794.57 95.126L1799.03 102.693L1794.57 95.126ZM1847.51 102.693H1845.24H1847.51ZM1845.24 102.693H1843.05H1845.24ZM1843.05 102.693H1840.87H1843.05ZM1840.87 102.693H1838.69H1840.87ZM1838.69 102.693H1836.5H1838.69ZM1836.5 102.693H1832.04H1836.5ZM1832.04 102.693H1829.96H1832.04ZM1829.96 102.693H1827.58H1829.96ZM1827.58 102.693H1823.22H1827.58ZM1823.22 102.693H1821.03H1823.22ZM1821.03 102.693H1816.58H1821.03ZM1816.58 102.693H1812.21H1816.58ZM1812.21 102.693H1807.85H1812.21ZM1807.85 102.693H1803.39H1807.85ZM1803.39 102.693H1799.02H1803.39ZM1799.02 102.693H1794.56H1799.02ZM1794.56 102.693H1787.92H1794.56ZM1787.92 102.693H1783.55H1787.92ZM1783.55 102.693H1777.01H1783.55ZM1777.01 102.693H1772.64H1777.01ZM1772.64 102.693H1766H1772.64ZM1766 102.693H1759.26H1766ZM1759.26 102.693H1752.81H1759.26ZM1752.81 102.693H1746.07H1752.81ZM1746.07 102.693H1739.53H1746.07ZM1739.53 102.693H1733.08H1739.53ZM1733.08 102.693H1726.34H1733.08ZM1726.34 102.693H1717.51H1726.34ZM1717.51 102.693H1708.69H1717.51ZM1708.69 102.693H1702.05H1708.69ZM1702.05 102.693H1693.32H1702.05ZM1693.32 102.693H1684.4H1693.32ZM1684.4 102.693H1677.76H1684.4ZM1677.76 102.693H1666.75H1677.76ZM1666.75 102.693H1660.2H1666.75ZM1660.2 102.693H1649.1H1660.2ZM1649.1 102.693H1640.37H1649.1ZM1640.37 102.693H1631.45H1640.37ZM1631.45 102.693H1620.54H1631.45ZM1620.54 102.693H1611.62H1620.54ZM1611.62 102.693H1602.89H1611.62ZM1602.89 102.693H1591.88H1602.89ZM1591.88 102.693H1580.88H1591.88ZM1580.88 102.693H1572.05H1580.88ZM1572.05 102.693H1561.05H1572.05ZM1561.05 102.693H1550.04H1561.05ZM1550.04 102.693H1539.03H1550.04ZM1539.03 102.693H1528.03H1539.03ZM1528.03 102.693H1517.02H1528.03ZM1517.02 102.693H1506.01H1517.02ZM1506.01 102.693H1495.01H1506.01ZM1495.01 102.693H1484H1495.01ZM1484 102.693H1470.72H1484ZM1470.72 102.693H1459.71H1470.72ZM1459.71 102.693H1448.7H1459.71ZM1448.7 102.693H1435.42H1448.7ZM1435.42 102.693H1424.41H1435.42ZM1424.41 102.693H1411.22H1424.41ZM1411.22 102.693H1400.12H1411.22ZM1400.12 102.693H1387.03H1400.12ZM1387.03 102.693H1376.02H1387.03ZM1376.02 102.693H1362.83H1376.02ZM1362.83 102.693H1349.55H1362.83ZM1349.55 102.693H1336.36H1349.55ZM1336.36 102.693H1325.35H1336.36ZM1325.35 102.693H1311.97H1325.35ZM1311.97 102.693H1298.88H1311.97ZM1298.88 102.693H1285.59H1298.88ZM1285.59 102.693H1274.68H1285.59ZM1274.68 102.693H1261.49H1274.68ZM1261.49 102.693H1248.21H1261.49ZM1248.21 102.693H1235.02H1248.21ZM1235.02 102.693H1221.73H1235.02ZM1221.73 102.693H1208.55H1221.73ZM1208.55 102.693H1195.26H1208.55ZM1195.26 102.693H1182.17H1195.26ZM1182.17 102.693H1168.79H1182.17ZM1168.79 102.693H1155.69H1168.79ZM1155.69 102.693H1142.5H1155.69ZM1142.5 102.693H1129.13H1142.5ZM1129.13 102.693H1118.12H1129.13ZM1118.12 102.693H1104.93H1118.12ZM1104.93 102.693H1091.74H1104.93ZM1091.74 102.693H1078.65H1091.74ZM1078.65 102.693H1065.27H1078.65ZM1065.27 102.693H1052.08H1065.27ZM1052.08 102.693H1038.89H1052.08ZM1038.89 102.693H1025.7H1038.89ZM1025.7 102.693H1012.42H1025.7ZM1012.42 102.693H999.226H1012.42ZM999.226 102.693H988.22H999.226ZM988.22 102.693H974.936H988.22ZM974.936 102.693H961.841H974.936ZM961.841 102.693H950.835H961.841ZM950.835 102.693H937.456H950.835ZM937.456 102.693H924.361H937.456ZM924.361 102.693H913.259H924.361ZM913.259 102.693H900.165H913.259ZM900.165 102.693H886.881H900.165ZM886.881 102.693H875.874H886.881ZM875.874 102.693H864.963H875.874ZM864.963 102.693H851.584H864.963ZM851.584 102.693H840.577H851.584ZM840.577 102.693H827.388H840.577ZM827.388 102.693H816.286H827.388ZM816.286 102.693H805.279H816.286ZM805.279 102.693H794.367H805.279ZM794.367 102.693H783.36H794.367ZM783.36 102.693H772.354H783.36ZM772.354 102.693H761.252H772.354ZM761.252 102.693H750.245H761.252ZM750.245 102.693H739.239H750.245ZM739.239 102.693H728.232H739.239ZM728.232 102.693H719.407H728.232ZM719.407 102.693H708.4H719.407ZM708.4 102.693H699.576H708.4ZM699.576 102.693H688.475H699.576ZM688.475 102.693H679.84H688.475ZM679.84 102.693H668.738H679.84ZM668.738 102.693H659.914H668.738ZM659.914 102.693H653.272H659.914ZM653.272 102.693H648.812H653.272ZM648.812 102.693H642.265H648.812ZM642.265 102.693H635.718H642.265ZM635.718 102.693H629.171H635.718ZM629.171 102.693H622.623H629.171ZM622.623 102.693H618.164H622.623ZM624.711 55.0098H642.265H624.711ZM642.265 55.0098H659.914H642.265ZM659.914 55.0098H677.468H659.914ZM1851.87 84.961V95.126V84.961ZM1851.87 95.126L1847.51 102.693L1851.87 95.126ZM677.468 55.0098H695.211H677.468ZM695.211 55.0098H714.948H695.211ZM714.948 55.0098H734.779H714.948ZM734.779 55.0098H754.705H734.779ZM754.705 55.0098H774.536H754.705ZM774.536 55.0098H796.455H774.536ZM796.455 55.0098H818.563H796.455ZM818.563 55.0098H840.577H818.563ZM840.577 55.0098H862.591H840.577ZM862.591 55.0098H886.881H862.591ZM886.881 55.0098H908.8H886.881Z" stroke="black" stroke-width="20" stroke-miterlimit="10" stroke-linecap="round" stroke-linejoin="round"/>
<path id="path2422" d="M626.167 9329.61H562.404M626.167 2658.88H562.404H626.167Z" stroke="black" stroke-width="20" stroke-miterlimit="10" stroke-linecap="round" stroke-linejoin="round"/>
<g id="text2436">
<g id="path3026">
<mask id="path-3-inside-1_144_4" fill="white">
<path d="M706.297 2619.64V2469.88H722.434V2619.64H706.297Z"/>
</mask>
<path d="M706.297 2619.64V2469.88H722.434V2619.64H706.297Z" fill="#1A1A18"/>
<path d="M706.297 2619.64H686.297V2639.64H706.297V2619.64ZM706.297 2469.88V2449.88H686.297V2469.88H706.297ZM722.434 2469.88H742.434V2449.88H722.434V2469.88ZM722.434 2619.64V2639.64H742.434V2619.64H722.434ZM726.297 2619.64V2469.88H686.297V2619.64H726.297ZM706.297 2489.88H722.434V2449.88H706.297V2489.88ZM702.434 2469.88V2619.64H742.434V2469.88H702.434ZM722.434 2599.64H706.297V2639.64H722.434V2599.64Z" fill="black" mask="url(#path-3-inside-1_144_4)"/>
</g>
<g id="path3028">
<mask id="path-5-inside-2_144_4" fill="white">
<path d="M553.712 2619.64V2511.15H568.146V2526.37C571.134 2521.06 575.109 2516.79 580.069 2513.55C585.03 2510.32 590.678 2508.7 597.013 2508.7C604.066 2508.7 609.848 2510.37 614.361 2513.7C618.873 2517.04 622.056 2521.71 623.908 2527.7C631.439 2515.03 641.241 2508.7 653.314 2508.7C662.757 2508.7 670.019 2511.68 675.099 2517.64C680.179 2523.6 682.719 2532.77 682.719 2545.17V2619.64H666.672V2551.3C666.672 2543.94 666.148 2538.65 665.104 2535.41C664.057 2532.18 662.16 2529.57 659.411 2527.6C656.662 2525.62 653.434 2524.64 649.729 2524.64C643.035 2524.64 637.476 2527.17 633.054 2532.25C628.631 2537.32 626.42 2545.44 626.42 2556.61V2619.64H610.282V2549.15C610.282 2540.98 608.968 2534.85 606.338 2530.77C603.708 2526.68 599.405 2524.64 593.428 2524.64C588.886 2524.64 584.687 2526 580.832 2528.72C576.977 2531.45 574.183 2535.43 572.45 2540.67C570.716 2545.92 569.85 2553.48 569.85 2563.35V2619.64H553.712Z"/>
</mask>
<path d="M553.712 2619.64V2511.15H568.146V2526.37C571.134 2521.06 575.109 2516.79 580.069 2513.55C585.03 2510.32 590.678 2508.7 597.013 2508.7C604.066 2508.7 609.848 2510.37 614.361 2513.7C618.873 2517.04 622.056 2521.71 623.908 2527.7C631.439 2515.03 641.241 2508.7 653.314 2508.7C662.757 2508.7 670.019 2511.68 675.099 2517.64C680.179 2523.6 682.719 2532.77 682.719 2545.17V2619.64H666.672V2551.3C666.672 2543.94 666.148 2538.65 665.104 2535.41C664.057 2532.18 662.16 2529.57 659.411 2527.6C656.662 2525.62 653.434 2524.64 649.729 2524.64C643.035 2524.64 637.476 2527.17 633.054 2532.25C628.631 2537.32 626.42 2545.44 626.42 2556.61V2619.64H610.282V2549.15C610.282 2540.98 608.968 2534.85 606.338 2530.77C603.708 2526.68 599.405 2524.64 593.428 2524.64C588.886 2524.64 584.687 2526 580.832 2528.72C576.977 2531.45 574.183 2535.43 572.45 2540.67C570.716 2545.92 569.85 2553.48 569.85 2563.35V2619.64H553.712Z" fill="#1A1A18"/>
<path d="M553.712 2619.64H533.712V2639.64H553.712V2619.64ZM553.712 2511.15V2491.15H533.712V2511.15H553.712ZM568.146 2511.15H588.146V2491.15H568.146V2511.15ZM568.146 2526.37H548.146V2602.72L585.577 2536.18L568.146 2526.37ZM580.069 2513.55L569.145 2496.8L569.144 2496.8L580.069 2513.55ZM614.361 2513.7L602.467 2529.78L602.468 2529.78L614.361 2513.7ZM623.908 2527.7L604.801 2533.61L618.096 2576.62L641.1 2537.92L623.908 2527.7ZM675.099 2517.64L690.32 2504.66L690.319 2504.66L675.099 2517.64ZM682.719 2545.17L702.719 2545.17L702.719 2545.17L682.719 2545.17ZM682.719 2619.64V2639.64H702.719V2619.64H682.719ZM666.672 2619.64H646.672V2639.64H666.672V2619.64ZM665.104 2535.41L684.137 2529.27L684.133 2529.26L665.104 2535.41ZM659.411 2527.6L647.741 2543.84L647.742 2543.84L659.411 2527.6ZM633.054 2532.25L648.13 2545.39L648.13 2545.39L633.054 2532.25ZM626.42 2619.64V2639.64H646.42V2619.64H626.42ZM610.282 2619.64H590.282V2639.64H610.282V2619.64ZM606.338 2530.77L589.52 2541.59L589.52 2541.59L606.338 2530.77ZM580.832 2528.72L569.292 2512.39L569.289 2512.39L580.832 2528.72ZM572.45 2540.67L591.439 2546.95L591.44 2546.95L572.45 2540.67ZM569.85 2619.64V2639.64H589.85V2619.64H569.85ZM573.712 2619.64V2511.15H533.712V2619.64H573.712ZM553.712 2531.15H568.146V2491.15H553.712V2531.15ZM548.146 2511.15V2526.37H588.146V2511.15H548.146ZM585.577 2536.18C587.035 2533.59 588.811 2531.73 590.995 2530.3L569.144 2496.8C561.406 2501.84 555.233 2508.53 550.714 2516.57L585.577 2536.18ZM590.994 2530.3C592.476 2529.34 594.275 2528.7 597.013 2528.7V2488.7C587.081 2488.7 577.584 2491.29 569.145 2496.8L590.994 2530.3ZM597.013 2528.7C600.897 2528.7 602.196 2529.58 602.467 2529.78L626.254 2497.62C617.501 2491.15 607.235 2488.7 597.013 2488.7V2528.7ZM602.468 2529.78C603.152 2530.29 604.051 2531.18 604.801 2533.61L643.016 2521.79C640.06 2512.23 634.594 2503.79 626.253 2497.62L602.468 2529.78ZM641.1 2537.92C645.955 2529.75 649.941 2528.7 653.314 2528.7V2488.7C632.54 2488.7 616.923 2500.31 606.717 2517.48L641.1 2537.92ZM653.314 2528.7C658.222 2528.7 659.38 2530.03 659.879 2530.61L690.319 2504.66C680.657 2493.33 667.292 2488.7 653.314 2488.7V2528.7ZM659.879 2530.61C660.519 2531.36 662.719 2534.91 662.719 2545.17L702.719 2545.17C702.719 2530.64 699.84 2515.83 690.32 2504.66L659.879 2530.61ZM662.719 2545.17V2619.64H702.719V2545.17H662.719ZM682.719 2599.64H666.672V2639.64H682.719V2599.64ZM686.672 2619.64V2551.3H646.672V2619.64H686.672ZM686.672 2551.3C686.672 2543.7 686.213 2535.7 684.137 2529.27L646.071 2541.56C645.982 2541.28 646.186 2541.85 646.376 2543.78C646.554 2545.58 646.672 2548.05 646.672 2551.3H686.672ZM684.133 2529.26C681.78 2521.99 677.318 2515.84 671.08 2511.35L647.742 2543.84C647.475 2543.65 647.093 2543.31 646.729 2542.81C646.365 2542.31 646.167 2541.85 646.075 2541.57L684.133 2529.26ZM671.082 2511.36C664.603 2506.7 657.199 2504.64 649.729 2504.64V2544.64C649.793 2544.64 649.539 2544.64 649.08 2544.5C648.604 2544.36 648.132 2544.12 647.741 2543.84L671.082 2511.36ZM649.729 2504.64C637.22 2504.64 626.175 2509.7 617.977 2519.1L648.13 2545.39C648.412 2545.06 648.611 2544.9 648.71 2544.82C648.761 2544.78 648.796 2544.76 648.813 2544.75C648.83 2544.74 648.839 2544.73 648.843 2544.73C648.846 2544.73 648.854 2544.73 648.869 2544.72C648.885 2544.72 648.919 2544.71 648.975 2544.7C649.084 2544.67 649.323 2544.64 649.729 2544.64V2504.64ZM617.977 2519.1C608.863 2529.56 606.42 2543.57 606.42 2556.61H646.42C646.42 2552.26 646.86 2549.29 647.376 2547.4C647.882 2545.54 648.337 2545.15 648.13 2545.39L617.977 2519.1ZM606.42 2556.61V2619.64H646.42V2556.61H606.42ZM626.42 2599.64H610.282V2639.64H626.42V2599.64ZM630.282 2619.64V2549.15H590.282V2619.64H630.282ZM630.282 2549.15C630.282 2539.48 628.842 2528.78 623.156 2519.94L589.52 2541.59C589.214 2541.11 589.45 2541.26 589.741 2542.62C590.029 2543.96 590.282 2546.08 590.282 2549.15H630.282ZM623.156 2519.94C615.969 2508.77 604.412 2504.64 593.428 2504.64V2544.64C594.184 2544.64 593.682 2544.77 592.56 2544.24C591.993 2543.97 591.384 2543.58 590.805 2543.07C590.228 2542.56 589.806 2542.03 589.52 2541.59L623.156 2519.94ZM593.428 2504.64C584.584 2504.64 576.382 2507.38 569.292 2512.39L592.372 2545.06C592.769 2544.78 592.987 2544.7 593.042 2544.68C593.091 2544.67 593.19 2544.64 593.428 2544.64V2504.64ZM569.289 2512.39C561.371 2517.98 556.299 2525.81 553.46 2534.4L591.44 2546.95C591.775 2545.94 592.084 2545.43 592.221 2545.24C592.291 2545.14 592.334 2545.09 592.346 2545.08C592.357 2545.07 592.364 2545.06 592.375 2545.05L569.289 2512.39ZM553.461 2534.4C550.726 2542.67 549.85 2552.75 549.85 2563.35H589.85C589.85 2554.21 590.706 2549.17 591.439 2546.95L553.461 2534.4ZM549.85 2563.35V2619.64H589.85V2563.35H549.85ZM569.85 2599.64H553.712V2639.64H569.85V2599.64Z" fill="black" mask="url(#path-5-inside-2_144_4)"/>
</g>
</g>
<g id="text2444">
<g id="path3042">
<mask id="path-7-inside-3_144_4" fill="white">
<path d="M1156.62 2381.45L1169.67 2385.21C1166.93 2397.42 1162.01 2406.72 1154.91 2413.13C1147.8 2419.54 1139.12 2422.75 1128.85 2422.75C1118.23 2422.75 1109.59 2420.29 1102.94 2415.36C1096.28 2410.43 1091.21 2403.29 1087.74 2393.94C1084.27 2384.6 1082.53 2374.56 1082.53 2363.83C1082.53 2352.13 1084.49 2341.93 1088.41 2333.22C1092.33 2324.51 1097.91 2317.9 1105.15 2313.38C1112.39 2308.86 1120.36 2306.6 1129.06 2306.6C1138.92 2306.6 1147.21 2309.46 1153.93 2315.18C1160.66 2320.9 1165.34 2328.95 1167.99 2339.31L1155.14 2342.76C1152.86 2334.59 1149.54 2328.64 1145.19 2324.91C1140.84 2321.18 1135.38 2319.32 1128.79 2319.32C1121.21 2319.32 1114.88 2321.39 1109.79 2325.52C1104.71 2329.66 1101.13 2335.21 1099.07 2342.19C1097.01 2349.16 1095.98 2356.35 1095.98 2363.76C1095.98 2373.31 1097.2 2381.64 1099.64 2388.77C1102.08 2395.9 1105.88 2401.22 1111.04 2404.74C1116.19 2408.27 1121.77 2410.03 1127.78 2410.03C1135.08 2410.03 1141.27 2407.63 1146.34 2402.83C1151.4 2398.03 1154.83 2390.9 1156.62 2381.45V2381.45Z"/>
</mask>
<path d="M1156.62 2381.45L1169.67 2385.21C1166.93 2397.42 1162.01 2406.72 1154.91 2413.13C1147.8 2419.54 1139.12 2422.75 1128.85 2422.75C1118.23 2422.75 1109.59 2420.29 1102.94 2415.36C1096.28 2410.43 1091.21 2403.29 1087.74 2393.94C1084.27 2384.6 1082.53 2374.56 1082.53 2363.83C1082.53 2352.13 1084.49 2341.93 1088.41 2333.22C1092.33 2324.51 1097.91 2317.9 1105.15 2313.38C1112.39 2308.86 1120.36 2306.6 1129.06 2306.6C1138.92 2306.6 1147.21 2309.46 1153.93 2315.18C1160.66 2320.9 1165.34 2328.95 1167.99 2339.31L1155.14 2342.76C1152.86 2334.59 1149.54 2328.64 1145.19 2324.91C1140.84 2321.18 1135.38 2319.32 1128.79 2319.32C1121.21 2319.32 1114.88 2321.39 1109.79 2325.52C1104.71 2329.66 1101.13 2335.21 1099.07 2342.19C1097.01 2349.16 1095.98 2356.35 1095.98 2363.76C1095.98 2373.31 1097.2 2381.64 1099.64 2388.77C1102.08 2395.9 1105.88 2401.22 1111.04 2404.74C1116.19 2408.27 1121.77 2410.03 1127.78 2410.03C1135.08 2410.03 1141.27 2407.63 1146.34 2402.83C1151.4 2398.03 1154.83 2390.9 1156.62 2381.45V2381.45Z" fill="#1A1A18"/>
<path d="M1169.67 2385.21L1189.18 2389.58L1193.3 2371.2L1175.2 2365.99L1169.67 2385.21ZM1154.91 2413.13L1141.51 2398.29L1141.51 2398.29L1154.91 2413.13ZM1102.94 2415.36L1114.84 2399.28L1114.84 2399.28L1102.94 2415.36ZM1087.74 2393.94L1106.49 2386.98L1106.49 2386.98L1087.74 2393.94ZM1088.41 2333.22L1106.65 2341.44L1106.65 2341.44L1088.41 2333.22ZM1105.15 2313.38L1094.56 2296.41L1094.56 2296.41L1105.15 2313.38ZM1153.93 2315.18L1166.89 2299.95L1166.89 2299.95L1153.93 2315.18ZM1167.99 2339.31L1173.17 2358.63L1192.25 2353.51L1187.37 2334.37L1167.99 2339.31ZM1155.14 2342.76L1135.88 2348.15L1141.21 2367.21L1160.33 2362.08L1155.14 2342.76ZM1145.19 2324.91L1158.21 2309.73L1158.21 2309.73L1145.19 2324.91ZM1128.79 2319.32L1128.79 2299.32L1128.79 2299.32L1128.79 2319.32ZM1109.79 2325.52L1097.18 2310.01L1097.17 2310.01L1109.79 2325.52ZM1099.07 2342.19L1118.25 2347.86L1118.25 2347.86L1099.07 2342.19ZM1099.64 2388.77L1080.72 2395.25L1080.72 2395.26L1099.64 2388.77ZM1146.34 2402.83L1132.58 2388.31L1132.57 2388.32L1146.34 2402.83ZM1151.09 2400.67L1164.13 2404.43L1175.2 2365.99L1162.15 2362.23L1151.09 2400.67ZM1150.15 2380.84C1148.04 2390.24 1144.72 2395.39 1141.51 2398.29L1168.31 2427.98C1179.31 2418.06 1185.82 2404.59 1189.18 2389.58L1150.15 2380.84ZM1141.51 2398.29C1138.36 2401.13 1134.56 2402.75 1128.85 2402.75V2442.75C1143.68 2442.75 1157.25 2437.96 1168.31 2427.98L1141.51 2398.29ZM1128.85 2402.75C1121.3 2402.75 1117.19 2401.02 1114.84 2399.28L1091.03 2431.43C1102 2439.55 1115.16 2442.75 1128.85 2442.75V2402.75ZM1114.84 2399.28C1111.88 2397.1 1108.89 2393.44 1106.49 2386.98L1068.99 2400.91C1073.54 2413.14 1080.68 2423.76 1091.03 2431.43L1114.84 2399.28ZM1106.49 2386.98C1103.9 2380.02 1102.53 2372.36 1102.53 2363.83H1062.53C1062.53 2376.76 1064.63 2389.17 1068.99 2400.91L1106.49 2386.98ZM1102.53 2363.83C1102.53 2354.34 1104.12 2347.05 1106.65 2341.44L1070.18 2325.01C1064.86 2336.81 1062.53 2349.92 1062.53 2363.83H1102.53ZM1106.65 2341.44C1109.15 2335.89 1112.26 2332.52 1115.75 2330.34L1094.56 2296.41C1083.57 2303.28 1075.52 2313.14 1070.18 2325.01L1106.65 2341.44ZM1115.75 2330.34C1119.75 2327.85 1124.03 2326.6 1129.06 2326.6V2286.6C1116.69 2286.6 1105.04 2289.87 1094.56 2296.41L1115.75 2330.34ZM1129.06 2326.6C1134.76 2326.6 1138.29 2328.13 1140.97 2330.41L1166.89 2299.95C1156.12 2290.78 1143.07 2286.6 1129.06 2286.6V2326.6ZM1140.97 2330.41C1143.92 2332.92 1146.76 2337.03 1148.61 2344.26L1187.37 2334.37C1183.92 2320.86 1177.39 2308.88 1166.89 2299.95L1140.97 2330.41ZM1162.8 2320L1149.96 2323.45L1160.33 2362.08L1173.17 2358.63L1162.8 2320ZM1174.4 2337.38C1171.54 2327.12 1166.69 2316.99 1158.21 2309.73L1132.17 2340.09C1132.39 2340.28 1134.18 2342.06 1135.88 2348.15L1174.4 2337.38ZM1158.21 2309.73C1149.7 2302.43 1139.39 2299.32 1128.79 2299.32L1128.79 2339.32C1131.36 2339.32 1131.99 2339.93 1132.17 2340.09L1158.21 2309.73ZM1128.79 2299.32C1117.36 2299.32 1106.37 2302.53 1097.18 2310.01L1122.41 2341.04C1123.39 2340.24 1125.06 2339.32 1128.79 2339.32L1128.79 2299.32ZM1097.17 2310.01C1088.62 2316.96 1082.97 2326.11 1079.89 2336.52L1118.25 2347.86C1119.3 2344.32 1120.79 2342.36 1122.41 2341.04L1097.17 2310.01ZM1079.89 2336.51C1077.27 2345.36 1075.98 2354.47 1075.98 2363.76H1115.98C1115.98 2358.23 1116.74 2352.95 1118.25 2347.86L1079.89 2336.51ZM1075.98 2363.76C1075.98 2374.95 1077.4 2385.57 1080.72 2395.25L1118.56 2382.29C1117 2377.72 1115.98 2371.66 1115.98 2363.76H1075.98ZM1080.72 2395.26C1084.27 2405.6 1090.35 2414.83 1099.75 2421.25L1122.33 2388.24C1121.41 2387.61 1119.9 2386.2 1118.56 2382.28L1080.72 2395.26ZM1099.75 2421.25C1108.09 2426.96 1117.58 2430.03 1127.78 2430.03V2390.03C1125.97 2390.03 1124.3 2389.58 1122.33 2388.24L1099.75 2421.25ZM1127.78 2430.03C1139.94 2430.03 1151.13 2425.85 1160.1 2417.34L1132.57 2388.32C1131.41 2389.42 1130.23 2390.03 1127.78 2390.03V2430.03ZM1160.09 2417.34C1169.17 2408.75 1173.99 2397.23 1176.27 2385.18L1136.97 2377.72C1135.67 2384.57 1133.63 2387.31 1132.58 2388.31L1160.09 2417.34Z" fill="black" mask="url(#path-7-inside-3_144_4)"/>
</g>
<g id="path3044">
<mask id="path-9-inside-4_144_4" fill="white">
<path d="M1029.2 2327.82C1029.2 2321.95 1031.02 2316.94 1034.68 2312.8C1038.33 2308.67 1042.71 2306.6 1047.82 2306.6C1053.02 2306.6 1057.44 2308.67 1061.07 2312.8C1064.7 2316.94 1066.51 2321.95 1066.51 2327.82C1066.51 2333.7 1064.69 2338.71 1061.03 2342.88C1057.38 2347.04 1052.98 2349.12 1047.82 2349.12C1042.71 2349.12 1038.33 2347.05 1034.68 2342.92C1031.02 2338.78 1029.2 2333.75 1029.2 2327.82ZM1036.53 2327.82C1036.53 2331.4 1037.63 2334.45 1039.85 2336.98C1042.07 2339.51 1044.75 2340.77 1047.89 2340.77C1050.98 2340.77 1053.64 2339.51 1055.86 2336.98C1058.08 2334.45 1059.19 2331.4 1059.19 2327.82C1059.19 2324.25 1058.07 2321.19 1055.86 2318.67C1053.64 2316.14 1050.98 2314.87 1047.89 2314.87C1044.75 2314.87 1042.07 2316.14 1039.85 2318.67C1037.64 2321.2 1036.53 2324.25 1036.53 2327.82Z"/>
</mask>
<path d="M1029.2 2327.82C1029.2 2321.95 1031.02 2316.94 1034.68 2312.8C1038.33 2308.67 1042.71 2306.6 1047.82 2306.6C1053.02 2306.6 1057.44 2308.67 1061.07 2312.8C1064.7 2316.94 1066.51 2321.95 1066.51 2327.82C1066.51 2333.7 1064.69 2338.71 1061.03 2342.88C1057.38 2347.04 1052.98 2349.12 1047.82 2349.12C1042.71 2349.12 1038.33 2347.05 1034.68 2342.92C1031.02 2338.78 1029.2 2333.75 1029.2 2327.82ZM1036.53 2327.82C1036.53 2331.4 1037.63 2334.45 1039.85 2336.98C1042.07 2339.51 1044.75 2340.77 1047.89 2340.77C1050.98 2340.77 1053.64 2339.51 1055.86 2336.98C1058.08 2334.45 1059.19 2331.4 1059.19 2327.82C1059.19 2324.25 1058.07 2321.19 1055.86 2318.67C1053.64 2316.14 1050.98 2314.87 1047.89 2314.87C1044.75 2314.87 1042.07 2316.14 1039.85 2318.67C1037.64 2321.2 1036.53 2324.25 1036.53 2327.82Z" fill="#1A1A18"/>
<path d="M1034.68 2312.8L1049.67 2326.04L1049.67 2326.04L1034.68 2312.8ZM1061.07 2312.8L1076.1 2299.61L1076.1 2299.61L1061.07 2312.8ZM1061.03 2342.88L1046 2329.68L1046 2329.69L1061.03 2342.88ZM1047.82 2349.12L1047.82 2329.12L1047.82 2329.12L1047.82 2349.12ZM1034.68 2342.92L1049.67 2329.68L1049.67 2329.68L1034.68 2342.92ZM1039.85 2336.98L1054.89 2323.79L1054.88 2323.78L1039.85 2336.98ZM1055.86 2336.98L1040.82 2323.79L1040.82 2323.79L1055.86 2336.98ZM1055.86 2318.67L1070.89 2305.48L1070.89 2305.47L1055.86 2318.67ZM1047.89 2314.87L1047.89 2294.87L1047.89 2294.87L1047.89 2314.87ZM1039.85 2318.67L1024.83 2305.47L1024.82 2305.47L1039.85 2318.67ZM1049.2 2327.82C1049.2 2326.98 1049.32 2326.61 1049.36 2326.52C1049.38 2326.44 1049.44 2326.31 1049.67 2326.04L1019.69 2299.57C1012.58 2307.61 1009.2 2317.41 1009.2 2327.82H1049.2ZM1049.67 2326.04C1049.95 2325.73 1049.83 2325.96 1049.24 2326.24C1048.97 2326.37 1048.67 2326.47 1048.38 2326.53C1048.1 2326.59 1047.9 2326.6 1047.82 2326.6V2286.6C1036.48 2286.6 1026.79 2291.52 1019.69 2299.57L1049.67 2326.04ZM1047.82 2326.6C1047.79 2326.6 1047.62 2326.59 1047.37 2326.54C1047.11 2326.48 1046.82 2326.39 1046.55 2326.26C1045.95 2325.98 1045.81 2325.74 1046.04 2326L1076.1 2299.61C1068.92 2291.44 1059.15 2286.6 1047.82 2286.6V2326.6ZM1046.03 2326C1046.26 2326.26 1046.32 2326.4 1046.35 2326.48C1046.39 2326.58 1046.51 2326.97 1046.51 2327.82H1086.51C1086.51 2317.45 1083.16 2307.66 1076.1 2299.61L1046.03 2326ZM1046.51 2327.82C1046.51 2328.66 1046.39 2329.04 1046.35 2329.15C1046.32 2329.24 1046.25 2329.4 1046 2329.68L1076.07 2356.07C1083.13 2348.02 1086.51 2338.23 1086.51 2327.82H1046.51ZM1046 2329.69C1045.73 2329.99 1045.86 2329.76 1046.44 2329.48C1046.72 2329.35 1047.01 2329.25 1047.29 2329.19C1047.57 2329.13 1047.76 2329.12 1047.82 2329.12L1047.82 2369.12C1059.2 2369.12 1068.94 2364.19 1076.07 2356.07L1046 2329.69ZM1047.82 2329.12C1047.9 2329.12 1048.1 2329.13 1048.38 2329.19C1048.67 2329.26 1048.97 2329.36 1049.24 2329.49C1049.83 2329.76 1049.95 2329.99 1049.67 2329.68L1019.68 2356.15C1026.79 2364.2 1036.48 2369.12 1047.82 2369.12L1047.82 2329.12ZM1049.67 2329.68C1049.45 2329.43 1049.4 2329.3 1049.37 2329.21C1049.33 2329.11 1049.2 2328.7 1049.2 2327.82H1009.2C1009.2 2338.23 1012.56 2348.08 1019.69 2356.15L1049.67 2329.68ZM1016.53 2327.82C1016.53 2335.92 1019.19 2343.75 1024.83 2350.17L1054.88 2323.78C1055.35 2324.32 1055.83 2325.07 1056.15 2325.96C1056.47 2326.84 1056.53 2327.52 1056.53 2327.82H1016.53ZM1024.82 2350.17C1030.53 2356.67 1038.54 2360.77 1047.89 2360.77V2320.77C1049.09 2320.77 1050.58 2321.03 1052.07 2321.74C1053.52 2322.42 1054.44 2323.27 1054.89 2323.79L1024.82 2350.17ZM1047.89 2360.77C1057.28 2360.77 1065.25 2356.6 1070.89 2350.17L1040.82 2323.79C1041.25 2323.3 1042.15 2322.46 1043.6 2321.76C1045.1 2321.05 1046.62 2320.77 1047.89 2320.77V2360.77ZM1070.89 2350.17C1076.52 2343.75 1079.19 2335.92 1079.19 2327.82H1039.19C1039.19 2327.51 1039.24 2326.83 1039.56 2325.96C1039.88 2325.06 1040.36 2324.32 1040.82 2323.79L1070.89 2350.17ZM1079.19 2327.82C1079.19 2319.72 1076.52 2311.89 1070.89 2305.48L1040.82 2331.85C1040.35 2331.32 1039.88 2330.58 1039.56 2329.69C1039.24 2328.81 1039.19 2328.13 1039.19 2327.82H1079.19ZM1070.89 2305.47C1065.25 2299.05 1057.29 2294.87 1047.89 2294.87L1047.89 2334.87C1046.62 2334.87 1045.1 2334.59 1043.6 2333.88C1042.15 2333.19 1041.25 2332.34 1040.82 2331.86L1070.89 2305.47ZM1047.89 2294.87C1038.53 2294.87 1030.52 2298.98 1024.83 2305.47L1054.88 2331.86C1054.43 2332.38 1053.52 2333.22 1052.07 2333.91C1050.58 2334.61 1049.1 2334.87 1047.89 2334.87L1047.89 2294.87ZM1024.82 2305.47C1019.19 2311.89 1016.53 2319.72 1016.53 2327.82H1056.53C1056.53 2328.13 1056.47 2328.81 1056.15 2329.68C1055.83 2330.58 1055.36 2331.32 1054.89 2331.86L1024.82 2305.47Z" fill="black" mask="url(#path-9-inside-4_144_4)"/>
</g>
<g id="path3046">
<mask id="path-11-inside-5_144_4" fill="white">
<path d="M949.608 2365.44C949.608 2352.16 950.807 2341.47 953.206 2333.38C955.604 2325.28 959.167 2319.04 963.896 2314.64C968.625 2310.25 974.576 2308.05 981.747 2308.05C987.037 2308.05 991.676 2309.27 995.665 2311.69C999.654 2314.12 1002.95 2317.62 1005.55 2322.19C1008.15 2326.76 1010.19 2332.33 1011.67 2338.89C1013.15 2345.46 1013.89 2354.31 1013.89 2365.44C1013.89 2378.62 1012.7 2389.26 1010.32 2397.35C1007.95 2405.45 1004.39 2411.7 999.666 2416.12C994.937 2420.54 988.964 2422.75 981.748 2422.75C972.245 2422.75 964.782 2418.87 959.358 2411.1C952.859 2401.76 949.609 2386.54 949.609 2365.44H949.608ZM962.047 2365.44C962.047 2383.88 963.942 2396.15 967.729 2402.26C971.516 2408.36 976.189 2411.41 981.747 2411.41C987.305 2411.41 991.978 2408.35 995.766 2402.22C999.553 2396.09 1001.45 2383.83 1001.45 2365.44C1001.45 2346.95 999.553 2334.67 995.766 2328.59C991.978 2322.51 987.261 2319.47 981.613 2319.47C976.055 2319.47 971.617 2322.15 968.3 2327.52C964.131 2334.36 962.047 2347 962.047 2365.44V2365.44Z"/>
</mask>
<path d="M949.608 2365.44C949.608 2352.16 950.807 2341.47 953.206 2333.38C955.604 2325.28 959.167 2319.04 963.896 2314.64C968.625 2310.25 974.576 2308.05 981.747 2308.05C987.037 2308.05 991.676 2309.27 995.665 2311.69C999.654 2314.12 1002.95 2317.62 1005.55 2322.19C1008.15 2326.76 1010.19 2332.33 1011.67 2338.89C1013.15 2345.46 1013.89 2354.31 1013.89 2365.44C1013.89 2378.62 1012.7 2389.26 1010.32 2397.35C1007.95 2405.45 1004.39 2411.7 999.666 2416.12C994.937 2420.54 988.964 2422.75 981.748 2422.75C972.245 2422.75 964.782 2418.87 959.358 2411.1C952.859 2401.76 949.609 2386.54 949.609 2365.44H949.608ZM962.047 2365.44C962.047 2383.88 963.942 2396.15 967.729 2402.26C971.516 2408.36 976.189 2411.41 981.747 2411.41C987.305 2411.41 991.978 2408.35 995.766 2402.22C999.553 2396.09 1001.45 2383.83 1001.45 2365.44C1001.45 2346.95 999.553 2334.67 995.766 2328.59C991.978 2322.51 987.261 2319.47 981.613 2319.47C976.055 2319.47 971.617 2322.15 968.3 2327.52C964.131 2334.36 962.047 2347 962.047 2365.44V2365.44Z" fill="#1A1A18"/>
<path d="M949.608 2365.44H929.608V2385.44H949.608V2365.44ZM953.206 2333.38L972.382 2339.06L972.382 2339.06L953.206 2333.38ZM995.665 2311.69L985.269 2328.78L985.272 2328.78L995.665 2311.69ZM1005.55 2322.19L1022.93 2312.3L1022.93 2312.3L1005.55 2322.19ZM1011.67 2338.89L992.157 2343.29L992.157 2343.29L1011.67 2338.89ZM1013.89 2365.44L1033.89 2365.44V2365.44H1013.89ZM1010.32 2397.35L1029.51 2402.98L1029.51 2402.98L1010.32 2397.35ZM999.666 2416.12L1013.32 2430.74L1013.32 2430.74L999.666 2416.12ZM959.358 2411.1L942.937 2422.52L942.95 2422.54L942.962 2422.56L959.358 2411.1ZM949.609 2365.44H969.609V2345.44H949.609V2365.44ZM967.729 2402.26L950.734 2412.8L950.735 2412.8L967.729 2402.26ZM995.766 2402.22L1012.78 2412.73L1012.78 2412.73L995.766 2402.22ZM995.766 2328.59L1012.74 2318.01L1012.74 2318.01L995.766 2328.59ZM968.3 2327.52L951.291 2316.99L951.255 2317.05L951.219 2317.11L968.3 2327.52ZM969.608 2365.44C969.608 2353.12 970.749 2344.57 972.382 2339.06L934.03 2327.69C930.865 2338.38 929.608 2351.2 929.608 2365.44H969.608ZM972.382 2339.06C974.068 2333.36 976.094 2330.61 977.508 2329.3L950.284 2299.99C942.241 2307.46 937.139 2317.2 934.029 2327.7L972.382 2339.06ZM977.508 2329.3C978.117 2328.73 979.02 2328.05 981.747 2328.05V2288.05C970.131 2288.05 959.134 2291.77 950.284 2299.99L977.508 2329.3ZM981.747 2328.05C983.87 2328.05 984.814 2328.5 985.269 2328.78L1006.06 2294.61C998.538 2290.03 990.203 2288.05 981.747 2288.05V2328.05ZM985.272 2328.78C986.005 2329.23 987.029 2330.08 988.164 2332.08L1022.93 2312.3C1018.87 2305.15 1013.3 2299.01 1006.06 2294.61L985.272 2328.78ZM988.163 2332.08C989.56 2334.53 990.997 2338.14 992.157 2343.29L1031.18 2334.5C1029.38 2326.52 1026.74 2318.99 1022.93 2312.3L988.163 2332.08ZM992.157 2343.29C993.169 2347.78 993.886 2354.96 993.886 2365.44H1033.89C1033.89 2353.66 1033.13 2343.13 1031.18 2334.49L992.157 2343.29ZM993.886 2365.44C993.886 2377.65 992.757 2386.18 991.131 2391.72L1029.51 2402.98C1032.64 2392.33 1033.89 2379.58 1033.89 2365.44L993.886 2365.44ZM991.132 2391.72C989.466 2397.4 987.445 2400.17 986.012 2401.51L1013.32 2430.74C1021.34 2423.24 1026.43 2413.5 1029.51 2402.98L991.132 2391.72ZM986.012 2401.51C985.423 2402.06 984.524 2402.75 981.748 2402.75V2442.75C993.404 2442.75 1004.45 2439.02 1013.32 2430.74L986.012 2401.51ZM981.748 2402.75C978.752 2402.75 977.421 2402.04 975.754 2399.65L942.962 2422.56C952.143 2435.7 965.738 2442.75 981.748 2442.75V2402.75ZM975.779 2399.69C972.876 2395.51 969.609 2385.45 969.609 2365.44H929.609C929.609 2387.62 932.841 2408 942.937 2422.52L975.779 2399.69ZM949.609 2345.44H949.608V2385.44H949.609V2345.44ZM942.047 2365.44C942.047 2375.24 942.544 2384.02 943.702 2391.52C944.804 2398.66 946.747 2406.37 950.734 2412.8L984.724 2391.71C984.924 2392.04 984.026 2390.56 983.234 2385.42C982.498 2380.65 982.047 2374.08 982.047 2365.44H942.047ZM950.735 2412.8C956.959 2422.83 967.249 2431.41 981.747 2431.41V2391.41C982.213 2391.41 982.809 2391.48 983.461 2391.67C984.112 2391.87 984.638 2392.13 985.01 2392.38C985.719 2392.84 985.501 2392.96 984.723 2391.71L950.735 2412.8ZM981.747 2431.41C996.289 2431.41 1006.57 2422.77 1012.78 2412.73L978.752 2391.7C977.967 2392.97 977.743 2392.85 978.451 2392.39C978.824 2392.14 979.353 2391.87 980.01 2391.68C980.668 2391.48 981.273 2391.41 981.747 2391.41V2431.41ZM1012.78 2412.73C1016.75 2406.31 1018.69 2398.62 1019.79 2391.48C1020.95 2383.98 1021.45 2375.22 1021.45 2365.44H981.447C981.447 2374.05 980.997 2380.61 980.261 2385.37C979.471 2390.49 978.572 2391.99 978.752 2391.7L1012.78 2412.73ZM1021.45 2365.44C1021.45 2355.62 1020.95 2346.82 1019.79 2339.31C1018.69 2332.18 1016.75 2324.45 1012.74 2318.01L978.791 2339.16C978.569 2338.81 979.466 2340.26 980.26 2345.41C980.996 2350.18 981.447 2356.78 981.447 2365.44H1021.45ZM1012.74 2318.01C1006.42 2307.87 996.045 2299.47 981.613 2299.47V2339.47C981.208 2339.47 980.661 2339.41 980.047 2339.23C979.432 2339.05 978.925 2338.8 978.556 2338.56C977.845 2338.1 978.043 2337.96 978.792 2339.16L1012.74 2318.01ZM981.613 2299.47C968.085 2299.47 957.67 2306.68 951.291 2316.99L985.309 2338.04C985.656 2337.48 985.48 2337.98 984.461 2338.6C983.965 2338.9 983.407 2339.14 982.838 2339.29C982.277 2339.44 981.845 2339.47 981.613 2339.47V2299.47ZM951.219 2317.11C947.241 2323.64 945.116 2331.36 943.877 2338.88C942.599 2346.63 942.047 2355.56 942.047 2365.44H982.047C982.047 2356.88 982.537 2350.27 983.344 2345.38C984.189 2340.26 985.19 2338.23 985.381 2337.92L951.219 2317.11Z" fill="black" mask="url(#path-11-inside-5_144_4)"/>
</g>
<path id="path3048" d="M885.871 2393.71C885.871 2393.71 885.872 2393.71 885.872 2393.71L890.519 2397.58L885.871 2393.71ZM885.871 2393.71C884.791 2395.01 883.779 2396.33 882.838 2397.67L888.447 2401.85L888.447 2397.58L890.518 2397.58M891.892 2398.73L893.545 2400.1L891.892 2398.72C892.211 2398.35 892.541 2397.97 892.881 2397.58L891.892 2398.73Z" fill="#1A1A18" stroke="black" stroke-width="20"/>
<g id="path3050">
<mask id="path-14-inside-6_144_4" fill="white">
<path d="M761.569 2420.83V2339.47H772.462V2351.04C777.706 2342.1 785.281 2337.63 795.187 2337.63C799.49 2337.63 803.446 2338.51 807.054 2340.27C810.662 2342.03 813.363 2344.34 815.156 2347.2C816.949 2350.06 818.204 2353.46 818.921 2357.39C819.369 2359.95 819.594 2364.42 819.594 2370.8V2420.83H807.491V2371.34C807.491 2365.72 807.02 2361.52 806.08 2358.73C805.14 2355.95 803.469 2353.73 801.071 2352.07C798.673 2350.41 795.86 2349.58 792.633 2349.58C787.478 2349.58 783.03 2351.44 779.287 2355.17C775.544 2358.9 773.673 2365.97 773.673 2376.39V2420.83L761.569 2420.83Z"/>
</mask>
<path d="M761.569 2420.83V2339.47H772.462V2351.04C777.706 2342.1 785.281 2337.63 795.187 2337.63C799.49 2337.63 803.446 2338.51 807.054 2340.27C810.662 2342.03 813.363 2344.34 815.156 2347.2C816.949 2350.06 818.204 2353.46 818.921 2357.39C819.369 2359.95 819.594 2364.42 819.594 2370.8V2420.83H807.491V2371.34C807.491 2365.72 807.02 2361.52 806.08 2358.73C805.14 2355.95 803.469 2353.73 801.071 2352.07C798.673 2350.41 795.86 2349.58 792.633 2349.58C787.478 2349.58 783.03 2351.44 779.287 2355.17C775.544 2358.9 773.673 2365.97 773.673 2376.39V2420.83L761.569 2420.83Z" fill="#1A1A18"/>
<path d="M761.569 2420.83H741.569V2440.84L761.572 2440.83L761.569 2420.83ZM761.569 2339.47V2319.47H741.569V2339.47H761.569ZM772.462 2339.47H792.462V2319.47H772.462V2339.47ZM772.462 2351.04H752.462V2424.65L789.712 2361.16L772.462 2351.04ZM807.054 2340.27L815.832 2322.3L815.82 2322.29L807.054 2340.27ZM815.156 2347.2L832.103 2336.58L832.102 2336.58L815.156 2347.2ZM818.921 2357.39L838.621 2353.94L838.609 2353.87L838.597 2353.81L818.921 2357.39ZM819.594 2420.83V2440.83H839.594V2420.83H819.594ZM807.491 2420.83H787.491V2440.83H807.491V2420.83ZM801.071 2352.07L812.455 2335.63L812.453 2335.62L801.071 2352.07ZM779.287 2355.17L765.172 2341L765.171 2341L779.287 2355.17ZM773.673 2420.83L773.675 2440.83L793.673 2440.83V2420.83H773.673ZM781.569 2420.83V2339.47H741.569V2420.83H781.569ZM761.569 2359.47H772.462V2319.47H761.569V2359.47ZM752.462 2339.47V2351.04H792.462V2339.47H752.462ZM789.712 2361.16C790.921 2359.1 791.861 2358.43 792.238 2358.21C792.572 2358.01 793.346 2357.63 795.187 2357.63V2317.63C777.795 2317.63 763.844 2326.2 755.211 2340.91L789.712 2361.16ZM795.187 2357.63C796.666 2357.63 797.596 2357.91 798.288 2358.25L815.82 2322.29C809.296 2319.11 802.315 2317.63 795.187 2317.63V2357.63ZM798.277 2358.24C798.755 2358.48 798.873 2358.6 798.783 2358.52C798.739 2358.48 798.653 2358.41 798.545 2358.28C798.437 2358.16 798.321 2358 798.21 2357.83L832.102 2336.58C827.976 2330 822.149 2325.39 815.832 2322.3L798.277 2358.24ZM798.21 2357.83C798.431 2358.18 798.901 2359.09 799.246 2360.98L838.597 2353.81C837.507 2347.83 835.467 2341.95 832.103 2336.58L798.21 2357.83ZM799.222 2360.85C799.218 2360.83 799.255 2361.04 799.306 2361.57C799.355 2362.09 799.406 2362.77 799.451 2363.66C799.541 2365.46 799.594 2367.82 799.594 2370.8H839.594C839.594 2364.44 839.402 2358.4 838.621 2353.94L799.222 2360.85ZM799.594 2370.8V2420.83H839.594V2370.8H799.594ZM819.594 2400.83H807.491V2440.83H819.594V2400.83ZM827.491 2420.83V2371.34H787.491V2420.83H827.491ZM827.491 2371.34C827.491 2365.15 827.039 2358.29 825.028 2352.33L787.131 2365.13C786.994 2364.73 787.124 2364.96 787.263 2366.2C787.393 2367.37 787.491 2369.05 787.491 2371.34H827.491ZM825.028 2352.33C822.72 2345.5 818.408 2339.75 812.455 2335.63L789.687 2368.51C789.214 2368.19 788.652 2367.69 788.136 2367C787.62 2366.31 787.305 2365.65 787.131 2365.13L825.028 2352.33ZM812.453 2335.62C806.366 2331.41 799.487 2329.58 792.633 2329.58V2369.58C792.515 2369.58 792.1 2369.56 791.495 2369.38C790.872 2369.2 790.245 2368.9 789.689 2368.52L812.453 2335.62ZM792.633 2329.58C782.037 2329.58 772.556 2333.65 765.172 2341L793.401 2369.34C793.522 2369.22 793.56 2369.2 793.504 2369.24C793.446 2369.28 793.329 2369.35 793.163 2369.42C792.995 2369.49 792.837 2369.54 792.713 2369.56C792.591 2369.58 792.556 2369.58 792.633 2369.58V2329.58ZM765.171 2341C755.356 2350.78 753.673 2365.18 753.673 2376.39H793.673C793.673 2372.25 794.06 2369.72 794.411 2368.39C794.773 2367.02 794.828 2367.92 793.402 2369.34L765.171 2341ZM753.673 2376.39V2420.83H793.673V2376.39H753.673ZM773.67 2400.83L761.567 2400.83L761.572 2440.83L773.675 2440.83L773.67 2400.83Z" fill="black" mask="url(#path-14-inside-6_144_4)"/>
</g>
<g id="path3052">
<mask id="path-16-inside-7_144_4" fill="white">
<path d="M727.192 2420.84V2308.51H740.236V2420.84H727.192Z"/>
</mask>
<path d="M727.192 2420.84V2308.51H740.236V2420.84H727.192Z" fill="#1A1A18"/>
<path d="M727.192 2420.84H707.192V2440.84H727.192V2420.84ZM727.192 2308.51V2288.51H707.192V2308.51H727.192ZM740.236 2308.51H760.236V2288.51H740.236V2308.51ZM740.236 2420.84V2440.84H760.236V2420.84H740.236ZM747.192 2420.84V2308.51H707.192V2420.84H747.192ZM727.192 2328.51H740.236V2288.51H727.192V2328.51ZM720.236 2308.51V2420.84H760.236V2308.51H720.236ZM740.236 2400.84H727.192V2440.84H740.236V2400.84Z" fill="black" mask="url(#path-16-inside-7_144_4)"/>
</g>
<g id="path3054">
<mask id="path-18-inside-8_144_4" fill="white">
<path d="M1245.44 2390.39V2359.52H1218.61V2346.72H1245.44V2316.15H1256.87V2346.72H1283.7V2359.52H1256.87V2390.39H1245.44ZM1283.7 2410.31H1218.61V2397.44H1283.7V2410.31Z"/>
</mask>
<path d="M1245.44 2390.39V2359.52H1218.61V2346.72H1245.44V2316.15H1256.87V2346.72H1283.7V2359.52H1256.87V2390.39H1245.44ZM1283.7 2410.31H1218.61V2397.44H1283.7V2410.31Z" fill="#1A1A18"/>
<path d="M1245.44 2390.39H1225.44V2410.39H1245.44V2390.39ZM1245.44 2359.52H1265.44V2339.52H1245.44V2359.52ZM1218.61 2359.52H1198.61V2379.52H1218.61V2359.52ZM1218.61 2346.72V2326.72H1198.61V2346.72H1218.61ZM1245.44 2346.72V2366.72H1265.44V2346.72H1245.44ZM1245.44 2316.15V2296.15H1225.44V2316.15H1245.44ZM1256.87 2316.15H1276.87V2296.15H1256.87V2316.15ZM1256.87 2346.72H1236.87V2366.72H1256.87V2346.72ZM1283.7 2346.72H1303.7V2326.72H1283.7V2346.72ZM1283.7 2359.52V2379.52H1303.7V2359.52H1283.7ZM1256.87 2359.52V2339.52H1236.87V2359.52H1256.87ZM1256.87 2390.39V2410.39H1276.87V2390.39H1256.87ZM1283.7 2410.31V2430.31H1303.7V2410.31H1283.7ZM1218.61 2410.31H1198.61V2430.31H1218.61V2410.31ZM1218.61 2397.44V2377.44H1198.61V2397.44H1218.61ZM1283.7 2397.44H1303.7V2377.44H1283.7V2397.44ZM1265.44 2390.39V2359.52H1225.44V2390.39H1265.44ZM1245.44 2339.52H1218.61V2379.52H1245.44V2339.52ZM1238.61 2359.52V2346.72H1198.61V2359.52H1238.61ZM1218.61 2366.72H1245.44V2326.72H1218.61V2366.72ZM1265.44 2346.72V2316.15H1225.44V2346.72H1265.44ZM1245.44 2336.15H1256.87V2296.15H1245.44V2336.15ZM1236.87 2316.15V2346.72H1276.87V2316.15H1236.87ZM1256.87 2366.72H1283.7V2326.72H1256.87V2366.72ZM1263.7 2346.72V2359.52H1303.7V2346.72H1263.7ZM1283.7 2339.52H1256.87V2379.52H1283.7V2339.52ZM1236.87 2359.52V2390.39H1276.87V2359.52H1236.87ZM1256.87 2370.39H1245.44V2410.39H1256.87V2370.39ZM1283.7 2390.31H1218.61V2430.31H1283.7V2390.31ZM1238.61 2410.31V2397.44H1198.61V2410.31H1238.61ZM1218.61 2417.44H1283.7V2377.44H1218.61V2417.44ZM1263.7 2397.44V2410.31H1303.7V2397.44H1263.7Z" fill="black" mask="url(#path-18-inside-8_144_4)"/>
</g>
<g id="path3056">
<mask id="path-20-inside-9_144_4" fill="white">
<path d="M1489.04 2420.84V2308.51H1501.14V2420.84H1489.04Z"/>
</mask>
<path d="M1489.04 2420.84V2308.51H1501.14V2420.84H1489.04Z" fill="#1A1A18"/>
<path d="M1489.04 2420.84H1469.04V2440.84H1489.04V2420.84ZM1489.04 2308.51V2288.51H1469.04V2308.51H1489.04ZM1501.14 2308.51H1521.14V2288.51H1501.14V2308.51ZM1501.14 2420.84V2440.84H1521.14V2420.84H1501.14ZM1509.04 2420.84V2308.51H1469.04V2420.84H1509.04ZM1489.04 2328.51H1501.14V2288.51H1489.04V2328.51ZM1481.14 2308.51V2420.84H1521.14V2308.51H1481.14ZM1501.14 2400.84H1489.04V2440.84H1501.14V2400.84Z" fill="black" mask="url(#path-20-inside-9_144_4)"/>
</g>
<g id="path3058">
<mask id="path-22-inside-10_144_4" fill="white">
<path d="M1374.47 2420.83V2339.47H1385.29V2350.88C1387.53 2346.9 1390.51 2343.69 1394.23 2341.27C1397.95 2338.84 1402.19 2337.63 1406.94 2337.63C1412.23 2337.63 1416.57 2338.88 1419.95 2341.38C1423.33 2343.88 1425.72 2347.38 1427.11 2351.88C1432.76 2342.38 1440.11 2337.63 1449.16 2337.63C1456.25 2337.63 1461.69 2339.86 1465.5 2344.33C1469.31 2348.8 1471.22 2355.68 1471.22 2364.98V2420.83H1459.18V2369.58C1459.18 2364.06 1458.79 2360.09 1458.01 2357.66C1457.22 2355.24 1455.8 2353.28 1453.74 2351.8C1451.67 2350.32 1449.25 2349.58 1446.47 2349.58C1441.45 2349.58 1437.29 2351.48 1433.97 2355.29C1430.65 2359.09 1428.99 2365.19 1428.99 2373.56V2420.84H1416.89V2367.97C1416.89 2361.84 1415.91 2357.24 1413.93 2354.18C1411.96 2351.11 1408.73 2349.58 1404.25 2349.58C1400.84 2349.58 1397.7 2350.6 1394.8 2352.65C1391.91 2354.69 1389.82 2357.68 1388.52 2361.61C1387.22 2365.54 1386.57 2371.21 1386.57 2378.62V2420.84L1374.47 2420.83Z"/>
</mask>
<path d="M1374.47 2420.83V2339.47H1385.29V2350.88C1387.53 2346.9 1390.51 2343.69 1394.23 2341.27C1397.95 2338.84 1402.19 2337.63 1406.94 2337.63C1412.23 2337.63 1416.57 2338.88 1419.95 2341.38C1423.33 2343.88 1425.72 2347.38 1427.11 2351.88C1432.76 2342.38 1440.11 2337.63 1449.16 2337.63C1456.25 2337.63 1461.69 2339.86 1465.5 2344.33C1469.31 2348.8 1471.22 2355.68 1471.22 2364.98V2420.83H1459.18V2369.58C1459.18 2364.06 1458.79 2360.09 1458.01 2357.66C1457.22 2355.24 1455.8 2353.28 1453.74 2351.8C1451.67 2350.32 1449.25 2349.58 1446.47 2349.58C1441.45 2349.58 1437.29 2351.48 1433.97 2355.29C1430.65 2359.09 1428.99 2365.19 1428.99 2373.56V2420.84H1416.89V2367.97C1416.89 2361.84 1415.91 2357.24 1413.93 2354.18C1411.96 2351.11 1408.73 2349.58 1404.25 2349.58C1400.84 2349.58 1397.7 2350.6 1394.8 2352.65C1391.91 2354.69 1389.82 2357.68 1388.52 2361.61C1387.22 2365.54 1386.57 2371.21 1386.57 2378.62V2420.84L1374.47 2420.83Z" fill="#1A1A18"/>
<path d="M1374.47 2420.83H1354.47V2440.83L1374.46 2440.83L1374.47 2420.83ZM1374.47 2339.47V2319.47H1354.47V2339.47H1374.47ZM1385.29 2339.47H1405.29V2319.47H1385.29V2339.47ZM1385.29 2350.88H1365.29V2427.25L1402.72 2360.69L1385.29 2350.88ZM1419.95 2341.38L1408.06 2357.47L1408.06 2357.47L1419.95 2341.38ZM1427.11 2351.88L1408 2357.79L1421.3 2400.79L1444.3 2362.1L1427.11 2351.88ZM1465.5 2344.33L1480.72 2331.36L1480.72 2331.36L1465.5 2344.33ZM1471.22 2420.83V2440.83H1491.22V2420.83H1471.22ZM1459.18 2420.83H1439.18V2440.83H1459.18V2420.83ZM1458.01 2357.66L1477.04 2351.52L1477.04 2351.51L1458.01 2357.66ZM1453.74 2351.8L1442.07 2368.05L1442.07 2368.05L1453.74 2351.8ZM1433.97 2355.29L1449.05 2368.43L1449.05 2368.43L1433.97 2355.29ZM1428.99 2373.56L1448.99 2373.56L1448.99 2373.56L1428.99 2373.56ZM1428.99 2420.84V2440.84H1448.99V2420.84H1428.99ZM1416.89 2420.84H1396.89V2440.84H1416.89V2420.84ZM1413.93 2354.18L1397.12 2365L1397.12 2365L1413.93 2354.18ZM1394.8 2352.65L1406.35 2368.98L1406.35 2368.98L1394.8 2352.65ZM1388.52 2361.61L1407.51 2367.89L1407.51 2367.89L1388.52 2361.61ZM1386.57 2420.84L1386.57 2440.84L1406.57 2440.84V2420.84H1386.57ZM1394.47 2420.83V2339.47H1354.47V2420.83H1394.47ZM1374.47 2359.47H1385.29V2319.47H1374.47V2359.47ZM1365.29 2339.47V2350.88H1405.29V2339.47H1365.29ZM1402.72 2360.69C1403.43 2359.43 1404.21 2358.64 1405.16 2358.02L1383.31 2324.52C1376.81 2328.75 1371.63 2334.37 1367.86 2341.08L1402.72 2360.69ZM1405.16 2358.02C1405.4 2357.86 1405.78 2357.63 1406.94 2357.63V2317.63C1398.6 2317.63 1390.51 2319.82 1383.31 2324.52L1405.16 2358.02ZM1406.94 2357.63C1408.02 2357.63 1408.53 2357.76 1408.61 2357.78C1408.66 2357.8 1408.6 2357.78 1408.49 2357.73C1408.37 2357.67 1408.22 2357.58 1408.06 2357.47L1431.84 2325.3C1424.22 2319.67 1415.4 2317.63 1406.94 2317.63V2357.63ZM1408.06 2357.47C1408.01 2357.43 1407.95 2357.38 1407.89 2357.31C1407.82 2357.24 1407.78 2357.18 1407.76 2357.15C1407.74 2357.12 1407.75 2357.15 1407.8 2357.24C1407.84 2357.33 1407.92 2357.51 1408 2357.79L1446.22 2345.97C1443.73 2337.91 1439.06 2330.64 1431.84 2325.3L1408.06 2357.47ZM1444.3 2362.1C1445.95 2359.32 1447.22 2358.31 1447.71 2357.99C1448.04 2357.78 1448.35 2357.63 1449.16 2357.63V2317.63C1431.41 2317.63 1418.24 2327.66 1409.92 2341.66L1444.3 2362.1ZM1449.16 2357.63C1450.62 2357.63 1451.09 2357.86 1450.97 2357.81C1450.91 2357.78 1450.77 2357.72 1450.61 2357.6C1450.44 2357.48 1450.33 2357.37 1450.28 2357.31L1480.72 2331.36C1472.33 2321.51 1460.78 2317.63 1449.16 2317.63V2357.63ZM1450.28 2357.31C1449.93 2356.9 1450.17 2356.96 1450.51 2358.18C1450.87 2359.45 1451.22 2361.63 1451.22 2364.98H1491.22C1491.22 2353.55 1488.97 2341.04 1480.72 2331.36L1450.28 2357.31ZM1451.22 2364.98V2420.83H1491.22V2364.98H1451.22ZM1471.22 2400.83H1459.18V2440.83H1471.22V2400.83ZM1479.18 2420.83V2369.58H1439.18V2420.83H1479.18ZM1479.18 2369.58C1479.18 2363.82 1478.85 2357.14 1477.04 2351.52L1438.97 2363.81C1438.75 2363.13 1438.86 2363.17 1438.99 2364.43C1439.1 2365.57 1439.18 2367.25 1439.18 2369.58H1479.18ZM1477.04 2351.51C1474.95 2345.04 1470.95 2339.54 1465.4 2335.56L1442.07 2368.05C1441.46 2367.61 1440.79 2366.98 1440.19 2366.16C1439.58 2365.33 1439.2 2364.5 1438.97 2363.81L1477.04 2351.51ZM1465.4 2335.56C1459.62 2331.4 1453.03 2329.58 1446.47 2329.58V2369.58C1446.07 2369.58 1445.38 2369.53 1444.52 2369.26C1443.64 2368.99 1442.8 2368.57 1442.07 2368.05L1465.4 2335.56ZM1446.47 2329.58C1435.64 2329.58 1425.98 2334.01 1418.89 2342.15L1449.05 2368.43C1449.05 2368.42 1448.96 2368.53 1448.74 2368.7C1448.53 2368.86 1448.24 2369.04 1447.89 2369.2C1447.12 2369.55 1446.55 2369.58 1446.47 2369.58V2329.58ZM1418.89 2342.15C1410.88 2351.33 1408.99 2363.32 1408.99 2373.56L1448.99 2373.56C1448.99 2370.61 1449.3 2368.85 1449.53 2367.97C1449.76 2367.12 1449.81 2367.56 1449.05 2368.43L1418.89 2342.15ZM1408.99 2373.56V2420.84H1448.99V2373.56H1408.99ZM1428.99 2400.84H1416.89V2440.84H1428.99V2400.84ZM1436.89 2420.84V2367.97H1396.89V2420.84H1436.89ZM1436.89 2367.97C1436.89 2360.34 1435.78 2351.17 1430.75 2343.35L1397.12 2365C1396.48 2364.02 1396.47 2363.53 1396.6 2364.12C1396.72 2364.7 1396.89 2365.91 1396.89 2367.97H1436.89ZM1430.75 2343.35C1424.22 2333.21 1413.74 2329.58 1404.25 2329.58V2369.58C1404.24 2369.58 1403.96 2369.58 1403.48 2369.48C1402.98 2369.39 1402.28 2369.19 1401.45 2368.8C1399.63 2367.93 1398.1 2366.54 1397.12 2365L1430.75 2343.35ZM1404.25 2329.58C1396.54 2329.58 1389.39 2331.98 1383.26 2336.32L1406.35 2368.98C1406.27 2369.04 1405.98 2369.22 1405.51 2369.37C1405.03 2369.53 1404.58 2369.58 1404.25 2369.58V2329.58ZM1383.26 2336.31C1376.31 2341.23 1371.93 2348.05 1369.53 2355.33L1407.51 2367.89C1407.63 2367.53 1407.65 2367.6 1407.44 2367.9C1407.21 2368.23 1406.84 2368.63 1406.35 2368.98L1383.26 2336.31ZM1369.53 2355.33C1367.23 2362.29 1366.57 2370.48 1366.57 2378.62H1406.57C1406.57 2371.94 1407.21 2368.79 1407.51 2367.89L1369.53 2355.33ZM1366.57 2378.62V2420.84H1406.57V2378.62H1366.57ZM1386.57 2400.84L1374.47 2400.83L1374.46 2440.83L1386.57 2440.84L1386.57 2400.84Z" fill="black" mask="url(#path-22-inside-10_144_4)"/>
</g>
<path id="path3060" d="M1326.35 2411.41C1332.18 2411.41 1337.11 2408.91 1341.14 2403.9L1307.39 2390.19C1308.33 2397.24 1310.52 2402.54 1313.94 2406.09C1317.37 2409.64 1321.51 2411.41 1326.35 2411.41Z" fill="#1A1A18" stroke="black" stroke-width="20"/>
</g>
<path id="path2454" d="M825.742 3326.12H1397.91M552.28 2659.09H1671.56H552.28ZM825.742 2733.26H1397.91H825.742ZM825.742 2807.22H1397.91H825.742ZM825.742 2881.4H1397.91H825.742ZM825.742 2955.57H1397.91H825.742ZM734.556 3029.74H1489.09H734.556ZM825.742 3103.7H1397.91H825.742ZM825.742 3177.98H1397.91H825.742ZM825.742 3252.05H1397.91H825.742Z" stroke="black" stroke-width="20"/>
<path id="path2462" d="M825.742 4067.47H1397.91M552.28 3400.33H1671.56H552.28ZM825.742 3474.51H1397.91H825.742ZM825.742 3548.58H1397.91H825.742ZM825.742 3622.64H1397.91H825.742ZM825.742 3696.92H1397.91H825.742ZM734.556 3771.1H1489.09H734.556ZM825.742 3844.95H1397.91H825.742ZM825.742 3919.23H1397.91H825.742ZM825.742 3993.41H1397.91H825.742Z" stroke="black" stroke-width="20"/>
<path id="path2470" d="M825.742 4808.94H1397.91M552.28 4141.69H1671.56H552.28ZM825.742 4215.86H1397.91H825.742ZM825.742 4289.82H1397.91H825.742ZM825.742 4364.11H1397.91H825.742ZM825.742 4438.28H1397.91H825.742ZM734.556 4512.45H1489.09H734.556ZM825.742 4586.41H1397.91H825.742ZM825.742 4660.7H1397.91H825.742ZM825.742 4734.76H1397.91H825.742Z" stroke="black" stroke-width="20"/>
<path id="path2478" d="M825.742 5550.17H1397.91M552.28 4883.04H1671.56H552.28ZM825.742 4957.1H1397.91H825.742ZM825.742 5031.17H1397.91H825.742ZM825.742 5105.34H1397.91H825.742ZM825.742 5179.52H1397.91H825.742ZM734.556 5253.69H1489.09H734.556ZM825.742 5327.76H1397.91H825.742ZM825.742 5402.04H1397.91H825.742ZM825.742 5476.22H1397.91H825.742Z" stroke="black" stroke-width="20"/>
<path id="path2486" d="M825.742 6291.61H1397.91M552.28 5624.48H1671.56H552.28ZM825.742 5698.65H1397.91H825.742ZM825.742 5772.5H1397.91H825.742ZM825.742 5846.89H1397.91H825.742ZM825.742 5920.74H1397.91H825.742ZM734.556 5994.92H1489.09H734.556ZM825.742 6069.2H1397.91H825.742ZM825.742 6143.48H1397.91H825.742ZM825.742 6217.33H1397.91H825.742Z" stroke="black" stroke-width="20"/>
<path id="path2494" d="M825.742 7032.87H1397.91M552.28 6365.74H1671.56H552.28ZM825.742 6439.91H1397.91H825.742ZM825.742 6513.98H1397.91H825.742ZM825.742 6588.15H1397.91H825.742ZM825.742 6662.22H1397.91H825.742ZM734.556 6736.39H1489.09H734.556ZM825.742 6810.46H1397.91H825.742ZM825.742 6884.85H1397.91H825.742ZM825.742 6958.7H1397.91H825.742Z" stroke="black" stroke-width="20"/>
<path id="path2502" d="M825.742 7774.33H1397.91M552.28 7107.19H1671.56H552.28ZM825.742 7181.36H1397.91H825.742ZM825.742 7255.21H1397.91H825.742ZM825.742 7329.39H1397.91H825.742ZM825.742 7403.45H1397.91H825.742ZM734.556 7477.63H1489.09H734.556ZM825.742 7551.91H1397.91H825.742ZM825.742 7625.87H1397.91H825.742ZM825.742 7700.04H1397.91H825.742Z" stroke="black" stroke-width="20"/>
<path id="path2510" d="M825.742 8515.56H1397.91M552.28 7848.43H1671.56H552.28ZM825.742 7922.38H1397.91H825.742ZM825.742 7996.67H1397.91H825.742ZM825.742 8070.84H1397.91H825.742ZM825.742 8144.91H1397.91H825.742ZM734.556 8219.08H1489.09H734.556ZM825.742 8293.15H1397.91H825.742ZM825.742 8367.32H1397.91H825.742ZM825.742 8441.39H1397.91H825.742Z" stroke="black" stroke-width="20"/>
<path id="path2518" d="M825.742 9256.99H1397.91M552.28 8589.86H1671.56H552.28ZM825.742 8663.81H1397.91H825.742ZM825.742 8737.99H1397.91H825.742ZM825.742 8812.06H1397.91H825.742ZM825.742 8886.23H1397.91H825.742ZM734.556 8960.3H1489.09H734.556ZM825.742 9034.47H1397.91H825.742ZM825.742 9108.54H1397.91H825.742ZM825.742 9182.71H1397.91H825.742Z" stroke="black" stroke-width="20"/>
<path id="path2526" d="M552.28 9330.91H1671.56" stroke="black" stroke-width="20"/>
<path id="path2534" d="M624.744 55C499.4 55 316.744 135.662 294.54 150.692C272.622 165.938 263.797 175.453 265.98 192.969C268.163 210.702 285.811 215.459 305.642 205.511C325.473 195.455 435.351 129.715 622.657 102.575" stroke="black" stroke-width="20" stroke-miterlimit="10" stroke-linecap="round" stroke-linejoin="round"/>
<g id="cMarking">
<path id="10" d="M1577.89 2455.59V2610H1558.38V2479.96L1519.04 2494.3V2476.69L1574.83 2455.59H1577.89ZM1731.66 2520.98V2544.4C1731.66 2556.98 1730.54 2567.6 1728.29 2576.25C1726.04 2584.9 1722.8 2591.86 1718.58 2597.13C1714.36 2602.41 1709.27 2606.24 1703.29 2608.63C1697.38 2610.95 1690.7 2612.11 1683.25 2612.11C1677.34 2612.11 1671.89 2611.37 1666.9 2609.89C1661.91 2608.42 1657.41 2606.06 1653.4 2602.83C1649.46 2599.52 1646.09 2595.23 1643.28 2589.96C1640.46 2584.69 1638.32 2578.29 1636.84 2570.77C1635.37 2563.24 1634.63 2554.45 1634.63 2544.4V2520.98C1634.63 2508.4 1635.75 2497.85 1638 2489.34C1640.32 2480.84 1643.59 2474.02 1647.81 2468.88C1652.03 2463.68 1657.09 2459.95 1663 2457.7C1668.98 2455.45 1675.66 2454.33 1683.04 2454.33C1689.02 2454.33 1694.5 2455.07 1699.49 2456.54C1704.55 2457.95 1709.05 2460.23 1712.99 2463.4C1716.93 2466.49 1720.27 2470.64 1723.01 2475.84C1725.82 2480.98 1727.97 2487.27 1729.45 2494.72C1730.92 2502.18 1731.66 2510.93 1731.66 2520.98ZM1712.04 2547.56V2517.71C1712.04 2510.82 1711.62 2504.78 1710.78 2499.57C1710 2494.3 1708.84 2489.8 1707.3 2486.07C1705.75 2482.35 1703.78 2479.32 1701.39 2477C1699.07 2474.68 1696.36 2473 1693.27 2471.94C1690.25 2470.82 1686.84 2470.25 1683.04 2470.25C1678.4 2470.25 1674.29 2471.13 1670.7 2472.89C1667.11 2474.58 1664.09 2477.29 1661.63 2481.01C1659.24 2484.74 1657.41 2489.62 1656.14 2495.67C1654.88 2501.72 1654.25 2509.07 1654.25 2517.71V2547.56C1654.25 2554.45 1654.63 2560.54 1655.41 2565.81C1656.25 2571.08 1657.48 2575.65 1659.1 2579.52C1660.71 2583.32 1662.68 2586.45 1665 2588.91C1667.32 2591.37 1670 2593.2 1673.02 2594.39C1676.11 2595.52 1679.52 2596.08 1683.25 2596.08C1688.03 2596.08 1692.21 2595.16 1695.8 2593.34C1699.39 2591.51 1702.38 2588.66 1704.77 2584.79C1707.23 2580.86 1709.05 2575.83 1710.25 2569.71C1711.45 2563.52 1712.04 2556.14 1712.04 2547.56Z" fill="black"/>
<path id="9" d="M1593.17 3330.65H1595.17C1606.42 3330.65 1615.56 3329.07 1622.59 3325.91C1629.62 3322.74 1635.04 3318.49 1638.84 3313.14C1642.63 3307.8 1645.23 3301.79 1646.64 3295.11C1648.05 3288.36 1648.75 3281.43 1648.75 3274.33V3250.81C1648.75 3243.85 1647.94 3237.66 1646.32 3232.25C1644.78 3226.84 1642.6 3222.3 1639.79 3218.64C1637.04 3214.99 1633.91 3212.21 1630.4 3210.31C1626.88 3208.41 1623.16 3207.46 1619.22 3207.46C1614.72 3207.46 1610.68 3208.38 1607.09 3210.21C1603.57 3211.96 1600.59 3214.46 1598.12 3217.7C1595.73 3220.93 1593.91 3224.73 1592.64 3229.09C1591.38 3233.45 1590.74 3238.19 1590.74 3243.32C1590.74 3247.89 1591.3 3252.32 1592.43 3256.61C1593.55 3260.9 1595.28 3264.77 1597.6 3268.21C1599.92 3271.66 1602.8 3274.4 1606.25 3276.44C1609.76 3278.41 1613.88 3279.39 1618.59 3279.39C1622.95 3279.39 1627.02 3278.55 1630.82 3276.86C1634.69 3275.11 1638.1 3272.75 1641.05 3269.8C1644.07 3266.77 1646.46 3263.36 1648.22 3259.57C1650.05 3255.77 1651.11 3251.8 1651.39 3247.65H1660.67C1660.67 3253.48 1659.51 3259.25 1657.19 3264.95C1654.94 3270.57 1651.77 3275.7 1647.7 3280.34C1643.62 3284.98 1638.84 3288.71 1633.35 3291.52C1627.87 3294.27 1621.89 3295.64 1615.42 3295.64C1607.83 3295.64 1601.25 3294.16 1595.7 3291.21C1590.14 3288.25 1585.57 3284.32 1581.99 3279.39C1578.47 3274.47 1575.84 3268.99 1574.08 3262.94C1572.39 3256.82 1571.55 3250.64 1571.55 3244.38C1571.55 3237.07 1572.57 3230.21 1574.61 3223.81C1576.64 3217.41 1579.67 3211.79 1583.68 3206.94C1587.68 3202.02 1592.64 3198.18 1598.55 3195.44C1604.52 3192.7 1611.41 3191.33 1619.22 3191.33C1628.01 3191.33 1635.5 3193.09 1641.68 3196.6C1647.87 3200.12 1652.9 3204.83 1656.77 3210.73C1660.7 3216.64 1663.59 3223.29 1665.41 3230.67C1667.24 3238.05 1668.16 3245.64 1668.16 3253.45V3260.52C1668.16 3268.46 1667.63 3276.55 1666.57 3284.77C1665.59 3292.93 1663.66 3300.73 1660.77 3308.19C1657.96 3315.64 1653.85 3322.32 1648.43 3328.23C1643.02 3334.06 1635.95 3338.7 1627.23 3342.15C1618.59 3345.52 1607.9 3347.21 1595.17 3347.21H1593.17V3330.65Z" fill="black"/>
<path id="8" d="M1671.58 3972.45C1671.58 3981.8 1669.4 3989.74 1665.04 3996.28C1660.75 4002.75 1654.92 4007.67 1647.54 4011.05C1640.22 4014.42 1631.96 4016.11 1622.75 4016.11C1613.54 4016.11 1605.24 4014.42 1597.86 4011.05C1590.48 4007.67 1584.64 4002.75 1580.35 3996.28C1576.06 3989.74 1573.92 3981.8 1573.92 3972.45C1573.92 3966.33 1575.08 3960.74 1577.4 3955.68C1579.79 3950.54 1583.13 3946.08 1587.42 3942.28C1591.78 3938.48 1596.91 3935.57 1602.82 3933.53C1608.79 3931.42 1615.37 3930.36 1622.54 3930.36C1631.96 3930.36 1640.36 3932.19 1647.75 3935.85C1655.13 3939.43 1660.93 3944.39 1665.15 3950.72C1669.44 3957.05 1671.58 3964.29 1671.58 3972.45ZM1651.96 3972.02C1651.96 3966.33 1650.73 3961.3 1648.27 3956.94C1645.81 3952.51 1642.37 3949.07 1637.94 3946.61C1633.51 3944.14 1628.38 3942.91 1622.54 3942.91C1616.56 3942.91 1611.39 3944.14 1607.04 3946.61C1602.75 3949.07 1599.41 3952.51 1597.02 3956.94C1594.62 3961.3 1593.43 3966.33 1593.43 3972.02C1593.43 3977.93 1594.59 3982.99 1596.91 3987.21C1599.3 3991.36 1602.68 3994.56 1607.04 3996.81C1611.46 3998.99 1616.7 4000.08 1622.75 4000.08C1628.8 4000.08 1634 3998.99 1638.36 3996.81C1642.72 3994.56 1646.06 3991.36 1648.38 3987.21C1650.77 3982.99 1651.96 3977.93 1651.96 3972.02ZM1668 3900.41C1668 3907.86 1666.03 3914.58 1662.09 3920.55C1658.15 3926.53 1652.77 3931.24 1645.95 3934.69C1639.13 3938.13 1631.4 3939.86 1622.75 3939.86C1613.96 3939.86 1606.12 3938.13 1599.23 3934.69C1592.41 3931.24 1587.07 3926.53 1583.2 3920.55C1579.33 3914.58 1577.4 3907.86 1577.4 3900.41C1577.4 3891.48 1579.33 3883.89 1583.2 3877.63C1587.14 3871.37 1592.52 3866.59 1599.34 3863.29C1606.16 3859.98 1613.93 3858.33 1622.64 3858.33C1631.43 3858.33 1639.24 3859.98 1646.06 3863.29C1652.88 3866.59 1658.22 3871.37 1662.09 3877.63C1666.03 3883.89 1668 3891.48 1668 3900.41ZM1648.48 3900.73C1648.48 3895.59 1647.39 3891.06 1645.21 3887.12C1643.04 3883.18 1640.01 3880.09 1636.14 3877.84C1632.28 3875.52 1627.78 3874.36 1622.64 3874.36C1617.51 3874.36 1613.01 3875.45 1609.14 3877.63C1605.35 3879.74 1602.36 3882.76 1600.18 3886.7C1598.07 3890.64 1597.02 3895.31 1597.02 3900.73C1597.02 3906 1598.07 3910.61 1600.18 3914.54C1602.36 3918.48 1605.38 3921.54 1609.25 3923.72C1613.12 3925.9 1617.62 3926.99 1622.75 3926.99C1627.88 3926.99 1632.35 3925.9 1636.14 3923.72C1640.01 3921.54 1643.04 3918.48 1645.21 3914.54C1647.39 3910.61 1648.48 3906 1648.48 3900.73Z" fill="black"/>
<path id="7" d="M1674.01 4655.44V4666.41L1610.41 4809H1589.84L1653.34 4671.47H1570.23V4655.44H1674.01Z" fill="black"/>
<path id="6" d="M1637.64 5389.23H1639.33V5405.79H1637.64C1627.31 5405.79 1618.66 5407.47 1611.7 5410.85C1604.74 5414.15 1599.22 5418.62 1595.14 5424.24C1591.06 5429.8 1588.11 5436.05 1586.28 5443.02C1584.52 5449.98 1583.64 5457.04 1583.64 5464.21V5486.79C1583.64 5493.61 1584.45 5499.65 1586.07 5504.93C1587.69 5510.13 1589.9 5514.52 1592.71 5518.11C1595.53 5521.7 1598.69 5524.4 1602.21 5526.23C1605.79 5528.06 1609.52 5528.97 1613.39 5528.97C1617.89 5528.97 1621.89 5528.13 1625.41 5526.44C1628.93 5524.68 1631.88 5522.26 1634.27 5519.16C1636.73 5516 1638.59 5512.27 1639.86 5507.98C1641.12 5503.7 1641.76 5498.98 1641.76 5493.85C1641.76 5489.28 1641.2 5484.89 1640.07 5480.67C1638.95 5476.38 1637.22 5472.58 1634.9 5469.28C1632.58 5465.9 1629.66 5463.27 1626.15 5461.37C1622.7 5459.4 1618.59 5458.41 1613.81 5458.41C1608.39 5458.41 1603.33 5459.75 1598.62 5462.42C1593.98 5465.02 1590.15 5468.47 1587.12 5472.76C1584.17 5476.98 1582.48 5481.58 1582.06 5486.57L1571.73 5486.47C1572.71 5478.59 1574.54 5471.88 1577.21 5466.32C1579.95 5460.7 1583.33 5456.13 1587.34 5452.61C1591.41 5449.03 1595.95 5446.43 1600.94 5444.81C1606 5443.12 1611.35 5442.28 1616.97 5442.28C1624.64 5442.28 1631.25 5443.72 1636.8 5446.6C1642.36 5449.48 1646.93 5453.35 1650.51 5458.2C1654.1 5462.98 1656.73 5468.4 1658.42 5474.45C1660.18 5480.42 1661.06 5486.57 1661.06 5492.9C1661.06 5500.14 1660.04 5506.93 1658 5513.26C1655.96 5519.59 1652.9 5525.14 1648.82 5529.92C1644.82 5534.7 1639.86 5538.43 1633.95 5541.1C1628.05 5543.77 1621.19 5545.11 1613.39 5545.11C1605.09 5545.11 1597.85 5543.42 1591.66 5540.05C1585.47 5536.6 1580.34 5532.03 1576.26 5526.34C1572.18 5520.64 1569.12 5514.31 1567.09 5507.35C1565.05 5500.39 1564.03 5493.32 1564.03 5486.15V5476.98C1564.03 5466.15 1565.12 5455.53 1567.3 5445.12C1569.48 5434.72 1573.24 5425.3 1578.58 5416.86C1584 5408.42 1591.48 5401.71 1601.05 5396.71C1610.61 5391.72 1622.81 5389.23 1637.64 5389.23Z" fill="black"/>
<path id="5" d="M1587.44 6188.91L1571.83 6184.9L1579.53 6108.44H1658.32V6126.47H1596.09L1591.45 6168.24C1594.26 6166.62 1597.81 6165.11 1602.1 6163.7C1606.46 6162.3 1611.45 6161.59 1617.08 6161.59C1624.18 6161.59 1630.54 6162.82 1636.17 6165.29C1641.79 6167.68 1646.57 6171.12 1650.51 6175.62C1654.52 6180.12 1657.58 6185.54 1659.69 6191.86C1661.8 6198.19 1662.85 6205.26 1662.85 6213.06C1662.85 6220.45 1661.83 6227.23 1659.79 6233.42C1657.82 6239.61 1654.84 6245.02 1650.83 6249.66C1646.82 6254.23 1641.76 6257.78 1635.64 6260.31C1629.59 6262.84 1622.46 6264.11 1614.23 6264.11C1608.04 6264.11 1602.17 6263.27 1596.62 6261.58C1591.13 6259.82 1586.21 6257.18 1581.85 6253.67C1577.56 6250.08 1574.05 6245.65 1571.3 6240.38C1568.63 6235.04 1566.95 6228.78 1566.24 6221.61H1584.8C1585.65 6227.37 1587.34 6232.22 1589.87 6236.16C1592.4 6240.1 1595.7 6243.09 1599.78 6245.12C1603.93 6247.09 1608.75 6248.08 1614.23 6248.08C1618.87 6248.08 1622.98 6247.27 1626.57 6245.65C1630.16 6244.04 1633.18 6241.71 1635.64 6238.69C1638.1 6235.67 1639.96 6232.01 1641.23 6227.72C1642.57 6223.43 1643.23 6218.62 1643.23 6213.27C1643.23 6208.42 1642.57 6203.92 1641.23 6199.77C1639.89 6195.62 1637.89 6192 1635.22 6188.91C1632.62 6185.82 1629.42 6183.43 1625.62 6181.74C1621.82 6179.98 1617.46 6179.1 1612.54 6179.1C1606 6179.1 1601.05 6179.98 1597.67 6181.74C1594.37 6183.5 1590.96 6185.89 1587.44 6188.91Z" fill="black"/>
<path id="4" d="M1666.54 6954.32V6970.35H1555.59V6958.86L1624.36 6852.44H1640.28L1623.2 6883.23L1577.74 6954.32H1666.54ZM1645.13 6852.44V7006H1625.62V6852.44H1645.13Z" fill="black"/>
<path id="3" d="M1591.24 7708.62H1605.16C1611.98 7708.62 1617.61 7707.5 1622.04 7705.25C1626.54 7702.93 1629.88 7699.8 1632.05 7695.86C1634.3 7691.85 1635.43 7687.35 1635.43 7682.36C1635.43 7676.45 1634.45 7671.5 1632.48 7667.49C1630.51 7663.48 1627.55 7660.46 1623.62 7658.42C1619.68 7656.38 1614.69 7655.36 1608.64 7655.36C1603.16 7655.36 1598.3 7656.45 1594.09 7658.63C1589.94 7660.74 1586.67 7663.76 1584.28 7667.7C1581.96 7671.64 1580.8 7676.28 1580.8 7681.62H1561.29C1561.29 7673.82 1563.25 7666.71 1567.19 7660.32C1571.13 7653.92 1576.65 7648.82 1583.75 7645.02C1590.92 7641.23 1599.22 7639.33 1608.64 7639.33C1617.92 7639.33 1626.04 7640.98 1633 7644.29C1639.96 7647.52 1645.38 7652.37 1649.25 7658.84C1653.11 7665.24 1655.05 7673.22 1655.05 7682.78C1655.05 7686.65 1654.13 7690.8 1652.3 7695.23C1650.55 7699.59 1647.77 7703.66 1643.97 7707.46C1640.25 7711.26 1635.39 7714.39 1629.42 7716.85C1623.44 7719.24 1616.27 7720.43 1607.9 7720.43H1591.24V7708.62ZM1591.24 7724.65V7712.95H1607.9C1617.68 7712.95 1625.76 7714.11 1632.16 7716.43C1638.56 7718.75 1643.59 7721.84 1647.24 7725.71C1650.97 7729.57 1653.57 7733.83 1655.05 7738.47C1656.59 7743.04 1657.37 7747.61 1657.37 7752.18C1657.37 7759.35 1656.14 7765.71 1653.68 7771.27C1651.29 7776.82 1647.88 7781.54 1643.45 7785.4C1639.09 7789.27 1633.95 7792.19 1628.05 7794.16C1622.14 7796.12 1615.71 7797.11 1608.75 7797.11C1602.07 7797.11 1595.77 7796.16 1589.87 7794.26C1584.03 7792.36 1578.86 7789.62 1574.36 7786.04C1569.86 7782.38 1566.35 7777.91 1563.82 7772.64C1561.29 7767.3 1560.02 7761.21 1560.02 7754.39H1579.53C1579.53 7759.74 1580.69 7764.41 1583.01 7768.42C1585.4 7772.43 1588.78 7775.56 1593.14 7777.81C1597.57 7779.99 1602.77 7781.08 1608.75 7781.08C1614.72 7781.08 1619.86 7780.06 1624.14 7778.02C1628.5 7775.91 1631.84 7772.75 1634.16 7768.53C1636.55 7764.31 1637.75 7759 1637.75 7752.6C1637.75 7746.2 1636.41 7740.96 1633.74 7736.89C1631.07 7732.74 1627.27 7729.68 1622.35 7727.71C1617.5 7725.67 1611.77 7724.65 1605.16 7724.65H1591.24Z" fill="black"/>
<path id="2" d="M1663.38 8515.97V8532H1562.87V8517.97L1613.18 8461.97C1619.36 8455.08 1624.14 8449.24 1627.52 8444.46C1630.96 8439.61 1633.36 8435.29 1634.69 8431.49C1636.1 8427.62 1636.8 8423.68 1636.8 8419.68C1636.8 8414.61 1635.75 8410.04 1633.64 8405.96C1631.6 8401.82 1628.57 8398.51 1624.57 8396.05C1620.56 8393.59 1615.71 8392.36 1610.01 8392.36C1603.19 8392.36 1597.5 8393.7 1592.93 8396.37C1588.43 8398.97 1585.05 8402.62 1582.8 8407.34C1580.55 8412.05 1579.43 8417.46 1579.43 8423.58H1559.91C1559.91 8414.93 1561.81 8407.02 1565.61 8399.85C1569.41 8392.68 1575.03 8386.98 1582.48 8382.76C1589.94 8378.47 1599.11 8376.33 1610.01 8376.33C1619.71 8376.33 1628.01 8378.05 1634.9 8381.5C1641.79 8384.87 1647.07 8389.65 1650.72 8395.84C1654.45 8401.96 1656.31 8409.13 1656.31 8417.36C1656.31 8421.86 1655.54 8426.43 1653.99 8431.07C1652.52 8435.64 1650.44 8440.21 1647.77 8444.78C1645.17 8449.35 1642.11 8453.85 1638.59 8458.28C1635.15 8462.71 1631.46 8467.07 1627.52 8471.36L1586.39 8515.97H1663.38Z" fill="black"/>
<path id="1" d="M1626.89 9096.59V9251H1607.38V9120.96L1568.04 9135.3V9117.69L1623.83 9096.59H1626.89Z" fill="black"/>
</g>
<rect id="cyFill" x="447" y="8590" width="1360" height="1607" fill="#C7E3E1" fill-opacity="0.5"/>
<g id="Group 13">
<g id="path2418">
<path d="M2208 10815L1792 10207H432L0 10815H2208Z" fill="#C7E3E1" fill-opacity="0.3"/>
<path d="M886.143 39H910.434H934.63H958.826H985.204H1009.4H1035.97H1060.07H1084.46H1110.93H1137.21H1161.6H1187.98H1212.17H1236.46H1262.84H1287.04H1311.33H1335.71H1359.81H1381.92H1406.02H1428.13H1450.05H1472.25H1492.09H1511.82H1533.93H1551.58H1571.41H1588.96H1606.52H1621.99H1637.45H1652.73H1668.29H1681.57H1692.49H1705.77H1716.78H1725.6H1734.43H1743.25H1752.07H1758.62H1762.99H1767.35H1771.91H1773.99H1776.27H1782.91L1789.36 41.3769L1793.92 43.9729L1798.28 49.0563L1802.65 56.5165L1804.92 61.4894V69.0584M630.517 39H648.26H667.902H685.645H705.477H725.308H747.322H767.058H789.071H811.085H833.288H855.302H879.498H901.512H925.802H949.998H974.289H998.485H1022.78H1046.97H1071.17H1095.46H1121.84H1146.13H1170.42H1194.52H1218.81H1243.1H1267.39H1291.49H1315.78H1337.8H1361.99H1384.01H1406.02H1428.13H1447.96H1470.07H1489.71H1509.64H1529.56H1549.39H1566.95H1584.5H1602.15H1617.62H1632.99H1648.46H1661.64H1674.93H1688.12H1699.12H1712.22H1721.04H1730.06H1738.79H1747.61H1754.25H1758.62H1765.26H1769.62H1771.9H1773.99H1776.27M577.759 39H595.218H612.962H630.516M412.753 473.341V468.153L410.667 460.799L408.294 455.609L241.01 199.459M1792 10207L2208 10815H0L432 10207H1792Z" stroke="black" stroke-width="20" stroke-miterlimit="10" stroke-linecap="round" stroke-linejoin="round"/>
</g>
<path id="Vector 26" d="M1804 0H268H108L396 432V10208H1804V0Z" fill="#C7E3E1" fill-opacity="0.3" stroke="black" stroke-width="18"/>
</g>
</g>
</svg>
