<svg width="80" height="93" viewBox="0 0 80 93" fill="none" xmlns="http://www.w3.org/2000/svg">
<path d="M64.7775 8H16" stroke="#890554" stroke-width="16"/>
<g filter="url(#filter0_i_81_6)">
<path d="M79.6661 28.6122C79.6661 20.5417 74.212 14 67.4825 14H12.1836C5.45414 14 0 20.5417 0 28.6122V78.069C0 86.1393 5.45414 92.6813 12.1836 92.6813H67.4825C74.212 92.6813 79.6661 86.1393 79.6661 78.069V28.6122Z" fill="white"/>
</g>
<g filter="url(#filter1_dd_81_6)">
<rect x="5" y="35" width="69" height="25" fill="white"/>
<rect x="5.5" y="35.5" width="68" height="24" stroke="black"/>
</g>
<path d="M10.9004 43.4688H12.3887L14.5801 49.7324L16.7715 43.4688H18.2598L15.1777 52H13.9824L10.9004 43.4688ZM10.0977 43.4688H11.5801L11.8496 49.5742V52H10.0977V43.4688ZM17.5801 43.4688H19.0684V52H17.3105V49.5742L17.5801 43.4688ZM20.2344 48.8945V48.7715C20.2344 48.3066 20.3008 47.8789 20.4336 47.4883C20.5664 47.0938 20.7598 46.752 21.0137 46.4629C21.2676 46.1738 21.5801 45.9492 21.9512 45.7891C22.3223 45.625 22.748 45.543 23.2285 45.543C23.709 45.543 24.1367 45.625 24.5117 45.7891C24.8867 45.9492 25.2012 46.1738 25.4551 46.4629C25.7129 46.752 25.9082 47.0938 26.041 47.4883C26.1738 47.8789 26.2402 48.3066 26.2402 48.7715V48.8945C26.2402 49.3555 26.1738 49.7832 26.041 50.1777C25.9082 50.5684 25.7129 50.9102 25.4551 51.2031C25.2012 51.4922 24.8887 51.7168 24.5176 51.877C24.1465 52.0371 23.7207 52.1172 23.2402 52.1172C22.7598 52.1172 22.332 52.0371 21.957 51.877C21.5859 51.7168 21.2715 51.4922 21.0137 51.2031C20.7598 50.9102 20.5664 50.5684 20.4336 50.1777C20.3008 49.7832 20.2344 49.3555 20.2344 48.8945ZM21.9219 48.7715V48.8945C21.9219 49.1602 21.9453 49.4082 21.9922 49.6387C22.0391 49.8691 22.1133 50.0723 22.2148 50.248C22.3203 50.4199 22.457 50.5547 22.625 50.6523C22.793 50.75 22.998 50.7988 23.2402 50.7988C23.4746 50.7988 23.6758 50.75 23.8438 50.6523C24.0117 50.5547 24.1465 50.4199 24.248 50.248C24.3496 50.0723 24.4238 49.8691 24.4707 49.6387C24.5215 49.4082 24.5469 49.1602 24.5469 48.8945V48.7715C24.5469 48.5137 24.5215 48.2715 24.4707 48.0449C24.4238 47.8145 24.3477 47.6113 24.2422 47.4355C24.1406 47.2559 24.0059 47.1152 23.8379 47.0137C23.6699 46.9121 23.4668 46.8613 23.2285 46.8613C22.9902 46.8613 22.7871 46.9121 22.6191 47.0137C22.4551 47.1152 22.3203 47.2559 22.2148 47.4355C22.1133 47.6113 22.0391 47.8145 21.9922 48.0449C21.9453 48.2715 21.9219 48.5137 21.9219 48.7715ZM28.9238 43V52H27.2363V43H28.9238ZM28.6836 48.6074H28.2207C28.2246 48.166 28.2832 47.7598 28.3965 47.3887C28.5098 47.0137 28.6719 46.6895 28.8828 46.416C29.0938 46.1387 29.3457 45.9238 29.6387 45.7715C29.9355 45.6191 30.2637 45.543 30.623 45.543C30.9355 45.543 31.2188 45.5879 31.4727 45.6777C31.7305 45.7637 31.9512 45.9043 32.1348 46.0996C32.3223 46.291 32.4668 46.543 32.5684 46.8555C32.6699 47.168 32.7207 47.5469 32.7207 47.9922V52H31.0215V47.9805C31.0215 47.6992 30.9805 47.4785 30.8984 47.3184C30.8203 47.1543 30.7051 47.0391 30.5527 46.9727C30.4043 46.9023 30.2207 46.8672 30.002 46.8672C29.7598 46.8672 29.5527 46.9121 29.3809 47.002C29.2129 47.0918 29.0781 47.2168 28.9766 47.377C28.875 47.5332 28.8008 47.7168 28.7539 47.9277C28.707 48.1387 28.6836 48.3652 28.6836 48.6074ZM35.6914 47.043V52H34.0039V45.6602H35.5918L35.6914 47.043ZM37.6016 45.6191L37.5723 47.1836C37.4902 47.1719 37.3906 47.1621 37.2734 47.1543C37.1602 47.1426 37.0566 47.1367 36.9629 47.1367C36.7246 47.1367 36.5176 47.168 36.3418 47.2305C36.1699 47.2891 36.0254 47.377 35.9082 47.4941C35.7949 47.6113 35.709 47.7539 35.6504 47.9219C35.5957 48.0898 35.5645 48.2812 35.5566 48.4961L35.2168 48.3906C35.2168 47.9805 35.2578 47.6035 35.3398 47.2598C35.4219 46.9121 35.541 46.6094 35.6973 46.3516C35.8574 46.0938 36.0527 45.8945 36.2832 45.7539C36.5137 45.6133 36.7773 45.543 37.0742 45.543C37.168 45.543 37.2637 45.5508 37.3613 45.5664C37.459 45.5781 37.5391 45.5957 37.6016 45.6191ZM40.0332 43V43.8906C40.0332 44.1445 39.9844 44.4062 39.8867 44.6758C39.793 44.9453 39.666 45.2012 39.5059 45.4434C39.3457 45.6816 39.1699 45.8848 38.9785 46.0527L38.1875 45.5957C38.332 45.3652 38.4551 45.1152 38.5566 44.8457C38.6582 44.5723 38.709 44.2559 38.709 43.8965V43H40.0332ZM43.5371 50.248C43.5371 50.127 43.502 50.0176 43.4316 49.9199C43.3613 49.8223 43.2305 49.7324 43.0391 49.6504C42.8516 49.5645 42.5801 49.4863 42.2246 49.416C41.9043 49.3457 41.6055 49.2578 41.3281 49.1523C41.0547 49.043 40.8164 48.9121 40.6133 48.7598C40.4141 48.6074 40.2578 48.4277 40.1445 48.2207C40.0312 48.0098 39.9746 47.7695 39.9746 47.5C39.9746 47.2344 40.0312 46.9844 40.1445 46.75C40.2617 46.5156 40.4277 46.3086 40.6426 46.1289C40.8613 45.9453 41.127 45.8027 41.4395 45.7012C41.7559 45.5957 42.1113 45.543 42.5059 45.543C43.0566 45.543 43.5293 45.6309 43.9238 45.8066C44.3223 45.9824 44.627 46.2246 44.8379 46.5332C45.0527 46.8379 45.1602 47.1855 45.1602 47.5762H43.4727C43.4727 47.4121 43.4375 47.2656 43.3672 47.1367C43.3008 47.0039 43.1953 46.9004 43.0508 46.8262C42.9102 46.748 42.7266 46.709 42.5 46.709C42.3125 46.709 42.1504 46.7422 42.0137 46.8086C41.877 46.8711 41.7715 46.957 41.6973 47.0664C41.627 47.1719 41.5918 47.2891 41.5918 47.418C41.5918 47.5156 41.6113 47.6035 41.6504 47.6816C41.6934 47.7559 41.7617 47.8242 41.8555 47.8867C41.9492 47.9492 42.0703 48.0078 42.2188 48.0625C42.3711 48.1133 42.5586 48.1602 42.7812 48.2031C43.2383 48.2969 43.6465 48.4199 44.0059 48.5723C44.3652 48.7207 44.6504 48.9238 44.8613 49.1816C45.0723 49.4355 45.1777 49.7695 45.1777 50.1836C45.1777 50.4648 45.1152 50.7227 44.9902 50.957C44.8652 51.1914 44.6855 51.3965 44.4512 51.5723C44.2168 51.7441 43.9355 51.8789 43.6074 51.9766C43.2832 52.0703 42.918 52.1172 42.5117 52.1172C41.9219 52.1172 41.4219 52.0117 41.0117 51.8008C40.6055 51.5898 40.2969 51.3223 40.0859 50.998C39.8789 50.6699 39.7754 50.334 39.7754 49.9902H41.375C41.3828 50.2207 41.4414 50.4062 41.5508 50.5469C41.6641 50.6875 41.8066 50.7891 41.9785 50.8516C42.1543 50.9141 42.3438 50.9453 42.5469 50.9453C42.7656 50.9453 42.9473 50.916 43.0918 50.8574C43.2363 50.7949 43.3457 50.7129 43.4199 50.6113C43.498 50.5059 43.5371 50.3848 43.5371 50.248ZM53.8086 49.7676C53.8086 49.6152 53.7852 49.4785 53.7383 49.3574C53.6953 49.2324 53.6133 49.1191 53.4922 49.0176C53.3711 48.9121 53.2012 48.8086 52.9824 48.707C52.7637 48.6055 52.4805 48.5 52.1328 48.3906C51.7461 48.2656 51.3789 48.125 51.0312 47.9688C50.6875 47.8125 50.3828 47.6309 50.1172 47.4238C49.8555 47.2129 49.6484 46.9688 49.4961 46.6914C49.3477 46.4141 49.2734 46.0918 49.2734 45.7246C49.2734 45.3691 49.3516 45.0469 49.5078 44.7578C49.6641 44.4648 49.8828 44.2148 50.1641 44.0078C50.4453 43.7969 50.7773 43.6348 51.1602 43.5215C51.5469 43.4082 51.9707 43.3516 52.4316 43.3516C53.0605 43.3516 53.6094 43.4648 54.0781 43.6914C54.5469 43.918 54.9102 44.2285 55.168 44.623C55.4297 45.0176 55.5605 45.4688 55.5605 45.9766H53.8145C53.8145 45.7266 53.7617 45.5078 53.6562 45.3203C53.5547 45.1289 53.3984 44.9785 53.1875 44.8691C52.9805 44.7598 52.7188 44.7051 52.4023 44.7051C52.0977 44.7051 51.8438 44.752 51.6406 44.8457C51.4375 44.9355 51.2852 45.0586 51.1836 45.2148C51.082 45.3672 51.0312 45.5391 51.0312 45.7305C51.0312 45.875 51.0664 46.0059 51.1367 46.123C51.2109 46.2402 51.3203 46.3496 51.4648 46.4512C51.6094 46.5527 51.7871 46.6484 51.998 46.7383C52.209 46.8281 52.4531 46.916 52.7305 47.002C53.1953 47.1426 53.6035 47.3008 53.9551 47.4766C54.3105 47.6523 54.6074 47.8496 54.8457 48.0684C55.084 48.2871 55.2637 48.5352 55.3848 48.8125C55.5059 49.0898 55.5664 49.4043 55.5664 49.7559C55.5664 50.127 55.4941 50.459 55.3496 50.752C55.2051 51.0449 54.9961 51.293 54.7227 51.4961C54.4492 51.6992 54.123 51.8535 53.7441 51.959C53.3652 52.0645 52.9414 52.1172 52.4727 52.1172C52.0508 52.1172 51.6348 52.0625 51.2246 51.9531C50.8145 51.8398 50.4414 51.6699 50.1055 51.4434C49.7734 51.2168 49.5078 50.9277 49.3086 50.5762C49.1094 50.2246 49.0098 49.8086 49.0098 49.3281H50.7734C50.7734 49.5938 50.8145 49.8184 50.8965 50.002C50.9785 50.1855 51.0938 50.334 51.2422 50.4473C51.3945 50.5605 51.5742 50.6426 51.7812 50.6934C51.9922 50.7441 52.2227 50.7695 52.4727 50.7695C52.7773 50.7695 53.0273 50.7266 53.2227 50.6406C53.4219 50.5547 53.5684 50.4355 53.6621 50.2832C53.7598 50.1309 53.8086 49.959 53.8086 49.7676ZM60.0781 50.5703V47.7461C60.0781 47.543 60.0449 47.3691 59.9785 47.2246C59.9121 47.0762 59.8086 46.9609 59.668 46.8789C59.5312 46.7969 59.3535 46.7559 59.1348 46.7559C58.9473 46.7559 58.7852 46.7891 58.6484 46.8555C58.5117 46.918 58.4062 47.0098 58.332 47.1309C58.2578 47.248 58.2207 47.3867 58.2207 47.5469H56.5332C56.5332 47.2773 56.5957 47.0215 56.7207 46.7793C56.8457 46.5371 57.0273 46.3242 57.2656 46.1406C57.5039 45.9531 57.7871 45.8066 58.1152 45.7012C58.4473 45.5957 58.8184 45.543 59.2285 45.543C59.7207 45.543 60.1582 45.625 60.541 45.7891C60.9238 45.9531 61.2246 46.1992 61.4434 46.5273C61.666 46.8555 61.7773 47.2656 61.7773 47.7578V50.4707C61.7773 50.8184 61.7988 51.1035 61.8418 51.3262C61.8848 51.5449 61.9473 51.7363 62.0293 51.9004V52H60.3242C60.2422 51.8281 60.1797 51.6133 60.1367 51.3555C60.0977 51.0938 60.0781 50.832 60.0781 50.5703ZM60.3008 48.1387L60.3125 49.0938H59.3691C59.1465 49.0938 58.9531 49.1191 58.7891 49.1699C58.625 49.2207 58.4902 49.293 58.3848 49.3867C58.2793 49.4766 58.2012 49.582 58.1504 49.7031C58.1035 49.8242 58.0801 49.957 58.0801 50.1016C58.0801 50.2461 58.1133 50.377 58.1797 50.4941C58.2461 50.6074 58.3418 50.6973 58.4668 50.7637C58.5918 50.8262 58.7383 50.8574 58.9062 50.8574C59.1602 50.8574 59.3809 50.8066 59.5684 50.7051C59.7559 50.6035 59.9004 50.4785 60.002 50.3301C60.1074 50.1816 60.1621 50.041 60.166 49.9082L60.6113 50.623C60.5488 50.7832 60.4629 50.9492 60.3535 51.1211C60.248 51.293 60.1133 51.4551 59.9492 51.6074C59.7852 51.7559 59.5879 51.8789 59.3574 51.9766C59.127 52.0703 58.8535 52.1172 58.5371 52.1172C58.1348 52.1172 57.7695 52.0371 57.4414 51.877C57.1172 51.7129 56.8594 51.4883 56.668 51.2031C56.4805 50.9141 56.3867 50.5859 56.3867 50.2188C56.3867 49.8867 56.4492 49.5918 56.5742 49.334C56.6992 49.0762 56.8828 48.8594 57.125 48.6836C57.3711 48.5039 57.6777 48.3691 58.0449 48.2793C58.4121 48.1855 58.8379 48.1387 59.3223 48.1387H60.3008ZM64.8594 43V52H63.166V43H64.8594ZM69.3594 45.6602V46.8555H65.668V45.6602H69.3594ZM66.582 44.0957H68.2695V50.0898C68.2695 50.2734 68.293 50.4141 68.3398 50.5117C68.3906 50.6094 68.4648 50.6777 68.5625 50.7168C68.6602 50.752 68.7832 50.7695 68.9316 50.7695C69.0371 50.7695 69.1309 50.7656 69.2129 50.7578C69.2988 50.7461 69.3711 50.7344 69.4297 50.7227L69.4355 51.9648C69.291 52.0117 69.1348 52.0488 68.9668 52.0762C68.7988 52.1035 68.6133 52.1172 68.4102 52.1172C68.0391 52.1172 67.7148 52.0566 67.4375 51.9355C67.1641 51.8105 66.9531 51.6113 66.8047 51.3379C66.6562 51.0645 66.582 50.7051 66.582 50.2598V44.0957Z" fill="black"/>
<defs>
<filter id="filter0_i_81_6" x="0" y="14" width="82.6661" height="80.6812" filterUnits="userSpaceOnUse" color-interpolation-filters="sRGB">
<feFlood flood-opacity="0" result="BackgroundImageFix"/>
<feBlend mode="normal" in="SourceGraphic" in2="BackgroundImageFix" result="shape"/>
<feColorMatrix in="SourceAlpha" type="matrix" values="0 0 0 0 0 0 0 0 0 0 0 0 0 0 0 0 0 0 127 0" result="hardAlpha"/>
<feOffset dx="3" dy="2"/>
<feGaussianBlur stdDeviation="2"/>
<feComposite in2="hardAlpha" operator="arithmetic" k2="-1" k3="1"/>
<feColorMatrix type="matrix" values="0 0 0 0 0 0 0 0 0 0 0 0 0 0 0 0 0 0 0.25 0"/>
<feBlend mode="normal" in2="shape" result="effect1_innerShadow_81_6"/>
</filter>
<filter id="filter1_dd_81_6" x="1" y="35" width="77" height="33" filterUnits="userSpaceOnUse" color-interpolation-filters="sRGB">
<feFlood flood-opacity="0" result="BackgroundImageFix"/>
<feColorMatrix in="SourceAlpha" type="matrix" values="0 0 0 0 0 0 0 0 0 0 0 0 0 0 0 0 0 0 127 0" result="hardAlpha"/>
<feOffset dy="4"/>
<feGaussianBlur stdDeviation="2"/>
<feComposite in2="hardAlpha" operator="out"/>
<feColorMatrix type="matrix" values="0 0 0 0 0 0 0 0 0 0 0 0 0 0 0 0 0 0 0.25 0"/>
<feBlend mode="normal" in2="BackgroundImageFix" result="effect1_dropShadow_81_6"/>
<feColorMatrix in="SourceAlpha" type="matrix" values="0 0 0 0 0 0 0 0 0 0 0 0 0 0 0 0 0 0 127 0" result="hardAlpha"/>
<feOffset dy="4"/>
<feGaussianBlur stdDeviation="2"/>
<feComposite in2="hardAlpha" operator="out"/>
<feColorMatrix type="matrix" values="0 0 0 0 0 0 0 0 0 0 0 0 0 0 0 0 0 0 0.25 0"/>
<feBlend mode="normal" in2="effect1_dropShadow_81_6" result="effect2_dropShadow_81_6"/>
<feBlend mode="normal" in="SourceGraphic" in2="effect2_dropShadow_81_6" result="shape"/>
</filter>
</defs>
</svg>
