<svg class="ortho" viewBox="0 0 131 204" fill="none" xmlns="http://www.w3.org/2000/svg">
<g id="h3po4">
<path id="Vector 1" d="M38.2209 55.5V23H94.2209V55.5C104.221 60 130.221 72.5 130.221 98V184.5C130.221 198.1 115.554 203.167 108.221 204H38.2209C12.7965 204 2.55419 193.333 0.220861 184.5C0.054194 165 -0.179139 120.4 0.220861 98C0.620861 75.6 25.7209 60.3333 38.2209 55.5Z" fill="url(#paint0_linear_126_2)" stroke="black"/>
<g id="dhakknH2so">
<path id="Vector 2" d="M97.3606 0H37.1006C19.6058 4.53913 28.3532 12.6087 37.1006 13.8696H97.3606C97.3606 13.8696 116.799 7.56524 97.3606 0Z" fill="black" stroke="black"/>
<path id="Vector 3" d="M38.1772 23V14.1848H94.5495V23C94.5495 26.3137 91.8632 29 88.5495 29H44.1772C40.8635 29 38.1772 26.3137 38.1772 23Z" fill="black" stroke="black"/>
</g>
<path id="Ortho Phosphoric Acid" d="M56.2568 108.791V109.263C56.2568 110.019 56.1543 110.698 55.9492 111.3C55.7441 111.901 55.4548 112.414 55.0811 112.838C54.7074 113.257 54.2607 113.578 53.7412 113.802C53.2262 114.025 52.6543 114.137 52.0254 114.137C51.401 114.137 50.8291 114.025 50.3096 113.802C49.7946 113.578 49.348 113.257 48.9697 112.838C48.5915 112.414 48.2975 111.901 48.0879 111.3C47.8828 110.698 47.7803 110.019 47.7803 109.263V108.791C47.7803 108.03 47.8828 107.351 48.0879 106.754C48.293 106.152 48.5824 105.64 48.9561 105.216C49.3343 104.792 49.7809 104.468 50.2959 104.245C50.8154 104.022 51.3874 103.91 52.0117 103.91C52.6406 103.91 53.2126 104.022 53.7275 104.245C54.2471 104.468 54.6937 104.792 55.0674 105.216C55.4456 105.64 55.7373 106.152 55.9424 106.754C56.152 107.351 56.2568 108.03 56.2568 108.791ZM54.1855 109.263V108.777C54.1855 108.249 54.1377 107.784 54.042 107.383C53.9463 106.982 53.805 106.645 53.6182 106.371C53.4313 106.098 53.2035 105.893 52.9346 105.756C52.6657 105.615 52.3581 105.544 52.0117 105.544C51.6654 105.544 51.3577 105.615 51.0889 105.756C50.8245 105.893 50.599 106.098 50.4121 106.371C50.2298 106.645 50.0908 106.982 49.9951 107.383C49.8994 107.784 49.8516 108.249 49.8516 108.777V109.263C49.8516 109.787 49.8994 110.252 49.9951 110.657C50.0908 111.058 50.2321 111.398 50.4189 111.676C50.6058 111.949 50.8337 112.157 51.1025 112.298C51.3714 112.439 51.679 112.51 52.0254 112.51C52.3717 112.51 52.6794 112.439 52.9482 112.298C53.2171 112.157 53.4427 111.949 53.625 111.676C53.8073 111.398 53.9463 111.058 54.042 110.657C54.1377 110.252 54.1855 109.787 54.1855 109.263ZM59.5791 108.217V114H57.6104V106.604H59.4629L59.5791 108.217ZM61.8076 106.556L61.7734 108.381C61.6777 108.367 61.5615 108.356 61.4248 108.347C61.2926 108.333 61.1719 108.326 61.0625 108.326C60.7845 108.326 60.543 108.363 60.3379 108.436C60.1374 108.504 59.9688 108.606 59.832 108.743C59.6999 108.88 59.5996 109.046 59.5312 109.242C59.4674 109.438 59.431 109.661 59.4219 109.912L59.0254 109.789C59.0254 109.311 59.0732 108.871 59.1689 108.47C59.2646 108.064 59.4036 107.711 59.5859 107.41C59.7728 107.109 60.0007 106.877 60.2695 106.713C60.5384 106.549 60.846 106.467 61.1924 106.467C61.3018 106.467 61.4134 106.476 61.5273 106.494C61.6413 106.508 61.7347 106.528 61.8076 106.556ZM66.7021 106.604V107.998H62.3955V106.604H66.7021ZM63.4619 104.778H65.4307V111.771C65.4307 111.986 65.458 112.15 65.5127 112.264C65.5719 112.378 65.6585 112.457 65.7725 112.503C65.8864 112.544 66.0299 112.564 66.2031 112.564C66.3262 112.564 66.4355 112.56 66.5312 112.551C66.6315 112.537 66.7158 112.523 66.7842 112.51L66.791 113.959C66.6224 114.014 66.4401 114.057 66.2441 114.089C66.0482 114.121 65.8317 114.137 65.5947 114.137C65.1618 114.137 64.7835 114.066 64.46 113.925C64.141 113.779 63.8949 113.547 63.7217 113.228C63.5485 112.909 63.4619 112.489 63.4619 111.97V104.778ZM69.7441 103.5V114H67.7754V103.5H69.7441ZM69.4639 110.042H68.9238C68.9284 109.527 68.9967 109.053 69.1289 108.62C69.2611 108.183 69.4502 107.804 69.6963 107.485C69.9424 107.162 70.2363 106.911 70.5781 106.733C70.9245 106.556 71.3073 106.467 71.7266 106.467C72.0911 106.467 72.4215 106.519 72.7178 106.624C73.0186 106.724 73.276 106.888 73.4902 107.116C73.709 107.34 73.8776 107.633 73.9961 107.998C74.1146 108.363 74.1738 108.805 74.1738 109.324V114H72.1914V109.311C72.1914 108.982 72.1436 108.725 72.0479 108.538C71.9567 108.347 71.8223 108.212 71.6445 108.135C71.4714 108.053 71.2572 108.012 71.002 108.012C70.7194 108.012 70.4779 108.064 70.2773 108.169C70.0814 108.274 69.9242 108.42 69.8057 108.606C69.6872 108.789 69.6006 109.003 69.5459 109.249C69.4912 109.495 69.4639 109.759 69.4639 110.042ZM75.3564 110.377V110.233C75.3564 109.691 75.4339 109.192 75.5889 108.736C75.7438 108.276 75.9694 107.877 76.2656 107.54C76.5618 107.203 76.9264 106.941 77.3594 106.754C77.7923 106.562 78.2891 106.467 78.8496 106.467C79.4102 106.467 79.9092 106.562 80.3467 106.754C80.7842 106.941 81.151 107.203 81.4473 107.54C81.748 107.877 81.9759 108.276 82.1309 108.736C82.2858 109.192 82.3633 109.691 82.3633 110.233V110.377C82.3633 110.915 82.2858 111.414 82.1309 111.874C81.9759 112.33 81.748 112.729 81.4473 113.07C81.151 113.408 80.7865 113.67 80.3535 113.856C79.9206 114.043 79.4238 114.137 78.8633 114.137C78.3027 114.137 77.8037 114.043 77.3662 113.856C76.9333 113.67 76.5664 113.408 76.2656 113.07C75.9694 112.729 75.7438 112.33 75.5889 111.874C75.4339 111.414 75.3564 110.915 75.3564 110.377ZM77.3252 110.233V110.377C77.3252 110.687 77.3525 110.976 77.4072 111.245C77.4619 111.514 77.5485 111.751 77.667 111.956C77.79 112.157 77.9495 112.314 78.1455 112.428C78.3415 112.542 78.5807 112.599 78.8633 112.599C79.1367 112.599 79.3714 112.542 79.5674 112.428C79.7633 112.314 79.9206 112.157 80.0391 111.956C80.1576 111.751 80.2441 111.514 80.2988 111.245C80.3581 110.976 80.3877 110.687 80.3877 110.377V110.233C80.3877 109.933 80.3581 109.65 80.2988 109.386C80.2441 109.117 80.1553 108.88 80.0322 108.675C79.9137 108.465 79.7565 108.301 79.5605 108.183C79.3646 108.064 79.1276 108.005 78.8496 108.005C78.5716 108.005 78.3346 108.064 78.1387 108.183C77.9473 108.301 77.79 108.465 77.667 108.675C77.5485 108.88 77.4619 109.117 77.4072 109.386C77.3525 109.65 77.3252 109.933 77.3252 110.233ZM18.0098 126.452H15.4736V124.853H18.0098C18.4017 124.853 18.7207 124.789 18.9668 124.661C19.2129 124.529 19.3929 124.347 19.5068 124.114C19.6208 123.882 19.6777 123.62 19.6777 123.328C19.6777 123.032 19.6208 122.756 19.5068 122.501C19.3929 122.246 19.2129 122.041 18.9668 121.886C18.7207 121.731 18.4017 121.653 18.0098 121.653H16.1846V130H14.1338V120.047H18.0098C18.7891 120.047 19.4567 120.188 20.0127 120.471C20.5732 120.749 21.0016 121.134 21.2979 121.626C21.5941 122.118 21.7422 122.681 21.7422 123.314C21.7422 123.957 21.5941 124.513 21.2979 124.982C21.0016 125.452 20.5732 125.814 20.0127 126.069C19.4567 126.325 18.7891 126.452 18.0098 126.452ZM24.9551 119.5V130H22.9863V119.5H24.9551ZM24.6748 126.042H24.1348C24.1393 125.527 24.2077 125.053 24.3398 124.62C24.472 124.183 24.6611 123.804 24.9072 123.485C25.1533 123.162 25.4473 122.911 25.7891 122.733C26.1354 122.556 26.5182 122.467 26.9375 122.467C27.3021 122.467 27.6325 122.519 27.9287 122.624C28.2295 122.724 28.487 122.888 28.7012 123.116C28.9199 123.34 29.0885 123.633 29.207 123.998C29.3255 124.363 29.3848 124.805 29.3848 125.324V130H27.4023V125.311C27.4023 124.982 27.3545 124.725 27.2588 124.538C27.1676 124.347 27.0332 124.212 26.8555 124.135C26.6823 124.053 26.4681 124.012 26.2129 124.012C25.9303 124.012 25.6888 124.064 25.4883 124.169C25.2923 124.274 25.1351 124.42 25.0166 124.606C24.8981 124.789 24.8115 125.003 24.7568 125.249C24.7021 125.495 24.6748 125.759 24.6748 126.042ZM30.5674 126.377V126.233C30.5674 125.691 30.6449 125.192 30.7998 124.736C30.9548 124.276 31.1803 123.877 31.4766 123.54C31.7728 123.203 32.1374 122.941 32.5703 122.754C33.0033 122.562 33.5 122.467 34.0605 122.467C34.6211 122.467 35.1201 122.562 35.5576 122.754C35.9951 122.941 36.362 123.203 36.6582 123.54C36.959 123.877 37.1868 124.276 37.3418 124.736C37.4967 125.192 37.5742 125.691 37.5742 126.233V126.377C37.5742 126.915 37.4967 127.414 37.3418 127.874C37.1868 128.33 36.959 128.729 36.6582 129.07C36.362 129.408 35.9974 129.67 35.5645 129.856C35.1315 130.043 34.6348 130.137 34.0742 130.137C33.5137 130.137 33.0146 130.043 32.5771 129.856C32.1442 129.67 31.7773 129.408 31.4766 129.07C31.1803 128.729 30.9548 128.33 30.7998 127.874C30.6449 127.414 30.5674 126.915 30.5674 126.377ZM32.5361 126.233V126.377C32.5361 126.687 32.5635 126.976 32.6182 127.245C32.6729 127.514 32.7594 127.751 32.8779 127.956C33.001 128.157 33.1605 128.314 33.3564 128.428C33.5524 128.542 33.7917 128.599 34.0742 128.599C34.3477 128.599 34.5824 128.542 34.7783 128.428C34.9743 128.314 35.1315 128.157 35.25 127.956C35.3685 127.751 35.4551 127.514 35.5098 127.245C35.569 126.976 35.5986 126.687 35.5986 126.377V126.233C35.5986 125.933 35.569 125.65 35.5098 125.386C35.4551 125.117 35.3662 124.88 35.2432 124.675C35.1247 124.465 34.9674 124.301 34.7715 124.183C34.5755 124.064 34.3385 124.005 34.0605 124.005C33.7826 124.005 33.5456 124.064 33.3496 124.183C33.1582 124.301 33.001 124.465 32.8779 124.675C32.7594 124.88 32.6729 125.117 32.6182 125.386C32.5635 125.65 32.5361 125.933 32.5361 126.233ZM42.7832 127.956C42.7832 127.815 42.7422 127.687 42.6602 127.573C42.5781 127.459 42.4255 127.354 42.2021 127.259C41.9834 127.159 41.6667 127.067 41.252 126.985C40.8783 126.903 40.5296 126.801 40.2061 126.678C39.887 126.55 39.609 126.397 39.3721 126.22C39.1396 126.042 38.9574 125.832 38.8252 125.591C38.693 125.345 38.627 125.064 38.627 124.75C38.627 124.44 38.693 124.148 38.8252 123.875C38.9619 123.602 39.1556 123.36 39.4062 123.15C39.6615 122.936 39.9714 122.77 40.3359 122.651C40.7051 122.528 41.1198 122.467 41.5801 122.467C42.2227 122.467 42.7741 122.569 43.2344 122.774C43.6992 122.979 44.0547 123.262 44.3008 123.622C44.5514 123.978 44.6768 124.383 44.6768 124.839H42.708C42.708 124.647 42.667 124.477 42.585 124.326C42.5075 124.171 42.3844 124.05 42.2158 123.964C42.0518 123.873 41.8376 123.827 41.5732 123.827C41.3545 123.827 41.1654 123.866 41.0059 123.943C40.8464 124.016 40.7233 124.117 40.6367 124.244C40.5547 124.367 40.5137 124.504 40.5137 124.654C40.5137 124.768 40.5365 124.871 40.582 124.962C40.6322 125.049 40.7119 125.128 40.8213 125.201C40.9307 125.274 41.0719 125.342 41.2451 125.406C41.4229 125.465 41.6416 125.52 41.9014 125.57C42.4346 125.68 42.9108 125.823 43.3301 126.001C43.7493 126.174 44.082 126.411 44.3281 126.712C44.5742 127.008 44.6973 127.398 44.6973 127.881C44.6973 128.209 44.6243 128.51 44.4785 128.783C44.3327 129.057 44.123 129.296 43.8496 129.501C43.5762 129.701 43.248 129.859 42.8652 129.973C42.487 130.082 42.0609 130.137 41.5869 130.137C40.8988 130.137 40.3154 130.014 39.8369 129.768C39.363 129.521 39.0029 129.209 38.7568 128.831C38.5153 128.448 38.3945 128.056 38.3945 127.655H40.2607C40.2699 127.924 40.3382 128.141 40.4658 128.305C40.598 128.469 40.7643 128.587 40.9648 128.66C41.1699 128.733 41.391 128.77 41.6279 128.77C41.8831 128.77 42.0951 128.735 42.2637 128.667C42.4323 128.594 42.5599 128.498 42.6465 128.38C42.7376 128.257 42.7832 128.116 42.7832 127.956ZM47.9443 124.025V132.844H45.9756V122.604H47.8008L47.9443 124.025ZM52.627 126.22V126.363C52.627 126.901 52.5632 127.4 52.4355 127.86C52.3125 128.321 52.1302 128.722 51.8887 129.063C51.6471 129.401 51.3464 129.665 50.9863 129.856C50.6309 130.043 50.2207 130.137 49.7559 130.137C49.3047 130.137 48.9128 130.046 48.5801 129.863C48.2474 129.681 47.9671 129.426 47.7393 129.098C47.516 128.765 47.3359 128.38 47.1992 127.942C47.0625 127.505 46.9577 127.035 46.8848 126.534V126.158C46.9577 125.62 47.0625 125.128 47.1992 124.682C47.3359 124.23 47.516 123.841 47.7393 123.513C47.9671 123.18 48.2451 122.923 48.5732 122.74C48.9059 122.558 49.2956 122.467 49.7422 122.467C50.2116 122.467 50.624 122.556 50.9795 122.733C51.3395 122.911 51.6403 123.166 51.8818 123.499C52.1279 123.832 52.3125 124.228 52.4355 124.688C52.5632 125.149 52.627 125.659 52.627 126.22ZM50.6514 126.363V126.22C50.6514 125.905 50.624 125.616 50.5693 125.352C50.5192 125.083 50.4372 124.848 50.3232 124.647C50.2139 124.447 50.068 124.292 49.8857 124.183C49.708 124.069 49.4915 124.012 49.2363 124.012C48.9674 124.012 48.7373 124.055 48.5459 124.142C48.359 124.228 48.2064 124.354 48.0879 124.518C47.9694 124.682 47.8805 124.878 47.8213 125.105C47.762 125.333 47.7256 125.591 47.7119 125.878V126.828C47.7347 127.165 47.7985 127.468 47.9033 127.737C48.0081 128.002 48.1699 128.211 48.3887 128.366C48.6074 128.521 48.8945 128.599 49.25 128.599C49.5098 128.599 49.7285 128.542 49.9062 128.428C50.084 128.309 50.2275 128.147 50.3369 127.942C50.4508 127.737 50.5306 127.5 50.5762 127.231C50.6263 126.963 50.6514 126.673 50.6514 126.363ZM55.7715 119.5V130H53.8027V119.5H55.7715ZM55.4912 126.042H54.9512C54.9557 125.527 55.0241 125.053 55.1562 124.62C55.2884 124.183 55.4775 123.804 55.7236 123.485C55.9697 123.162 56.2637 122.911 56.6055 122.733C56.9518 122.556 57.3346 122.467 57.7539 122.467C58.1185 122.467 58.4489 122.519 58.7451 122.624C59.0459 122.724 59.3034 122.888 59.5176 123.116C59.7363 123.34 59.9049 123.633 60.0234 123.998C60.1419 124.363 60.2012 124.805 60.2012 125.324V130H58.2188V125.311C58.2188 124.982 58.1709 124.725 58.0752 124.538C57.984 124.347 57.8496 124.212 57.6719 124.135C57.4987 124.053 57.2845 124.012 57.0293 124.012C56.7467 124.012 56.5052 124.064 56.3047 124.169C56.1087 124.274 55.9515 124.42 55.833 124.606C55.7145 124.789 55.6279 125.003 55.5732 125.249C55.5186 125.495 55.4912 125.759 55.4912 126.042ZM61.3838 126.377V126.233C61.3838 125.691 61.4613 125.192 61.6162 124.736C61.7712 124.276 61.9967 123.877 62.293 123.54C62.5892 123.203 62.9538 122.941 63.3867 122.754C63.8197 122.562 64.3164 122.467 64.877 122.467C65.4375 122.467 65.9365 122.562 66.374 122.754C66.8115 122.941 67.1784 123.203 67.4746 123.54C67.7754 123.877 68.0033 124.276 68.1582 124.736C68.3132 125.192 68.3906 125.691 68.3906 126.233V126.377C68.3906 126.915 68.3132 127.414 68.1582 127.874C68.0033 128.33 67.7754 128.729 67.4746 129.07C67.1784 129.408 66.8138 129.67 66.3809 129.856C65.9479 130.043 65.4512 130.137 64.8906 130.137C64.3301 130.137 63.8311 130.043 63.3936 129.856C62.9606 129.67 62.5938 129.408 62.293 129.07C61.9967 128.729 61.7712 128.33 61.6162 127.874C61.4613 127.414 61.3838 126.915 61.3838 126.377ZM63.3525 126.233V126.377C63.3525 126.687 63.3799 126.976 63.4346 127.245C63.4893 127.514 63.5758 127.751 63.6943 127.956C63.8174 128.157 63.9769 128.314 64.1729 128.428C64.3688 128.542 64.6081 128.599 64.8906 128.599C65.1641 128.599 65.3988 128.542 65.5947 128.428C65.7907 128.314 65.9479 128.157 66.0664 127.956C66.1849 127.751 66.2715 127.514 66.3262 127.245C66.3854 126.976 66.415 126.687 66.415 126.377V126.233C66.415 125.933 66.3854 125.65 66.3262 125.386C66.2715 125.117 66.1826 124.88 66.0596 124.675C65.9411 124.465 65.7839 124.301 65.5879 124.183C65.3919 124.064 65.1549 124.005 64.877 124.005C64.599 124.005 64.362 124.064 64.166 124.183C63.9746 124.301 63.8174 124.465 63.6943 124.675C63.5758 124.88 63.4893 125.117 63.4346 125.386C63.3799 125.65 63.3525 125.933 63.3525 126.233ZM71.5693 124.217V130H69.6006V122.604H71.4531L71.5693 124.217ZM73.7979 122.556L73.7637 124.381C73.668 124.367 73.5518 124.356 73.415 124.347C73.2829 124.333 73.1621 124.326 73.0527 124.326C72.7747 124.326 72.5332 124.363 72.3281 124.436C72.1276 124.504 71.959 124.606 71.8223 124.743C71.6901 124.88 71.5898 125.046 71.5215 125.242C71.4577 125.438 71.4212 125.661 71.4121 125.912L71.0156 125.789C71.0156 125.311 71.0635 124.871 71.1592 124.47C71.2549 124.064 71.3939 123.711 71.5762 123.41C71.763 123.109 71.9909 122.877 72.2598 122.713C72.5286 122.549 72.8363 122.467 73.1826 122.467C73.292 122.467 73.4036 122.476 73.5176 122.494C73.6315 122.508 73.7249 122.528 73.7979 122.556ZM76.8057 122.604V130H74.8301V122.604H76.8057ZM74.707 120.676C74.707 120.389 74.8073 120.152 75.0078 119.965C75.2083 119.778 75.4772 119.685 75.8145 119.685C76.1471 119.685 76.4137 119.778 76.6143 119.965C76.8193 120.152 76.9219 120.389 76.9219 120.676C76.9219 120.963 76.8193 121.2 76.6143 121.387C76.4137 121.574 76.1471 121.667 75.8145 121.667C75.4772 121.667 75.2083 121.574 75.0078 121.387C74.8073 121.2 74.707 120.963 74.707 120.676ZM81.4883 128.599C81.7298 128.599 81.944 128.553 82.1309 128.462C82.3177 128.366 82.4635 128.234 82.5684 128.065C82.6777 127.892 82.7347 127.689 82.7393 127.457H84.5918C84.5872 127.977 84.4482 128.439 84.1748 128.845C83.9014 129.246 83.5345 129.562 83.0742 129.795C82.6139 130.023 82.099 130.137 81.5293 130.137C80.9551 130.137 80.4538 130.041 80.0254 129.85C79.6016 129.658 79.2484 129.394 78.9658 129.057C78.6833 128.715 78.4714 128.318 78.3301 127.867C78.1888 127.411 78.1182 126.924 78.1182 126.404V126.206C78.1182 125.682 78.1888 125.194 78.3301 124.743C78.4714 124.287 78.6833 123.891 78.9658 123.554C79.2484 123.212 79.6016 122.945 80.0254 122.754C80.4492 122.562 80.946 122.467 81.5156 122.467C82.1217 122.467 82.6527 122.583 83.1084 122.815C83.5687 123.048 83.9287 123.381 84.1885 123.813C84.4528 124.242 84.5872 124.75 84.5918 125.338H82.7393C82.7347 125.092 82.6823 124.868 82.582 124.668C82.4863 124.467 82.3451 124.308 82.1582 124.189C81.9759 124.066 81.7503 124.005 81.4814 124.005C81.1943 124.005 80.9596 124.066 80.7773 124.189C80.5951 124.308 80.4538 124.472 80.3535 124.682C80.2533 124.887 80.1826 125.121 80.1416 125.386C80.1051 125.646 80.0869 125.919 80.0869 126.206V126.404C80.0869 126.691 80.1051 126.967 80.1416 127.231C80.1781 127.496 80.2464 127.73 80.3467 127.936C80.4515 128.141 80.5951 128.302 80.7773 128.421C80.9596 128.539 81.1966 128.599 81.4883 128.599ZM93.3896 121.749L90.6826 130H88.502L92.2002 120.047H93.5879L93.3896 121.749ZM95.6387 130L92.9248 121.749L92.7061 120.047H94.1074L97.8262 130H95.6387ZM95.5156 126.295V127.901H90.2588V126.295H95.5156ZM101.682 128.599C101.923 128.599 102.137 128.553 102.324 128.462C102.511 128.366 102.657 128.234 102.762 128.065C102.871 127.892 102.928 127.689 102.933 127.457H104.785C104.781 127.977 104.642 128.439 104.368 128.845C104.095 129.246 103.728 129.562 103.268 129.795C102.807 130.023 102.292 130.137 101.723 130.137C101.148 130.137 100.647 130.041 100.219 129.85C99.7949 129.658 99.4417 129.394 99.1592 129.057C98.8766 128.715 98.6647 128.318 98.5234 127.867C98.3822 127.411 98.3115 126.924 98.3115 126.404V126.206C98.3115 125.682 98.3822 125.194 98.5234 124.743C98.6647 124.287 98.8766 123.891 99.1592 123.554C99.4417 123.212 99.7949 122.945 100.219 122.754C100.643 122.562 101.139 122.467 101.709 122.467C102.315 122.467 102.846 122.583 103.302 122.815C103.762 123.048 104.122 123.381 104.382 123.813C104.646 124.242 104.781 124.75 104.785 125.338H102.933C102.928 125.092 102.876 124.868 102.775 124.668C102.68 124.467 102.538 124.308 102.352 124.189C102.169 124.066 101.944 124.005 101.675 124.005C101.388 124.005 101.153 124.066 100.971 124.189C100.788 124.308 100.647 124.472 100.547 124.682C100.447 124.887 100.376 125.121 100.335 125.386C100.299 125.646 100.28 125.919 100.28 126.206V126.404C100.28 126.691 100.299 126.967 100.335 127.231C100.371 127.496 100.44 127.73 100.54 127.936C100.645 128.141 100.788 128.302 100.971 128.421C101.153 128.539 101.39 128.599 101.682 128.599ZM108.005 122.604V130H106.029V122.604H108.005ZM105.906 120.676C105.906 120.389 106.007 120.152 106.207 119.965C106.408 119.778 106.676 119.685 107.014 119.685C107.346 119.685 107.613 119.778 107.813 119.965C108.019 120.152 108.121 120.389 108.121 120.676C108.121 120.963 108.019 121.2 107.813 121.387C107.613 121.574 107.346 121.667 107.014 121.667C106.676 121.667 106.408 121.574 106.207 121.387C106.007 121.2 105.906 120.963 105.906 120.676ZM114 128.387V119.5H115.982V130H114.198L114 128.387ZM109.324 126.391V126.247C109.324 125.682 109.388 125.169 109.516 124.709C109.643 124.244 109.83 123.845 110.076 123.513C110.322 123.18 110.625 122.923 110.985 122.74C111.345 122.558 111.756 122.467 112.216 122.467C112.649 122.467 113.027 122.558 113.351 122.74C113.679 122.923 113.957 123.182 114.185 123.52C114.417 123.852 114.604 124.246 114.745 124.702C114.886 125.153 114.989 125.648 115.053 126.186V126.5C114.989 127.015 114.886 127.493 114.745 127.936C114.604 128.378 114.417 128.765 114.185 129.098C113.957 129.426 113.679 129.681 113.351 129.863C113.022 130.046 112.64 130.137 112.202 130.137C111.742 130.137 111.332 130.043 110.972 129.856C110.616 129.67 110.315 129.408 110.069 129.07C109.828 128.733 109.643 128.337 109.516 127.881C109.388 127.425 109.324 126.928 109.324 126.391ZM111.293 126.247V126.391C111.293 126.696 111.316 126.981 111.361 127.245C111.411 127.509 111.491 127.744 111.601 127.949C111.715 128.15 111.86 128.307 112.038 128.421C112.22 128.53 112.441 128.585 112.701 128.585C113.038 128.585 113.316 128.51 113.535 128.359C113.754 128.204 113.92 127.993 114.034 127.724C114.153 127.455 114.221 127.145 114.239 126.794V125.898C114.226 125.611 114.185 125.354 114.116 125.126C114.052 124.894 113.957 124.695 113.829 124.531C113.706 124.367 113.551 124.24 113.364 124.148C113.182 124.057 112.965 124.012 112.715 124.012C112.46 124.012 112.241 124.071 112.059 124.189C111.876 124.303 111.728 124.461 111.614 124.661C111.505 124.862 111.423 125.099 111.368 125.372C111.318 125.641 111.293 125.933 111.293 126.247Z" fill="white"/>
</g>
<defs>
<linearGradient id="paint0_linear_126_2" x1="31" y1="42" x2="198" y2="276" gradientUnits="userSpaceOnUse">
<stop offset="0.239583" stop-color="#5A2916" stop-opacity="0.76"/>
<stop offset="1" stop-color="#C7E3E1" stop-opacity="0"/>
</linearGradient>
</defs>
</svg>
