<svg class="pippt" viewBox="0 0 1223 2372" fill="none" xmlns="http://www.w3.org/2000/svg">
<g>
<path id="Vector 18" d="M757.546 301.934C720.429 237.992 555.502 264.713 477.678 286.066C457.117 818.509 426.928 1900.34 470.655 1968.12C514.382 2035.89 622.907 2008.36 671.704 1986.12L715.469 1893.27C744.96 1389.47 794.662 365.876 757.546 301.934Z" fill="#FF0000" stroke="black" stroke-width="6"/>
<path id="Vector 19" d="M690.774 1954.98C665.383 1928.03 529.675 1941.67 464.994 1951.86L464.983 2213L511.511 2213L511.511 2337.07L626.162 2337.07L627.179 2220.69L690.774 2213C696.093 2143.75 716.164 1981.94 690.774 1954.98Z" fill="white" stroke="black" stroke-width="5"/>
<path id="Vector 20" d="M572.99 1151.35L465.836 1156.5C456.119 1366.06 439.671 1798.58 451.61 1852.15C463.548 1905.72 526.645 1851.71 556.701 1818.01L572.99 1151.35Z" fill="white" stroke="black" stroke-width="6"/>
<path id="Vector 21" d="M595.912 1160.28L527.185 1134.71L536.374 1739.06L609.774 1755.87L595.912 1160.28Z" fill="#FF0000" stroke="black" stroke-width="6"/>
<path id="Vector 22" d="M533.058 470.181L521.056 704.049C485.49 714.248 411.622 705.156 400.686 587.201C389.749 469.246 484.377 460.04 533.058 470.181Z" fill="white" stroke="black" stroke-width="4"/>
<path id="Vector 23" d="M573.321 464.916L573.575 699.092C538.591 711.138 464.349 705.924 447.254 588.704C430.159 471.483 524.176 457.337 573.321 464.916Z" fill="white" stroke="black" stroke-width="4"/>
<path id="Ellipse 5" d="M832 59.5C832 66.67 826.727 73.9738 816.009 80.9865C805.374 87.9449 789.853 94.2879 770.495 99.6453C731.806 110.352 678.243 117 619 117C559.757 117 506.194 110.352 467.505 99.6453C448.147 94.2879 432.626 87.9449 421.991 80.9865C411.273 73.9738 406 66.67 406 59.5C406 52.33 411.273 45.0262 421.991 38.0135C432.626 31.0551 448.147 24.7121 467.505 19.3547C506.194 8.64775 559.757 2 619 2C678.243 2 731.806 8.64775 770.495 19.3547C789.853 24.7121 805.374 31.0551 816.009 38.0135C826.727 45.0262 832 52.33 832 59.5Z" fill="white" fill-opacity="0.8" stroke="black" stroke-width="4"/>
<path id="Vector 17" d="M527.082 262.926L526.039 56.855L645.107 101.845L710.416 78.0742L711.459 284.145L627.638 255.591L527.082 262.926Z" fill="white" stroke="black" stroke-width="4"/>
</g>
</svg>
