<svg class="washB" viewBox="0 0 527 1079" fill="none" xmlns="http://www.w3.org/2000/svg">
<g>
<path id="path10643" opacity="0.5" d="M193.719 755.401V997.803C211.636 1011.18 221.356 1004.51 231.061 997.803V755.401H193.719Z" fill="#E5FF80" stroke="#8A916F" stroke-width="2.00001" stroke-linecap="round" stroke-linejoin="round"/>
<g id="water1">
<path id="path106331" opacity="0.5" d="M214.392 683.716C158.426 683.841 104.887 690.954 65.4495 703.504C26.0125 716.054 3.87733 733.023 3.87158 750.71C3.86345 767.672 24.2126 784.004 60.8133 796.411C97.4141 808.817 147.542 816.375 201.084 817.559C153.512 816.568 108.304 810.83 72.3582 801.222C36.4124 791.614 11.7028 778.663 2 764.345V1004.48H3.07132C2.74214 1006.01 2.57867 1007.53 2.58104 1009.06C2.57955 1017.86 8.09574 1026.57 18.8148 1034.7C29.5338 1042.83 45.2458 1050.21 65.0534 1056.44C84.861 1062.66 108.376 1067.59 134.257 1070.96C160.137 1074.33 187.876 1076.06 215.889 1076.06C243.904 1076.06 271.644 1074.33 297.526 1070.96C323.408 1067.6 346.925 1062.66 366.734 1056.44C386.543 1050.22 402.255 1042.83 412.975 1034.7C423.695 1026.57 429.212 1017.86 429.21 1009.06C429.208 1007.53 429.04 1006.01 428.707 1004.48H429.791V764.345C420.006 778.787 394.956 791.835 358.526 801.465C322.096 811.095 276.323 816.77 228.306 817.608C225.881 817.648 223.454 817.676 221.026 817.692C223.454 817.677 225.881 817.649 228.306 817.608C282.299 816.607 333.041 809.122 370.146 796.686C407.252 784.25 427.914 767.803 427.906 750.71C427.899 732.941 405.559 715.901 365.798 703.338C326.038 690.774 272.115 683.716 215.889 683.716C215.39 683.715 214.891 683.715 214.392 683.716Z" fill="#B7FFF1" stroke="#00AA88" stroke-width="2.00001" stroke-linecap="round" stroke-linejoin="round"/>
<path id="ellipse105991" opacity="0.5" d="M215.898 817.715C332.991 817.715 427.914 787.717 427.914 750.712C427.914 713.708 332.991 683.709 215.898 683.709C98.8047 683.709 3.88208 713.708 3.88208 750.712C3.88208 787.717 98.8047 817.715 215.898 817.715Z" fill="#B7FFF1" stroke="#00AA88" stroke-width="2.00001" stroke-linecap="round" stroke-linejoin="round"/>
</g>
<g id="water2">
<path id="path10633" opacity="0.5" d="M214.392 790.005C158.426 790.096 104.887 795.282 65.4495 804.432C26.0125 813.582 3.87733 825.954 3.87158 838.85C3.86345 851.217 24.2126 863.124 60.8133 872.17C97.4141 881.216 147.542 886.726 201.084 887.589C153.512 886.867 108.304 882.683 72.3582 875.678C36.4124 868.673 11.7028 859.23 2 848.791V1023.88H3.07132C2.74214 1024.99 2.57867 1026.1 2.58104 1027.21C2.57955 1033.62 8.09574 1039.98 18.8148 1045.9C29.5338 1051.83 45.2458 1057.22 65.0534 1061.75C84.861 1066.29 108.376 1069.89 134.257 1072.34C160.137 1074.8 187.876 1076.06 215.889 1076.06C243.904 1076.06 271.644 1074.8 297.526 1072.34C323.408 1069.89 346.925 1066.29 366.734 1061.75C386.543 1057.22 402.255 1051.83 412.975 1045.91C423.695 1039.98 429.212 1033.63 429.21 1027.21C429.208 1026.1 429.04 1024.98 428.707 1023.88H429.791V848.791C420.006 859.321 394.956 868.834 358.526 875.855C322.096 882.876 276.323 887.014 228.306 887.625C225.881 887.654 223.454 887.675 221.026 887.686C223.454 887.675 225.881 887.655 228.306 887.625C282.299 886.895 333.041 881.438 370.146 872.371C407.252 863.304 427.914 851.312 427.906 838.85C427.899 825.895 405.559 813.471 365.798 804.311C326.038 795.151 272.115 790.005 215.889 790.005C215.39 790.004 214.891 790.004 214.392 790.005Z" fill="#B7FFF1" stroke="#00AA88" stroke-width="2.00001" stroke-linecap="round" stroke-linejoin="round"/>
<path id="ellipse10599" opacity="0.5" d="M215.898 887.703C332.991 887.703 427.914 865.831 427.914 838.851C427.914 811.872 332.991 790 215.898 790C98.8047 790 3.88208 811.872 3.88208 838.851C3.88208 865.831 98.8047 887.703 215.898 887.703Z" fill="#B7FFF1" stroke="#00AA88" stroke-width="2.00001" stroke-linecap="round" stroke-linejoin="round"/>
</g>
<path id="rect10576" opacity="0.5" d="M193.713 15.6748V755.334C208.858 771.391 220.044 763.857 231.064 755.334V70.9623L526.285 409.25L482.433 303.712L231.064 15.6748C219.193 -1.55 193.204 -6.10131 193.713 15.6748Z" fill="#C7E3E1" fill-opacity="0.31" stroke="black" stroke-linecap="round" stroke-linejoin="round"/>
<g id="ellipse10559" opacity="0.5">
<path d="M192.278 401.172C86.6969 408.497 4.15093 464.349 2.60849 532.731H2.00244V1004.48H3.08203C2.75028 1006.01 2.58449 1007.53 2.58449 1009.06C2.58898 1046.06 98.0929 1076.06 215.9 1076.06C333.708 1076.06 429.212 1046.06 429.216 1009.06C429.212 1007.53 429.042 1006.01 428.706 1004.48H429.798V532.731H429.18C427.605 462.933 341.64 406.194 232.936 400.78" fill="#C7E3E1" fill-opacity="0.31"/>
<path d="M192.278 401.172C86.6969 408.497 4.15093 464.349 2.60849 532.731H2.00244V1004.48H3.08203C2.75028 1006.01 2.58449 1007.53 2.58449 1009.06C2.58898 1046.06 98.0929 1076.06 215.9 1076.06C333.708 1076.06 429.212 1046.06 429.216 1009.06C429.212 1007.53 429.042 1006.01 428.706 1004.48H429.798V532.731H429.18C427.605 462.933 341.64 406.194 232.936 400.78" stroke="#434343" stroke-width="4" stroke-linecap="round" stroke-linejoin="round"/>
</g>
<path id="path10572" opacity="0.5" d="M212.64 438.616C225.627 438.611 238.09 435.268 247.336 429.309C256.582 423.349 261.868 415.252 262.053 406.767H262.193V293.264H261.943C262.02 292.898 262.058 292.531 262.058 292.164C262.058 287.889 256.848 283.789 247.576 280.766C238.304 277.742 225.727 276.044 212.615 276.044C199.502 276.044 186.926 277.742 177.653 280.766C168.381 283.789 163.171 287.889 163.171 292.164C163.172 292.531 163.211 292.898 163.289 293.264H163.036V406.767H163.179C163.364 415.255 168.653 423.354 177.904 429.314C187.155 435.274 199.624 438.615 212.615 438.616C212.623 438.616 212.632 438.616 212.641 438.616H212.64Z" fill="#C7E3E1" stroke="#8A916F" stroke-width="2.00001" stroke-linecap="round" stroke-linejoin="round"/>
<path id="path10574" opacity="0.5" d="M211.769 307.975C230.19 307.975 245.124 301.839 245.124 294.27C245.124 286.701 230.19 280.565 211.769 280.565C193.347 280.565 178.414 286.701 178.414 294.27C178.414 301.839 193.347 307.975 211.769 307.975Z" fill="#D9DBD0"/>
</g>
</svg>
