<svg class="eppen_part2" viewBox="0 -50 95 420" fill="none" xmlns="http://www.w3.org/2000/svg">
<g>
<g id="epp">
<path id="Vector" fill-rule="evenodd" clip-rule="evenodd" d="M68.0203 203.596C68.0203 238.624 53.6993 377.74 45.0337 393.295C42.3907 398.069 37.2493 398.355 34.4593 393.295C25.7191 377.895 11.472 238.624 11.5451 203.596V28.0447H68.0203V203.596Z" fill="url(#paint0_linear_4_3)"/>
<path id="Vector_2" fill-rule="evenodd" clip-rule="evenodd" d="M7.0451 6H70.717V19.45H7.0451V6Z" fill="black" stroke="#1F1A17" stroke-width="10.2" stroke-linecap="round" stroke-linejoin="round"/>
<path id="Vector_3" fill-rule="evenodd" clip-rule="evenodd" d="M5 26.3042H72.9069V29.2043H5V26.3042Z" fill="url(#paint1_linear_4_3)" stroke="#1F1A17" stroke-width="9" stroke-linecap="round" stroke-linejoin="round"/>
<path id="Vector_178" fill-rule="evenodd" clip-rule="evenodd" d="M68.0044 201.542C68.0044 205.048 67.8617 209.677 67.6475 215.146L65.7204 214.866C66.0056 209.537 66.0773 205.048 66.0773 201.542H68.0044ZM67.6475 215.146C67.2905 222.581 66.7194 231.415 65.934 241.093L64.0784 240.532C64.7923 230.715 65.3628 222.019 65.7204 214.866L67.6475 215.146ZM65.934 241.093C65.2201 250.63 64.292 261.429 63.2213 272.509L61.3659 271.808C62.3649 260.868 63.293 250.21 64.0784 240.532L65.934 241.093ZM63.2213 272.509C58.439 323.702 50.8724 382.746 45.3755 392.846L44.0905 390.18C49.2305 380.645 56.5828 322.439 61.3659 271.808L63.2213 272.509ZM44.0905 390.18L44.7327 391.443L44.0905 390.18ZM45.3755 392.846C45.1613 393.406 45.3755 392.986 45.3755 392.986L44.0189 390.18C44.0905 390.18 43.8046 390.742 44.0905 390.18L45.3755 392.846ZM45.3755 392.986L44.6617 391.583L45.3755 392.986ZM45.3755 392.986C44.947 393.687 44.4474 394.388 43.9472 394.948L43.0198 391.583C43.3767 391.162 43.7336 390.742 44.0189 390.18L45.3755 392.986ZM43.9472 394.948C43.4477 395.51 42.8765 395.931 42.3053 396.211L41.8057 392.564C42.2343 392.284 42.6629 392.004 43.0198 391.583L43.9472 394.948ZM42.3053 396.211C39.5217 397.895 35.9527 396.912 33.8106 392.846L35.0963 390.18C36.7374 393.126 39.5217 393.968 41.8057 392.564L42.3053 396.211ZM33.8106 392.846C33.7396 392.846 33.668 392.706 33.5971 392.564L34.953 389.899L35.0963 390.18L33.8106 392.846ZM33.5971 392.564C32.3121 389.899 30.9554 384.991 29.5277 378.26L31.3123 376.857C32.5972 383.169 33.8822 387.656 34.953 389.899L33.5971 392.564ZM29.5277 378.26C28.1711 371.668 26.8152 363.253 25.3875 353.715L27.2437 352.733C28.5996 361.991 29.9556 370.265 31.3123 376.857L29.5277 378.26ZM25.3875 353.715C18.2488 305.328 11.1817 226.787 11.2534 201.542H13.1805C13.1089 226.507 20.1049 304.487 27.2437 352.733L25.3875 353.715ZM13.1805 201.542H12.1814H13.1805ZM11.2534 201.542V25.8072H13.1805V201.542H11.2534ZM11.2534 25.8072C11.2534 24.9652 11.7529 23.9834 12.1814 23.9834V25.8072H11.2534ZM12.1814 23.9834H67.0763V27.7709H12.1814V23.9834ZM67.0763 23.9834C67.5758 23.9834 68.0044 24.9652 68.0044 25.8072H67.0763V23.9834ZM68.0044 25.8072V201.542H66.0773V25.8072H68.0044Z" fill="#1F1A17"/>
</g>
<path id="shifting" d="M52.3773 353.38L55.3418 333.649L58.3064 307.484L61.271 279.604L63.1239 257.728L65.3473 233.707H40.1484H14.5789L16.4318 257.728L18.6552 279.604L21.6198 306.626L24.2138 333.649L27.5489 353.38C28.4139 358.098 30.0688 371.996 34.2192 386.408C38.3697 400.821 44.3485 391.555 46.0776 385.55L49.4128 370.538L52.3773 353.38Z" fill="#96FFF2"/>
<path id="isoFull" d="M53.438 339.691L56.7665 312.868L60.095 277.298L63.4233 239.394L65.5036 209.655L63.4233 177H39.708H15.5767L13.0803 209.655L15.5767 239.394L18.9051 276.131L21.8176 312.868L25.5621 339.691C26.5332 346.105 28.3913 364.999 33.0512 384.591C37.711 404.185 44.4237 391.588 46.365 383.425L50.1095 363.015L53.438 339.691Z" fill="#96FFF2"/>
<path id="bchaHua2" d="M26.7094 336.916H52.7712C50.792 356.803 47.8231 394.413 39.9054 393.548C38.6834 393.414 35.6168 393.548 33.3074 383.173C30.4182 370.191 26.7094 349.226 26.7094 336.916Z" fill="url(#paint2_linear_4_3)"/>
<path id="pallet1" d="M40.6424 386.273C44.6183 385.442 46.334 374.633 44.4744 362.13C42.6148 349.627 37.8843 340.165 33.9084 340.996C29.9325 341.827 28.2169 352.637 30.0764 365.14C31.9359 377.643 36.6665 387.105 40.6424 386.273Z" fill="url(#paint3_radial_4_3)"/>
<g id="dna">
<path id="Vector 1" d="M34.457 325.443C37.1399 328.493 41.6443 335.735 38.1969 340.305C33.8873 346.018 34.1791 352.748 37.0886 356.542C39.4161 359.577 40.924 358.251 41.3873 357.209L34.457 325.443ZM43.853 328.117C46.6148 328.646 51.2965 330.912 47.9267 335.737C46.473 348.274 52.0966 337.904 51.5152 347.537L43.853 328.117Z" stroke="#A4A4A4" stroke-opacity="0.65"/>
<path id="Vector 2" d="M45.1271 340.35C44.8998 343.354 44.5813 347.731 45.1271 354.94C45.673 362.15 48.458 367.1 47.9542 368.673" stroke="#A4A4A4" stroke-opacity="0.65"/>
<path id="Vector 3" d="M37.2131 376.813C35.9564 368.516 34.1972 353.982 37.2131 362.222C40.2283 370.462 39.049 369.66 38.0826 368.23L37.2131 365.655V376.813ZM35.6182 318.879C37.3094 316.447 40.5469 314.759 39.967 327.462C39.2423 343.34 44.0261 314.158 41.9969 333.041L35.6182 318.879Z" stroke="#A4A4A4" stroke-opacity="0.65"/>
<path id="Vector 4" d="M40.8994 315.085C42.2488 322.6 44.0435 336.813 40.4289 333.566C35.91 329.508 34.6388 335.153 35.9932 343.667C37.0777 350.478 38.5096 352.407 39.0903 352.52L40.8994 315.085ZM47.3982 335.352C49.3658 341.117 52.397 351.918 48.7838 349.015C44.9086 355.652 51.4508 358.748 48.8772 364.89L47.3982 335.352Z" stroke="#A4A4A4" stroke-opacity="0.65"/>
<path id="Vector 5" d="M49.9892 341.082C49.1516 342.907 47.9412 345.593 46.7553 352.093C45.5695 358.595 46.5744 367.739 45.8461 367.949" stroke="#A4A4A4" stroke-opacity="0.65"/>
<path id="Vector 6" d="M32.4553 365.748C33.3458 357.047 35.2396 342.662 35.6892 354.737C36.1387 366.811 35.4264 363.917 35.0138 360.96L34.9283 357.329L32.4553 365.748ZM44.0913 318.929C45.9062 320.379 48.7237 325.392 45.471 333.852C41.4054 344.428 51.4827 331.696 45.7664 342.005L44.0913 318.929Z" stroke="#A4A4A4" stroke-opacity="0.65"/>
<path id="Vector 7" d="M34.1451 341.861C36.8707 340.023 41.902 338.054 40.224 344.872C38.126 353.393 39.7968 356.555 42.8569 354.819C45.3053 353.43 46.1849 350.8 46.3181 349.659L34.1451 341.861ZM41.9694 331.222C44.2143 327.962 48.314 323.152 46.7503 330.005C48.3219 338.451 50.4329 325.798 52.0545 331.602L41.9694 331.222Z" stroke="#A4A4A4" stroke-opacity="0.65"/>
<path id="Vector 8" d="M43.6431 344.46C44.1137 346.33 44.808 349.036 46.7784 352.122C48.749 355.209 51.9611 354.24 51.9105 355.711" stroke="#A4A4A4" stroke-opacity="0.65"/>
<path id="Vector 9" d="M45.2973 363.106C42.5456 360.358 38.0652 354.981 42.1627 355.444C46.2595 355.907 45.1779 356.997 44.1245 357.485L42.9003 357.246L45.2973 363.106ZM31.6192 334.727C32.4018 331.282 34.5367 326.247 36.8186 333.661C39.6716 342.927 37.0922 321.473 39.5832 333.989L31.6192 334.727Z" stroke="#A4A4A4" stroke-opacity="0.65"/>
</g>
<g id="bubbles">
<g id="Group_2">
<path id="Vector_4" d="M33.8881 183.035C36.9582 183.035 39.4471 178.695 39.4471 173.34C39.4471 167.985 36.9582 163.645 33.8881 163.645C30.8171 163.645 28.3282 167.985 28.3282 173.34C28.3282 178.695 30.8171 183.035 33.8881 183.035Z" fill="url(#paint4_linear_4_3)"/>
<path id="Vector_5" d="M33.8874 178.72C36.209 178.72 38.0913 175.438 38.0913 171.389C38.0913 167.341 36.209 164.059 33.8874 164.059C31.5664 164.059 29.6842 167.341 29.6842 171.389C29.6842 175.438 31.5664 178.72 33.8874 178.72Z" fill="url(#paint5_linear_4_3)"/>
<g id="shadow" opacity="0.5">
<path id="Vector_6" opacity="0.5" d="M36.9257 168.001C36.7759 168.267 36.6267 168.532 36.4769 168.797C35.8434 167.708 34.9805 167.02 34.0206 166.974C34.0263 166.603 34.0322 166.231 34.0379 165.859C35.1658 165.915 36.18 166.723 36.9257 168.004V168.001Z" fill="url(#paint6_linear_4_3)"/>
<path id="Vector_7" opacity="0.5" d="M38.2027 173.526C37.9899 173.517 37.7763 173.507 37.5635 173.496C37.5896 171.823 37.2421 170.283 36.6528 169.12C36.8127 168.874 36.9728 168.628 37.1328 168.382C37.8241 169.749 38.2331 171.56 38.2027 173.526Z" fill="url(#paint7_linear_4_3)"/>
<path id="Vector_8" opacity="0.5" d="M37.41 167.143C37.2956 167.346 37.1813 167.548 37.0676 167.75C36.2865 166.411 35.2245 165.563 34.0438 165.506C34.0481 165.224 34.0524 164.94 34.0568 164.655C35.3663 164.718 36.5449 165.658 37.41 167.144V167.143Z" fill="url(#paint8_linear_4_3)"/>
<path id="Vector_9" opacity="0.5" d="M38.8926 173.559C38.7297 173.553 38.5668 173.544 38.4047 173.538C38.4365 171.477 38.0087 169.581 37.284 168.149C37.4056 167.962 37.528 167.775 37.6504 167.587C38.4532 169.174 38.9281 171.277 38.8926 173.562V173.559Z" fill="url(#paint9_linear_4_3)"/>
</g>
</g>
<g id="Group_2_2">
<path id="Vector_10" d="M50.0102 187.558C53.0804 187.558 55.5693 183.217 55.5693 177.862C55.5693 172.507 53.0804 168.166 50.0102 168.166C46.9392 168.166 44.4503 172.507 44.4503 177.862C44.4503 183.217 46.9392 187.558 50.0102 187.558Z" fill="url(#paint10_linear_4_3)"/>
<path id="Vector_11" d="M50.0102 183.242C52.3311 183.242 54.2134 179.96 54.2134 175.911C54.2134 171.863 52.3311 168.581 50.0102 168.581C47.6885 168.581 45.8062 171.863 45.8062 175.911C45.8062 179.96 47.6885 183.242 50.0102 183.242Z" fill="url(#paint11_linear_4_3)"/>
<g id="shadow_2" opacity="0.5">
<path id="Vector_12" opacity="0.5" d="M53.0478 172.523C52.898 172.79 52.7488 173.055 52.5989 173.319C51.9656 172.231 51.1026 171.542 50.1434 171.496C50.1492 171.125 50.1543 170.752 50.16 170.381C51.288 170.436 52.3022 171.245 53.0478 172.526V172.523Z" fill="url(#paint12_linear_4_3)"/>
<path id="Vector_13" opacity="0.5" d="M54.3248 178.048C54.112 178.039 53.8984 178.028 53.6855 178.017C53.7116 176.345 53.3642 174.805 52.7756 173.642C52.9348 173.396 53.0948 173.15 53.2549 172.903C53.9462 174.271 54.3552 176.081 54.3248 178.048Z" fill="url(#paint13_linear_4_3)"/>
<path id="Vector_14" opacity="0.5" d="M53.5321 171.666C53.4177 171.868 53.3034 172.07 53.1898 172.272C52.4086 170.933 51.3466 170.085 50.1658 170.029C50.1702 169.745 50.1745 169.462 50.1788 169.177C51.4884 169.239 52.667 170.18 53.5321 171.666Z" fill="url(#paint14_linear_4_3)"/>
<path id="Vector_15" opacity="0.5" d="M55.0147 178.083C54.8519 178.074 54.6889 178.066 54.5268 178.059C54.5587 175.999 54.1308 174.104 53.4061 172.672C53.5278 172.484 53.6501 172.297 53.7724 172.109C54.5753 173.695 55.0502 175.799 55.0147 178.083Z" fill="url(#paint15_linear_4_3)"/>
</g>
</g>
<g id="Group_3">
<path id="Vector_16" d="M39.4471 173.015C42.5173 173.015 45.0062 168.674 45.0062 163.319C45.0062 157.965 42.5173 153.624 39.4471 153.624C36.377 153.624 33.8881 157.965 33.8881 163.319C33.8881 168.674 36.377 173.015 39.4471 173.015Z" fill="url(#paint16_linear_4_3)"/>
<path id="Vector_17" d="M39.4471 168.698C41.7681 168.698 43.6504 165.416 43.6504 161.368C43.6504 157.319 41.7681 154.038 39.4471 154.038C37.1255 154.038 35.244 157.319 35.244 161.368C35.244 165.416 37.1255 168.698 39.4471 168.698Z" fill="url(#paint17_linear_4_3)"/>
<g id="shadow_3" opacity="0.5">
<path id="Vector_18" opacity="0.5" d="M42.4848 157.981C42.3356 158.246 42.1858 158.51 42.0366 158.777C41.4025 157.688 40.5396 156.999 39.5803 156.953C39.5862 156.582 39.5919 156.21 39.5977 155.838C40.7249 155.893 41.7391 156.702 42.4848 157.982V157.981Z" fill="url(#paint18_linear_4_3)"/>
<path id="Vector_19" opacity="0.5" d="M43.7625 163.505C43.549 163.495 43.3362 163.486 43.1226 163.475C43.1486 161.802 42.8012 160.262 42.2126 159.098C42.3726 158.853 42.5326 158.607 42.6919 158.361C43.384 159.728 43.7922 161.539 43.7618 163.505H43.7625Z" fill="url(#paint19_linear_4_3)"/>
<path id="Vector_20" opacity="0.5" d="M42.9691 157.122C42.8547 157.325 42.7411 157.527 42.6266 157.73C41.8462 156.389 40.7842 155.542 39.6027 155.485C39.6071 155.203 39.6114 154.918 39.6165 154.635C40.9261 154.697 42.104 155.637 42.9691 157.123V157.122Z" fill="url(#paint20_linear_4_3)"/>
<path id="Vector_21" opacity="0.5" d="M44.4517 163.539C44.2888 163.532 44.1267 163.524 43.9637 163.517C43.9956 161.456 43.5677 159.56 42.8431 158.129C42.9654 157.941 43.0871 157.754 43.2094 157.565C44.013 159.153 44.4879 161.256 44.4517 163.54V163.539Z" fill="url(#paint21_linear_4_3)"/>
</g>
<g id="Group_4">
<path id="Vector_22" d="M42.2271 189.497C45.2972 189.497 47.7861 185.156 47.7861 179.802C47.7861 174.447 45.2972 170.106 42.2271 170.106C39.1561 170.106 36.6672 174.447 36.6672 179.802C36.6672 185.156 39.1561 189.497 42.2271 189.497Z" fill="url(#paint22_linear_4_3)"/>
<path id="Vector_23" d="M42.2263 185.181C44.548 185.181 46.4303 181.899 46.4303 177.851C46.4303 173.802 44.548 170.52 42.2263 170.52C39.9054 170.52 38.0232 173.802 38.0232 177.851C38.0232 181.899 39.9054 185.181 42.2263 185.181Z" fill="url(#paint23_linear_4_3)"/>
<g id="shadow_4" opacity="0.5">
<path id="Vector_24" opacity="0.5" d="M45.2647 174.463C45.1148 174.728 44.9657 174.993 44.8159 175.257C44.1824 174.169 43.3195 173.481 42.3596 173.435C42.3653 173.063 42.3711 172.692 42.3769 172.32C43.5048 172.376 44.519 173.184 45.2647 174.465V174.463Z" fill="url(#paint24_linear_4_3)"/>
<path id="Vector_25" opacity="0.5" d="M46.5417 179.988C46.3289 179.977 46.1153 179.967 45.9024 179.958C45.9286 178.284 45.5811 176.744 44.9918 175.581C45.1517 175.335 45.3118 175.089 45.4718 174.843C46.1631 176.211 46.5721 178.022 46.5417 179.988Z" fill="url(#paint25_linear_4_3)"/>
<path id="Vector_26" opacity="0.5" d="M45.749 173.604C45.6346 173.807 45.5202 174.009 45.4066 174.212C44.6255 172.872 43.5635 172.023 42.3828 171.968C42.3871 171.684 42.3914 171.401 42.3958 171.117C43.7053 171.179 44.8839 172.118 45.749 173.604Z" fill="url(#paint26_linear_4_3)"/>
<path id="Vector_27" opacity="0.5" d="M47.2316 180.021C47.0688 180.014 46.9058 180.006 46.7437 179.998C46.7756 177.938 46.3478 176.042 45.6231 174.61C45.7447 174.422 45.867 174.235 45.9886 174.047C46.7922 175.634 47.2671 177.738 47.2316 180.022V180.021Z" fill="url(#paint27_linear_4_3)"/>
</g>
<g id="Group_5">
<path id="Vector_28" d="M47.7861 173.015C50.8563 173.015 53.3452 168.674 53.3452 163.319C53.3452 157.965 50.8563 153.624 47.7861 153.624C44.716 153.624 42.2271 157.965 42.2271 163.319C42.2271 168.674 44.716 173.015 47.7861 173.015Z" fill="url(#paint28_linear_4_3)"/>
<path id="Vector_29" d="M47.7861 168.698C50.1071 168.698 51.9893 165.416 51.9893 161.368C51.9893 157.319 50.1071 154.038 47.7861 154.038C45.4644 154.038 43.5829 157.319 43.5829 161.368C43.5829 165.416 45.4644 168.698 47.7861 168.698Z" fill="url(#paint29_linear_4_3)"/>
<g id="shadow_5" opacity="0.5">
<path id="Vector_30" opacity="0.5" d="M50.8237 157.981C50.6746 158.246 50.5248 158.51 50.375 158.777C49.7415 157.688 48.8785 156.999 47.9193 156.953C47.9252 156.582 47.9309 156.21 47.9367 155.838C49.0639 155.893 50.0781 156.702 50.8237 157.982V157.981Z" fill="url(#paint30_linear_4_3)"/>
<path id="Vector_31" opacity="0.5" d="M52.1015 163.505C51.888 163.495 51.6751 163.486 51.4615 163.475C51.4877 161.802 51.1402 160.262 50.5516 159.098C50.7116 158.853 50.8716 158.607 51.0309 158.361C51.7229 159.728 52.1312 161.539 52.1008 163.505H52.1015Z" fill="url(#paint31_linear_4_3)"/>
<path id="Vector_32" opacity="0.5" d="M51.308 157.122C51.1937 157.325 51.0801 157.527 50.9657 157.73C50.1852 156.389 49.1232 155.542 47.9417 155.485C47.9461 155.203 47.9504 154.918 47.9555 154.635C49.2651 154.697 50.443 155.637 51.308 157.123V157.122Z" fill="url(#paint32_linear_4_3)"/>
<path id="Vector_33" opacity="0.5" d="M52.7907 163.539C52.6278 163.532 52.4656 163.524 52.3027 163.517C52.3346 161.456 51.9067 159.56 51.1821 158.129C51.3044 157.941 51.426 157.754 51.5484 157.565C52.3519 159.153 52.8269 161.256 52.7907 163.54V163.539Z" fill="url(#paint33_linear_4_3)"/>
</g>
</g>
</g>
</g>
<g id="Group_6">
<path id="Vector_34" d="M57.7932 175.923C60.8635 175.923 63.3523 171.583 63.3523 166.228C63.3523 160.873 60.8635 156.533 57.7932 156.533C54.723 156.533 52.2334 160.873 52.2334 166.228C52.2334 171.583 54.723 175.923 57.7932 175.923Z" fill="url(#paint34_linear_4_3)"/>
<path id="Vector_35" d="M57.7932 171.607C60.1142 171.607 61.9964 168.325 61.9964 164.277C61.9964 160.228 60.1142 156.946 57.7932 156.946C55.4716 156.946 53.5893 160.228 53.5893 164.277C53.5893 168.325 55.4716 171.607 57.7932 171.607Z" fill="url(#paint35_linear_4_3)"/>
<g id="shadow_6" opacity="0.5">
<path id="Vector_36" opacity="0.5" d="M60.8309 160.889C60.681 161.154 60.5319 161.419 60.382 161.684C59.7486 160.596 58.8857 159.908 57.9265 159.862C57.9322 159.491 57.9373 159.119 57.9431 158.747C59.0709 158.802 60.0853 159.61 60.8309 160.891V160.889Z" fill="url(#paint36_linear_4_3)"/>
<path id="Vector_37" opacity="0.5" d="M62.1079 166.414C61.8951 166.403 61.6815 166.395 61.4687 166.384C61.4947 164.71 61.1473 163.17 60.5587 162.007C60.718 161.761 60.8779 161.516 61.0379 161.27C61.7293 162.637 62.1383 164.448 62.1079 166.414Z" fill="url(#paint37_linear_4_3)"/>
<path id="Vector_38" opacity="0.5" d="M61.3152 160.031C61.2008 160.234 61.0864 160.436 60.9727 160.638C60.1917 159.298 59.1296 158.449 57.9489 158.394C57.9532 158.111 57.9576 157.827 57.9619 157.543C59.2715 157.605 60.4501 158.546 61.3152 160.032V160.031Z" fill="url(#paint38_linear_4_3)"/>
<path id="Vector_39" opacity="0.5" d="M62.7979 166.447C62.635 166.441 62.4721 166.432 62.3099 166.425C62.3418 164.365 61.9139 162.469 61.1893 161.037C61.3109 160.849 61.4332 160.661 61.5556 160.474C62.3585 162.061 62.8333 164.165 62.7979 166.449V166.447Z" fill="url(#paint39_linear_4_3)"/>
</g>
</g>
<g id="Group_7">
<path id="Vector_40" d="M31.6641 192.731C34.7343 192.731 37.2232 188.39 37.2232 183.035C37.2232 177.682 34.7343 173.34 31.6641 173.34C28.5939 173.34 26.105 177.682 26.105 183.035C26.105 188.39 28.5939 192.731 31.6641 192.731Z" fill="url(#paint40_linear_4_3)"/>
<path id="Vector_41" d="M31.6641 188.415C33.985 188.415 35.8673 185.133 35.8673 181.084C35.8673 177.037 33.985 173.755 31.6641 173.755C29.3424 173.755 27.4609 177.037 27.4609 181.084C27.4609 185.133 29.3424 188.415 31.6641 188.415Z" fill="url(#paint41_linear_4_3)"/>
<g id="shadow_7" opacity="0.5">
<path id="Vector_42" opacity="0.5" d="M34.7017 177.698C34.5526 177.963 34.4028 178.227 34.253 178.492C33.6195 177.404 32.7565 176.715 31.7973 176.67C31.8031 176.298 31.8089 175.926 31.8147 175.554C32.9419 175.61 33.9561 176.418 34.7017 177.699V177.698Z" fill="url(#paint42_linear_4_3)"/>
<path id="Vector_43" opacity="0.5" d="M35.9794 183.221C35.7659 183.212 35.5531 183.202 35.3396 183.192C35.3656 181.517 35.0181 179.979 34.4296 178.815C34.5895 178.57 34.7495 178.323 34.9088 178.077C35.6009 179.444 36.0091 181.255 35.9788 183.223L35.9794 183.221Z" fill="url(#paint43_linear_4_3)"/>
<path id="Vector_44" opacity="0.5" d="M35.1861 176.839C35.0717 177.042 34.9581 177.243 34.8437 177.446C34.0633 176.106 33.0013 175.258 31.8198 175.203C31.8241 174.918 31.8284 174.635 31.8329 174.352C33.1432 174.412 34.321 175.353 35.1861 176.839Z" fill="url(#paint44_linear_4_3)"/>
<path id="Vector_45" opacity="0.5" d="M36.6686 183.256C36.5058 183.248 36.3436 183.241 36.1808 183.232C36.2126 181.173 35.7848 179.277 35.0601 177.845C35.1817 177.657 35.304 177.469 35.4265 177.282C36.2293 178.869 36.7049 180.972 36.6686 183.257V183.256Z" fill="url(#paint45_linear_4_3)"/>
</g>
<g id="Group_8">
<path id="Vector_46" d="M19.4332 194.67C22.5041 194.67 24.993 190.328 24.993 184.975C24.993 179.62 22.5041 175.279 19.4332 175.279C16.3629 175.279 13.874 179.62 13.874 184.975C13.874 190.328 16.3629 194.67 19.4332 194.67Z" fill="url(#paint46_linear_4_3)"/>
<path id="Vector_47" d="M19.4332 190.354C21.7548 190.354 23.6363 187.072 23.6363 183.024C23.6363 178.975 21.7548 175.693 19.4332 175.693C17.1122 175.693 15.23 178.975 15.23 183.024C15.23 187.072 17.1122 190.354 19.4332 190.354Z" fill="url(#paint47_linear_4_3)"/>
<g id="shadow_8" opacity="0.5">
<path id="Vector_48" opacity="0.5" d="M22.4715 179.637C22.3217 179.902 22.1726 180.167 22.0227 180.431C21.3885 179.343 20.5263 178.654 19.5664 178.61C19.5722 178.238 19.578 177.866 19.5837 177.493C20.7117 177.548 21.7251 178.357 22.4708 179.637H22.4715Z" fill="url(#paint48_linear_4_3)"/>
<path id="Vector_49" opacity="0.5" d="M23.7486 185.161C23.535 185.151 23.3221 185.14 23.1086 185.131C23.1354 183.458 22.7879 181.918 22.1986 180.754C22.3586 180.508 22.5185 180.262 22.6786 180.015C23.3699 181.384 23.7789 183.194 23.7486 185.161Z" fill="url(#paint49_linear_4_3)"/>
<path id="Vector_50" opacity="0.5" d="M22.9551 178.778C22.8414 178.981 22.7271 179.183 22.6127 179.385C21.8323 178.044 20.7703 177.197 19.5895 177.142C19.5939 176.857 19.5982 176.574 19.6025 176.29C20.9121 176.352 22.09 177.293 22.9558 178.778H22.9551Z" fill="url(#paint50_linear_4_3)"/>
<path id="Vector_51" opacity="0.5" d="M24.4378 185.195C24.2756 185.187 24.1126 185.179 23.9498 185.171C23.9824 183.111 23.5545 181.216 22.8292 179.784C22.9515 179.596 23.0731 179.408 23.1955 179.221C23.999 180.808 24.474 182.911 24.4384 185.196L24.4378 185.195Z" fill="url(#paint51_linear_4_3)"/>
</g>
</g>
<g id="Group_9">
<path id="Vector_52" d="M35.5553 199.192C38.6262 199.192 41.1151 194.851 41.1151 189.497C41.1151 184.142 38.6262 179.802 35.5553 179.802C32.4851 179.802 29.9962 184.142 29.9962 189.497C29.9962 194.851 32.4851 199.192 35.5553 199.192Z" fill="url(#paint52_linear_4_3)"/>
<path id="Vector_53" d="M35.5553 194.876C37.8769 194.876 39.7584 191.594 39.7584 187.546C39.7584 183.497 37.8769 180.215 35.5553 180.215C33.2343 180.215 31.3521 183.497 31.3521 187.546C31.3521 191.594 33.2343 194.876 35.5553 194.876Z" fill="url(#paint53_linear_4_3)"/>
<g id="shadow_9" opacity="0.5">
<path id="Vector_54" opacity="0.5" d="M38.5937 184.159C38.4439 184.424 38.2947 184.688 38.1448 184.953C37.5114 183.865 36.6485 183.175 35.6885 183.131C35.6943 182.759 35.7001 182.388 35.7059 182.016C36.8338 182.07 37.8473 182.879 38.593 184.16L38.5937 184.159Z" fill="url(#paint54_linear_4_3)"/>
<path id="Vector_55" opacity="0.5" d="M39.8708 189.683C39.6572 189.672 39.4443 189.662 39.2308 189.653C39.2575 187.979 38.9101 186.439 38.3208 185.276C38.4808 185.03 38.6407 184.784 38.8007 184.539C39.4921 185.906 39.9011 187.716 39.8708 189.683Z" fill="url(#paint55_linear_4_3)"/>
<path id="Vector_56" opacity="0.5" d="M39.0773 183.299C38.9636 183.503 38.8493 183.705 38.7349 183.908C37.9545 182.566 36.8925 181.719 35.7117 181.663C35.7161 181.379 35.7204 181.095 35.7247 180.812C37.0343 180.874 38.2122 181.814 39.078 183.301L39.0773 183.299Z" fill="url(#paint56_linear_4_3)"/>
<path id="Vector_57" opacity="0.5" d="M40.5599 189.717C40.3977 189.709 40.2348 189.701 40.072 189.693C40.1045 187.633 39.6766 185.738 38.9512 184.307C39.0737 184.118 39.1952 183.93 39.3176 183.742C40.1212 185.331 40.596 187.433 40.5606 189.718L40.5599 189.717Z" fill="url(#paint57_linear_4_3)"/>
</g>
</g>
<g id="Group_10">
<path id="Vector_58" d="M24.993 184.649C28.0632 184.649 30.5521 180.308 30.5521 174.953C30.5521 169.599 28.0632 165.258 24.993 165.258C21.9228 165.258 19.4332 169.599 19.4332 174.953C19.4332 180.308 21.9228 184.649 24.993 184.649Z" fill="url(#paint58_linear_4_3)"/>
<path id="Vector_59" d="M24.993 180.333C27.314 180.333 29.1962 177.051 29.1962 173.002C29.1962 168.954 27.314 165.672 24.993 165.672C22.6713 165.672 20.7891 168.954 20.7891 173.002C20.7891 177.051 22.6713 180.333 24.993 180.333Z" fill="url(#paint59_linear_4_3)"/>
<g id="shadow_10" opacity="0.5">
<path id="Vector_60" opacity="0.5" d="M28.0307 169.616C27.8808 169.881 27.7317 170.146 27.5818 170.41C26.9483 169.322 26.0855 168.633 25.1262 168.588C25.132 168.216 25.137 167.844 25.1429 167.472C26.2708 167.527 27.285 168.336 28.0307 169.617V169.616Z" fill="url(#paint60_linear_4_3)"/>
<path id="Vector_61" opacity="0.5" d="M29.3077 175.139C29.0949 175.13 28.8813 175.119 28.6684 175.11C28.6945 173.436 28.347 171.897 27.7584 170.734C27.9177 170.487 28.0777 170.241 28.2377 169.995C28.9291 171.363 29.3381 173.172 29.3077 175.139Z" fill="url(#paint61_linear_4_3)"/>
<path id="Vector_62" opacity="0.5" d="M28.5149 168.757C28.4006 168.959 28.2862 169.161 28.1725 169.363C27.3914 168.024 26.3294 167.176 25.1486 167.121C25.153 166.836 25.1573 166.553 25.1616 166.268C26.4713 166.332 27.6499 167.271 28.5149 168.757Z" fill="url(#paint62_linear_4_3)"/>
<path id="Vector_63" opacity="0.5" d="M29.9976 175.174C29.8347 175.166 29.6718 175.158 29.5096 175.15C29.5415 173.09 29.1136 171.195 28.389 169.763C28.5106 169.575 28.633 169.388 28.7553 169.2C29.5582 170.787 30.033 172.89 29.9976 175.175V175.174Z" fill="url(#paint63_linear_4_3)"/>
</g>
<g id="Group_11">
<path id="Vector_64" d="M27.7722 201.131C30.8431 201.131 33.332 196.79 33.332 191.436C33.332 186.081 30.8431 181.74 27.7722 181.74C24.702 181.74 22.2131 186.081 22.2131 191.436C22.2131 196.79 24.702 201.131 27.7722 201.131Z" fill="url(#paint64_linear_4_3)"/>
<path id="Vector_65" d="M27.7722 196.814C30.0939 196.814 31.9754 193.533 31.9754 189.485C31.9754 185.437 30.0939 182.155 27.7722 182.155C25.4513 182.155 23.5691 185.437 23.5691 189.485C23.5691 193.533 25.4513 196.814 27.7722 196.814Z" fill="url(#paint65_linear_4_3)"/>
<g id="shadow_11" opacity="0.5">
<path id="Vector_66" opacity="0.5" d="M30.8106 186.097C30.6607 186.362 30.5116 186.627 30.3617 186.893C29.7276 185.804 28.8654 185.116 27.9055 185.07C27.9112 184.699 27.917 184.326 27.9228 183.955C29.0507 184.009 30.0642 184.818 30.8099 186.098L30.8106 186.097Z" fill="url(#paint66_linear_4_3)"/>
<path id="Vector_67" opacity="0.5" d="M32.0876 191.622C31.874 191.612 31.6612 191.602 31.4477 191.591C31.4745 189.918 31.127 188.379 30.5377 187.215C30.6976 186.97 30.8577 186.724 31.0177 186.477C31.709 187.844 32.118 189.655 32.0876 191.622Z" fill="url(#paint67_linear_4_3)"/>
<path id="Vector_68" opacity="0.5" d="M31.2942 185.239C31.1805 185.442 31.0661 185.644 30.9517 185.846C30.1713 184.505 29.1093 183.659 27.9285 183.602C27.9329 183.319 27.9372 183.035 27.9416 182.751C29.2512 182.813 30.429 183.753 31.2949 185.239H31.2942Z" fill="url(#paint68_linear_4_3)"/>
<path id="Vector_69" opacity="0.5" d="M32.7768 191.656C32.6146 191.648 32.4517 191.64 32.2889 191.633C32.3214 189.573 31.8935 187.677 31.1682 186.245C31.2905 186.058 31.4122 185.869 31.5345 185.682C32.3381 187.269 32.813 189.373 32.7775 191.656H32.7768Z" fill="url(#paint69_linear_4_3)"/>
</g>
<g id="Group_12">
<path id="Vector_70" d="M33.332 184.649C36.4023 184.649 38.8912 180.308 38.8912 174.953C38.8912 169.599 36.4023 165.258 33.332 165.258C30.2619 165.258 27.7722 169.599 27.7722 174.953C27.7722 180.308 30.2619 184.649 33.332 184.649Z" fill="url(#paint70_linear_4_3)"/>
<path id="Vector_71" d="M33.332 180.333C35.653 180.333 37.5353 177.051 37.5353 173.002C37.5353 168.954 35.653 165.672 33.332 165.672C31.0104 165.672 29.1281 168.954 29.1281 173.002C29.1281 177.051 31.0104 180.333 33.332 180.333Z" fill="url(#paint71_linear_4_3)"/>
<g id="shadow_12" opacity="0.5">
<path id="Vector_72" opacity="0.5" d="M36.3697 169.616C36.2199 169.881 36.0707 170.146 35.9208 170.41C35.2874 169.322 34.4245 168.633 33.4653 168.588C33.4711 168.216 33.4761 167.844 33.4819 167.472C34.6099 167.527 35.6241 168.336 36.3697 169.617V169.616Z" fill="url(#paint72_linear_4_3)"/>
<path id="Vector_73" opacity="0.5" d="M37.6468 175.139C37.4339 175.13 37.2203 175.119 37.0075 175.11C37.0335 173.436 36.6861 171.897 36.0975 170.734C36.2568 170.487 36.4167 170.241 36.5768 169.995C37.2681 171.363 37.6771 173.172 37.6468 175.139Z" fill="url(#paint73_linear_4_3)"/>
<path id="Vector_74" opacity="0.5" d="M36.854 168.757C36.7396 168.959 36.6253 169.161 36.5116 169.363C35.7305 168.024 34.6685 167.176 33.4877 167.121C33.4921 166.836 33.4964 166.553 33.5007 166.268C34.8103 166.332 35.9889 167.271 36.854 168.757Z" fill="url(#paint74_linear_4_3)"/>
<path id="Vector_75" opacity="0.5" d="M38.3366 175.174C38.1738 175.166 38.0108 175.158 37.8487 175.15C37.8806 173.09 37.4527 171.195 36.728 169.763C36.8497 169.575 36.972 169.388 37.0943 169.2C37.8972 170.787 38.3721 172.89 38.3366 175.175V175.174Z" fill="url(#paint75_linear_4_3)"/>
</g>
</g>
</g>
</g>
<g id="Group_13">
<path id="Vector_76" d="M43.3384 187.558C46.4093 187.558 48.8982 183.217 48.8982 177.862C48.8982 172.507 46.4093 168.166 43.3384 168.166C40.2681 168.166 37.7792 172.507 37.7792 177.862C37.7792 183.217 40.2681 187.558 43.3384 187.558Z" fill="url(#paint76_linear_4_3)"/>
<path id="Vector_77" d="M43.3384 183.242C45.66 183.242 47.5415 179.96 47.5415 175.911C47.5415 171.863 45.66 168.581 43.3384 168.581C41.0174 168.581 39.1351 171.863 39.1351 175.911C39.1351 179.96 41.0174 183.242 43.3384 183.242Z" fill="url(#paint77_linear_4_3)"/>
<g id="shadow_13" opacity="0.5">
<path id="Vector_78" opacity="0.5" d="M46.3767 172.523C46.2269 172.79 46.0777 173.055 45.9278 173.319C45.2944 172.231 44.4315 171.542 43.4715 171.496C43.4773 171.125 43.4831 170.752 43.4888 170.381C44.6168 170.436 45.6311 171.245 46.3759 172.526L46.3767 172.523Z" fill="url(#paint78_linear_4_3)"/>
<path id="Vector_79" opacity="0.5" d="M47.6536 178.048C47.4401 178.039 47.2273 178.028 47.0138 178.017C47.0405 176.345 46.693 174.805 46.1038 173.642C46.2637 173.396 46.4237 173.15 46.5837 172.903C47.2751 174.271 47.6841 176.081 47.6536 178.048Z" fill="url(#paint79_linear_4_3)"/>
<path id="Vector_80" opacity="0.5" d="M46.8603 171.666C46.7466 171.868 46.6323 172.07 46.5179 172.272C45.7375 170.933 44.6755 170.085 43.4947 170.029C43.499 169.745 43.5034 169.462 43.5077 169.177C44.8174 169.239 45.9952 170.18 46.861 171.666H46.8603Z" fill="url(#paint80_linear_4_3)"/>
<path id="Vector_81" opacity="0.5" d="M48.3436 178.083C48.1807 178.074 48.0178 178.066 47.8549 178.059C47.8876 175.999 47.4597 174.104 46.7343 172.672C46.8567 172.484 46.979 172.297 47.1006 172.109C47.9041 173.695 48.3791 175.799 48.3436 178.083Z" fill="url(#paint81_linear_4_3)"/>
</g>
</g>
</g>
<g id="Group_14">
<path id="Vector_82" d="M47.7862 197.253C50.8564 197.253 53.3453 192.912 53.3453 187.558C53.3453 182.203 50.8564 177.862 47.7862 177.862C44.716 177.862 42.2271 182.203 42.2271 187.558C42.2271 192.912 44.716 197.253 47.7862 197.253Z" fill="url(#paint82_linear_4_3)"/>
<path id="Vector_83" d="M47.7862 192.937C50.1071 192.937 51.9894 189.655 51.9894 185.606C51.9894 181.558 50.1071 178.276 47.7862 178.276C45.4645 178.276 43.583 181.558 43.583 185.606C43.583 189.655 45.4645 192.937 47.7862 192.937Z" fill="url(#paint83_linear_4_3)"/>
<g id="shadow_14" opacity="0.5">
<path id="Vector_84" opacity="0.5" d="M50.8239 182.219C50.6747 182.484 50.5249 182.749 50.3751 183.015C49.7416 181.926 48.8787 181.237 47.9194 181.191C47.9253 180.82 47.931 180.448 47.9369 180.076C49.064 180.132 50.0782 180.94 50.8239 182.221V182.219Z" fill="url(#paint84_linear_4_3)"/>
<path id="Vector_85" opacity="0.5" d="M52.1016 187.744C51.8881 187.734 51.6753 187.724 51.4617 187.714C51.4878 186.041 51.1403 184.5 50.5518 183.337C50.7117 183.091 50.8717 182.845 51.031 182.599C51.7231 183.967 52.1313 185.778 52.101 187.744H52.1016Z" fill="url(#paint85_linear_4_3)"/>
<path id="Vector_86" opacity="0.5" d="M51.3082 181.36C51.1938 181.563 51.0802 181.765 50.9658 181.967C50.1853 180.628 49.1233 179.78 47.9418 179.724C47.9462 179.441 47.9506 179.157 47.9556 178.873C49.2653 178.936 50.4431 179.875 51.3082 181.36Z" fill="url(#paint86_linear_4_3)"/>
<path id="Vector_87" opacity="0.5" d="M52.7908 187.777C52.6279 187.77 52.4658 187.762 52.3028 187.754C52.3347 185.694 51.9068 183.799 51.1822 182.366C51.3045 182.179 51.4262 181.992 51.5485 181.804C52.3521 183.39 52.827 185.494 52.7908 187.779V187.777Z" fill="url(#paint87_linear_4_3)"/>
</g>
<g id="Group_15">
<path id="Vector_88" d="M36.1113 199.518C39.1822 199.518 41.6712 195.178 41.6712 189.823C41.6712 184.468 39.1822 180.128 36.1113 180.128C33.041 180.128 30.5521 184.468 30.5521 189.823C30.5521 195.178 33.041 199.518 36.1113 199.518Z" fill="url(#paint88_linear_4_3)"/>
<path id="Vector_89" d="M36.1113 195.202C38.4329 195.202 40.3145 191.92 40.3145 187.872C40.3145 183.823 38.4329 180.541 36.1113 180.541C33.7903 180.541 31.9081 183.823 31.9081 187.872C31.9081 191.92 33.7903 195.202 36.1113 195.202Z" fill="url(#paint89_linear_4_3)"/>
<g id="shadow_15" opacity="0.5">
<path id="Vector_90" opacity="0.5" d="M39.1496 184.484C38.9998 184.749 38.8507 185.014 38.7008 185.278C38.0666 184.19 37.2044 183.503 36.2445 183.457C36.2503 183.085 36.2561 182.713 36.2618 182.341C37.389 182.396 38.4032 183.205 39.1489 184.486L39.1496 184.484Z" fill="url(#paint90_linear_4_3)"/>
<path id="Vector_91" opacity="0.5" d="M40.4267 190.009C40.2131 189.998 40.0002 189.989 39.7867 189.978C39.8135 188.305 39.466 186.765 38.8767 185.602C39.0367 185.356 39.1967 185.109 39.3567 184.865C40.048 186.232 40.457 188.042 40.4267 190.009Z" fill="url(#paint91_linear_4_3)"/>
<path id="Vector_92" opacity="0.5" d="M39.6333 183.626C39.5196 183.829 39.4052 184.03 39.2908 184.233C38.5104 182.893 37.4484 182.044 36.2677 181.989C36.272 181.704 36.2763 181.421 36.2806 181.138C37.5903 181.2 38.7681 182.14 39.6339 183.626H39.6333Z" fill="url(#paint92_linear_4_3)"/>
<path id="Vector_93" opacity="0.5" d="M41.1159 190.042C40.9537 190.034 40.7907 190.027 40.6279 190.018C40.6605 187.959 40.2326 186.063 39.5073 184.632C39.6296 184.443 39.7512 184.256 39.8736 184.068C40.6771 185.656 41.1521 187.76 41.1165 190.043L41.1159 190.042Z" fill="url(#paint93_linear_4_3)"/>
</g>
</g>
<g id="Group_16">
<path id="Vector_94" d="M52.2334 204.04C55.3043 204.04 57.7932 199.699 57.7932 194.344C57.7932 188.99 55.3043 184.649 52.2334 184.649C49.1632 184.649 46.6743 188.99 46.6743 194.344C46.6743 199.699 49.1632 204.04 52.2334 204.04Z" fill="url(#paint94_linear_4_3)"/>
<path id="Vector_95" d="M52.2334 199.723C54.555 199.723 56.4365 196.441 56.4365 192.393C56.4365 188.344 54.555 185.063 52.2334 185.063C49.9124 185.063 48.0302 188.344 48.0302 192.393C48.0302 196.441 49.9124 199.723 52.2334 199.723Z" fill="url(#paint95_linear_4_3)"/>
<g id="shadow_16" opacity="0.5">
<path id="Vector_96" opacity="0.5" d="M55.2718 189.006C55.122 189.271 54.9728 189.536 54.8229 189.801C54.1895 188.713 53.3266 188.024 52.3666 187.979C52.3724 187.607 52.3782 187.235 52.384 186.863C53.5119 186.918 54.5262 187.726 55.2711 189.007L55.2718 189.006Z" fill="url(#paint96_linear_4_3)"/>
<path id="Vector_97" opacity="0.5" d="M56.5489 194.53C56.3353 194.52 56.1224 194.511 55.9089 194.5C55.9356 192.827 55.5882 191.286 54.9989 190.123C55.1589 189.878 55.3188 189.631 55.4789 189.386C56.1702 190.753 56.5792 192.564 56.5489 194.531V194.53Z" fill="url(#paint97_linear_4_3)"/>
<path id="Vector_98" opacity="0.5" d="M55.7554 188.148C55.6417 188.351 55.5274 188.552 55.413 188.755C54.6326 187.414 53.5706 186.566 52.3898 186.511C52.3942 186.228 52.3985 185.944 52.4028 185.66C53.7124 185.722 54.8903 186.662 55.7561 188.148H55.7554Z" fill="url(#paint98_linear_4_3)"/>
<path id="Vector_99" opacity="0.5" d="M57.238 194.564C57.0759 194.557 56.9129 194.549 56.7501 194.542C56.7827 192.482 56.3548 190.585 55.6295 189.154C55.7518 188.965 55.8733 188.778 55.9958 188.59C56.7993 190.178 57.2743 192.281 57.2387 194.565L57.238 194.564Z" fill="url(#paint99_linear_4_3)"/>
</g>
</g>
<g id="Group_17">
<path id="Vector_100" d="M41.6711 189.497C44.7413 189.497 47.2302 185.156 47.2302 179.802C47.2302 174.447 44.7413 170.106 41.6711 170.106C38.6009 170.106 36.1113 174.447 36.1113 179.802C36.1113 185.156 38.6009 189.497 41.6711 189.497Z" fill="url(#paint100_linear_4_3)"/>
<path id="Vector_101" d="M41.6711 185.181C43.9921 185.181 45.8743 181.899 45.8743 177.851C45.8743 173.802 43.9921 170.52 41.6711 170.52C39.3494 170.52 37.4672 173.802 37.4672 177.851C37.4672 181.899 39.3494 185.181 41.6711 185.181Z" fill="url(#paint101_linear_4_3)"/>
<g id="shadow_17" opacity="0.5">
<path id="Vector_102" opacity="0.5" d="M44.7088 174.463C44.5589 174.728 44.4098 174.993 44.2599 175.257C43.6265 174.169 42.7636 173.481 41.8043 173.435C41.8101 173.063 41.8151 172.692 41.821 172.32C42.9489 172.376 43.9631 173.184 44.7088 174.465V174.463Z" fill="url(#paint102_linear_4_3)"/>
<path id="Vector_103" opacity="0.5" d="M45.9858 179.988C45.773 179.977 45.5594 179.967 45.3465 179.958C45.3726 178.284 45.0251 176.744 44.4365 175.581C44.5958 175.335 44.7558 175.089 44.9159 174.843C45.6072 176.211 46.0162 178.022 45.9858 179.988Z" fill="url(#paint103_linear_4_3)"/>
<path id="Vector_104" opacity="0.5" d="M45.1931 173.604C45.0787 173.807 44.9643 174.009 44.8506 174.212C44.0695 172.872 43.0075 172.023 41.8267 171.968C41.8311 171.684 41.8354 171.401 41.8397 171.117C43.1494 171.179 44.328 172.118 45.1931 173.604Z" fill="url(#paint104_linear_4_3)"/>
<path id="Vector_105" opacity="0.5" d="M46.6757 180.021C46.5128 180.014 46.3499 180.006 46.1877 179.998C46.2196 177.938 45.7917 176.042 45.0671 174.61C45.1887 174.422 45.3111 174.235 45.4334 174.047C46.2363 175.634 46.7111 177.738 46.6757 180.022V180.021Z" fill="url(#paint105_linear_4_3)"/>
</g>
<g id="Group_18">
<path id="Vector_106" d="M44.4503 205.978C47.5212 205.978 50.0101 201.638 50.0101 196.283C50.0101 190.929 47.5212 186.588 44.4503 186.588C41.3801 186.588 38.8912 190.929 38.8912 196.283C38.8912 201.638 41.3801 205.978 44.4503 205.978Z" fill="url(#paint106_linear_4_3)"/>
<path id="Vector_107" d="M44.4503 201.664C46.772 201.664 48.6536 198.382 48.6536 194.333C48.6536 190.285 46.772 187.003 44.4503 187.003C42.1294 187.003 40.2472 190.285 40.2472 194.333C40.2472 198.382 42.1294 201.664 44.4503 201.664Z" fill="url(#paint107_linear_4_3)"/>
<g id="shadow_18" opacity="0.5">
<path id="Vector_108" opacity="0.5" d="M47.4887 190.945C47.3388 191.21 47.1897 191.476 47.0399 191.74C46.4057 190.651 45.5435 189.963 44.5836 189.918C44.5893 189.546 44.5951 189.174 44.6009 188.802C45.7288 188.856 46.7423 189.667 47.488 190.946L47.4887 190.945Z" fill="url(#paint108_linear_4_3)"/>
<path id="Vector_109" opacity="0.5" d="M48.7657 196.47C48.5521 196.459 48.3393 196.449 48.1258 196.439C48.1526 194.766 47.8051 193.227 47.2158 192.062C47.3757 191.817 47.5358 191.571 47.6958 191.325C48.3871 192.692 48.7961 194.503 48.7657 196.47Z" fill="url(#paint109_linear_4_3)"/>
<path id="Vector_110" opacity="0.5" d="M47.9723 190.087C47.8586 190.289 47.7442 190.491 47.6299 190.694C46.8495 189.354 45.7875 188.506 44.6068 188.45C44.6111 188.166 44.6154 187.883 44.6198 187.599C45.9293 187.66 47.1071 188.601 47.973 190.087H47.9723Z" fill="url(#paint110_linear_4_3)"/>
<path id="Vector_111" opacity="0.5" d="M49.4549 196.503C49.2927 196.496 49.1298 196.488 48.967 196.48C48.9995 194.42 48.5717 192.524 47.8463 191.093C47.9686 190.905 48.0903 190.718 48.2126 190.529C49.0162 192.117 49.4911 194.22 49.4556 196.504L49.4549 196.503Z" fill="url(#paint111_linear_4_3)"/>
</g>
<g id="Group_19">
<path id="Vector_112" d="M50.0102 189.497C53.0804 189.497 55.5693 185.156 55.5693 179.802C55.5693 174.447 53.0804 170.106 50.0102 170.106C46.94 170.106 44.4503 174.447 44.4503 179.802C44.4503 185.156 46.94 189.497 50.0102 189.497Z" fill="url(#paint112_linear_4_3)"/>
<path id="Vector_113" d="M50.0102 185.181C52.3311 185.181 54.2134 181.899 54.2134 177.851C54.2134 173.802 52.3311 170.52 50.0102 170.52C47.6885 170.52 45.8062 173.802 45.8062 177.851C45.8062 181.899 47.6885 185.181 50.0102 185.181Z" fill="url(#paint113_linear_4_3)"/>
<g id="shadow_19" opacity="0.5">
<path id="Vector_114" opacity="0.5" d="M53.0478 174.463C52.898 174.728 52.7488 174.993 52.5989 175.257C51.9656 174.169 51.1026 173.481 50.1434 173.435C50.1492 173.063 50.1543 172.692 50.16 172.32C51.288 172.376 52.3022 173.184 53.0478 174.465V174.463Z" fill="url(#paint114_linear_4_3)"/>
<path id="Vector_115" opacity="0.5" d="M54.3248 179.988C54.112 179.977 53.8984 179.967 53.6855 179.958C53.7116 178.284 53.3642 176.744 52.7756 175.581C52.9348 175.335 53.0948 175.089 53.2549 174.843C53.9462 176.211 54.3552 178.022 54.3248 179.988Z" fill="url(#paint115_linear_4_3)"/>
<path id="Vector_116" opacity="0.5" d="M53.5321 173.604C53.4177 173.807 53.3034 174.009 53.1898 174.212C52.4086 172.872 51.3472 172.023 50.1658 171.968C50.1702 171.684 50.1745 171.401 50.1788 171.117C51.4884 171.179 52.667 172.118 53.5321 173.604Z" fill="url(#paint116_linear_4_3)"/>
<path id="Vector_117" opacity="0.5" d="M55.0147 180.021C54.8519 180.014 54.6889 180.006 54.5268 179.998C54.5587 177.938 54.1308 176.042 53.4061 174.61C53.5278 174.422 53.6501 174.235 53.7724 174.047C54.5753 175.634 55.0502 177.738 55.0147 180.022V180.021Z" fill="url(#paint117_linear_4_3)"/>
</g>
</g>
</g>
</g>
<g id="Group_20">
<path id="Vector_118" d="M60.0165 192.405C63.0874 192.405 65.5763 188.064 65.5763 182.71C65.5763 177.356 63.0874 173.015 60.0165 173.015C56.9462 173.015 54.4573 177.356 54.4573 182.71C54.4573 188.064 56.9462 192.405 60.0165 192.405Z" fill="url(#paint118_linear_4_3)"/>
<path id="Vector_119" d="M60.0165 188.09C62.3381 188.09 64.2196 184.808 64.2196 180.759C64.2196 176.711 62.3381 173.429 60.0165 173.429C57.6955 173.429 55.8132 176.711 55.8132 180.759C55.8132 184.808 57.6955 188.09 60.0165 188.09Z" fill="url(#paint119_linear_4_3)"/>
<g id="shadow_20" opacity="0.5">
<path id="Vector_120" opacity="0.5" d="M63.0548 177.372C62.905 177.637 62.7559 177.902 62.606 178.166C61.9725 177.078 61.1097 176.389 60.1497 176.344C60.1555 175.972 60.1613 175.601 60.1671 175.228C61.2949 175.284 62.3092 176.093 63.0541 177.373L63.0548 177.372Z" fill="url(#paint120_linear_4_3)"/>
<path id="Vector_121" opacity="0.5" d="M64.3319 182.896C64.1183 182.886 63.9055 182.875 63.692 182.867C63.7187 181.192 63.3713 179.653 62.782 178.49C62.942 178.244 63.1019 177.997 63.2619 177.752C63.9533 179.118 64.3623 180.929 64.3319 182.896Z" fill="url(#paint121_linear_4_3)"/>
<path id="Vector_122" opacity="0.5" d="M63.5384 176.513C63.4248 176.716 63.3104 176.917 63.1961 177.12C62.4156 175.78 61.3537 174.932 60.1729 174.876C60.1772 174.592 60.1816 174.309 60.1859 174.026C61.4955 174.088 62.6733 175.027 63.5392 176.513H63.5384Z" fill="url(#paint122_linear_4_3)"/>
<path id="Vector_123" opacity="0.5" d="M65.0218 182.93C64.8588 182.922 64.696 182.915 64.5332 182.906C64.5657 180.847 64.1378 178.951 63.4124 177.519C63.5348 177.331 63.6572 177.144 63.7788 176.956C64.5824 178.543 65.0572 180.647 65.0218 182.931V182.93Z" fill="url(#paint123_linear_4_3)"/>
</g>
</g>
</g>
<g id="Group_21">
<path id="Vector_124" d="M37.2232 182.71C40.2934 182.71 42.7831 178.369 42.7831 173.015C42.7831 167.66 40.2934 163.319 37.2232 163.319C34.153 163.319 31.6641 167.66 31.6641 173.015C31.6641 178.369 34.153 182.71 37.2232 182.71Z" fill="url(#paint124_linear_4_3)"/>
<path id="Vector_125" d="M37.2232 178.394C39.5449 178.394 41.4264 175.113 41.4264 171.064C41.4264 167.016 39.5449 163.734 37.2232 163.734C34.9015 163.734 33.02 167.016 33.02 171.064C33.02 175.113 34.9015 178.394 37.2232 178.394Z" fill="url(#paint125_linear_4_3)"/>
<g id="shadow_21" opacity="0.5">
<path id="Vector_126" opacity="0.5" d="M40.2616 167.676C40.1117 167.942 39.9619 168.207 39.8128 168.471C39.1786 167.382 38.3157 166.695 37.3564 166.649C37.3623 166.277 37.368 165.905 37.3738 165.533C38.501 165.589 39.5152 166.397 40.2609 167.677L40.2616 167.676Z" fill="url(#paint126_linear_4_3)"/>
<path id="Vector_127" opacity="0.5" d="M41.5386 173.201C41.3251 173.191 41.1122 173.181 40.8987 173.17C40.9248 171.496 40.578 169.958 39.9887 168.794C40.1487 168.549 40.3086 168.302 40.4686 168.056C41.16 169.423 41.569 171.234 41.5379 173.201H41.5386Z" fill="url(#paint127_linear_4_3)"/>
<path id="Vector_128" opacity="0.5" d="M40.7452 166.818C40.6316 167.021 40.5172 167.222 40.4028 167.425C39.6223 166.085 38.5603 165.237 37.3788 165.181C37.3833 164.897 37.3876 164.614 37.3926 164.33C38.7023 164.392 39.8801 165.332 40.7459 166.818H40.7452Z" fill="url(#paint128_linear_4_3)"/>
<path id="Vector_129" opacity="0.5" d="M42.2278 173.234C42.0656 173.227 41.9028 173.219 41.7398 173.212C41.7724 171.152 41.3446 169.255 40.6192 167.824C40.7416 167.636 40.8632 167.448 40.9855 167.261C41.7891 168.848 42.264 170.952 42.2286 173.235L42.2278 173.234Z" fill="url(#paint129_linear_4_3)"/>
</g>
<g id="Group_22">
<path id="Vector_130" d="M40.0032 199.192C43.0734 199.192 45.5623 194.851 45.5623 189.497C45.5623 184.142 43.0734 179.802 40.0032 179.802C36.9329 179.802 34.444 184.142 34.444 189.497C34.444 194.851 36.9329 199.192 40.0032 199.192Z" fill="url(#paint130_linear_4_3)"/>
<path id="Vector_131" d="M40.0032 194.876C42.3241 194.876 44.2063 191.594 44.2063 187.546C44.2063 183.497 42.3241 180.215 40.0032 180.215C37.6815 180.215 35.7999 183.497 35.7999 187.546C35.7999 191.594 37.6815 194.876 40.0032 194.876Z" fill="url(#paint131_linear_4_3)"/>
<g id="shadow_22" opacity="0.5">
<path id="Vector_132" opacity="0.5" d="M43.0408 184.159C42.8917 184.423 42.7418 184.688 42.592 184.953C41.9586 183.865 41.0956 183.175 40.1364 183.131C40.1422 182.759 40.1479 182.388 40.1538 182.016C41.2809 182.07 42.2952 182.879 43.0408 184.16V184.159Z" fill="url(#paint132_linear_4_3)"/>
<path id="Vector_133" opacity="0.5" d="M44.3186 189.683C44.105 189.672 43.8921 189.662 43.6786 189.653C43.7047 187.979 43.3571 186.439 42.7686 185.276C42.9286 185.03 43.0886 184.784 43.2479 184.539C43.9399 185.906 44.3482 187.716 44.3178 189.683H44.3186Z" fill="url(#paint133_linear_4_3)"/>
<path id="Vector_134" opacity="0.5" d="M43.5251 183.299C43.4107 183.503 43.2971 183.705 43.1828 183.908C42.4024 182.566 41.3403 181.719 40.1589 181.663C40.1632 181.379 40.1675 181.095 40.1719 180.812C41.4822 180.874 42.66 181.814 43.5251 183.301V183.299Z" fill="url(#paint134_linear_4_3)"/>
<path id="Vector_135" opacity="0.5" d="M45.0077 189.717C44.8449 189.709 44.6827 189.701 44.5198 189.693C44.5516 187.633 44.1239 185.738 43.3991 184.307C43.5215 184.118 43.6431 183.93 43.7655 183.742C44.569 185.331 45.0439 187.433 45.0077 189.718V189.717Z" fill="url(#paint135_linear_4_3)"/>
</g>
<g id="Group_23">
<path id="Vector_136" d="M45.5623 182.71C48.6325 182.71 51.1221 178.369 51.1221 173.015C51.1221 167.66 48.6325 163.319 45.5623 163.319C42.4921 163.319 40.0032 167.66 40.0032 173.015C40.0032 178.369 42.4921 182.71 45.5623 182.71Z" fill="url(#paint136_linear_4_3)"/>
<path id="Vector_137" d="M45.5623 178.394C47.884 178.394 49.7655 175.113 49.7655 171.064C49.7655 167.016 47.884 163.734 45.5623 163.734C43.2406 163.734 41.3591 167.016 41.3591 171.064C41.3591 175.113 43.2406 178.394 45.5623 178.394Z" fill="url(#paint137_linear_4_3)"/>
<g id="shadow_23" opacity="0.5">
<path id="Vector_138" opacity="0.5" d="M48.6006 167.676C48.4507 167.942 48.3009 168.207 48.1518 168.471C47.5176 167.382 46.6547 166.695 45.6954 166.649C45.7013 166.277 45.707 165.905 45.7129 165.533C46.84 165.589 47.8542 166.397 48.5999 167.677L48.6006 167.676Z" fill="url(#paint138_linear_4_3)"/>
<path id="Vector_139" opacity="0.5" d="M49.8776 173.201C49.6641 173.191 49.4513 173.181 49.2378 173.17C49.2638 171.496 48.917 169.958 48.3278 168.794C48.4877 168.549 48.6477 168.302 48.8077 168.056C49.4991 169.423 49.9081 171.234 49.877 173.201H49.8776Z" fill="url(#paint139_linear_4_3)"/>
<path id="Vector_140" opacity="0.5" d="M49.0842 166.818C48.9706 167.021 48.8562 167.222 48.7418 167.425C47.9614 166.085 46.8994 165.237 45.718 165.181C45.7223 164.897 45.7266 164.614 45.7317 164.33C47.0413 164.392 48.2191 165.332 49.085 166.818H49.0842Z" fill="url(#paint140_linear_4_3)"/>
<path id="Vector_141" opacity="0.5" d="M50.5668 173.234C50.4046 173.227 50.2418 173.219 50.0788 173.212C50.1115 171.152 49.6836 169.255 48.9582 167.824C49.0805 167.636 49.2022 167.448 49.3245 167.261C50.1281 168.848 50.603 170.952 50.5676 173.235L50.5668 173.234Z" fill="url(#paint141_linear_4_3)"/>
</g>
</g>
</g>
<g id="Group_24">
<path id="Vector_142" d="M29.4402 192.731C32.5104 192.731 35 188.39 35 183.035C35 177.682 32.5104 173.34 29.4402 173.34C26.3699 173.34 23.881 177.682 23.881 183.035C23.881 188.39 26.3699 192.731 29.4402 192.731Z" fill="url(#paint142_linear_4_3)"/>
<path id="Vector_143" d="M29.4402 188.415C31.7618 188.415 33.6433 185.133 33.6433 181.084C33.6433 177.037 31.7618 173.755 29.4402 173.755C27.1185 173.755 25.2369 177.037 25.2369 181.084C25.2369 185.133 27.1185 188.415 29.4402 188.415Z" fill="url(#paint143_linear_4_3)"/>
<g id="shadow_24" opacity="0.5">
<path id="Vector_144" opacity="0.5" d="M32.4777 177.698C32.3287 177.963 32.1788 178.227 32.0296 178.492C31.3955 177.404 30.5325 176.715 29.5733 176.669C29.5791 176.298 29.5849 175.926 29.5907 175.554C30.7179 175.61 31.7321 176.418 32.4777 177.699V177.698Z" fill="url(#paint144_linear_4_3)"/>
<path id="Vector_145" opacity="0.5" d="M33.7556 183.221C33.542 183.212 33.3291 183.202 33.1156 183.192C33.1417 181.517 32.7942 179.979 32.2056 178.815C32.3656 178.57 32.5256 178.323 32.6856 178.077C33.3769 179.444 33.786 181.255 33.7548 183.223L33.7556 183.221Z" fill="url(#paint145_linear_4_3)"/>
<path id="Vector_146" opacity="0.5" d="M32.9621 176.839C32.8485 177.042 32.7341 177.243 32.6197 177.446C31.8393 176.106 30.7773 175.258 29.5958 175.203C29.6001 174.918 29.6044 174.635 29.6095 174.352C30.9192 174.412 32.097 175.353 32.9628 176.839H32.9621Z" fill="url(#paint146_linear_4_3)"/>
<path id="Vector_147" opacity="0.5" d="M34.4447 183.256C34.2818 183.248 34.1196 183.241 33.9568 183.232C33.9886 181.173 33.5615 179.277 32.8361 177.845C32.9585 177.657 33.08 177.469 33.2025 177.282C34.006 178.869 34.4809 180.972 34.4454 183.257L34.4447 183.256Z" fill="url(#paint147_linear_4_3)"/>
</g>
</g>
<g id="Group_25">
<path id="Vector_148" d="M45.5623 197.253C48.6325 197.253 51.1221 192.912 51.1221 187.558C51.1221 182.203 48.6325 177.862 45.5623 177.862C42.4921 177.862 40.0032 182.203 40.0032 187.558C40.0032 192.912 42.4921 197.253 45.5623 197.253Z" fill="url(#paint148_linear_4_3)"/>
<path id="Vector_149" d="M45.5623 192.937C47.884 192.937 49.7655 189.655 49.7655 185.606C49.7655 181.558 47.884 178.276 45.5623 178.276C43.2406 178.276 41.3591 181.558 41.3591 185.606C41.3591 189.655 43.2406 192.937 45.5623 192.937Z" fill="url(#paint149_linear_4_3)"/>
<g id="shadow_25" opacity="0.5">
<path id="Vector_150" opacity="0.5" d="M48.5999 182.219C48.4507 182.484 48.3009 182.749 48.1518 183.014C47.5176 181.926 46.6547 181.237 45.6954 181.191C45.7013 180.82 45.707 180.448 45.7129 180.076C46.84 180.132 47.8542 180.94 48.5999 182.221V182.219Z" fill="url(#paint150_linear_4_3)"/>
<path id="Vector_151" opacity="0.5" d="M49.8776 187.744C49.6641 187.734 49.4513 187.724 49.2378 187.714C49.2638 186.041 48.9163 184.5 48.3278 183.337C48.4877 183.091 48.6477 182.845 48.8077 182.599C49.4991 183.967 49.9081 185.778 49.877 187.744H49.8776Z" fill="url(#paint151_linear_4_3)"/>
<path id="Vector_152" opacity="0.5" d="M49.0842 181.36C48.9706 181.563 48.8562 181.765 48.7418 181.967C47.9614 180.628 46.8994 179.78 45.718 179.724C45.7223 179.441 45.7266 179.157 45.7317 178.873C47.0413 178.936 48.2191 179.875 49.085 181.36H49.0842Z" fill="url(#paint152_linear_4_3)"/>
<path id="Vector_153" opacity="0.5" d="M50.5668 187.777C50.4039 187.77 50.2418 187.762 50.0788 187.754C50.1107 185.694 49.6836 183.799 48.9582 182.366C49.0805 182.179 49.2022 181.992 49.3245 181.804C50.1281 183.39 50.603 185.494 50.5676 187.779L50.5668 187.777Z" fill="url(#paint153_linear_4_3)"/>
</g>
</g>
<g id="Group_26">
<path id="Vector_154" d="M34.9993 182.71C38.0702 182.71 40.5591 178.369 40.5591 173.015C40.5591 167.66 38.0702 163.319 34.9993 163.319C31.9291 163.319 29.4402 167.66 29.4402 173.015C29.4402 178.369 31.9291 182.71 34.9993 182.71Z" fill="url(#paint154_linear_4_3)"/>
<path id="Vector_155" d="M34.9993 178.394C37.321 178.394 39.2025 175.113 39.2025 171.064C39.2025 167.016 37.321 163.734 34.9993 163.734C32.6783 163.734 30.7961 167.016 30.7961 171.064C30.7961 175.113 32.6783 178.394 34.9993 178.394Z" fill="url(#paint155_linear_4_3)"/>
<g id="shadow_26" opacity="0.5">
<path id="Vector_156" opacity="0.5" d="M38.0376 167.676C37.8877 167.942 37.7387 168.207 37.5888 168.471C36.9553 167.382 36.0924 166.695 35.1324 166.649C35.1383 166.277 35.144 165.905 35.1498 165.533C36.2777 165.589 37.2919 166.397 38.0376 167.677V167.676Z" fill="url(#paint156_linear_4_3)"/>
<path id="Vector_157" opacity="0.5" d="M39.3147 173.201C39.1011 173.191 38.8883 173.181 38.6748 173.17C38.7015 171.496 38.354 169.958 37.7648 168.794C37.9247 168.549 38.0847 168.302 38.2447 168.056C38.9361 169.423 39.3451 171.234 39.3147 173.201Z" fill="url(#paint157_linear_4_3)"/>
<path id="Vector_158" opacity="0.5" d="M38.5212 166.818C38.4076 167.021 38.2932 167.222 38.1789 167.425C37.3984 166.085 36.3363 165.237 35.1556 165.181C35.16 164.897 35.1644 164.614 35.1687 164.33C36.4783 164.392 37.6561 165.332 38.522 166.818H38.5212Z" fill="url(#paint158_linear_4_3)"/>
<path id="Vector_159" opacity="0.5" d="M40.0046 173.234C39.8416 173.227 39.6788 173.219 39.5158 173.212C39.5485 171.152 39.1206 169.255 38.3952 167.824C38.5175 167.636 38.6399 167.448 38.7615 167.261C39.5651 168.848 40.04 170.952 40.0046 173.235V173.234Z" fill="url(#paint159_linear_4_3)"/>
</g>
<g id="Group_27">
<path id="Vector_160" d="M37.7792 199.192C40.8495 199.192 43.3384 194.851 43.3384 189.497C43.3384 184.142 40.8495 179.802 37.7792 179.802C34.709 179.802 32.2201 184.142 32.2201 189.497C32.2201 194.851 34.709 199.192 37.7792 199.192Z" fill="url(#paint160_linear_4_3)"/>
<path id="Vector_161" d="M37.7792 194.876C40.1009 194.876 41.9824 191.594 41.9824 187.546C41.9824 183.497 40.1009 180.215 37.7792 180.215C35.4576 180.215 33.576 183.497 33.576 187.546C33.576 191.594 35.4576 194.876 37.7792 194.876Z" fill="url(#paint161_linear_4_3)"/>
<g id="shadow_27" opacity="0.5">
<path id="Vector_162" opacity="0.5" d="M40.8168 184.159C40.6677 184.423 40.5178 184.688 40.3687 184.953C39.7346 183.865 38.8716 183.175 37.9124 183.131C37.9182 182.759 37.9239 182.388 37.9298 182.016C39.0569 182.07 40.0712 182.879 40.8168 184.16V184.159Z" fill="url(#paint162_linear_4_3)"/>
<path id="Vector_163" opacity="0.5" d="M42.0946 189.683C41.881 189.672 41.6682 189.662 41.4547 189.653C41.4807 187.979 41.1332 186.439 40.5447 185.276C40.7046 185.03 40.8646 184.784 41.0246 184.539C41.716 185.906 42.125 187.716 42.0939 189.683H42.0946Z" fill="url(#paint163_linear_4_3)"/>
<path id="Vector_164" opacity="0.5" d="M41.3011 183.299C41.1875 183.503 41.0731 183.705 40.9588 183.908C40.1784 182.566 39.1163 181.719 37.9349 181.663C37.9392 181.379 37.9435 181.095 37.9486 180.812C39.2582 180.874 40.436 181.814 41.3019 183.301L41.3011 183.299Z" fill="url(#paint164_linear_4_3)"/>
<path id="Vector_165" opacity="0.5" d="M42.7837 189.717C42.6209 189.709 42.4587 189.701 42.2958 189.693C42.3276 187.633 41.8999 185.738 41.1751 184.307C41.2975 184.118 41.4191 183.93 41.5415 183.742C42.3451 185.331 42.8199 187.433 42.7845 189.718L42.7837 189.717Z" fill="url(#paint165_linear_4_3)"/>
</g>
<g id="Group_28">
<path id="Vector_166" d="M43.3384 182.71C46.4093 182.71 48.8982 178.369 48.8982 173.015C48.8982 167.66 46.4093 163.319 43.3384 163.319C40.2681 163.319 37.7792 167.66 37.7792 173.015C37.7792 178.369 40.2681 182.71 43.3384 182.71Z" fill="url(#paint166_linear_4_3)"/>
<path id="Vector_167" d="M43.3384 178.394C45.66 178.394 47.5415 175.113 47.5415 171.064C47.5415 167.016 45.66 163.734 43.3384 163.734C41.0174 163.734 39.1351 167.016 39.1351 171.064C39.1351 175.113 41.0174 178.394 43.3384 178.394Z" fill="url(#paint167_linear_4_3)"/>
<g id="shadow_28" opacity="0.5">
<path id="Vector_168" opacity="0.5" d="M46.3767 167.676C46.2269 167.942 46.0777 168.207 45.9278 168.471C45.2944 167.382 44.4315 166.695 43.4715 166.649C43.4773 166.277 43.4831 165.905 43.4888 165.533C44.6168 165.589 45.6311 166.397 46.3759 167.677L46.3767 167.676Z" fill="url(#paint168_linear_4_3)"/>
<path id="Vector_169" opacity="0.5" d="M47.6536 173.201C47.4401 173.191 47.2273 173.181 47.0138 173.17C47.0405 171.496 46.693 169.958 46.1038 168.794C46.2637 168.549 46.4237 168.302 46.5837 168.056C47.2751 169.423 47.6841 171.234 47.6536 173.201Z" fill="url(#paint169_linear_4_3)"/>
<path id="Vector_170" opacity="0.5" d="M46.8603 166.818C46.7466 167.021 46.6323 167.222 46.5179 167.425C45.7375 166.085 44.6755 165.237 43.4947 165.181C43.499 164.897 43.5034 164.614 43.5077 164.33C44.8174 164.392 45.9952 165.332 46.861 166.818H46.8603Z" fill="url(#paint170_linear_4_3)"/>
<path id="Vector_171" opacity="0.5" d="M48.3436 173.234C48.1807 173.227 48.0178 173.219 47.8549 173.212C47.8876 171.152 47.4597 169.255 46.7343 167.824C46.8567 167.636 46.979 167.448 47.1006 167.261C47.9041 168.848 48.3791 170.952 48.3436 173.235V173.234Z" fill="url(#paint171_linear_4_3)"/>
</g>
</g>
</g>
</g>
<g id="Group_29">
<path id="Vector_172" d="M53.3453 185.618C56.4156 185.618 58.9052 181.278 58.9052 175.923C58.9052 170.569 56.4156 166.228 53.3453 166.228C50.2752 166.228 47.7862 170.569 47.7862 175.923C47.7862 181.278 50.2752 185.618 53.3453 185.618Z" fill="url(#paint172_linear_4_3)"/>
<path id="Vector_173" d="M53.3454 181.303C55.667 181.303 57.5486 178.021 57.5486 173.972C57.5486 169.925 55.667 166.643 53.3454 166.643C51.0237 166.643 49.1422 169.925 49.1422 173.972C49.1422 178.021 51.0237 181.303 53.3454 181.303Z" fill="url(#paint173_linear_4_3)"/>
<g id="shadow_29" opacity="0.5">
<path id="Vector_174" opacity="0.5" d="M56.3838 170.585C56.2339 170.85 56.0841 171.114 55.9349 171.38C55.3007 170.291 54.4378 169.603 53.4786 169.558C53.4843 169.185 53.4902 168.814 53.4959 168.442C54.6232 168.497 55.6374 169.306 56.383 170.586L56.3838 170.585Z" fill="url(#paint174_linear_4_3)"/>
<path id="Vector_175" opacity="0.5" d="M57.6607 176.109C57.4472 176.099 57.2344 176.089 57.0208 176.079C57.0468 174.405 56.7 172.867 56.1108 171.702C56.2708 171.458 56.4308 171.211 56.5907 170.965C57.2822 172.332 57.6912 174.143 57.66 176.11L57.6607 176.109Z" fill="url(#paint175_linear_4_3)"/>
<path id="Vector_176" opacity="0.5" d="M56.8673 169.727C56.7537 169.929 56.6392 170.131 56.5249 170.334C55.7445 168.993 54.6824 168.146 53.501 168.09C53.5061 167.806 53.5104 167.522 53.5148 167.239C54.8243 167.3 56.0022 168.24 56.8681 169.727H56.8673Z" fill="url(#paint176_linear_4_3)"/>
<path id="Vector_177" opacity="0.5" d="M58.3499 176.143C58.1878 176.136 58.0249 176.128 57.862 176.12C57.8945 174.061 57.4667 172.164 56.7413 170.733C56.8637 170.545 56.9853 170.357 57.1076 170.168C57.9112 171.757 58.3861 173.86 58.3507 176.144L58.3499 176.143Z" fill="url(#paint177_linear_4_3)"/>
</g>
</g>
</g>
</g>
</g>
<defs>
<linearGradient id="paint0_linear_4_3" x1="11.5451" y1="212.512" x2="68.0203" y2="212.512" gradientUnits="userSpaceOnUse">
<stop stop-color="#BED3DE"/>
<stop offset="0.65882" stop-color="white"/>
<stop offset="1" stop-color="#CFDFE9"/>
</linearGradient>
<linearGradient id="paint1_linear_4_3" x1="5.00077" y1="27.7692" x2="72.9069" y2="27.7692" gradientUnits="userSpaceOnUse">
<stop stop-color="#BED3DE"/>
<stop offset="0.65882" stop-color="white"/>
<stop offset="1" stop-color="#CFDFE9"/>
</linearGradient>
<linearGradient id="paint2_linear_4_3" x1="39.7403" y1="336.916" x2="39.7403" y2="393.548" gradientUnits="userSpaceOnUse">
<stop stop-color="white" stop-opacity="0"/>
<stop offset="1" stop-color="#EBFF09"/>
</linearGradient>
<radialGradient id="paint3_radial_4_3" cx="0" cy="0" r="1" gradientUnits="userSpaceOnUse" gradientTransform="translate(37.2754 363.635) rotate(81.5405) scale(22.8877 7.34206)">
<stop stop-color="#FFE600"/>
<stop offset="1" stop-color="#AEAEAE" stop-opacity="0.47"/>
</radialGradient>
<linearGradient id="paint4_linear_4_3" x1="33.8877" y1="163.645" x2="39.8182" y2="173.534" gradientUnits="userSpaceOnUse">
<stop stop-color="#2FFFE6"/>
<stop offset="1" stop-color="#C2D7D4" stop-opacity="0"/>
</linearGradient>
<linearGradient id="paint5_linear_4_3" x1="33.8877" y1="164.059" x2="38.3717" y2="171.535" gradientUnits="userSpaceOnUse">
<stop stop-color="#2FFFE6"/>
<stop offset="1" stop-color="#C2D7D4" stop-opacity="0"/>
</linearGradient>
<linearGradient id="paint6_linear_4_3" x1="35.4731" y1="165.859" x2="36.1051" y2="167.676" gradientUnits="userSpaceOnUse">
<stop stop-color="#2FFFE6"/>
<stop offset="1" stop-color="#C2D7D4" stop-opacity="0"/>
</linearGradient>
<linearGradient id="paint7_linear_4_3" x1="37.4285" y1="168.382" x2="39.1968" y2="169.933" gradientUnits="userSpaceOnUse">
<stop stop-color="#2FFFE6"/>
<stop offset="1" stop-color="#C2D7D4" stop-opacity="0"/>
</linearGradient>
<linearGradient id="paint8_linear_4_3" x1="35.7269" y1="164.655" x2="36.3437" y2="166.606" gradientUnits="userSpaceOnUse">
<stop stop-color="#2FFFE6"/>
<stop offset="1" stop-color="#C2D7D4" stop-opacity="0"/>
</linearGradient>
<linearGradient id="paint9_linear_4_3" x1="38.0892" y1="167.587" x2="40.1007" y2="169.163" gradientUnits="userSpaceOnUse">
<stop stop-color="#2FFFE6"/>
<stop offset="1" stop-color="#C2D7D4" stop-opacity="0"/>
</linearGradient>
<linearGradient id="paint10_linear_4_3" x1="50.0098" y1="168.166" x2="55.9408" y2="178.055" gradientUnits="userSpaceOnUse">
<stop stop-color="#2FFFE6"/>
<stop offset="1" stop-color="#C2D7D4" stop-opacity="0"/>
</linearGradient>
<linearGradient id="paint11_linear_4_3" x1="50.0098" y1="168.581" x2="54.4938" y2="176.058" gradientUnits="userSpaceOnUse">
<stop stop-color="#2FFFE6"/>
<stop offset="1" stop-color="#C2D7D4" stop-opacity="0"/>
</linearGradient>
<linearGradient id="paint12_linear_4_3" x1="51.5956" y1="170.381" x2="52.2277" y2="172.198" gradientUnits="userSpaceOnUse">
<stop stop-color="#2FFFE6"/>
<stop offset="1" stop-color="#C2D7D4" stop-opacity="0"/>
</linearGradient>
<linearGradient id="paint13_linear_4_3" x1="53.551" y1="172.903" x2="55.3195" y2="174.453" gradientUnits="userSpaceOnUse">
<stop stop-color="#2FFFE6"/>
<stop offset="1" stop-color="#C2D7D4" stop-opacity="0"/>
</linearGradient>
<linearGradient id="paint14_linear_4_3" x1="51.8489" y1="169.177" x2="52.4658" y2="171.128" gradientUnits="userSpaceOnUse">
<stop stop-color="#2FFFE6"/>
<stop offset="1" stop-color="#C2D7D4" stop-opacity="0"/>
</linearGradient>
<linearGradient id="paint15_linear_4_3" x1="54.2114" y1="172.109" x2="56.2226" y2="173.685" gradientUnits="userSpaceOnUse">
<stop stop-color="#2FFFE6"/>
<stop offset="1" stop-color="#C2D7D4" stop-opacity="0"/>
</linearGradient>
<linearGradient id="paint16_linear_4_3" x1="39.4472" y1="153.624" x2="45.3784" y2="163.512" gradientUnits="userSpaceOnUse">
<stop stop-color="#2FFFE6"/>
<stop offset="1" stop-color="#C2D7D4" stop-opacity="0"/>
</linearGradient>
<linearGradient id="paint17_linear_4_3" x1="39.4472" y1="154.038" x2="43.9313" y2="161.514" gradientUnits="userSpaceOnUse">
<stop stop-color="#2FFFE6"/>
<stop offset="1" stop-color="#C2D7D4" stop-opacity="0"/>
</linearGradient>
<linearGradient id="paint18_linear_4_3" x1="41.0325" y1="155.838" x2="41.665" y2="157.655" gradientUnits="userSpaceOnUse">
<stop stop-color="#2FFFE6"/>
<stop offset="1" stop-color="#C2D7D4" stop-opacity="0"/>
</linearGradient>
<linearGradient id="paint19_linear_4_3" x1="42.988" y1="158.361" x2="44.7562" y2="159.911" gradientUnits="userSpaceOnUse">
<stop stop-color="#2FFFE6"/>
<stop offset="1" stop-color="#C2D7D4" stop-opacity="0"/>
</linearGradient>
<linearGradient id="paint20_linear_4_3" x1="41.2859" y1="154.635" x2="41.9027" y2="156.586" gradientUnits="userSpaceOnUse">
<stop stop-color="#2FFFE6"/>
<stop offset="1" stop-color="#C2D7D4" stop-opacity="0"/>
</linearGradient>
<linearGradient id="paint21_linear_4_3" x1="43.6483" y1="157.565" x2="45.6599" y2="159.142" gradientUnits="userSpaceOnUse">
<stop stop-color="#2FFFE6"/>
<stop offset="1" stop-color="#C2D7D4" stop-opacity="0"/>
</linearGradient>
<linearGradient id="paint22_linear_4_3" x1="42.2267" y1="170.106" x2="48.1572" y2="179.995" gradientUnits="userSpaceOnUse">
<stop stop-color="#2FFFE6"/>
<stop offset="1" stop-color="#C2D7D4" stop-opacity="0"/>
</linearGradient>
<linearGradient id="paint23_linear_4_3" x1="42.2267" y1="170.52" x2="46.7107" y2="177.997" gradientUnits="userSpaceOnUse">
<stop stop-color="#2FFFE6"/>
<stop offset="1" stop-color="#C2D7D4" stop-opacity="0"/>
</linearGradient>
<linearGradient id="paint24_linear_4_3" x1="43.8121" y1="172.32" x2="44.4437" y2="174.137" gradientUnits="userSpaceOnUse">
<stop stop-color="#2FFFE6"/>
<stop offset="1" stop-color="#C2D7D4" stop-opacity="0"/>
</linearGradient>
<linearGradient id="paint25_linear_4_3" x1="45.7675" y1="174.843" x2="47.5358" y2="176.394" gradientUnits="userSpaceOnUse">
<stop stop-color="#2FFFE6"/>
<stop offset="1" stop-color="#C2D7D4" stop-opacity="0"/>
</linearGradient>
<linearGradient id="paint26_linear_4_3" x1="44.0659" y1="171.117" x2="44.6827" y2="173.068" gradientUnits="userSpaceOnUse">
<stop stop-color="#2FFFE6"/>
<stop offset="1" stop-color="#C2D7D4" stop-opacity="0"/>
</linearGradient>
<linearGradient id="paint27_linear_4_3" x1="46.4283" y1="174.047" x2="48.4397" y2="175.623" gradientUnits="userSpaceOnUse">
<stop stop-color="#2FFFE6"/>
<stop offset="1" stop-color="#C2D7D4" stop-opacity="0"/>
</linearGradient>
<linearGradient id="paint28_linear_4_3" x1="47.7861" y1="153.624" x2="53.7174" y2="163.512" gradientUnits="userSpaceOnUse">
<stop stop-color="#2FFFE6"/>
<stop offset="1" stop-color="#C2D7D4" stop-opacity="0"/>
</linearGradient>
<linearGradient id="paint29_linear_4_3" x1="47.7861" y1="154.038" x2="52.2703" y2="161.514" gradientUnits="userSpaceOnUse">
<stop stop-color="#2FFFE6"/>
<stop offset="1" stop-color="#C2D7D4" stop-opacity="0"/>
</linearGradient>
<linearGradient id="paint30_linear_4_3" x1="49.3715" y1="155.838" x2="50.004" y2="157.655" gradientUnits="userSpaceOnUse">
<stop stop-color="#2FFFE6"/>
<stop offset="1" stop-color="#C2D7D4" stop-opacity="0"/>
</linearGradient>
<linearGradient id="paint31_linear_4_3" x1="51.327" y1="158.361" x2="53.0952" y2="159.911" gradientUnits="userSpaceOnUse">
<stop stop-color="#2FFFE6"/>
<stop offset="1" stop-color="#C2D7D4" stop-opacity="0"/>
</linearGradient>
<linearGradient id="paint32_linear_4_3" x1="49.6249" y1="154.635" x2="50.2417" y2="156.586" gradientUnits="userSpaceOnUse">
<stop stop-color="#2FFFE6"/>
<stop offset="1" stop-color="#C2D7D4" stop-opacity="0"/>
</linearGradient>
<linearGradient id="paint33_linear_4_3" x1="51.9873" y1="157.565" x2="53.9988" y2="159.142" gradientUnits="userSpaceOnUse">
<stop stop-color="#2FFFE6"/>
<stop offset="1" stop-color="#C2D7D4" stop-opacity="0"/>
</linearGradient>
<linearGradient id="paint34_linear_4_3" x1="57.7929" y1="156.533" x2="63.7234" y2="166.421" gradientUnits="userSpaceOnUse">
<stop stop-color="#2FFFE6"/>
<stop offset="1" stop-color="#C2D7D4" stop-opacity="0"/>
</linearGradient>
<linearGradient id="paint35_linear_4_3" x1="57.7929" y1="156.946" x2="62.2769" y2="164.423" gradientUnits="userSpaceOnUse">
<stop stop-color="#2FFFE6"/>
<stop offset="1" stop-color="#C2D7D4" stop-opacity="0"/>
</linearGradient>
<linearGradient id="paint36_linear_4_3" x1="59.3787" y1="158.747" x2="60.0108" y2="160.564" gradientUnits="userSpaceOnUse">
<stop stop-color="#2FFFE6"/>
<stop offset="1" stop-color="#C2D7D4" stop-opacity="0"/>
</linearGradient>
<linearGradient id="paint37_linear_4_3" x1="61.3341" y1="161.27" x2="63.1022" y2="162.82" gradientUnits="userSpaceOnUse">
<stop stop-color="#2FFFE6"/>
<stop offset="1" stop-color="#C2D7D4" stop-opacity="0"/>
</linearGradient>
<linearGradient id="paint38_linear_4_3" x1="59.632" y1="157.543" x2="60.2489" y2="159.494" gradientUnits="userSpaceOnUse">
<stop stop-color="#2FFFE6"/>
<stop offset="1" stop-color="#C2D7D4" stop-opacity="0"/>
</linearGradient>
<linearGradient id="paint39_linear_4_3" x1="61.9945" y1="160.474" x2="64.006" y2="162.051" gradientUnits="userSpaceOnUse">
<stop stop-color="#2FFFE6"/>
<stop offset="1" stop-color="#C2D7D4" stop-opacity="0"/>
</linearGradient>
<linearGradient id="paint40_linear_4_3" x1="31.6641" y1="173.34" x2="37.5948" y2="183.228" gradientUnits="userSpaceOnUse">
<stop stop-color="#2FFFE6"/>
<stop offset="1" stop-color="#C2D7D4" stop-opacity="0"/>
</linearGradient>
<linearGradient id="paint41_linear_4_3" x1="31.6641" y1="173.755" x2="36.1478" y2="181.231" gradientUnits="userSpaceOnUse">
<stop stop-color="#2FFFE6"/>
<stop offset="1" stop-color="#C2D7D4" stop-opacity="0"/>
</linearGradient>
<linearGradient id="paint42_linear_4_3" x1="33.2495" y1="175.554" x2="33.8816" y2="177.371" gradientUnits="userSpaceOnUse">
<stop stop-color="#2FFFE6"/>
<stop offset="1" stop-color="#C2D7D4" stop-opacity="0"/>
</linearGradient>
<linearGradient id="paint43_linear_4_3" x1="35.205" y1="178.077" x2="36.9734" y2="179.627" gradientUnits="userSpaceOnUse">
<stop stop-color="#2FFFE6"/>
<stop offset="1" stop-color="#C2D7D4" stop-opacity="0"/>
</linearGradient>
<linearGradient id="paint44_linear_4_3" x1="33.5029" y1="174.352" x2="34.1198" y2="176.303" gradientUnits="userSpaceOnUse">
<stop stop-color="#2FFFE6"/>
<stop offset="1" stop-color="#C2D7D4" stop-opacity="0"/>
</linearGradient>
<linearGradient id="paint45_linear_4_3" x1="35.8653" y1="177.282" x2="37.8768" y2="178.858" gradientUnits="userSpaceOnUse">
<stop stop-color="#2FFFE6"/>
<stop offset="1" stop-color="#C2D7D4" stop-opacity="0"/>
</linearGradient>
<linearGradient id="paint46_linear_4_3" x1="19.4335" y1="175.279" x2="25.364" y2="185.168" gradientUnits="userSpaceOnUse">
<stop stop-color="#2FFFE6"/>
<stop offset="1" stop-color="#C2D7D4" stop-opacity="0"/>
</linearGradient>
<linearGradient id="paint47_linear_4_3" x1="19.4332" y1="175.693" x2="23.9174" y2="183.17" gradientUnits="userSpaceOnUse">
<stop stop-color="#2FFFE6"/>
<stop offset="1" stop-color="#C2D7D4" stop-opacity="0"/>
</linearGradient>
<linearGradient id="paint48_linear_4_3" x1="21.019" y1="177.493" x2="21.6509" y2="179.311" gradientUnits="userSpaceOnUse">
<stop stop-color="#2FFFE6"/>
<stop offset="1" stop-color="#C2D7D4" stop-opacity="0"/>
</linearGradient>
<linearGradient id="paint49_linear_4_3" x1="22.9744" y1="180.015" x2="24.743" y2="181.566" gradientUnits="userSpaceOnUse">
<stop stop-color="#2FFFE6"/>
<stop offset="1" stop-color="#C2D7D4" stop-opacity="0"/>
</linearGradient>
<linearGradient id="paint50_linear_4_3" x1="21.2726" y1="176.29" x2="21.8895" y2="178.241" gradientUnits="userSpaceOnUse">
<stop stop-color="#2FFFE6"/>
<stop offset="1" stop-color="#C2D7D4" stop-opacity="0"/>
</linearGradient>
<linearGradient id="paint51_linear_4_3" x1="23.6347" y1="179.221" x2="25.6464" y2="180.798" gradientUnits="userSpaceOnUse">
<stop stop-color="#2FFFE6"/>
<stop offset="1" stop-color="#C2D7D4" stop-opacity="0"/>
</linearGradient>
<linearGradient id="paint52_linear_4_3" x1="35.5556" y1="179.802" x2="41.4862" y2="189.69" gradientUnits="userSpaceOnUse">
<stop stop-color="#2FFFE6"/>
<stop offset="1" stop-color="#C2D7D4" stop-opacity="0"/>
</linearGradient>
<linearGradient id="paint53_linear_4_3" x1="35.5552" y1="180.215" x2="40.0394" y2="187.692" gradientUnits="userSpaceOnUse">
<stop stop-color="#2FFFE6"/>
<stop offset="1" stop-color="#C2D7D4" stop-opacity="0"/>
</linearGradient>
<linearGradient id="paint54_linear_4_3" x1="37.1411" y1="182.016" x2="37.773" y2="183.833" gradientUnits="userSpaceOnUse">
<stop stop-color="#2FFFE6"/>
<stop offset="1" stop-color="#C2D7D4" stop-opacity="0"/>
</linearGradient>
<linearGradient id="paint55_linear_4_3" x1="39.0966" y1="184.539" x2="40.8648" y2="186.089" gradientUnits="userSpaceOnUse">
<stop stop-color="#2FFFE6"/>
<stop offset="1" stop-color="#C2D7D4" stop-opacity="0"/>
</linearGradient>
<linearGradient id="paint56_linear_4_3" x1="37.3948" y1="180.812" x2="38.0121" y2="182.763" gradientUnits="userSpaceOnUse">
<stop stop-color="#2FFFE6"/>
<stop offset="1" stop-color="#C2D7D4" stop-opacity="0"/>
</linearGradient>
<linearGradient id="paint57_linear_4_3" x1="39.7568" y1="183.742" x2="41.7688" y2="185.319" gradientUnits="userSpaceOnUse">
<stop stop-color="#2FFFE6"/>
<stop offset="1" stop-color="#C2D7D4" stop-opacity="0"/>
</linearGradient>
<linearGradient id="paint58_linear_4_3" x1="24.9926" y1="165.258" x2="30.9232" y2="175.147" gradientUnits="userSpaceOnUse">
<stop stop-color="#2FFFE6"/>
<stop offset="1" stop-color="#C2D7D4" stop-opacity="0"/>
</linearGradient>
<linearGradient id="paint59_linear_4_3" x1="24.9926" y1="165.672" x2="29.4766" y2="173.149" gradientUnits="userSpaceOnUse">
<stop stop-color="#2FFFE6"/>
<stop offset="1" stop-color="#C2D7D4" stop-opacity="0"/>
</linearGradient>
<linearGradient id="paint60_linear_4_3" x1="26.5784" y1="167.472" x2="27.2105" y2="169.289" gradientUnits="userSpaceOnUse">
<stop stop-color="#2FFFE6"/>
<stop offset="1" stop-color="#C2D7D4" stop-opacity="0"/>
</linearGradient>
<linearGradient id="paint61_linear_4_3" x1="28.5339" y1="169.995" x2="30.302" y2="171.545" gradientUnits="userSpaceOnUse">
<stop stop-color="#2FFFE6"/>
<stop offset="1" stop-color="#C2D7D4" stop-opacity="0"/>
</linearGradient>
<linearGradient id="paint62_linear_4_3" x1="26.8318" y1="166.268" x2="27.4486" y2="168.219" gradientUnits="userSpaceOnUse">
<stop stop-color="#2FFFE6"/>
<stop offset="1" stop-color="#C2D7D4" stop-opacity="0"/>
</linearGradient>
<linearGradient id="paint63_linear_4_3" x1="29.1942" y1="169.2" x2="31.2057" y2="170.776" gradientUnits="userSpaceOnUse">
<stop stop-color="#2FFFE6"/>
<stop offset="1" stop-color="#C2D7D4" stop-opacity="0"/>
</linearGradient>
<linearGradient id="paint64_linear_4_3" x1="27.7726" y1="181.74" x2="33.7036" y2="191.629" gradientUnits="userSpaceOnUse">
<stop stop-color="#2FFFE6"/>
<stop offset="1" stop-color="#C2D7D4" stop-opacity="0"/>
</linearGradient>
<linearGradient id="paint65_linear_4_3" x1="27.7722" y1="182.155" x2="32.256" y2="189.631" gradientUnits="userSpaceOnUse">
<stop stop-color="#2FFFE6"/>
<stop offset="1" stop-color="#C2D7D4" stop-opacity="0"/>
</linearGradient>
<linearGradient id="paint66_linear_4_3" x1="29.358" y1="183.955" x2="29.99" y2="185.772" gradientUnits="userSpaceOnUse">
<stop stop-color="#2FFFE6"/>
<stop offset="1" stop-color="#C2D7D4" stop-opacity="0"/>
</linearGradient>
<linearGradient id="paint67_linear_4_3" x1="31.3134" y1="186.477" x2="33.082" y2="188.027" gradientUnits="userSpaceOnUse">
<stop stop-color="#2FFFE6"/>
<stop offset="1" stop-color="#C2D7D4" stop-opacity="0"/>
</linearGradient>
<linearGradient id="paint68_linear_4_3" x1="29.6117" y1="182.751" x2="30.2285" y2="184.702" gradientUnits="userSpaceOnUse">
<stop stop-color="#2FFFE6"/>
<stop offset="1" stop-color="#C2D7D4" stop-opacity="0"/>
</linearGradient>
<linearGradient id="paint69_linear_4_3" x1="31.9738" y1="185.682" x2="33.9852" y2="187.26" gradientUnits="userSpaceOnUse">
<stop stop-color="#2FFFE6"/>
<stop offset="1" stop-color="#C2D7D4" stop-opacity="0"/>
</linearGradient>
<linearGradient id="paint70_linear_4_3" x1="33.3317" y1="165.258" x2="39.2622" y2="175.147" gradientUnits="userSpaceOnUse">
<stop stop-color="#2FFFE6"/>
<stop offset="1" stop-color="#C2D7D4" stop-opacity="0"/>
</linearGradient>
<linearGradient id="paint71_linear_4_3" x1="33.3317" y1="165.672" x2="37.8157" y2="173.149" gradientUnits="userSpaceOnUse">
<stop stop-color="#2FFFE6"/>
<stop offset="1" stop-color="#C2D7D4" stop-opacity="0"/>
</linearGradient>
<linearGradient id="paint72_linear_4_3" x1="34.9175" y1="167.472" x2="35.5496" y2="169.289" gradientUnits="userSpaceOnUse">
<stop stop-color="#2FFFE6"/>
<stop offset="1" stop-color="#C2D7D4" stop-opacity="0"/>
</linearGradient>
<linearGradient id="paint73_linear_4_3" x1="36.8729" y1="169.995" x2="38.6411" y2="171.545" gradientUnits="userSpaceOnUse">
<stop stop-color="#2FFFE6"/>
<stop offset="1" stop-color="#C2D7D4" stop-opacity="0"/>
</linearGradient>
<linearGradient id="paint74_linear_4_3" x1="35.1708" y1="166.268" x2="35.7877" y2="168.219" gradientUnits="userSpaceOnUse">
<stop stop-color="#2FFFE6"/>
<stop offset="1" stop-color="#C2D7D4" stop-opacity="0"/>
</linearGradient>
<linearGradient id="paint75_linear_4_3" x1="37.5333" y1="169.2" x2="39.5447" y2="170.776" gradientUnits="userSpaceOnUse">
<stop stop-color="#2FFFE6"/>
<stop offset="1" stop-color="#C2D7D4" stop-opacity="0"/>
</linearGradient>
<linearGradient id="paint76_linear_4_3" x1="43.3387" y1="168.166" x2="49.2697" y2="178.055" gradientUnits="userSpaceOnUse">
<stop stop-color="#2FFFE6"/>
<stop offset="1" stop-color="#C2D7D4" stop-opacity="0"/>
</linearGradient>
<linearGradient id="paint77_linear_4_3" x1="43.3383" y1="168.581" x2="47.8225" y2="176.057" gradientUnits="userSpaceOnUse">
<stop stop-color="#2FFFE6"/>
<stop offset="1" stop-color="#C2D7D4" stop-opacity="0"/>
</linearGradient>
<linearGradient id="paint78_linear_4_3" x1="44.9241" y1="170.381" x2="45.5561" y2="172.198" gradientUnits="userSpaceOnUse">
<stop stop-color="#2FFFE6"/>
<stop offset="1" stop-color="#C2D7D4" stop-opacity="0"/>
</linearGradient>
<linearGradient id="paint79_linear_4_3" x1="46.8795" y1="172.903" x2="48.6481" y2="174.454" gradientUnits="userSpaceOnUse">
<stop stop-color="#2FFFE6"/>
<stop offset="1" stop-color="#C2D7D4" stop-opacity="0"/>
</linearGradient>
<linearGradient id="paint80_linear_4_3" x1="45.1779" y1="169.177" x2="45.7947" y2="171.128" gradientUnits="userSpaceOnUse">
<stop stop-color="#2FFFE6"/>
<stop offset="1" stop-color="#C2D7D4" stop-opacity="0"/>
</linearGradient>
<linearGradient id="paint81_linear_4_3" x1="47.5399" y1="172.109" x2="49.5513" y2="173.686" gradientUnits="userSpaceOnUse">
<stop stop-color="#2FFFE6"/>
<stop offset="1" stop-color="#C2D7D4" stop-opacity="0"/>
</linearGradient>
<linearGradient id="paint82_linear_4_3" x1="47.7862" y1="177.862" x2="53.7169" y2="187.75" gradientUnits="userSpaceOnUse">
<stop stop-color="#2FFFE6"/>
<stop offset="1" stop-color="#C2D7D4" stop-opacity="0"/>
</linearGradient>
<linearGradient id="paint83_linear_4_3" x1="47.7862" y1="178.276" x2="52.2704" y2="185.752" gradientUnits="userSpaceOnUse">
<stop stop-color="#2FFFE6"/>
<stop offset="1" stop-color="#C2D7D4" stop-opacity="0"/>
</linearGradient>
<linearGradient id="paint84_linear_4_3" x1="49.3717" y1="180.076" x2="50.0042" y2="181.894" gradientUnits="userSpaceOnUse">
<stop stop-color="#2FFFE6"/>
<stop offset="1" stop-color="#C2D7D4" stop-opacity="0"/>
</linearGradient>
<linearGradient id="paint85_linear_4_3" x1="51.3271" y1="182.599" x2="53.0953" y2="184.149" gradientUnits="userSpaceOnUse">
<stop stop-color="#2FFFE6"/>
<stop offset="1" stop-color="#C2D7D4" stop-opacity="0"/>
</linearGradient>
<linearGradient id="paint86_linear_4_3" x1="49.625" y1="178.873" x2="50.2418" y2="180.824" gradientUnits="userSpaceOnUse">
<stop stop-color="#2FFFE6"/>
<stop offset="1" stop-color="#C2D7D4" stop-opacity="0"/>
</linearGradient>
<linearGradient id="paint87_linear_4_3" x1="51.9875" y1="181.804" x2="53.999" y2="183.38" gradientUnits="userSpaceOnUse">
<stop stop-color="#2FFFE6"/>
<stop offset="1" stop-color="#C2D7D4" stop-opacity="0"/>
</linearGradient>
<linearGradient id="paint88_linear_4_3" x1="36.1116" y1="180.128" x2="42.0422" y2="190.016" gradientUnits="userSpaceOnUse">
<stop stop-color="#2FFFE6"/>
<stop offset="1" stop-color="#C2D7D4" stop-opacity="0"/>
</linearGradient>
<linearGradient id="paint89_linear_4_3" x1="36.1113" y1="180.541" x2="40.5955" y2="188.018" gradientUnits="userSpaceOnUse">
<stop stop-color="#2FFFE6"/>
<stop offset="1" stop-color="#C2D7D4" stop-opacity="0"/>
</linearGradient>
<linearGradient id="paint90_linear_4_3" x1="37.6971" y1="182.341" x2="38.329" y2="184.158" gradientUnits="userSpaceOnUse">
<stop stop-color="#2FFFE6"/>
<stop offset="1" stop-color="#C2D7D4" stop-opacity="0"/>
</linearGradient>
<linearGradient id="paint91_linear_4_3" x1="39.6525" y1="184.865" x2="41.4208" y2="186.415" gradientUnits="userSpaceOnUse">
<stop stop-color="#2FFFE6"/>
<stop offset="1" stop-color="#C2D7D4" stop-opacity="0"/>
</linearGradient>
<linearGradient id="paint92_linear_4_3" x1="37.9508" y1="181.138" x2="38.5677" y2="183.089" gradientUnits="userSpaceOnUse">
<stop stop-color="#2FFFE6"/>
<stop offset="1" stop-color="#C2D7D4" stop-opacity="0"/>
</linearGradient>
<linearGradient id="paint93_linear_4_3" x1="40.3128" y1="184.068" x2="42.3245" y2="185.645" gradientUnits="userSpaceOnUse">
<stop stop-color="#2FFFE6"/>
<stop offset="1" stop-color="#C2D7D4" stop-opacity="0"/>
</linearGradient>
<linearGradient id="paint94_linear_4_3" x1="52.2337" y1="184.649" x2="58.1648" y2="194.537" gradientUnits="userSpaceOnUse">
<stop stop-color="#2FFFE6"/>
<stop offset="1" stop-color="#C2D7D4" stop-opacity="0"/>
</linearGradient>
<linearGradient id="paint95_linear_4_3" x1="52.2333" y1="185.063" x2="56.717" y2="192.54" gradientUnits="userSpaceOnUse">
<stop stop-color="#2FFFE6"/>
<stop offset="1" stop-color="#C2D7D4" stop-opacity="0"/>
</linearGradient>
<linearGradient id="paint96_linear_4_3" x1="53.8192" y1="186.863" x2="54.4516" y2="188.68" gradientUnits="userSpaceOnUse">
<stop stop-color="#2FFFE6"/>
<stop offset="1" stop-color="#C2D7D4" stop-opacity="0"/>
</linearGradient>
<linearGradient id="paint97_linear_4_3" x1="55.7747" y1="189.386" x2="57.5433" y2="190.936" gradientUnits="userSpaceOnUse">
<stop stop-color="#2FFFE6"/>
<stop offset="1" stop-color="#C2D7D4" stop-opacity="0"/>
</linearGradient>
<linearGradient id="paint98_linear_4_3" x1="54.0729" y1="185.66" x2="54.6898" y2="187.611" gradientUnits="userSpaceOnUse">
<stop stop-color="#2FFFE6"/>
<stop offset="1" stop-color="#C2D7D4" stop-opacity="0"/>
</linearGradient>
<linearGradient id="paint99_linear_4_3" x1="56.435" y1="188.59" x2="58.4467" y2="190.168" gradientUnits="userSpaceOnUse">
<stop stop-color="#2FFFE6"/>
<stop offset="1" stop-color="#C2D7D4" stop-opacity="0"/>
</linearGradient>
<linearGradient id="paint100_linear_4_3" x1="41.6707" y1="170.106" x2="47.6013" y2="179.995" gradientUnits="userSpaceOnUse">
<stop stop-color="#2FFFE6"/>
<stop offset="1" stop-color="#C2D7D4" stop-opacity="0"/>
</linearGradient>
<linearGradient id="paint101_linear_4_3" x1="41.6707" y1="170.52" x2="46.1547" y2="177.997" gradientUnits="userSpaceOnUse">
<stop stop-color="#2FFFE6"/>
<stop offset="1" stop-color="#C2D7D4" stop-opacity="0"/>
</linearGradient>
<linearGradient id="paint102_linear_4_3" x1="43.2565" y1="172.32" x2="43.8882" y2="174.137" gradientUnits="userSpaceOnUse">
<stop stop-color="#2FFFE6"/>
<stop offset="1" stop-color="#C2D7D4" stop-opacity="0"/>
</linearGradient>
<linearGradient id="paint103_linear_4_3" x1="45.212" y1="174.843" x2="46.9801" y2="176.393" gradientUnits="userSpaceOnUse">
<stop stop-color="#2FFFE6"/>
<stop offset="1" stop-color="#C2D7D4" stop-opacity="0"/>
</linearGradient>
<linearGradient id="paint104_linear_4_3" x1="43.5099" y1="171.117" x2="44.1267" y2="173.068" gradientUnits="userSpaceOnUse">
<stop stop-color="#2FFFE6"/>
<stop offset="1" stop-color="#C2D7D4" stop-opacity="0"/>
</linearGradient>
<linearGradient id="paint105_linear_4_3" x1="45.8723" y1="174.047" x2="47.8838" y2="175.623" gradientUnits="userSpaceOnUse">
<stop stop-color="#2FFFE6"/>
<stop offset="1" stop-color="#C2D7D4" stop-opacity="0"/>
</linearGradient>
<linearGradient id="paint106_linear_4_3" x1="44.4507" y1="186.588" x2="50.3812" y2="196.476" gradientUnits="userSpaceOnUse">
<stop stop-color="#2FFFE6"/>
<stop offset="1" stop-color="#C2D7D4" stop-opacity="0"/>
</linearGradient>
<linearGradient id="paint107_linear_4_3" x1="44.4504" y1="187.003" x2="48.9346" y2="194.479" gradientUnits="userSpaceOnUse">
<stop stop-color="#2FFFE6"/>
<stop offset="1" stop-color="#C2D7D4" stop-opacity="0"/>
</linearGradient>
<linearGradient id="paint108_linear_4_3" x1="46.0361" y1="188.802" x2="46.6681" y2="190.619" gradientUnits="userSpaceOnUse">
<stop stop-color="#2FFFE6"/>
<stop offset="1" stop-color="#C2D7D4" stop-opacity="0"/>
</linearGradient>
<linearGradient id="paint109_linear_4_3" x1="47.9915" y1="191.325" x2="49.7601" y2="192.876" gradientUnits="userSpaceOnUse">
<stop stop-color="#2FFFE6"/>
<stop offset="1" stop-color="#C2D7D4" stop-opacity="0"/>
</linearGradient>
<linearGradient id="paint110_linear_4_3" x1="46.2899" y1="187.599" x2="46.9067" y2="189.55" gradientUnits="userSpaceOnUse">
<stop stop-color="#2FFFE6"/>
<stop offset="1" stop-color="#C2D7D4" stop-opacity="0"/>
</linearGradient>
<linearGradient id="paint111_linear_4_3" x1="48.6519" y1="190.529" x2="50.6636" y2="192.107" gradientUnits="userSpaceOnUse">
<stop stop-color="#2FFFE6"/>
<stop offset="1" stop-color="#C2D7D4" stop-opacity="0"/>
</linearGradient>
<linearGradient id="paint112_linear_4_3" x1="50.0098" y1="170.106" x2="55.9403" y2="179.995" gradientUnits="userSpaceOnUse">
<stop stop-color="#2FFFE6"/>
<stop offset="1" stop-color="#C2D7D4" stop-opacity="0"/>
</linearGradient>
<linearGradient id="paint113_linear_4_3" x1="50.0098" y1="170.52" x2="54.4938" y2="177.997" gradientUnits="userSpaceOnUse">
<stop stop-color="#2FFFE6"/>
<stop offset="1" stop-color="#C2D7D4" stop-opacity="0"/>
</linearGradient>
<linearGradient id="paint114_linear_4_3" x1="51.5956" y1="172.32" x2="52.2273" y2="174.137" gradientUnits="userSpaceOnUse">
<stop stop-color="#2FFFE6"/>
<stop offset="1" stop-color="#C2D7D4" stop-opacity="0"/>
</linearGradient>
<linearGradient id="paint115_linear_4_3" x1="53.551" y1="174.843" x2="55.3192" y2="176.393" gradientUnits="userSpaceOnUse">
<stop stop-color="#2FFFE6"/>
<stop offset="1" stop-color="#C2D7D4" stop-opacity="0"/>
</linearGradient>
<linearGradient id="paint116_linear_4_3" x1="51.8489" y1="171.117" x2="52.4658" y2="173.068" gradientUnits="userSpaceOnUse">
<stop stop-color="#2FFFE6"/>
<stop offset="1" stop-color="#C2D7D4" stop-opacity="0"/>
</linearGradient>
<linearGradient id="paint117_linear_4_3" x1="54.2114" y1="174.047" x2="56.2228" y2="175.623" gradientUnits="userSpaceOnUse">
<stop stop-color="#2FFFE6"/>
<stop offset="1" stop-color="#C2D7D4" stop-opacity="0"/>
</linearGradient>
<linearGradient id="paint118_linear_4_3" x1="60.0168" y1="173.015" x2="65.9469" y2="182.904" gradientUnits="userSpaceOnUse">
<stop stop-color="#2FFFE6"/>
<stop offset="1" stop-color="#C2D7D4" stop-opacity="0"/>
</linearGradient>
<linearGradient id="paint119_linear_4_3" x1="60.0164" y1="173.429" x2="64.5006" y2="180.905" gradientUnits="userSpaceOnUse">
<stop stop-color="#2FFFE6"/>
<stop offset="1" stop-color="#C2D7D4" stop-opacity="0"/>
</linearGradient>
<linearGradient id="paint120_linear_4_3" x1="61.6023" y1="175.228" x2="62.2342" y2="177.045" gradientUnits="userSpaceOnUse">
<stop stop-color="#2FFFE6"/>
<stop offset="1" stop-color="#C2D7D4" stop-opacity="0"/>
</linearGradient>
<linearGradient id="paint121_linear_4_3" x1="63.5577" y1="177.752" x2="65.326" y2="179.303" gradientUnits="userSpaceOnUse">
<stop stop-color="#2FFFE6"/>
<stop offset="1" stop-color="#C2D7D4" stop-opacity="0"/>
</linearGradient>
<linearGradient id="paint122_linear_4_3" x1="61.856" y1="174.026" x2="62.4729" y2="175.976" gradientUnits="userSpaceOnUse">
<stop stop-color="#2FFFE6"/>
<stop offset="1" stop-color="#C2D7D4" stop-opacity="0"/>
</linearGradient>
<linearGradient id="paint123_linear_4_3" x1="64.218" y1="176.956" x2="66.2297" y2="178.533" gradientUnits="userSpaceOnUse">
<stop stop-color="#2FFFE6"/>
<stop offset="1" stop-color="#C2D7D4" stop-opacity="0"/>
</linearGradient>
<linearGradient id="paint124_linear_4_3" x1="37.2236" y1="163.319" x2="43.1546" y2="173.208" gradientUnits="userSpaceOnUse">
<stop stop-color="#2FFFE6"/>
<stop offset="1" stop-color="#C2D7D4" stop-opacity="0"/>
</linearGradient>
<linearGradient id="paint125_linear_4_3" x1="37.2232" y1="163.734" x2="41.7069" y2="171.21" gradientUnits="userSpaceOnUse">
<stop stop-color="#2FFFE6"/>
<stop offset="1" stop-color="#C2D7D4" stop-opacity="0"/>
</linearGradient>
<linearGradient id="paint126_linear_4_3" x1="38.809" y1="165.533" x2="39.441" y2="167.35" gradientUnits="userSpaceOnUse">
<stop stop-color="#2FFFE6"/>
<stop offset="1" stop-color="#C2D7D4" stop-opacity="0"/>
</linearGradient>
<linearGradient id="paint127_linear_4_3" x1="40.7641" y1="168.056" x2="42.5326" y2="169.606" gradientUnits="userSpaceOnUse">
<stop stop-color="#2FFFE6"/>
<stop offset="1" stop-color="#C2D7D4" stop-opacity="0"/>
</linearGradient>
<linearGradient id="paint128_linear_4_3" x1="39.0624" y1="164.33" x2="39.6791" y2="166.281" gradientUnits="userSpaceOnUse">
<stop stop-color="#2FFFE6"/>
<stop offset="1" stop-color="#C2D7D4" stop-opacity="0"/>
</linearGradient>
<linearGradient id="paint129_linear_4_3" x1="41.4248" y1="167.261" x2="43.4365" y2="168.838" gradientUnits="userSpaceOnUse">
<stop stop-color="#2FFFE6"/>
<stop offset="1" stop-color="#C2D7D4" stop-opacity="0"/>
</linearGradient>
<linearGradient id="paint130_linear_4_3" x1="40.0032" y1="179.802" x2="45.9339" y2="189.69" gradientUnits="userSpaceOnUse">
<stop stop-color="#2FFFE6"/>
<stop offset="1" stop-color="#C2D7D4" stop-opacity="0"/>
</linearGradient>
<linearGradient id="paint131_linear_4_3" x1="40.0031" y1="180.215" x2="44.4873" y2="187.692" gradientUnits="userSpaceOnUse">
<stop stop-color="#2FFFE6"/>
<stop offset="1" stop-color="#C2D7D4" stop-opacity="0"/>
</linearGradient>
<linearGradient id="paint132_linear_4_3" x1="41.5886" y1="182.016" x2="42.2207" y2="183.833" gradientUnits="userSpaceOnUse">
<stop stop-color="#2FFFE6"/>
<stop offset="1" stop-color="#C2D7D4" stop-opacity="0"/>
</linearGradient>
<linearGradient id="paint133_linear_4_3" x1="43.544" y1="184.539" x2="45.3122" y2="186.088" gradientUnits="userSpaceOnUse">
<stop stop-color="#2FFFE6"/>
<stop offset="1" stop-color="#C2D7D4" stop-opacity="0"/>
</linearGradient>
<linearGradient id="paint134_linear_4_3" x1="41.842" y1="180.812" x2="42.4592" y2="182.763" gradientUnits="userSpaceOnUse">
<stop stop-color="#2FFFE6"/>
<stop offset="1" stop-color="#C2D7D4" stop-opacity="0"/>
</linearGradient>
<linearGradient id="paint135_linear_4_3" x1="44.2044" y1="183.742" x2="46.2162" y2="185.319" gradientUnits="userSpaceOnUse">
<stop stop-color="#2FFFE6"/>
<stop offset="1" stop-color="#C2D7D4" stop-opacity="0"/>
</linearGradient>
<linearGradient id="paint136_linear_4_3" x1="45.5627" y1="163.319" x2="51.4937" y2="173.208" gradientUnits="userSpaceOnUse">
<stop stop-color="#2FFFE6"/>
<stop offset="1" stop-color="#C2D7D4" stop-opacity="0"/>
</linearGradient>
<linearGradient id="paint137_linear_4_3" x1="45.5623" y1="163.734" x2="50.046" y2="171.21" gradientUnits="userSpaceOnUse">
<stop stop-color="#2FFFE6"/>
<stop offset="1" stop-color="#C2D7D4" stop-opacity="0"/>
</linearGradient>
<linearGradient id="paint138_linear_4_3" x1="47.148" y1="165.533" x2="47.78" y2="167.35" gradientUnits="userSpaceOnUse">
<stop stop-color="#2FFFE6"/>
<stop offset="1" stop-color="#C2D7D4" stop-opacity="0"/>
</linearGradient>
<linearGradient id="paint139_linear_4_3" x1="49.1032" y1="168.056" x2="50.8717" y2="169.606" gradientUnits="userSpaceOnUse">
<stop stop-color="#2FFFE6"/>
<stop offset="1" stop-color="#C2D7D4" stop-opacity="0"/>
</linearGradient>
<linearGradient id="paint140_linear_4_3" x1="47.4015" y1="164.33" x2="48.0182" y2="166.281" gradientUnits="userSpaceOnUse">
<stop stop-color="#2FFFE6"/>
<stop offset="1" stop-color="#C2D7D4" stop-opacity="0"/>
</linearGradient>
<linearGradient id="paint141_linear_4_3" x1="49.7638" y1="167.261" x2="51.7755" y2="168.838" gradientUnits="userSpaceOnUse">
<stop stop-color="#2FFFE6"/>
<stop offset="1" stop-color="#C2D7D4" stop-opacity="0"/>
</linearGradient>
<linearGradient id="paint142_linear_4_3" x1="29.4405" y1="173.34" x2="35.3711" y2="183.229" gradientUnits="userSpaceOnUse">
<stop stop-color="#2FFFE6"/>
<stop offset="1" stop-color="#C2D7D4" stop-opacity="0"/>
</linearGradient>
<linearGradient id="paint143_linear_4_3" x1="29.4401" y1="173.755" x2="33.9238" y2="181.231" gradientUnits="userSpaceOnUse">
<stop stop-color="#2FFFE6"/>
<stop offset="1" stop-color="#C2D7D4" stop-opacity="0"/>
</linearGradient>
<linearGradient id="paint144_linear_4_3" x1="31.0255" y1="175.554" x2="31.6576" y2="177.371" gradientUnits="userSpaceOnUse">
<stop stop-color="#2FFFE6"/>
<stop offset="1" stop-color="#C2D7D4" stop-opacity="0"/>
</linearGradient>
<linearGradient id="paint145_linear_4_3" x1="32.9811" y1="178.077" x2="34.7495" y2="179.627" gradientUnits="userSpaceOnUse">
<stop stop-color="#2FFFE6"/>
<stop offset="1" stop-color="#C2D7D4" stop-opacity="0"/>
</linearGradient>
<linearGradient id="paint146_linear_4_3" x1="31.2793" y1="174.352" x2="31.8961" y2="176.303" gradientUnits="userSpaceOnUse">
<stop stop-color="#2FFFE6"/>
<stop offset="1" stop-color="#C2D7D4" stop-opacity="0"/>
</linearGradient>
<linearGradient id="paint147_linear_4_3" x1="33.6417" y1="177.282" x2="35.6534" y2="178.859" gradientUnits="userSpaceOnUse">
<stop stop-color="#2FFFE6"/>
<stop offset="1" stop-color="#C2D7D4" stop-opacity="0"/>
</linearGradient>
<linearGradient id="paint148_linear_4_3" x1="45.5627" y1="177.862" x2="51.4932" y2="187.751" gradientUnits="userSpaceOnUse">
<stop stop-color="#2FFFE6"/>
<stop offset="1" stop-color="#C2D7D4" stop-opacity="0"/>
</linearGradient>
<linearGradient id="paint149_linear_4_3" x1="45.5623" y1="178.276" x2="50.0464" y2="185.752" gradientUnits="userSpaceOnUse">
<stop stop-color="#2FFFE6"/>
<stop offset="1" stop-color="#C2D7D4" stop-opacity="0"/>
</linearGradient>
<linearGradient id="paint150_linear_4_3" x1="47.1477" y1="180.076" x2="47.7798" y2="181.893" gradientUnits="userSpaceOnUse">
<stop stop-color="#2FFFE6"/>
<stop offset="1" stop-color="#C2D7D4" stop-opacity="0"/>
</linearGradient>
<linearGradient id="paint151_linear_4_3" x1="49.1032" y1="182.599" x2="50.8714" y2="184.149" gradientUnits="userSpaceOnUse">
<stop stop-color="#2FFFE6"/>
<stop offset="1" stop-color="#C2D7D4" stop-opacity="0"/>
</linearGradient>
<linearGradient id="paint152_linear_4_3" x1="47.4015" y1="178.873" x2="48.0182" y2="180.824" gradientUnits="userSpaceOnUse">
<stop stop-color="#2FFFE6"/>
<stop offset="1" stop-color="#C2D7D4" stop-opacity="0"/>
</linearGradient>
<linearGradient id="paint153_linear_4_3" x1="49.7638" y1="181.804" x2="51.7755" y2="183.381" gradientUnits="userSpaceOnUse">
<stop stop-color="#2FFFE6"/>
<stop offset="1" stop-color="#C2D7D4" stop-opacity="0"/>
</linearGradient>
<linearGradient id="paint154_linear_4_3" x1="34.9997" y1="163.319" x2="40.9307" y2="173.208" gradientUnits="userSpaceOnUse">
<stop stop-color="#2FFFE6"/>
<stop offset="1" stop-color="#C2D7D4" stop-opacity="0"/>
</linearGradient>
<linearGradient id="paint155_linear_4_3" x1="34.9993" y1="163.734" x2="39.483" y2="171.21" gradientUnits="userSpaceOnUse">
<stop stop-color="#2FFFE6"/>
<stop offset="1" stop-color="#C2D7D4" stop-opacity="0"/>
</linearGradient>
<linearGradient id="paint156_linear_4_3" x1="36.585" y1="165.533" x2="37.217" y2="167.35" gradientUnits="userSpaceOnUse">
<stop stop-color="#2FFFE6"/>
<stop offset="1" stop-color="#C2D7D4" stop-opacity="0"/>
</linearGradient>
<linearGradient id="paint157_linear_4_3" x1="38.5405" y1="168.056" x2="40.3091" y2="169.607" gradientUnits="userSpaceOnUse">
<stop stop-color="#2FFFE6"/>
<stop offset="1" stop-color="#C2D7D4" stop-opacity="0"/>
</linearGradient>
<linearGradient id="paint158_linear_4_3" x1="36.8388" y1="164.33" x2="37.4557" y2="166.281" gradientUnits="userSpaceOnUse">
<stop stop-color="#2FFFE6"/>
<stop offset="1" stop-color="#C2D7D4" stop-opacity="0"/>
</linearGradient>
<linearGradient id="paint159_linear_4_3" x1="39.2008" y1="167.261" x2="41.2125" y2="168.838" gradientUnits="userSpaceOnUse">
<stop stop-color="#2FFFE6"/>
<stop offset="1" stop-color="#C2D7D4" stop-opacity="0"/>
</linearGradient>
<linearGradient id="paint160_linear_4_3" x1="37.7792" y1="179.802" x2="43.7099" y2="189.69" gradientUnits="userSpaceOnUse">
<stop stop-color="#2FFFE6"/>
<stop offset="1" stop-color="#C2D7D4" stop-opacity="0"/>
</linearGradient>
<linearGradient id="paint161_linear_4_3" x1="37.7792" y1="180.215" x2="42.2634" y2="187.692" gradientUnits="userSpaceOnUse">
<stop stop-color="#2FFFE6"/>
<stop offset="1" stop-color="#C2D7D4" stop-opacity="0"/>
</linearGradient>
<linearGradient id="paint162_linear_4_3" x1="39.3646" y1="182.016" x2="39.9967" y2="183.833" gradientUnits="userSpaceOnUse">
<stop stop-color="#2FFFE6"/>
<stop offset="1" stop-color="#C2D7D4" stop-opacity="0"/>
</linearGradient>
<linearGradient id="paint163_linear_4_3" x1="41.3201" y1="184.539" x2="43.0883" y2="186.089" gradientUnits="userSpaceOnUse">
<stop stop-color="#2FFFE6"/>
<stop offset="1" stop-color="#C2D7D4" stop-opacity="0"/>
</linearGradient>
<linearGradient id="paint164_linear_4_3" x1="39.6184" y1="180.812" x2="40.2355" y2="182.763" gradientUnits="userSpaceOnUse">
<stop stop-color="#2FFFE6"/>
<stop offset="1" stop-color="#C2D7D4" stop-opacity="0"/>
</linearGradient>
<linearGradient id="paint165_linear_4_3" x1="41.9807" y1="183.742" x2="43.9927" y2="185.319" gradientUnits="userSpaceOnUse">
<stop stop-color="#2FFFE6"/>
<stop offset="1" stop-color="#C2D7D4" stop-opacity="0"/>
</linearGradient>
<linearGradient id="paint166_linear_4_3" x1="43.3387" y1="163.319" x2="49.2697" y2="173.208" gradientUnits="userSpaceOnUse">
<stop stop-color="#2FFFE6"/>
<stop offset="1" stop-color="#C2D7D4" stop-opacity="0"/>
</linearGradient>
<linearGradient id="paint167_linear_4_3" x1="43.3383" y1="163.734" x2="47.822" y2="171.21" gradientUnits="userSpaceOnUse">
<stop stop-color="#2FFFE6"/>
<stop offset="1" stop-color="#C2D7D4" stop-opacity="0"/>
</linearGradient>
<linearGradient id="paint168_linear_4_3" x1="44.9241" y1="165.533" x2="45.5561" y2="167.35" gradientUnits="userSpaceOnUse">
<stop stop-color="#2FFFE6"/>
<stop offset="1" stop-color="#C2D7D4" stop-opacity="0"/>
</linearGradient>
<linearGradient id="paint169_linear_4_3" x1="46.8795" y1="168.056" x2="48.6481" y2="169.607" gradientUnits="userSpaceOnUse">
<stop stop-color="#2FFFE6"/>
<stop offset="1" stop-color="#C2D7D4" stop-opacity="0"/>
</linearGradient>
<linearGradient id="paint170_linear_4_3" x1="45.1779" y1="164.33" x2="45.7947" y2="166.281" gradientUnits="userSpaceOnUse">
<stop stop-color="#2FFFE6"/>
<stop offset="1" stop-color="#C2D7D4" stop-opacity="0"/>
</linearGradient>
<linearGradient id="paint171_linear_4_3" x1="47.5399" y1="167.261" x2="49.5516" y2="168.838" gradientUnits="userSpaceOnUse">
<stop stop-color="#2FFFE6"/>
<stop offset="1" stop-color="#C2D7D4" stop-opacity="0"/>
</linearGradient>
<linearGradient id="paint172_linear_4_3" x1="53.3457" y1="166.228" x2="59.2762" y2="176.116" gradientUnits="userSpaceOnUse">
<stop stop-color="#2FFFE6"/>
<stop offset="1" stop-color="#C2D7D4" stop-opacity="0"/>
</linearGradient>
<linearGradient id="paint173_linear_4_3" x1="53.3454" y1="166.643" x2="57.8291" y2="174.119" gradientUnits="userSpaceOnUse">
<stop stop-color="#2FFFE6"/>
<stop offset="1" stop-color="#C2D7D4" stop-opacity="0"/>
</linearGradient>
<linearGradient id="paint174_linear_4_3" x1="54.9312" y1="168.442" x2="55.5631" y2="170.259" gradientUnits="userSpaceOnUse">
<stop stop-color="#2FFFE6"/>
<stop offset="1" stop-color="#C2D7D4" stop-opacity="0"/>
</linearGradient>
<linearGradient id="paint175_linear_4_3" x1="56.8863" y1="170.965" x2="58.6548" y2="172.515" gradientUnits="userSpaceOnUse">
<stop stop-color="#2FFFE6"/>
<stop offset="1" stop-color="#C2D7D4" stop-opacity="0"/>
</linearGradient>
<linearGradient id="paint176_linear_4_3" x1="55.1845" y1="167.239" x2="55.8013" y2="169.19" gradientUnits="userSpaceOnUse">
<stop stop-color="#2FFFE6"/>
<stop offset="1" stop-color="#C2D7D4" stop-opacity="0"/>
</linearGradient>
<linearGradient id="paint177_linear_4_3" x1="57.5469" y1="170.168" x2="59.5589" y2="171.746" gradientUnits="userSpaceOnUse">
<stop stop-color="#2FFFE6"/>
<stop offset="1" stop-color="#C2D7D4" stop-opacity="0"/>
</linearGradient>
</defs>
</svg>
