<svg class="pippete2" viewBox="0 0 66 258" fill="none" xmlns="http://www.w3.org/2000/svg">
<g id="Group 2">
<g>
<g id="g9301">
<path id="rect7551" d="M28.8458 1H42.6324V3.18447H28.8458V1Z" fill="#0705B2" stroke="black" stroke-width="1.43637" stroke-linecap="round" stroke-linejoin="round"/>
<g id="g7540">
<path id="rect6598" d="M28.1245 2.66237H43.3536V17.012H28.1245V2.66237Z" fill="#E7E5E4" stroke="black" stroke-width="1.14097" stroke-linecap="round" stroke-linejoin="round"/>
<path id="rect6600" d="M28.9814 2.78309H30.1881V5.20963H28.9814V2.78309Z" fill="url(#paint0_linear_43_152)" stroke="black" stroke-width="0.132073" stroke-linecap="round" stroke-linejoin="round"/>
<path id="rect6602" d="M30.7574 2.78309H31.964V5.20963H30.7574V2.78309Z" fill="url(#paint1_linear_43_152)" stroke="black" stroke-width="0.132073" stroke-linecap="round" stroke-linejoin="round"/>
<path id="rect6604" d="M32.5334 2.78309H33.7399V5.20963H32.5334V2.78309Z" fill="url(#paint2_linear_43_152)" stroke="black" stroke-width="0.132073" stroke-linecap="round" stroke-linejoin="round"/>
<path id="rect6606" d="M34.3094 2.78309H35.5159V5.20963H34.3094V2.78309Z" fill="url(#paint3_linear_43_152)" stroke="black" stroke-width="0.132073" stroke-linecap="round" stroke-linejoin="round"/>
<path id="rect6608" d="M36.0853 2.78309H37.2919V5.20963H36.0853V2.78309Z" fill="url(#paint4_linear_43_152)" stroke="black" stroke-width="0.132073" stroke-linecap="round" stroke-linejoin="round"/>
<path id="rect6610" d="M37.8613 2.78309H39.0681V5.20963H37.8613V2.78309Z" fill="url(#paint5_linear_43_152)" stroke="black" stroke-width="0.132073" stroke-linecap="round" stroke-linejoin="round"/>
<path id="rect6612" d="M39.6373 2.78309H40.8441V5.20963H39.6373V2.78309Z" fill="url(#paint6_linear_43_152)" stroke="black" stroke-width="0.132073" stroke-linecap="round" stroke-linejoin="round"/>
<path id="rect6614" d="M41.4132 2.78309H42.6201V5.20963H41.4132V2.78309Z" fill="url(#paint7_linear_43_152)" stroke="black" stroke-width="0.132073" stroke-linecap="round" stroke-linejoin="round"/>
</g>
</g>
<path id="rect6594" d="M49.2363 17.8525H60.0565V22.197H49.2363V17.8525Z" fill="#ECEAEB" stroke="black" stroke-width="1.57642" stroke-linecap="round" stroke-linejoin="round"/>
<path id="rect1307" d="M44.5201 200.351H38.6182V216.466H44.5201V200.351Z" fill="url(#paint8_linear_43_152)" stroke="black" stroke-width="1.97053" stroke-linecap="round" stroke-linejoin="round"/>
<path id="rect2182" d="M47.0955 158.461H36.0428V201.855H47.0955V158.461Z" fill="url(#paint9_linear_43_152)" stroke="black" stroke-width="1.97053" stroke-linecap="round" stroke-linejoin="round"/>
<path id="rect2184" d="M50.3877 151.513H32.7503V162.025H50.3877V151.513Z" fill="url(#paint10_linear_43_152)" stroke="black" stroke-width="1.97053" stroke-linecap="round" stroke-linejoin="round"/>
<path id="rect2186" d="M51.9792 119.779H31.1591V151.296H51.9792V119.779Z" fill="url(#paint11_linear_43_152)" stroke="black" stroke-width="1.97053" stroke-linecap="round" stroke-linejoin="round"/>
<path id="rect3061" d="M21.3938 13.9874C15.0242 14.0426 8.51391 14.4736 1.78983 15.4588C0.649308 15.6956 0.445246 18.0153 3.22486 17.6649C15.9149 15.4852 27.8788 17.0381 27.4208 22.0768V122.61H64.8624V20.8365H46.6369V14.0958C46.6369 14.0958 27.7258 13.9324 21.3938 13.9874Z" fill="url(#paint12_linear_43_152)" stroke="black" stroke-width="1.57642" stroke-linecap="round" stroke-linejoin="round"/>
<path id="rect5718" d="M47.2878 13.7621L65.232 16.0875V18.413H47.5406L47.2878 13.7621Z" fill="#ECEAEB" stroke="black" stroke-width="1.17768" stroke-linecap="round" stroke-linejoin="round"/>
<path id="rect6596" d="M55.9007 25.1936H64.4768V46.9127H55.9007V25.1936Z" fill="#ECFFFF" stroke="black" stroke-width="1.18475" stroke-linecap="round" stroke-linejoin="round"/>
<path id="rect11166" d="M27.5753 25.1036H55.6003V28.7985H27.5753V25.1036Z" fill="url(#paint13_linear_43_152)"/>
<path id="rect12922" d="M27.5753 28.7161H55.6003V32.4109H27.5753V28.7161Z" fill="url(#paint14_linear_43_152)"/>
<path id="rect12926" d="M27.5753 32.4204H55.6003V36.1153H27.5753V32.4204Z" fill="url(#paint15_linear_43_152)"/>
<path id="rect12928" d="M27.5753 36.0328H55.6003V39.7277H27.5753V36.0328Z" fill="url(#paint16_linear_43_152)"/>
<path id="rect12934" d="M27.5753 39.8402H55.6003V43.535H27.5753V39.8402Z" fill="url(#paint17_linear_43_152)"/>
<path id="rect12936" d="M27.5753 43.4526H55.6003V47.1475H27.5753V43.4526Z" fill="url(#paint18_linear_43_152)"/>
<path id="rect12942" d="M27.5753 46.9708H64.3528V50.6656H27.5753V46.9708Z" fill="url(#paint19_linear_43_152)"/>
<path id="rect12944" d="M27.5753 50.5832H46.5114C44.9196 51.1937 43.3141 51.7908 43.6924 54.278H27.5753V50.5832Z" fill="url(#paint20_linear_43_152)"/>
<path id="path12959" d="M27.5753 54.4057H43.6499V58.1005H27.5753V54.4057Z" fill="url(#paint21_linear_43_152)"/>
<path id="path12977" d="M27.5753 58.0263H43.6499V61.7212H27.5753V58.0263Z" fill="url(#paint22_linear_43_152)"/>
<path id="path12981" d="M27.5753 61.8445H43.6499V65.5393H27.5753V61.8445Z" fill="url(#paint23_linear_43_152)"/>
<path id="path12983" d="M27.5753 65.4651H43.6499V69.1599H27.5753V65.4651Z" fill="url(#paint24_linear_43_152)"/>
<path id="path12989" d="M27.5753 69.3821H43.6499V73.077H27.5753V69.3821Z" fill="url(#paint25_linear_43_152)"/>
<path id="path12991" d="M27.5753 73.0027H43.6499V76.6973H27.5753V73.0027Z" fill="url(#paint26_linear_43_152)"/>
<path id="path12993" d="M27.5753 76.8209H43.6499V80.5158H27.5753V76.8209Z" fill="url(#paint27_linear_43_152)"/>
<path id="path12995" d="M27.5753 80.4415H43.6499V84.1364H27.5753V80.4415Z" fill="url(#paint28_linear_43_152)"/>
<path id="path13005" d="M27.5753 84.3914H43.6499V88.0863H27.5753V84.3914Z" fill="url(#paint29_linear_43_152)"/>
<path id="path13007" d="M27.5753 88.012H43.6499V91.7069H27.5753V88.012Z" fill="url(#paint30_linear_43_152)"/>
<path id="path13009" d="M27.5753 91.8302H43.6499V95.525H27.5753V91.8302Z" fill="url(#paint31_linear_43_152)"/>
<path id="path13011" d="M27.5753 95.4508H43.6499V99.1457H27.5753V95.4508Z" fill="url(#paint32_linear_43_152)"/>
<path id="path13021" d="M27.5753 99.5451H43.6499V103.24H27.5753V99.5451Z" fill="url(#paint33_linear_43_152)"/>
<path id="path13023" d="M27.5753 103.166H43.6499V106.861H27.5753V103.166Z" fill="url(#paint34_linear_43_152)"/>
<path id="path13025" d="M27.5753 106.984H43.6499V110.679H27.5753V106.984Z" fill="url(#paint35_linear_43_152)"/>
<path id="path13027" d="M27.5753 110.604H43.6499V114.299H27.5753V110.604Z" fill="url(#paint36_linear_43_152)"/>
<path id="path13037" d="M27.5753 114.521H43.6499V118.216H27.5753V114.521Z" fill="url(#paint37_linear_43_152)"/>
<path id="path13039" d="M27.5753 118.142H43.6499V121.837H27.5753V118.142Z" fill="url(#paint38_linear_43_152)"/>
</g>
<g id="ju8">
<g id="g4448">
<g id="g3858">
<path id="path3860" d="M37.0539 207.137C37.0539 207.137 37.0738 214.248 37.4741 217.792C39.3809 234.671 40.6449 249.475 42.5932 258.915L42.939 258.911C43.6355 249.596 44.6862 237.836 45.6782 217.794C45.849 214.483 45.5052 207.122 45.5052 207.122L37.0539 207.136L37.0539 207.137Z" fill="#E6E6E6"/>
<path id="path3862" d="M37.0539 207.137C37.0539 207.137 37.0738 214.248 37.4741 217.792C39.3809 234.671 40.6449 249.475 42.5932 258.915L42.939 258.911C43.6355 249.596 44.6862 237.836 45.6782 217.794C45.849 214.483 45.5052 207.122 45.5052 207.122L37.0539 207.136L37.0539 207.137Z" fill="url(#paint39_linear_43_152)"/>
<path id="path3872" d="M37.0539 207.137C37.0539 207.137 37.0738 214.248 37.4741 217.792C39.3809 234.671 40.6449 249.475 42.5932 258.915L42.939 258.911C43.6355 249.596 44.6862 237.836 45.6782 217.794C45.849 214.483 45.5052 207.122 45.5052 207.122L37.0539 207.136L37.0539 207.137Z" fill="url(#paint40_linear_43_152)"/>
</g>
</g>
</g>
<g id="fillPipe2">
<g id="layer1">
<g id="g4448_2">
<g id="g3858_2">
<path id="path3872_2" d="M39.0377 231.061C39.0377 231.061 39.0517 234.206 39.3319 235.773C40.6666 243.239 40.6361 249.785 42 253.961L43.1573 253.961C43.6449 249.841 44.3804 244.639 45.0748 235.774C45.1943 234.31 44.9537 231.054 44.9537 231.054L39.0377 231.061Z" fill="#00FFE0" fill-opacity="0.51"/>
</g>
</g>
</g>
</g>
</g>
<defs>
<linearGradient id="paint0_linear_43_152" x1="28.9561" y1="3.99636" x2="30.2134" y2="3.99636" gradientUnits="userSpaceOnUse">
<stop stop-color="#E7E5E4"/>
<stop offset="1" stop-color="#B7BABA" stop-opacity="0.737374"/>
</linearGradient>
<linearGradient id="paint1_linear_43_152" x1="30.732" y1="3.99636" x2="31.9894" y2="3.99636" gradientUnits="userSpaceOnUse">
<stop stop-color="#E7E5E4"/>
<stop offset="1" stop-color="#B7BABA" stop-opacity="0.737374"/>
</linearGradient>
<linearGradient id="paint2_linear_43_152" x1="32.5079" y1="3.99636" x2="33.7654" y2="3.99636" gradientUnits="userSpaceOnUse">
<stop stop-color="#E7E5E4"/>
<stop offset="1" stop-color="#B7BABA" stop-opacity="0.737374"/>
</linearGradient>
<linearGradient id="paint3_linear_43_152" x1="34.2839" y1="3.99636" x2="35.5414" y2="3.99636" gradientUnits="userSpaceOnUse">
<stop stop-color="#E7E5E4"/>
<stop offset="1" stop-color="#B7BABA" stop-opacity="0.737374"/>
</linearGradient>
<linearGradient id="paint4_linear_43_152" x1="36.0599" y1="3.99636" x2="37.3173" y2="3.99636" gradientUnits="userSpaceOnUse">
<stop stop-color="#E7E5E4"/>
<stop offset="1" stop-color="#B7BABA" stop-opacity="0.737374"/>
</linearGradient>
<linearGradient id="paint5_linear_43_152" x1="37.8358" y1="3.99636" x2="39.0933" y2="3.99636" gradientUnits="userSpaceOnUse">
<stop stop-color="#E7E5E4"/>
<stop offset="1" stop-color="#B7BABA" stop-opacity="0.737374"/>
</linearGradient>
<linearGradient id="paint6_linear_43_152" x1="39.6118" y1="3.99636" x2="40.8693" y2="3.99636" gradientUnits="userSpaceOnUse">
<stop stop-color="#E7E5E4"/>
<stop offset="1" stop-color="#B7BABA" stop-opacity="0.737374"/>
</linearGradient>
<linearGradient id="paint7_linear_43_152" x1="41.3878" y1="3.99636" x2="42.6452" y2="3.99636" gradientUnits="userSpaceOnUse">
<stop stop-color="#E7E5E4"/>
<stop offset="1" stop-color="#B7BABA" stop-opacity="0.737374"/>
</linearGradient>
<linearGradient id="paint8_linear_43_152" x1="41.569" y1="208.409" x2="25.2905" y2="208.409" gradientUnits="userSpaceOnUse">
<stop stop-color="#E7E5E4"/>
<stop offset="1" stop-color="#898683"/>
</linearGradient>
<linearGradient id="paint9_linear_43_152" x1="41.569" y1="180.158" x2="23.1531" y2="180.158" gradientUnits="userSpaceOnUse">
<stop stop-color="#E7E5E4"/>
<stop offset="1" stop-color="#898683"/>
</linearGradient>
<linearGradient id="paint10_linear_43_152" x1="41.569" y1="158.208" x2="17.1688" y2="149.065" gradientUnits="userSpaceOnUse">
<stop stop-color="#E7E5E4"/>
<stop offset="1" stop-color="#898683"/>
</linearGradient>
<linearGradient id="paint11_linear_43_152" x1="41.569" y1="135.538" x2="15.2449" y2="135.538" gradientUnits="userSpaceOnUse">
<stop stop-color="#E7E5E4"/>
<stop offset="1" stop-color="#898683"/>
</linearGradient>
<linearGradient id="paint12_linear_43_152" x1="51.9318" y1="68.2931" x2="-15.6931" y2="68.2931" gradientUnits="userSpaceOnUse">
<stop stop-color="#E7E5E4"/>
<stop offset="1" stop-color="#898683"/>
</linearGradient>
<linearGradient id="paint13_linear_43_152" x1="41.5879" y1="32.1466" x2="41.5879" y2="13.0963" gradientUnits="userSpaceOnUse">
<stop stop-color="#E7E5E4"/>
<stop offset="1"/>
</linearGradient>
<linearGradient id="paint14_linear_43_152" x1="41.5879" y1="35.759" x2="41.5879" y2="16.7087" gradientUnits="userSpaceOnUse">
<stop stop-color="#E7E5E4"/>
<stop offset="1"/>
</linearGradient>
<linearGradient id="paint15_linear_43_152" x1="41.5879" y1="39.4634" x2="41.5879" y2="20.4132" gradientUnits="userSpaceOnUse">
<stop stop-color="#E7E5E4"/>
<stop offset="1"/>
</linearGradient>
<linearGradient id="paint16_linear_43_152" x1="41.5879" y1="43.0758" x2="41.5879" y2="24.0256" gradientUnits="userSpaceOnUse">
<stop stop-color="#E7E5E4"/>
<stop offset="1"/>
</linearGradient>
<linearGradient id="paint17_linear_43_152" x1="41.5879" y1="46.8832" x2="41.5879" y2="27.8328" gradientUnits="userSpaceOnUse">
<stop stop-color="#E7E5E4"/>
<stop offset="1"/>
</linearGradient>
<linearGradient id="paint18_linear_43_152" x1="41.5879" y1="50.4956" x2="41.5879" y2="31.4452" gradientUnits="userSpaceOnUse">
<stop stop-color="#E7E5E4"/>
<stop offset="0.953125"/>
<stop offset="1" stop-color="#898683"/>
</linearGradient>
<linearGradient id="paint19_linear_43_152" x1="45.9638" y1="54.0137" x2="45.9638" y2="34.9637" gradientUnits="userSpaceOnUse">
<stop stop-color="#E7E5E4"/>
<stop offset="1"/>
</linearGradient>
<linearGradient id="paint20_linear_43_152" x1="37.0432" y1="57.6262" x2="37.0432" y2="38.576" gradientUnits="userSpaceOnUse">
<stop stop-color="#DEDEDE"/>
<stop offset="1"/>
</linearGradient>
<linearGradient id="paint21_linear_43_152" x1="35.6126" y1="61.4487" x2="35.6126" y2="42.3983" gradientUnits="userSpaceOnUse">
<stop stop-color="#E7E5E4"/>
<stop offset="1"/>
</linearGradient>
<linearGradient id="paint22_linear_43_152" x1="35.6126" y1="65.0691" x2="35.6126" y2="46.0189" gradientUnits="userSpaceOnUse">
<stop stop-color="#E7E5E4"/>
<stop offset="1"/>
</linearGradient>
<linearGradient id="paint23_linear_43_152" x1="35.6126" y1="68.8874" x2="35.6126" y2="49.8371" gradientUnits="userSpaceOnUse">
<stop stop-color="#E7E5E4"/>
<stop offset="1"/>
</linearGradient>
<linearGradient id="paint24_linear_43_152" x1="35.6126" y1="72.5081" x2="35.6126" y2="53.4576" gradientUnits="userSpaceOnUse">
<stop stop-color="#E7E5E4"/>
<stop offset="1"/>
</linearGradient>
<linearGradient id="paint25_linear_43_152" x1="35.6126" y1="76.4248" x2="35.6126" y2="57.3747" gradientUnits="userSpaceOnUse">
<stop stop-color="#E7E5E4"/>
<stop offset="1"/>
</linearGradient>
<linearGradient id="paint26_linear_43_152" x1="35.6126" y1="80.0455" x2="35.6126" y2="60.9954" gradientUnits="userSpaceOnUse">
<stop stop-color="#E7E5E4"/>
<stop offset="1"/>
</linearGradient>
<linearGradient id="paint27_linear_43_152" x1="35.6126" y1="83.8639" x2="35.6126" y2="64.8135" gradientUnits="userSpaceOnUse">
<stop stop-color="#E7E5E4"/>
<stop offset="1"/>
</linearGradient>
<linearGradient id="paint28_linear_43_152" x1="35.6126" y1="87.4845" x2="35.5375" y2="80.4348" gradientUnits="userSpaceOnUse">
<stop stop-color="#E7E5E4"/>
<stop offset="1"/>
</linearGradient>
<linearGradient id="paint29_linear_43_152" x1="35.6126" y1="91.4344" x2="35.6126" y2="72.384" gradientUnits="userSpaceOnUse">
<stop stop-color="#E7E5E4"/>
<stop offset="1"/>
</linearGradient>
<linearGradient id="paint30_linear_43_152" x1="35.6126" y1="95.055" x2="35.5375" y2="88.1399" gradientUnits="userSpaceOnUse">
<stop stop-color="#E7E5E4"/>
<stop offset="1"/>
</linearGradient>
<linearGradient id="paint31_linear_43_152" x1="35.6126" y1="98.8732" x2="35.6126" y2="79.8228" gradientUnits="userSpaceOnUse">
<stop stop-color="#E7E5E4"/>
<stop offset="1"/>
</linearGradient>
<linearGradient id="paint32_linear_43_152" x1="35.6126" y1="102.494" x2="35.6126" y2="83.4434" gradientUnits="userSpaceOnUse">
<stop stop-color="#E7E5E4"/>
<stop offset="1"/>
</linearGradient>
<linearGradient id="paint33_linear_43_152" x1="35.6126" y1="106.588" x2="35.6126" y2="87.5377" gradientUnits="userSpaceOnUse">
<stop stop-color="#E7E5E4"/>
<stop offset="1"/>
</linearGradient>
<linearGradient id="paint34_linear_43_152" x1="35.6126" y1="110.209" x2="35.6126" y2="91.1583" gradientUnits="userSpaceOnUse">
<stop stop-color="#E7E5E4"/>
<stop offset="1"/>
</linearGradient>
<linearGradient id="paint35_linear_43_152" x1="35.6126" y1="114.027" x2="35.6126" y2="94.9764" gradientUnits="userSpaceOnUse">
<stop stop-color="#E7E5E4"/>
<stop offset="1"/>
</linearGradient>
<linearGradient id="paint36_linear_43_152" x1="35.6126" y1="117.648" x2="35.6126" y2="98.5969" gradientUnits="userSpaceOnUse">
<stop stop-color="#E7E5E4"/>
<stop offset="1"/>
</linearGradient>
<linearGradient id="paint37_linear_43_152" x1="35.6126" y1="121.564" x2="35.6126" y2="102.514" gradientUnits="userSpaceOnUse">
<stop stop-color="#E7E5E4"/>
<stop offset="1"/>
</linearGradient>
<linearGradient id="paint38_linear_43_152" x1="35.6126" y1="125.185" x2="35.6126" y2="106.135" gradientUnits="userSpaceOnUse">
<stop stop-color="#E7E5E4"/>
<stop offset="1"/>
</linearGradient>
<linearGradient id="paint39_linear_43_152" x1="33.1452" y1="227.172" x2="41.4487" y2="226.745" gradientUnits="userSpaceOnUse">
<stop/>
<stop offset="1" stop-opacity="0"/>
</linearGradient>
<linearGradient id="paint40_linear_43_152" x1="47.8218" y1="224.969" x2="42.7166" y2="224.987" gradientUnits="userSpaceOnUse">
<stop/>
<stop offset="1" stop-opacity="0"/>
</linearGradient>
</defs>
</svg>
