<svg class="iso-beaker" viewBox="0 0 185 278" fill="none" xmlns="http://www.w3.org/2000/svg">
<g>
<path id="Vector" d="M6.56525 31.0634C7.59988 30.5143 9.95304 29.9515 11.0565 29.7783C19.9632 28.3811 26.1153 28.6621 36.7603 30.6673C52.0873 33.5567 73.2623 35.3419 96.6531 35.3419C130.958 35.3419 159.253 31.2746 172.634 25.9446C175.862 24.658 177.584 22.9043 177.927 21.6351" stroke="#161413" stroke-width="2" stroke-linecap="round" stroke-linejoin="round"/>
<path id="Vector_2" d="M176.629 35.5949V253.971C176.629 262.828 166.507 277.675 98.327 277.675C30.1468 277.675 20.0243 262.828 20.0243 253.971V49.0559C20.0243 49.0559 20.9692 37.0568 7.15063 35.416C6.46001 35.334 4.24009 36.1432 3.4737 36.1196C-0.953966 35.9815 -1.9738 31.7461 5.35745 26.0596C13.5143 19.7341 9.68493 12.7876 25.8967 8.06554C41.4241 3.54331 67.9709 0 98.327 0C145.977 0 184.605 8.03966 184.605 17.6706C184.605 24.6494 176.629 25.3602 176.629 35.5949Z" fill="url(#paint0_linear_155_101)" stroke="#161413" stroke-width="4" stroke-linecap="round" stroke-linejoin="round"/>
<path id="Vector_3" d="M14.0116 32.8508C24.7394 31.8949 27.6743 32.9507 36.9364 34.8884C37.5417 35.0149 38.173 35.1457 38.8358 35.2815" stroke="#161413" stroke-linecap="round" stroke-linejoin="round"/>
<path id="Vector_4" d="M175.626 29.2536C161.36 36.494 130.999 40.3996 98.2982 40.3996C81.2939 40.3996 65.4374 39.3395 52.0708 37.5096" stroke="#161413" stroke-linecap="round" stroke-linejoin="round"/>
<path id="Vector_5" d="M145.111 7.98792C157.782 9.93857 169.324 13.226 173.927 15.8041C176.04 16.9878 177.264 18.3549 177.264 19.9633" stroke="#161413" stroke-linecap="round" stroke-linejoin="round"/>
<path id="Vector_6" d="M14.8606 24.6976C17.5988 19.1483 19.1872 14.5671 34.2678 10.8665C49.8307 7.04782 72.2025 4.65303 97.0633 4.65303C109.383 4.65303 121.093 5.24094 131.664 6.29891" stroke="#161413" stroke-linecap="round" stroke-linejoin="round"/>
<path id="Vector_7" d="M172.153 246.314V35.6244C172.153 34.2509 172.769 32.1299 173.292 31.4249" stroke="#161413" stroke-linecap="round" stroke-linejoin="round"/>
<path id="Vector_8" d="M24.4433 246.314C24.4433 246.314 24.4433 55.0242 24.4433 50.0204C24.4433 41.0874 20.7933 35.4231 13.0746 33.9584" stroke="#161413" stroke-linecap="round" stroke-linejoin="round"/>
<path id="Vector_9" d="M37.33 265.587C26.8538 261.509 24.4554 256.341 24.4554 251.978" stroke="#161413" stroke-linecap="round" stroke-linejoin="round"/>
<path id="Vector_10" d="M172.056 251.978C172.056 260.703 162.528 272.651 98.3418 272.651C76.2435 272.651 60.6238 271.234 49.6417 269.02" stroke="#161413" stroke-linecap="round" stroke-linejoin="round"/>
<path id="Vector_11" d="M164.5 259.479C164.5 255.063 152.957 251.174 135.394 248.871" stroke="#161413" stroke-linecap="round" stroke-linejoin="round"/>
<path id="Vector_12" d="M115.78 247.126C110.21 246.831 104.349 246.672 98.2984 246.672C61.7371 246.672 32.0959 252.406 32.0959 259.478" stroke="#161413" stroke-linecap="round" stroke-linejoin="round"/>
<path id="Vector_13" d="M125.077 236.979C116.735 236.236 107.717 235.826 98.2985 235.826C66.8475 235.826 39.7913 240.351 27.7911 246.837" stroke="#161413" stroke-linecap="round" stroke-linejoin="round"/>
<path id="Vector_14" d="M168.804 246.838C164.501 244.513 158.924 242.641 151.464 240.934" stroke="#161413" stroke-linecap="round" stroke-linejoin="round"/>
<path id="isoB" d="M170.711 197H24V260.679C24 269.986 40.4016 272 100.401 272C148.566 272 174.033 268.462 170.711 262.094V197Z" fill="url(#paint1_linear_155_101)"/>
<g id="isoP">
<path id="isoPjg" d="M171.13 139.439H24.1744V251.646C24.1744 268.045 40.6032 271.594 100.702 271.594C148.947 271.594 174.457 265.36 171.13 254.139V139.439Z" fill="url(#paint2_linear_155_101)"/>
<path id="Vector_15" d="M97.7965 163.373C138.457 163.373 171.419 159.413 171.419 154.528C171.419 149.643 138.457 145.683 97.7965 145.683C57.1362 145.683 24.1744 149.643 24.1744 154.528C24.1744 159.413 57.1362 163.373 97.7965 163.373Z" fill="#80EEE1" fill-opacity="0.55"/>
</g>
<path id="Vector_16" d="M109.465 127.867C110.235 128.16 109.768 128.199 109.465 127.867V127.867Z" fill="#65F3FA"/>
<path id="Vector_17" d="M106.471 138.703C106.471 138.699 106.47 138.699 106.471 138.703V138.703Z" fill="#65F3FA"/>
<path id="Vector_18" d="M168.802 126.826C169.573 127.12 169.106 127.158 168.802 126.826V126.826Z" fill="#65F3FA"/>
<path id="Vector_19" d="M165.809 137.662C165.809 137.659 165.807 137.659 165.809 137.662V137.662Z" fill="#65F3FA"/>
<g id="Group" opacity="0.4">
<path id="Vector_20" opacity="0.4" fill-rule="evenodd" clip-rule="evenodd" d="M142.505 109.514C148.083 110.9 151.836 115.21 157.817 112.813C155.379 110.973 147.231 108.919 142.505 109.514Z" fill="#CAFCFC"/>
<path id="Vector_21" opacity="0.4" d="M154.161 115.272C154.164 115.204 154.109 115.135 154.198 115.103C154.47 115.031 154.702 115.269 154.979 115.18L154.99 115.067C155.206 115.101 155.438 115.147 155.674 115.165C156.093 115.1 156.497 114.995 156.879 114.864C156.857 114.827 156.84 114.793 156.874 114.769C157.025 114.698 157.266 114.686 157.493 114.623L157.584 114.574C157.601 114.544 157.592 114.506 157.586 114.482C157.689 114.454 157.782 114.436 157.87 114.421L158.229 114.2L158.405 114.086L158.449 114.058L158.471 114.044L158.474 114.042V114.041C158.64 113.038 158.105 116.287 158.846 111.792H158.844L158.837 111.789L158.824 111.782L158.715 111.737C158.425 111.622 158.13 111.482 157.849 111.414C157.281 111.239 156.718 111.128 156.145 111.025C155.876 111.03 155.612 111.038 155.384 110.999C155.059 110.922 154.695 110.722 154.399 110.602C154.279 110.98 153.473 110.934 153.465 111.354C153.272 111.286 152.985 111.18 152.927 111.283C152.758 111.586 152.465 111.908 151.89 111.96C151.678 111.947 151.414 111.738 151.322 111.785C151.176 111.861 151.504 112.075 151.359 112.15C152.777 112.636 154.228 112.951 155.469 113.531C155.61 113.538 155.86 113.631 156.181 113.769C156.27 113.802 156.319 113.842 156.396 113.88L156.506 113.939L156.563 113.971L156.592 113.986L156.606 113.994L156.614 113.998L156.617 114L156.619 114.001H156.621C156.527 114.571 157.437 109.042 157.051 111.383C156.856 111.462 156.649 111.565 156.436 111.631C155.587 111.952 154.671 112.012 154.302 111.968L154.235 111.974C153.832 111.949 153.342 111.924 152.945 112.002C152.758 112.062 152.554 112.137 152.344 112.195L152.512 112.437C152.331 112.384 152.152 112.334 152.057 112.382C151.605 112.431 151.748 112.678 151.822 112.981C151.9 113.125 151.677 113.256 151.829 113.416C151.69 113.379 151.625 113.353 151.49 113.31C151.434 113.413 151.932 113.372 151.776 113.519C151.655 113.446 151.485 113.465 151.346 113.422C151.338 113.579 151.809 113.612 151.741 113.745C151.647 113.763 151.414 113.443 151.32 113.613C151.301 113.646 151.441 113.692 151.511 113.715C151.056 113.648 150.74 113.732 151.07 114.048C150.926 114.003 150.763 113.862 150.604 113.84L150.603 113.843C150.675 113.872 150.787 113.949 150.855 113.974L150.606 113.883L150.619 113.97C150.673 114.011 150.729 114.049 150.795 114.073L150.627 114.012C150.645 114.082 150.671 114.153 150.703 114.221C150.857 114.401 151.004 114.621 151.119 114.66C152.026 115.008 153.078 115.241 154.159 115.271L154.161 115.272Z" fill="#D6EEF4"/>
</g>
<path id="Vector_22" d="M112.762 158.044C113.532 158.337 113.065 158.376 112.762 158.044V158.044Z" fill="#65F3FA"/>
<path id="Vector_23" d="M109.768 168.88C109.768 168.877 109.766 168.877 109.768 168.88V168.88Z" fill="#65F3FA"/>
<g id="Group_2" opacity="0.4">
<path id="Vector_24" opacity="0.4" fill-rule="evenodd" clip-rule="evenodd" d="M86.4636 140.732C92.0424 142.118 95.7957 146.428 101.777 144.03C99.3384 142.19 91.1906 140.136 86.4646 140.732H86.4636Z" fill="#CAFCFC"/>
<path id="Vector_25" opacity="0.4" d="M98.1202 146.49C98.1231 146.422 98.0681 146.353 98.1564 146.321C98.4291 146.249 98.6613 146.487 98.9384 146.398L98.949 146.285C99.1661 146.318 99.3975 146.364 99.6335 146.383C100.052 146.317 100.456 146.212 100.838 146.081C100.816 146.045 100.8 146.01 100.834 145.987C100.985 145.916 101.225 145.903 101.452 145.841L101.544 145.792C101.56 145.762 101.551 145.723 101.546 145.699C101.648 145.671 101.741 145.654 101.83 145.639L102.188 145.417L102.365 145.304L102.409 145.276L102.431 145.261L102.433 145.26L102.434 145.259C102.599 144.256 102.065 147.505 102.805 143.009H102.803L102.797 143.006L102.783 143L102.674 142.954C102.384 142.84 102.09 142.699 101.809 142.632C101.241 142.457 100.678 142.346 100.104 142.242C99.8351 142.248 99.5711 142.256 99.3437 142.216C99.018 142.139 98.6547 141.94 98.3579 141.82C98.2383 142.198 97.4327 142.152 97.424 142.571C97.232 142.504 96.9435 142.398 96.8865 142.501C96.7173 142.803 96.4236 143.126 95.8489 143.178C95.637 143.164 95.3741 142.955 95.2808 143.003C95.1356 143.079 95.4641 143.292 95.3181 143.367C96.7363 143.853 98.1877 144.169 99.4282 144.748C99.5691 144.756 99.8195 144.849 100.141 144.987C100.23 145.02 100.279 145.059 100.356 145.098L100.466 145.157L100.523 145.188L100.552 145.204L100.566 145.211L100.573 145.215L100.577 145.218L100.579 145.219H100.58C100.486 145.789 101.397 140.26 101.011 142.6C100.815 142.68 100.609 142.783 100.395 142.849C99.5457 143.17 98.6306 143.23 98.2617 143.185L98.1946 143.192C97.7907 143.167 97.3014 143.142 96.9045 143.22C96.7171 143.28 96.5134 143.355 96.3036 143.413L96.4715 143.655C96.2903 143.602 96.1109 143.552 96.0161 143.599C95.5644 143.648 95.7082 143.896 95.781 144.199C95.8597 144.342 95.6359 144.474 95.7876 144.634C95.6498 144.596 95.5844 144.57 95.4488 144.528C95.3931 144.631 95.8907 144.59 95.7353 144.737C95.6141 144.664 95.4434 144.683 95.3058 144.64C95.2981 144.797 95.7683 144.829 95.7005 144.963C95.6067 144.98 95.3737 144.661 95.2796 144.83C95.2606 144.864 95.4004 144.91 95.4704 144.932C95.0158 144.866 94.699 144.95 95.0296 145.265C94.8857 145.221 94.7222 145.08 94.5634 145.057L94.5632 145.06C94.6344 145.09 94.7465 145.167 94.8141 145.192L94.5653 145.101L94.5778 145.187C94.6318 145.229 94.6883 145.266 94.7536 145.29L94.5868 145.23C94.6045 145.3 94.6303 145.371 94.6628 145.439C94.8161 145.619 94.9638 145.839 95.0781 145.877C95.9859 146.226 97.0376 146.459 98.1189 146.489L98.1202 146.49Z" fill="#D6EEF4"/>
</g>
<path id="Vector_26" d="M80.8952 139.313C81.6653 139.607 81.1985 139.645 80.8952 139.313V139.313Z" fill="#65F3FA"/>
<path id="Vector_27" d="M77.9014 150.15C77.9014 150.146 77.8999 150.146 77.9014 150.15V150.15Z" fill="#65F3FA"/>
<path id="Vector_28" d="M145.727 142.435C146.497 142.728 146.03 142.767 145.727 142.435V142.435Z" fill="#65F3FA"/>
<path id="Ice-cold Isopropanol" d="M68.8662 183.492V197H66.0923V183.492H68.8662ZM75.4531 195.098C75.7809 195.098 76.0716 195.036 76.3252 194.913C76.5788 194.783 76.7767 194.603 76.9189 194.375C77.0674 194.139 77.1447 193.864 77.1509 193.549H79.665C79.6589 194.254 79.4702 194.882 79.0991 195.432C78.728 195.976 78.2301 196.406 77.6055 196.722C76.9808 197.031 76.2819 197.186 75.5088 197.186C74.7295 197.186 74.0492 197.056 73.4678 196.796C72.8926 196.536 72.4132 196.177 72.0298 195.72C71.6463 195.256 71.3587 194.718 71.167 194.105C70.9753 193.487 70.8794 192.825 70.8794 192.12V191.851C70.8794 191.14 70.9753 190.478 71.167 189.866C71.3587 189.247 71.6463 188.709 72.0298 188.251C72.4132 187.788 72.8926 187.426 73.4678 187.166C74.043 186.906 74.7171 186.776 75.4902 186.776C76.3128 186.776 77.0334 186.934 77.6519 187.25C78.2765 187.565 78.7651 188.016 79.1177 188.604C79.4764 189.185 79.6589 189.875 79.665 190.673H77.1509C77.1447 190.339 77.0736 190.036 76.9375 189.764C76.8076 189.492 76.6159 189.275 76.3623 189.114C76.1149 188.947 75.8088 188.864 75.4438 188.864C75.0542 188.864 74.7357 188.947 74.4883 189.114C74.2409 189.275 74.0492 189.498 73.9131 189.782C73.777 190.061 73.6812 190.379 73.6255 190.738C73.576 191.09 73.5513 191.461 73.5513 191.851V192.12C73.5513 192.51 73.576 192.884 73.6255 193.243C73.675 193.601 73.7677 193.92 73.9038 194.198C74.0461 194.477 74.2409 194.696 74.4883 194.857C74.7357 195.018 75.0573 195.098 75.4531 195.098ZM85.8345 197.186C85.0552 197.186 84.3563 197.062 83.7378 196.814C83.1193 196.561 82.5936 196.211 82.1606 195.766C81.7339 195.321 81.4061 194.804 81.1772 194.217C80.9484 193.623 80.834 192.992 80.834 192.324V191.953C80.834 191.192 80.9422 190.497 81.1587 189.866C81.3752 189.235 81.6844 188.688 82.0864 188.224C82.4946 187.76 82.9894 187.404 83.5708 187.157C84.1522 186.903 84.8078 186.776 85.5376 186.776C86.2489 186.776 86.8797 186.894 87.4302 187.129C87.9806 187.364 88.4414 187.698 88.8125 188.131C89.1898 188.564 89.4743 189.083 89.666 189.689C89.8577 190.289 89.9536 190.957 89.9536 191.693V192.807H81.9751V191.025H87.3281V190.821C87.3281 190.45 87.2601 190.119 87.124 189.829C86.9941 189.532 86.7962 189.297 86.5303 189.124C86.2643 188.95 85.9242 188.864 85.5098 188.864C85.1572 188.864 84.8542 188.941 84.6006 189.096C84.347 189.25 84.1398 189.467 83.979 189.745C83.8244 190.023 83.7069 190.351 83.6265 190.729C83.5522 191.1 83.5151 191.508 83.5151 191.953V192.324C83.5151 192.726 83.5708 193.097 83.6821 193.438C83.7996 193.778 83.9635 194.071 84.1738 194.319C84.3903 194.566 84.6501 194.758 84.9531 194.894C85.2624 195.03 85.6118 195.098 86.0015 195.098C86.4839 195.098 86.9323 195.005 87.3467 194.82C87.7673 194.628 88.1291 194.34 88.4321 193.957L89.731 195.367C89.5207 195.67 89.2331 195.961 88.8682 196.239C88.5094 196.518 88.0765 196.746 87.5693 196.926C87.0622 197.099 86.4839 197.186 85.8345 197.186ZM96.7446 190.153V192.25H91.5029V190.153H96.7446ZM103.118 195.098C103.446 195.098 103.737 195.036 103.99 194.913C104.244 194.783 104.442 194.603 104.584 194.375C104.732 194.139 104.81 193.864 104.816 193.549H107.33C107.324 194.254 107.135 194.882 106.764 195.432C106.393 195.976 105.895 196.406 105.271 196.722C104.646 197.031 103.947 197.186 103.174 197.186C102.395 197.186 101.714 197.056 101.133 196.796C100.558 196.536 100.078 196.177 99.6948 195.72C99.3114 195.256 99.0238 194.718 98.832 194.105C98.6403 193.487 98.5444 192.825 98.5444 192.12V191.851C98.5444 191.14 98.6403 190.478 98.832 189.866C99.0238 189.247 99.3114 188.709 99.6948 188.251C100.078 187.788 100.558 187.426 101.133 187.166C101.708 186.906 102.382 186.776 103.155 186.776C103.978 186.776 104.698 186.934 105.317 187.25C105.942 187.565 106.43 188.016 106.783 188.604C107.141 189.185 107.324 189.875 107.33 190.673H104.816C104.81 190.339 104.739 190.036 104.603 189.764C104.473 189.492 104.281 189.275 104.027 189.114C103.78 188.947 103.474 188.864 103.109 188.864C102.719 188.864 102.401 188.947 102.153 189.114C101.906 189.275 101.714 189.498 101.578 189.782C101.442 190.061 101.346 190.379 101.291 190.738C101.241 191.09 101.216 191.461 101.216 191.851V192.12C101.216 192.51 101.241 192.884 101.291 193.243C101.34 193.601 101.433 193.92 101.569 194.198C101.711 194.477 101.906 194.696 102.153 194.857C102.401 195.018 102.722 195.098 103.118 195.098ZM108.453 192.083V191.888C108.453 191.152 108.558 190.475 108.768 189.856C108.978 189.232 109.285 188.691 109.687 188.233C110.089 187.775 110.583 187.42 111.171 187.166C111.758 186.906 112.433 186.776 113.193 186.776C113.954 186.776 114.631 186.906 115.225 187.166C115.819 187.42 116.317 187.775 116.719 188.233C117.127 188.691 117.436 189.232 117.646 189.856C117.857 190.475 117.962 191.152 117.962 191.888V192.083C117.962 192.813 117.857 193.49 117.646 194.115C117.436 194.733 117.127 195.274 116.719 195.738C116.317 196.196 115.822 196.552 115.234 196.805C114.647 197.059 113.973 197.186 113.212 197.186C112.451 197.186 111.774 197.059 111.18 196.805C110.593 196.552 110.095 196.196 109.687 195.738C109.285 195.274 108.978 194.733 108.768 194.115C108.558 193.49 108.453 192.813 108.453 192.083ZM111.125 191.888V192.083C111.125 192.504 111.162 192.896 111.236 193.261C111.31 193.626 111.428 193.948 111.588 194.226C111.755 194.498 111.972 194.712 112.238 194.866C112.504 195.021 112.828 195.098 113.212 195.098C113.583 195.098 113.902 195.021 114.167 194.866C114.433 194.712 114.647 194.498 114.808 194.226C114.968 193.948 115.086 193.626 115.16 193.261C115.241 192.896 115.281 192.504 115.281 192.083V191.888C115.281 191.48 115.241 191.097 115.16 190.738C115.086 190.373 114.965 190.051 114.798 189.773C114.638 189.488 114.424 189.266 114.158 189.105C113.892 188.944 113.571 188.864 113.193 188.864C112.816 188.864 112.494 188.944 112.229 189.105C111.969 189.266 111.755 189.488 111.588 189.773C111.428 190.051 111.31 190.373 111.236 190.738C111.162 191.097 111.125 191.48 111.125 191.888ZM122.424 182.75V197H119.743V182.75H122.424ZM130.561 194.811V182.75H133.251V197H130.83L130.561 194.811ZM124.215 192.102V191.907C124.215 191.14 124.301 190.444 124.475 189.819C124.648 189.188 124.901 188.647 125.235 188.196C125.569 187.744 125.981 187.395 126.469 187.147C126.958 186.9 127.514 186.776 128.139 186.776C128.727 186.776 129.24 186.9 129.679 187.147C130.125 187.395 130.502 187.747 130.811 188.205C131.126 188.657 131.38 189.192 131.572 189.81C131.764 190.422 131.903 191.093 131.989 191.823V192.25C131.903 192.949 131.764 193.598 131.572 194.198C131.38 194.798 131.126 195.324 130.811 195.775C130.502 196.221 130.125 196.567 129.679 196.814C129.234 197.062 128.714 197.186 128.121 197.186C127.496 197.186 126.939 197.059 126.451 196.805C125.968 196.552 125.56 196.196 125.226 195.738C124.898 195.281 124.648 194.743 124.475 194.124C124.301 193.506 124.215 192.831 124.215 192.102ZM126.887 191.907V192.102C126.887 192.516 126.918 192.903 126.979 193.261C127.048 193.62 127.156 193.938 127.304 194.217C127.459 194.489 127.657 194.702 127.898 194.857C128.145 195.005 128.445 195.08 128.798 195.08C129.256 195.08 129.633 194.978 129.93 194.773C130.227 194.563 130.452 194.276 130.607 193.911C130.768 193.546 130.861 193.125 130.885 192.649V191.434C130.867 191.044 130.811 190.694 130.718 190.385C130.632 190.07 130.502 189.801 130.329 189.578C130.162 189.355 129.951 189.182 129.698 189.059C129.45 188.935 129.157 188.873 128.816 188.873C128.47 188.873 128.173 188.953 127.926 189.114C127.678 189.269 127.477 189.482 127.323 189.754C127.174 190.027 127.063 190.348 126.989 190.719C126.921 191.084 126.887 191.48 126.887 191.907ZM52.9648 205.492V219H50.1909V205.492H52.9648ZM60.832 216.226C60.832 216.034 60.7764 215.861 60.665 215.707C60.5537 215.552 60.3465 215.41 60.0435 215.28C59.7466 215.144 59.3167 215.02 58.7539 214.909C58.2467 214.797 57.7736 214.658 57.3345 214.491C56.9015 214.318 56.5243 214.111 56.2026 213.87C55.8872 213.628 55.6398 213.344 55.4604 213.016C55.2811 212.682 55.1914 212.302 55.1914 211.875C55.1914 211.454 55.2811 211.059 55.4604 210.688C55.646 210.316 55.9089 209.989 56.249 209.704C56.5954 209.413 57.016 209.188 57.5107 209.027C58.0117 208.86 58.5745 208.776 59.1992 208.776C60.0713 208.776 60.8197 208.916 61.4443 209.194C62.0752 209.472 62.5576 209.856 62.8916 210.344C63.2318 210.827 63.4019 211.377 63.4019 211.996H60.73C60.73 211.736 60.6743 211.504 60.563 211.3C60.4578 211.09 60.2909 210.926 60.062 210.808C59.8394 210.684 59.5487 210.623 59.1899 210.623C58.8931 210.623 58.6364 210.675 58.4199 210.78C58.2035 210.879 58.0365 211.015 57.9189 211.188C57.8076 211.355 57.752 211.541 57.752 211.745C57.752 211.9 57.7829 212.039 57.8447 212.163C57.9128 212.28 58.021 212.388 58.1694 212.487C58.3179 212.586 58.5096 212.679 58.7446 212.766C58.9858 212.846 59.2827 212.92 59.6353 212.988C60.3589 213.137 61.0052 213.332 61.5742 213.573C62.1432 213.808 62.5947 214.129 62.9287 214.538C63.2627 214.94 63.4297 215.468 63.4297 216.124C63.4297 216.569 63.3307 216.978 63.1328 217.349C62.9349 217.72 62.6504 218.044 62.2793 218.323C61.9082 218.595 61.4629 218.808 60.9434 218.963C60.43 219.111 59.8517 219.186 59.2085 219.186C58.2746 219.186 57.4829 219.019 56.8335 218.685C56.1903 218.351 55.7017 217.927 55.3677 217.414C55.0399 216.894 54.876 216.362 54.876 215.818H57.4087C57.4211 216.183 57.5138 216.477 57.687 216.699C57.8664 216.922 58.0921 217.083 58.3643 217.182C58.6426 217.281 58.9425 217.33 59.2642 217.33C59.6105 217.33 59.8981 217.284 60.127 217.191C60.3558 217.092 60.529 216.962 60.6465 216.801C60.7702 216.634 60.832 216.443 60.832 216.226ZM64.7378 214.083V213.888C64.7378 213.152 64.8429 212.475 65.0532 211.856C65.2635 211.232 65.5697 210.691 65.9717 210.233C66.3737 209.775 66.8685 209.42 67.4561 209.166C68.0436 208.906 68.7178 208.776 69.4785 208.776C70.2393 208.776 70.9165 208.906 71.5103 209.166C72.104 209.42 72.6019 209.775 73.0039 210.233C73.4121 210.691 73.7214 211.232 73.9316 211.856C74.1419 212.475 74.2471 213.152 74.2471 213.888V214.083C74.2471 214.813 74.1419 215.49 73.9316 216.115C73.7214 216.733 73.4121 217.274 73.0039 217.738C72.6019 218.196 72.1071 218.552 71.5195 218.805C70.932 219.059 70.2578 219.186 69.4971 219.186C68.7363 219.186 68.0591 219.059 67.4653 218.805C66.8778 218.552 66.3799 218.196 65.9717 217.738C65.5697 217.274 65.2635 216.733 65.0532 216.115C64.8429 215.49 64.7378 214.813 64.7378 214.083ZM67.4097 213.888V214.083C67.4097 214.504 67.4468 214.896 67.521 215.261C67.5952 215.626 67.7127 215.948 67.8735 216.226C68.0405 216.498 68.257 216.712 68.5229 216.866C68.7889 217.021 69.1136 217.098 69.4971 217.098C69.8682 217.098 70.1867 217.021 70.4526 216.866C70.7186 216.712 70.932 216.498 71.0928 216.226C71.2536 215.948 71.3711 215.626 71.4453 215.261C71.5257 214.896 71.5659 214.504 71.5659 214.083V213.888C71.5659 213.48 71.5257 213.097 71.4453 212.738C71.3711 212.373 71.2505 212.051 71.0835 211.773C70.9227 211.488 70.7093 211.266 70.4434 211.105C70.1774 210.944 69.8558 210.864 69.4785 210.864C69.1012 210.864 68.7796 210.944 68.5137 211.105C68.2539 211.266 68.0405 211.488 67.8735 211.773C67.7127 212.051 67.5952 212.373 67.521 212.738C67.4468 213.097 67.4097 213.48 67.4097 213.888ZM78.561 210.892V222.859H75.8892V208.962H78.3662L78.561 210.892ZM84.916 213.87V214.064C84.916 214.794 84.8294 215.472 84.6562 216.096C84.4893 216.721 84.2419 217.265 83.9141 217.729C83.5863 218.187 83.1781 218.545 82.6895 218.805C82.207 219.059 81.6504 219.186 81.0195 219.186C80.4072 219.186 79.8753 219.062 79.4238 218.814C78.9723 218.567 78.592 218.221 78.2827 217.775C77.9797 217.324 77.7354 216.801 77.5498 216.208C77.3643 215.614 77.222 214.977 77.123 214.296V213.786C77.222 213.056 77.3643 212.388 77.5498 211.782C77.7354 211.17 77.9797 210.641 78.2827 210.196C78.592 209.744 78.9692 209.395 79.4146 209.147C79.866 208.9 80.3949 208.776 81.001 208.776C81.638 208.776 82.1978 208.897 82.6802 209.138C83.1688 209.379 83.577 209.726 83.9048 210.177C84.2388 210.629 84.4893 211.167 84.6562 211.792C84.8294 212.416 84.916 213.109 84.916 213.87ZM82.2349 214.064V213.87C82.2349 213.443 82.1978 213.05 82.1235 212.691C82.0555 212.326 81.9442 212.008 81.7896 211.736C81.6411 211.464 81.4432 211.253 81.1958 211.105C80.9546 210.95 80.6608 210.873 80.3145 210.873C79.9495 210.873 79.6372 210.932 79.3774 211.049C79.1239 211.167 78.9167 211.337 78.7559 211.56C78.5951 211.782 78.4744 212.048 78.394 212.357C78.3136 212.667 78.2642 213.016 78.2456 213.406V214.695C78.2765 215.153 78.3631 215.564 78.5054 215.929C78.6476 216.288 78.8672 216.572 79.1641 216.783C79.4609 216.993 79.8506 217.098 80.333 217.098C80.6855 217.098 80.9824 217.021 81.2236 216.866C81.4648 216.705 81.6597 216.486 81.8081 216.208C81.9627 215.929 82.071 215.608 82.1328 215.243C82.2008 214.878 82.2349 214.485 82.2349 214.064ZM89.2485 211.151V219H86.5767V208.962H89.0908L89.2485 211.151ZM92.2729 208.897L92.2266 211.374C92.0967 211.355 91.939 211.34 91.7534 211.328C91.5741 211.309 91.4102 211.3 91.2617 211.3C90.8844 211.3 90.5566 211.349 90.2783 211.448C90.0062 211.541 89.7773 211.68 89.5918 211.866C89.4124 212.051 89.2764 212.277 89.1836 212.543C89.097 212.809 89.0475 213.112 89.0352 213.452L88.4971 213.285C88.4971 212.636 88.562 212.039 88.6919 211.495C88.8218 210.944 89.0104 210.465 89.2578 210.057C89.5114 209.648 89.8206 209.333 90.1855 209.11C90.5505 208.888 90.9679 208.776 91.438 208.776C91.5864 208.776 91.738 208.789 91.8926 208.813C92.0472 208.832 92.174 208.86 92.2729 208.897ZM92.8296 214.083V213.888C92.8296 213.152 92.9347 212.475 93.145 211.856C93.3553 211.232 93.6615 210.691 94.0635 210.233C94.4655 209.775 94.9603 209.42 95.5479 209.166C96.1354 208.906 96.8096 208.776 97.5703 208.776C98.3311 208.776 99.0083 208.906 99.6021 209.166C100.196 209.42 100.694 209.775 101.096 210.233C101.504 210.691 101.813 211.232 102.023 211.856C102.234 212.475 102.339 213.152 102.339 213.888V214.083C102.339 214.813 102.234 215.49 102.023 216.115C101.813 216.733 101.504 217.274 101.096 217.738C100.694 218.196 100.199 218.552 99.6113 218.805C99.0238 219.059 98.3496 219.186 97.5889 219.186C96.8281 219.186 96.1509 219.059 95.5571 218.805C94.9696 218.552 94.4717 218.196 94.0635 217.738C93.6615 217.274 93.3553 216.733 93.145 216.115C92.9347 215.49 92.8296 214.813 92.8296 214.083ZM95.5015 213.888V214.083C95.5015 214.504 95.5386 214.896 95.6128 215.261C95.687 215.626 95.8045 215.948 95.9653 216.226C96.1323 216.498 96.3488 216.712 96.6147 216.866C96.8807 217.021 97.2054 217.098 97.5889 217.098C97.96 217.098 98.2785 217.021 98.5444 216.866C98.8104 216.712 99.0238 216.498 99.1846 216.226C99.3454 215.948 99.4629 215.626 99.5371 215.261C99.6175 214.896 99.6577 214.504 99.6577 214.083V213.888C99.6577 213.48 99.6175 213.097 99.5371 212.738C99.4629 212.373 99.3423 212.051 99.1753 211.773C99.0145 211.488 98.8011 211.266 98.5352 211.105C98.2692 210.944 97.9476 210.864 97.5703 210.864C97.193 210.864 96.8714 210.944 96.6055 211.105C96.3457 211.266 96.1323 211.488 95.9653 211.773C95.8045 212.051 95.687 212.373 95.6128 212.738C95.5386 213.097 95.5015 213.48 95.5015 213.888ZM106.653 210.892V222.859H103.981V208.962H106.458L106.653 210.892ZM113.008 213.87V214.064C113.008 214.794 112.921 215.472 112.748 216.096C112.581 216.721 112.334 217.265 112.006 217.729C111.678 218.187 111.27 218.545 110.781 218.805C110.299 219.059 109.742 219.186 109.111 219.186C108.499 219.186 107.967 219.062 107.516 218.814C107.064 218.567 106.684 218.221 106.375 217.775C106.071 217.324 105.827 216.801 105.642 216.208C105.456 215.614 105.314 214.977 105.215 214.296V213.786C105.314 213.056 105.456 212.388 105.642 211.782C105.827 211.17 106.071 210.641 106.375 210.196C106.684 209.744 107.061 209.395 107.506 209.147C107.958 208.9 108.487 208.776 109.093 208.776C109.73 208.776 110.29 208.897 110.772 209.138C111.261 209.379 111.669 209.726 111.997 210.177C112.331 210.629 112.581 211.167 112.748 211.792C112.921 212.416 113.008 213.109 113.008 213.87ZM110.327 214.064V213.87C110.327 213.443 110.29 213.05 110.215 212.691C110.147 212.326 110.036 212.008 109.881 211.736C109.733 211.464 109.535 211.253 109.288 211.105C109.046 210.95 108.753 210.873 108.406 210.873C108.041 210.873 107.729 210.932 107.469 211.049C107.216 211.167 107.008 211.337 106.848 211.56C106.687 211.782 106.566 212.048 106.486 212.357C106.405 212.667 106.356 213.016 106.337 213.406V214.695C106.368 215.153 106.455 215.564 106.597 215.929C106.739 216.288 106.959 216.572 107.256 216.783C107.553 216.993 107.942 217.098 108.425 217.098C108.777 217.098 109.074 217.021 109.315 216.866C109.557 216.705 109.751 216.486 109.9 216.208C110.055 215.929 110.163 215.608 110.225 215.243C110.293 214.878 110.327 214.485 110.327 214.064ZM120.086 216.736V212.265C120.086 211.943 120.034 211.668 119.929 211.439C119.824 211.204 119.66 211.021 119.437 210.892C119.221 210.762 118.939 210.697 118.593 210.697C118.296 210.697 118.039 210.749 117.823 210.854C117.606 210.953 117.439 211.099 117.322 211.291C117.204 211.476 117.146 211.696 117.146 211.949H114.474C114.474 211.522 114.573 211.117 114.771 210.734C114.968 210.35 115.256 210.013 115.633 209.723C116.011 209.426 116.459 209.194 116.979 209.027C117.504 208.86 118.092 208.776 118.741 208.776C119.521 208.776 120.213 208.906 120.819 209.166C121.425 209.426 121.902 209.815 122.248 210.335C122.601 210.854 122.777 211.504 122.777 212.283V216.579C122.777 217.129 122.811 217.581 122.879 217.933C122.947 218.279 123.046 218.583 123.176 218.842V219H120.476C120.346 218.728 120.247 218.388 120.179 217.979C120.117 217.565 120.086 217.151 120.086 216.736ZM120.439 212.886L120.458 214.398H118.964C118.611 214.398 118.305 214.439 118.045 214.519C117.786 214.599 117.572 214.714 117.405 214.862C117.238 215.005 117.115 215.172 117.034 215.363C116.96 215.555 116.923 215.765 116.923 215.994C116.923 216.223 116.975 216.43 117.081 216.616C117.186 216.795 117.337 216.937 117.535 217.042C117.733 217.141 117.965 217.191 118.231 217.191C118.633 217.191 118.982 217.111 119.279 216.95C119.576 216.789 119.805 216.591 119.966 216.356C120.133 216.121 120.219 215.898 120.226 215.688L120.931 216.82C120.832 217.073 120.696 217.336 120.522 217.608C120.355 217.881 120.142 218.137 119.882 218.378C119.623 218.613 119.31 218.808 118.945 218.963C118.58 219.111 118.147 219.186 117.646 219.186C117.009 219.186 116.431 219.059 115.912 218.805C115.398 218.545 114.99 218.19 114.687 217.738C114.39 217.281 114.242 216.761 114.242 216.18C114.242 215.654 114.341 215.187 114.539 214.779C114.736 214.371 115.027 214.027 115.411 213.749C115.8 213.465 116.286 213.251 116.867 213.109C117.449 212.96 118.123 212.886 118.89 212.886H120.439ZM127.453 211.105V219H124.781V208.962H127.286L127.453 211.105ZM127.063 213.628H126.339C126.339 212.886 126.435 212.218 126.627 211.625C126.819 211.025 127.088 210.514 127.434 210.094C127.78 209.667 128.192 209.342 128.668 209.12C129.15 208.891 129.688 208.776 130.282 208.776C130.752 208.776 131.182 208.844 131.572 208.98C131.961 209.117 132.295 209.333 132.574 209.63C132.858 209.927 133.075 210.319 133.223 210.808C133.378 211.297 133.455 211.894 133.455 212.599V219H130.765V212.589C130.765 212.144 130.703 211.798 130.579 211.55C130.455 211.303 130.273 211.13 130.032 211.031C129.797 210.926 129.506 210.873 129.16 210.873C128.801 210.873 128.489 210.944 128.223 211.086C127.963 211.229 127.746 211.427 127.573 211.68C127.406 211.928 127.279 212.218 127.193 212.552C127.106 212.886 127.063 213.245 127.063 213.628ZM135.06 214.083V213.888C135.06 213.152 135.165 212.475 135.375 211.856C135.586 211.232 135.892 210.691 136.294 210.233C136.696 209.775 137.191 209.42 137.778 209.166C138.366 208.906 139.04 208.776 139.801 208.776C140.562 208.776 141.239 208.906 141.833 209.166C142.426 209.42 142.924 209.775 143.326 210.233C143.734 210.691 144.044 211.232 144.254 211.856C144.464 212.475 144.569 213.152 144.569 213.888V214.083C144.569 214.813 144.464 215.49 144.254 216.115C144.044 216.733 143.734 217.274 143.326 217.738C142.924 218.196 142.429 218.552 141.842 218.805C141.254 219.059 140.58 219.186 139.819 219.186C139.059 219.186 138.381 219.059 137.788 218.805C137.2 218.552 136.702 218.196 136.294 217.738C135.892 217.274 135.586 216.733 135.375 216.115C135.165 215.49 135.06 214.813 135.06 214.083ZM137.732 213.888V214.083C137.732 214.504 137.769 214.896 137.843 215.261C137.917 215.626 138.035 215.948 138.196 216.226C138.363 216.498 138.579 216.712 138.845 216.866C139.111 217.021 139.436 217.098 139.819 217.098C140.19 217.098 140.509 217.021 140.775 216.866C141.041 216.712 141.254 216.498 141.415 216.226C141.576 215.948 141.693 215.626 141.768 215.261C141.848 214.896 141.888 214.504 141.888 214.083V213.888C141.888 213.48 141.848 213.097 141.768 212.738C141.693 212.373 141.573 212.051 141.406 211.773C141.245 211.488 141.032 211.266 140.766 211.105C140.5 210.944 140.178 210.864 139.801 210.864C139.424 210.864 139.102 210.944 138.836 211.105C138.576 211.266 138.363 211.488 138.196 211.773C138.035 212.051 137.917 212.373 137.843 212.738C137.769 213.097 137.732 213.48 137.732 213.888ZM149.032 204.75V219H146.351V204.75H149.032Z" fill="black"/>
<path id="Vector_29" d="M142.733 153.271C142.733 153.268 142.732 153.268 142.733 153.271V153.271Z" fill="#65F3FA"/>
</g>
<defs>
<linearGradient id="paint0_linear_155_101" x1="92.3023" y1="0" x2="92.3023" y2="277.675" gradientUnits="userSpaceOnUse">
<stop stop-color="#C4C4C4" stop-opacity="0"/>
<stop offset="1" stop-color="#9DF3FF" stop-opacity="0.7"/>
</linearGradient>
<linearGradient id="paint1_linear_155_101" x1="97.4999" y1="197" x2="97.4999" y2="272" gradientUnits="userSpaceOnUse">
<stop stop-color="#ACFBF1" stop-opacity="0.39"/>
<stop offset="1" stop-color="#5AFCDF" stop-opacity="0.96"/>
</linearGradient>
<linearGradient id="paint2_linear_155_101" x1="97.7965" y1="139.439" x2="97.7965" y2="271.594" gradientUnits="userSpaceOnUse">
<stop stop-color="#ACFBF1" stop-opacity="0.39"/>
<stop offset="1" stop-color="#5AFCDF" stop-opacity="0.96"/>
</linearGradient>
</defs>
</svg>
