<svg class="potAce" viewBox="0 0 270 430" fill="none" xmlns="http://www.w3.org/2000/svg">
<g>
<g id="Group 1">
<g id="Beakers 1">
<g id="imagebot_2">
<path id="imagebot_9" fill-rule="evenodd" clip-rule="evenodd" d="M85.3475 2.19775L98.9575 18.7901V123.907C89.8809 140.507 36.9166 264.107 8.17109 334.196C-0.906021 356.324 -0.881426 383.996 12.7351 406.125C21.8118 422.724 37.6635 428.284 53.5649 428.284H216.975C232.871 428.284 248.717 422.724 257.798 406.125C271.415 383.996 271.44 356.324 262.357 334.196C236.65 264.109 206.382 193.992 180.66 123.907V18.7932L193.828 2.73652L194.277 2.20026H85.3526L85.3475 2.19775Z" fill="#D7E9FC"/>
<path id="imagebot_8" fill-rule="evenodd" clip-rule="evenodd" d="M84.7648 0.0100921C84.1806 0.151748 83.7093 0.677176 83.5415 1.37394C83.3725 2.07075 83.5364 2.82376 83.9641 3.32864L97.0938 19.3354V123.136C94.6627 127.647 89.8898 137.973 83.3238 152.708C76.627 167.74 68.2535 186.932 59.2664 207.81C41.2924 249.553 20.8485 298.011 6.46741 333.07C-2.83678 355.761 -2.79427 384.213 11.1512 406.966C11.1678 406.997 11.1745 407.03 11.1913 407.06C20.6628 424.3 37.124 430 53.3021 430H216.697C232.877 430 249.337 424.3 258.816 407.06C258.828 407.03 258.828 406.997 258.854 406.966C272.79 384.213 272.841 355.761 263.528 333.07C237.821 263.014 207.667 193.054 181.997 123.139V19.3354L194.678 3.86506L195.127 3.32833C195.575 2.7705 195.703 1.94066 195.46 1.21856C195.216 0.496369 194.64 0.0209298 193.999 0.00977973H85.0834C84.9771 -0.00325991 84.8695 -0.00325991 84.7632 0.00977973L84.7648 0.0100921ZM88.9675 3.91417H190.122L179.272 17.1385C178.964 17.5117 178.785 18.0224 178.798 18.5549V123.672C178.785 123.94 178.836 124.206 178.913 124.452C204.66 194.615 234.929 264.732 260.612 334.742L260.65 334.79C269.489 356.34 269.489 383.215 256.257 404.72C256.244 404.734 256.231 404.751 256.206 404.765C247.52 420.663 232.302 426.098 216.701 426.098H53.3037C37.7069 426.098 22.4843 420.663 13.7931 404.765C13.7803 404.751 13.7662 404.734 13.7534 404.72C0.520028 383.215 0.511062 356.34 9.34979 334.79C23.7155 299.762 44.1452 251.382 62.1091 209.656C71.091 188.792 79.4415 169.568 86.1267 154.564C92.8118 139.561 97.8575 128.695 100.017 124.748C100.194 124.431 100.291 124.057 100.296 123.673V18.5564C100.301 18.0239 100.127 17.5133 99.8161 17.14L88.9679 3.91574L88.9675 3.91417Z" fill="#9FABB9"/>
<path id="pehlePot" fill-rule="evenodd" clip-rule="evenodd" d="M68.898 251.637C51.1578 279.806 47.6764 329.669 29.0483 361.737C21.0819 375.441 21.1102 392.555 33.0586 406.259C41.0243 416.546 54.945 419.986 68.898 419.986H212.257C226.208 419.986 240.136 416.546 248.101 406.259C260.049 392.555 260.073 375.441 252.108 361.737C233.034 325.044 232.219 288.329 212.257 251.637H95.4808H68.898Z" fill="#1FFBE0" fill-opacity="0.33"/>
<path id="baadmePot" fill-rule="evenodd" clip-rule="evenodd" d="M30.5606 354.888C16.8732 370.667 25.2627 346.13 30.5606 359.734C22.962 367.982 29.716 387.795 39.0235 394.967C45.5934 400.705 51.3696 412.877 64.4123 412.518L132.116 418.24L190.886 412.518C203.915 411.084 222.157 406.216 229.439 401.406C239.294 393.875 237.338 401.401 238.843 394.967C238.843 375.267 243.544 371.723 238.843 354.888H94.9729H30.5606Z" fill="#5AFCE8" fill-opacity="0.51"/>
<path id="imagebot_5" fill-rule="evenodd" clip-rule="evenodd" d="M164.387 18.0708V125.433C193.272 199.909 222.298 274.352 251.106 348.857C259.164 372.125 249.122 399.234 231.688 411.149C216.137 423.877 197 418.958 179.502 419.833H142.342C164.515 416.35 187.136 415.695 209.015 410.321C223.374 404.856 240.834 395.112 241.717 373.952C242.614 351.37 230.996 332.256 224.81 311.846L157.982 125.433V18.0692L169.549 3.88151H176.005L164.387 18.0692V18.0708Z" fill="white"/>
<path id="imagebot_4" fill-rule="evenodd" clip-rule="evenodd" d="M106.327 18.0708V125.433C77.4366 199.909 42.6783 267.59 13.8738 342.111C5.81454 365.363 12.2727 396.768 28.2843 410.432C44.2961 420.192 39.4926 418.24 57.5898 420.801C69.9737 420.801 115.983 419.833 128.367 419.833C106.195 416.35 83.5709 415.695 61.6964 410.321C47.3293 404.856 29.8765 395.112 28.9991 373.952C28.0948 351.37 39.7155 332.256 45.8972 311.846C68.1754 249.707 90.4534 187.571 112.732 125.433V18.0692L101.154 3.88151H94.7086L106.327 18.0692V18.0708Z" fill="black" fill-opacity="0.17625"/>
</g>
</g>
<path id="Potassium Acetate" d="M72.0576 287.384H65.8984V283.499H72.0576C73.0094 283.499 73.7842 283.344 74.3818 283.034C74.9795 282.713 75.4167 282.271 75.6934 281.706C75.9701 281.142 76.1084 280.505 76.1084 279.797C76.1084 279.077 75.9701 278.408 75.6934 277.788C75.4167 277.168 74.9795 276.67 74.3818 276.294C73.7842 275.918 73.0094 275.729 72.0576 275.729H67.625V296H62.6445V271.828H72.0576C73.9502 271.828 75.5716 272.171 76.9219 272.857C78.2832 273.533 79.3236 274.468 80.043 275.663C80.7624 276.858 81.1221 278.225 81.1221 279.764C81.1221 281.324 80.7624 282.674 80.043 283.814C79.3236 284.954 78.2832 285.834 76.9219 286.454C75.5716 287.074 73.9502 287.384 72.0576 287.384ZM83.2637 287.201V286.853C83.2637 285.535 83.4518 284.324 83.8281 283.217C84.2044 282.099 84.7523 281.131 85.4717 280.312C86.1911 279.493 87.0765 278.856 88.1279 278.402C89.1794 277.938 90.3857 277.705 91.7471 277.705C93.1084 277.705 94.3203 277.938 95.3828 278.402C96.4453 278.856 97.3363 279.493 98.0557 280.312C98.7861 281.131 99.3395 282.099 99.7158 283.217C100.092 284.324 100.28 285.535 100.28 286.853V287.201C100.28 288.507 100.092 289.719 99.7158 290.837C99.3395 291.944 98.7861 292.912 98.0557 293.742C97.3363 294.561 96.4508 295.198 95.3994 295.651C94.348 296.105 93.1416 296.332 91.7803 296.332C90.4189 296.332 89.207 296.105 88.1445 295.651C87.0931 295.198 86.2021 294.561 85.4717 293.742C84.7523 292.912 84.2044 291.944 83.8281 290.837C83.4518 289.719 83.2637 288.507 83.2637 287.201ZM88.0449 286.853V287.201C88.0449 287.954 88.1113 288.657 88.2441 289.31C88.377 289.963 88.5872 290.538 88.875 291.036C89.1738 291.523 89.5612 291.905 90.0371 292.182C90.513 292.458 91.0941 292.597 91.7803 292.597C92.4443 292.597 93.0143 292.458 93.4902 292.182C93.9661 291.905 94.348 291.523 94.6357 291.036C94.9235 290.538 95.1338 289.963 95.2666 289.31C95.4105 288.657 95.4824 287.954 95.4824 287.201V286.853C95.4824 286.122 95.4105 285.436 95.2666 284.794C95.1338 284.141 94.918 283.565 94.6191 283.067C94.3314 282.558 93.9495 282.16 93.4736 281.872C92.9977 281.584 92.4222 281.44 91.7471 281.44C91.0719 281.44 90.4964 281.584 90.0205 281.872C89.5557 282.16 89.1738 282.558 88.875 283.067C88.5872 283.565 88.377 284.141 88.2441 284.794C88.1113 285.436 88.0449 286.122 88.0449 286.853ZM112.018 278.037V281.424H101.559V278.037H112.018ZM104.148 273.604H108.93V290.588C108.93 291.108 108.996 291.507 109.129 291.783C109.273 292.06 109.483 292.254 109.76 292.364C110.036 292.464 110.385 292.514 110.806 292.514C111.104 292.514 111.37 292.503 111.603 292.48C111.846 292.447 112.051 292.414 112.217 292.381L112.233 295.9C111.824 296.033 111.381 296.138 110.905 296.216C110.429 296.293 109.904 296.332 109.328 296.332C108.277 296.332 107.358 296.16 106.572 295.817C105.798 295.463 105.2 294.899 104.779 294.124C104.359 293.349 104.148 292.331 104.148 291.069V273.604ZM124.436 291.949V283.947C124.436 283.372 124.341 282.879 124.153 282.47C123.965 282.049 123.672 281.723 123.273 281.49C122.886 281.258 122.382 281.142 121.763 281.142C121.231 281.142 120.772 281.236 120.385 281.424C119.997 281.601 119.699 281.861 119.488 282.204C119.278 282.536 119.173 282.929 119.173 283.383H114.392C114.392 282.619 114.569 281.894 114.923 281.208C115.277 280.522 115.792 279.919 116.467 279.398C117.142 278.867 117.944 278.452 118.874 278.153C119.815 277.854 120.866 277.705 122.028 277.705C123.423 277.705 124.662 277.938 125.747 278.402C126.832 278.867 127.684 279.564 128.304 280.494C128.935 281.424 129.25 282.586 129.25 283.98V291.667C129.25 292.652 129.311 293.46 129.433 294.091C129.554 294.711 129.731 295.253 129.964 295.718V296H125.133C124.9 295.513 124.723 294.904 124.602 294.174C124.491 293.432 124.436 292.691 124.436 291.949ZM125.066 285.06L125.1 287.766H122.427C121.796 287.766 121.248 287.838 120.783 287.981C120.318 288.125 119.937 288.33 119.638 288.596C119.339 288.85 119.118 289.149 118.974 289.492C118.841 289.835 118.774 290.212 118.774 290.621C118.774 291.031 118.868 291.401 119.057 291.733C119.245 292.054 119.516 292.309 119.87 292.497C120.224 292.674 120.639 292.763 121.115 292.763C121.835 292.763 122.46 292.619 122.991 292.331C123.522 292.043 123.932 291.689 124.22 291.269C124.519 290.848 124.674 290.45 124.685 290.073L125.946 292.099C125.769 292.552 125.526 293.023 125.216 293.51C124.917 293.997 124.535 294.456 124.07 294.888C123.605 295.308 123.047 295.657 122.394 295.934C121.741 296.199 120.966 296.332 120.069 296.332C118.929 296.332 117.895 296.105 116.965 295.651C116.046 295.187 115.316 294.55 114.773 293.742C114.242 292.923 113.977 291.993 113.977 290.953C113.977 290.012 114.154 289.177 114.508 288.446C114.862 287.716 115.382 287.102 116.068 286.604C116.766 286.094 117.634 285.713 118.675 285.458C119.715 285.192 120.922 285.06 122.294 285.06H125.066ZM142.647 291.036C142.647 290.693 142.548 290.383 142.349 290.106C142.149 289.83 141.779 289.575 141.236 289.343C140.705 289.099 139.936 288.878 138.929 288.679C138.021 288.479 137.174 288.23 136.389 287.932C135.614 287.622 134.939 287.251 134.363 286.819C133.799 286.388 133.356 285.879 133.035 285.292C132.714 284.694 132.554 284.014 132.554 283.25C132.554 282.497 132.714 281.789 133.035 281.125C133.367 280.461 133.838 279.874 134.446 279.365C135.066 278.845 135.819 278.441 136.704 278.153C137.601 277.854 138.608 277.705 139.726 277.705C141.286 277.705 142.625 277.954 143.743 278.452C144.872 278.95 145.735 279.636 146.333 280.511C146.942 281.374 147.246 282.359 147.246 283.466H142.465C142.465 283.001 142.365 282.586 142.166 282.221C141.978 281.844 141.679 281.551 141.27 281.341C140.871 281.119 140.351 281.009 139.709 281.009C139.178 281.009 138.718 281.103 138.331 281.291C137.944 281.468 137.645 281.712 137.435 282.021C137.235 282.32 137.136 282.652 137.136 283.018C137.136 283.294 137.191 283.543 137.302 283.765C137.424 283.975 137.617 284.169 137.883 284.346C138.148 284.523 138.492 284.689 138.912 284.844C139.344 284.988 139.875 285.12 140.506 285.242C141.801 285.508 142.957 285.856 143.976 286.288C144.994 286.709 145.802 287.284 146.399 288.015C146.997 288.734 147.296 289.68 147.296 290.854C147.296 291.65 147.119 292.381 146.765 293.045C146.41 293.709 145.901 294.29 145.237 294.788C144.573 295.275 143.776 295.657 142.847 295.934C141.928 296.199 140.893 296.332 139.742 296.332C138.071 296.332 136.654 296.033 135.492 295.436C134.341 294.838 133.467 294.08 132.869 293.161C132.283 292.231 131.989 291.28 131.989 290.306H136.521C136.544 290.959 136.71 291.484 137.02 291.883C137.34 292.281 137.744 292.569 138.231 292.746C138.729 292.923 139.266 293.012 139.842 293.012C140.462 293.012 140.976 292.929 141.386 292.763C141.795 292.586 142.105 292.353 142.315 292.065C142.537 291.767 142.647 291.424 142.647 291.036ZM160.112 291.036C160.112 290.693 160.013 290.383 159.813 290.106C159.614 289.83 159.243 289.575 158.701 289.343C158.17 289.099 157.401 288.878 156.394 288.679C155.486 288.479 154.639 288.23 153.854 287.932C153.079 287.622 152.404 287.251 151.828 286.819C151.264 286.388 150.821 285.879 150.5 285.292C150.179 284.694 150.019 284.014 150.019 283.25C150.019 282.497 150.179 281.789 150.5 281.125C150.832 280.461 151.302 279.874 151.911 279.365C152.531 278.845 153.284 278.441 154.169 278.153C155.065 277.854 156.073 277.705 157.19 277.705C158.751 277.705 160.09 277.954 161.208 278.452C162.337 278.95 163.2 279.636 163.798 280.511C164.407 281.374 164.711 282.359 164.711 283.466H159.93C159.93 283.001 159.83 282.586 159.631 282.221C159.443 281.844 159.144 281.551 158.734 281.341C158.336 281.119 157.816 281.009 157.174 281.009C156.643 281.009 156.183 281.103 155.796 281.291C155.409 281.468 155.11 281.712 154.899 282.021C154.7 282.32 154.601 282.652 154.601 283.018C154.601 283.294 154.656 283.543 154.767 283.765C154.888 283.975 155.082 284.169 155.348 284.346C155.613 284.523 155.956 284.689 156.377 284.844C156.809 284.988 157.34 285.12 157.971 285.242C159.266 285.508 160.422 285.856 161.44 286.288C162.459 286.709 163.267 287.284 163.864 288.015C164.462 288.734 164.761 289.68 164.761 290.854C164.761 291.65 164.584 292.381 164.229 293.045C163.875 293.709 163.366 294.29 162.702 294.788C162.038 295.275 161.241 295.657 160.312 295.934C159.393 296.199 158.358 296.332 157.207 296.332C155.536 296.332 154.119 296.033 152.957 295.436C151.806 294.838 150.932 294.08 150.334 293.161C149.747 292.231 149.454 291.28 149.454 290.306H153.986C154.008 290.959 154.174 291.484 154.484 291.883C154.805 292.281 155.209 292.569 155.696 292.746C156.194 292.923 156.731 293.012 157.307 293.012C157.926 293.012 158.441 292.929 158.851 292.763C159.26 292.586 159.57 292.353 159.78 292.065C160.002 291.767 160.112 291.424 160.112 291.036ZM172.912 278.037V296H168.114V278.037H172.912ZM167.815 273.355C167.815 272.658 168.059 272.083 168.546 271.629C169.033 271.175 169.686 270.948 170.505 270.948C171.313 270.948 171.96 271.175 172.447 271.629C172.945 272.083 173.194 272.658 173.194 273.355C173.194 274.053 172.945 274.628 172.447 275.082C171.96 275.536 171.313 275.763 170.505 275.763C169.686 275.763 169.033 275.536 168.546 275.082C168.059 274.628 167.815 274.053 167.815 273.355ZM187.488 291.7V278.037H192.27V296H187.771L187.488 291.7ZM188.02 288.015L189.431 287.981C189.431 289.177 189.292 290.289 189.016 291.318C188.739 292.337 188.324 293.222 187.771 293.975C187.217 294.716 186.52 295.297 185.679 295.718C184.838 296.127 183.847 296.332 182.707 296.332C181.833 296.332 181.025 296.21 180.283 295.967C179.553 295.712 178.922 295.319 178.391 294.788C177.87 294.246 177.461 293.554 177.162 292.713C176.874 291.861 176.73 290.837 176.73 289.642V278.037H181.512V289.675C181.512 290.206 181.573 290.654 181.694 291.02C181.827 291.385 182.01 291.684 182.242 291.916C182.475 292.148 182.746 292.314 183.056 292.414C183.377 292.514 183.731 292.563 184.118 292.563C185.103 292.563 185.878 292.364 186.442 291.966C187.018 291.567 187.422 291.025 187.654 290.339C187.898 289.642 188.02 288.867 188.02 288.015ZM200.703 281.756V296H195.905V278.037H200.404L200.703 281.756ZM200.039 286.388H198.711C198.711 285.137 198.86 283.986 199.159 282.935C199.469 281.872 199.917 280.953 200.504 280.179C201.102 279.393 201.838 278.784 202.712 278.353C203.586 277.921 204.599 277.705 205.75 277.705C206.547 277.705 207.277 277.827 207.941 278.07C208.605 278.303 209.175 278.674 209.651 279.183C210.138 279.681 210.515 280.334 210.78 281.142C211.046 281.938 211.179 282.896 211.179 284.014V296H206.397V284.545C206.397 283.726 206.287 283.095 206.065 282.652C205.844 282.21 205.529 281.9 205.119 281.723C204.721 281.546 204.239 281.457 203.675 281.457C203.055 281.457 202.513 281.584 202.048 281.839C201.594 282.093 201.218 282.448 200.919 282.901C200.62 283.344 200.399 283.864 200.255 284.462C200.111 285.06 200.039 285.701 200.039 286.388ZM210.73 285.84L209.021 286.056C209.021 284.882 209.164 283.792 209.452 282.785C209.751 281.778 210.188 280.893 210.764 280.129C211.35 279.365 212.075 278.773 212.938 278.353C213.802 277.921 214.798 277.705 215.927 277.705C216.79 277.705 217.576 277.832 218.284 278.087C218.993 278.33 219.596 278.723 220.094 279.266C220.603 279.797 220.99 280.494 221.256 281.357C221.533 282.221 221.671 283.278 221.671 284.528V296H216.873V284.528C216.873 283.698 216.762 283.067 216.541 282.636C216.331 282.193 216.021 281.889 215.611 281.723C215.213 281.546 214.737 281.457 214.184 281.457C213.608 281.457 213.104 281.573 212.673 281.806C212.241 282.027 211.882 282.337 211.594 282.735C211.306 283.134 211.09 283.599 210.946 284.13C210.802 284.65 210.73 285.22 210.73 285.84ZM94.7188 315.962L88.1445 336H82.8486L91.8301 311.828H95.2002L94.7188 315.962ZM100.181 336L93.5898 315.962L93.0586 311.828H96.4619L105.493 336H100.181ZM99.8818 327.002V330.903H87.1152V327.002H99.8818ZM114.856 332.597C115.443 332.597 115.963 332.486 116.417 332.265C116.871 332.032 117.225 331.711 117.479 331.302C117.745 330.881 117.883 330.389 117.895 329.824H122.394C122.382 331.086 122.045 332.209 121.381 333.194C120.717 334.168 119.826 334.938 118.708 335.502C117.59 336.055 116.34 336.332 114.956 336.332C113.562 336.332 112.344 336.1 111.304 335.635C110.274 335.17 109.417 334.528 108.73 333.709C108.044 332.879 107.53 331.916 107.187 330.82C106.843 329.714 106.672 328.529 106.672 327.268V326.786C106.672 325.513 106.843 324.329 107.187 323.233C107.53 322.127 108.044 321.164 108.73 320.345C109.417 319.515 110.274 318.867 111.304 318.402C112.333 317.938 113.539 317.705 114.923 317.705C116.395 317.705 117.684 317.987 118.791 318.552C119.909 319.116 120.783 319.924 121.414 320.976C122.056 322.016 122.382 323.25 122.394 324.678H117.895C117.883 324.08 117.756 323.538 117.513 323.051C117.28 322.564 116.937 322.176 116.483 321.889C116.041 321.59 115.493 321.44 114.84 321.44C114.143 321.44 113.573 321.59 113.13 321.889C112.687 322.176 112.344 322.575 112.101 323.084C111.857 323.582 111.686 324.152 111.586 324.794C111.497 325.425 111.453 326.089 111.453 326.786V327.268C111.453 327.965 111.497 328.634 111.586 329.276C111.674 329.918 111.84 330.488 112.084 330.986C112.339 331.484 112.687 331.877 113.13 332.165C113.573 332.453 114.148 332.597 114.856 332.597ZM133.434 336.332C132.039 336.332 130.788 336.111 129.682 335.668C128.575 335.214 127.634 334.589 126.859 333.792C126.096 332.995 125.509 332.071 125.1 331.02C124.69 329.957 124.485 328.828 124.485 327.633V326.969C124.485 325.607 124.679 324.362 125.066 323.233C125.454 322.104 126.007 321.125 126.727 320.295C127.457 319.465 128.342 318.828 129.383 318.386C130.423 317.932 131.596 317.705 132.902 317.705C134.175 317.705 135.304 317.915 136.289 318.336C137.274 318.757 138.099 319.354 138.763 320.129C139.438 320.904 139.947 321.833 140.29 322.918C140.633 323.992 140.805 325.187 140.805 326.504V328.496H126.527V325.309H136.106V324.943C136.106 324.279 135.985 323.687 135.741 323.167C135.509 322.636 135.155 322.215 134.679 321.905C134.203 321.595 133.594 321.44 132.853 321.44C132.222 321.44 131.679 321.579 131.226 321.855C130.772 322.132 130.401 322.52 130.113 323.018C129.837 323.516 129.626 324.102 129.482 324.777C129.35 325.441 129.283 326.172 129.283 326.969V327.633C129.283 328.352 129.383 329.016 129.582 329.625C129.792 330.234 130.086 330.759 130.462 331.202C130.849 331.645 131.314 331.988 131.856 332.231C132.41 332.475 133.035 332.597 133.732 332.597C134.596 332.597 135.398 332.431 136.14 332.099C136.892 331.756 137.54 331.241 138.082 330.555L140.406 333.078C140.03 333.62 139.515 334.141 138.862 334.639C138.22 335.137 137.446 335.546 136.538 335.867C135.631 336.177 134.596 336.332 133.434 336.332ZM152.326 318.037V321.424H141.867V318.037H152.326ZM144.457 313.604H149.238V330.588C149.238 331.108 149.305 331.507 149.438 331.783C149.581 332.06 149.792 332.254 150.068 332.364C150.345 332.464 150.694 332.514 151.114 332.514C151.413 332.514 151.679 332.503 151.911 332.48C152.155 332.447 152.359 332.414 152.525 332.381L152.542 335.9C152.132 336.033 151.69 336.138 151.214 336.216C150.738 336.293 150.212 336.332 149.637 336.332C148.585 336.332 147.667 336.16 146.881 335.817C146.106 335.463 145.508 334.899 145.088 334.124C144.667 333.349 144.457 332.331 144.457 331.069V313.604ZM164.744 331.949V323.947C164.744 323.372 164.65 322.879 164.462 322.47C164.274 322.049 163.98 321.723 163.582 321.49C163.195 321.258 162.691 321.142 162.071 321.142C161.54 321.142 161.081 321.236 160.693 321.424C160.306 321.601 160.007 321.861 159.797 322.204C159.587 322.536 159.481 322.929 159.481 323.383H154.7C154.7 322.619 154.877 321.894 155.231 321.208C155.586 320.522 156.1 319.919 156.775 319.398C157.451 318.867 158.253 318.452 159.183 318.153C160.123 317.854 161.175 317.705 162.337 317.705C163.731 317.705 164.971 317.938 166.056 318.402C167.14 318.867 167.993 319.564 168.612 320.494C169.243 321.424 169.559 322.586 169.559 323.98V331.667C169.559 332.652 169.619 333.46 169.741 334.091C169.863 334.711 170.04 335.253 170.272 335.718V336H165.441C165.209 335.513 165.032 334.904 164.91 334.174C164.799 333.432 164.744 332.691 164.744 331.949ZM165.375 325.06L165.408 327.766H162.735C162.104 327.766 161.557 327.838 161.092 327.981C160.627 328.125 160.245 328.33 159.946 328.596C159.647 328.85 159.426 329.149 159.282 329.492C159.149 329.835 159.083 330.212 159.083 330.621C159.083 331.031 159.177 331.401 159.365 331.733C159.553 332.054 159.825 332.309 160.179 332.497C160.533 332.674 160.948 332.763 161.424 332.763C162.143 332.763 162.769 332.619 163.3 332.331C163.831 332.043 164.241 331.689 164.528 331.269C164.827 330.848 164.982 330.45 164.993 330.073L166.255 332.099C166.078 332.552 165.834 333.023 165.524 333.51C165.226 333.997 164.844 334.456 164.379 334.888C163.914 335.308 163.355 335.657 162.702 335.934C162.049 336.199 161.274 336.332 160.378 336.332C159.238 336.332 158.203 336.105 157.273 335.651C156.355 335.187 155.624 334.55 155.082 333.742C154.551 332.923 154.285 331.993 154.285 330.953C154.285 330.012 154.462 329.177 154.816 328.446C155.171 327.716 155.691 327.102 156.377 326.604C157.074 326.094 157.943 325.713 158.983 325.458C160.024 325.192 161.23 325.06 162.603 325.06H165.375ZM182.043 318.037V321.424H171.584V318.037H182.043ZM174.174 313.604H178.955V330.588C178.955 331.108 179.021 331.507 179.154 331.783C179.298 332.06 179.508 332.254 179.785 332.364C180.062 332.464 180.41 332.514 180.831 332.514C181.13 332.514 181.396 332.503 181.628 332.48C181.871 332.447 182.076 332.414 182.242 332.381L182.259 335.9C181.849 336.033 181.407 336.138 180.931 336.216C180.455 336.293 179.929 336.332 179.354 336.332C178.302 336.332 177.383 336.16 176.598 335.817C175.823 335.463 175.225 334.899 174.805 334.124C174.384 333.349 174.174 332.331 174.174 331.069V313.604ZM193.033 336.332C191.639 336.332 190.388 336.111 189.281 335.668C188.174 335.214 187.234 334.589 186.459 333.792C185.695 332.995 185.109 332.071 184.699 331.02C184.29 329.957 184.085 328.828 184.085 327.633V326.969C184.085 325.607 184.279 324.362 184.666 323.233C185.053 322.104 185.607 321.125 186.326 320.295C187.057 319.465 187.942 318.828 188.982 318.386C190.023 317.932 191.196 317.705 192.502 317.705C193.775 317.705 194.904 317.915 195.889 318.336C196.874 318.757 197.698 319.354 198.362 320.129C199.037 320.904 199.547 321.833 199.89 322.918C200.233 323.992 200.404 325.187 200.404 326.504V328.496H186.127V325.309H195.706V324.943C195.706 324.279 195.584 323.687 195.341 323.167C195.108 322.636 194.754 322.215 194.278 321.905C193.802 321.595 193.194 321.44 192.452 321.44C191.821 321.44 191.279 321.579 190.825 321.855C190.371 322.132 190.001 322.52 189.713 323.018C189.436 323.516 189.226 324.102 189.082 324.777C188.949 325.441 188.883 326.172 188.883 326.969V327.633C188.883 328.352 188.982 329.016 189.182 329.625C189.392 330.234 189.685 330.759 190.062 331.202C190.449 331.645 190.914 331.988 191.456 332.231C192.009 332.475 192.635 332.597 193.332 332.597C194.195 332.597 194.998 332.431 195.739 332.099C196.492 331.756 197.139 331.241 197.682 330.555L200.006 333.078C199.63 333.62 199.115 334.141 198.462 334.639C197.82 335.137 197.045 335.546 196.138 335.867C195.23 336.177 194.195 336.332 193.033 336.332Z" fill="black"/>
</g>
</g>
</svg>
